0, 0, Header, 1, 5, 480
1, 0, Start_track
1, 0, Time_signature, 2, 1, 24, 8
1, 0, Key_signature, 0, "major"
1, 0, Tempo, 750002
1, 0, Control_c, 0, 121, 0
1, 0, Program_c, 0, 52
1, 0, Control_c, 0, 7, 109
1, 0, Control_c, 0, 10, 63
1, 0, Control_c, 0, 91, 0
1, 0, Control_c, 0, 93, 0
1, 0, MIDI_port, 0
1, 960, Note_on_c, 0, 69, 80
1, 2879, Note_on_c, 0, 69, 0
1, 2880, Note_on_c, 0, 67, 80
1, 3839, Note_on_c, 0, 67, 0
1, 3840, Note_on_c, 0, 64, 80
1, 4319, Note_on_c, 0, 64, 0
1, 4320, Note_on_c, 0, 67, 80
1, 5039, Note_on_c, 0, 67, 0
1, 5040, Note_on_c, 0, 67, 80
1, 5279, Note_on_c, 0, 67, 0
1, 5280, Note_on_c, 0, 65, 80
1, 6239, Note_on_c, 0, 65, 0
1, 6240, Note_on_c, 0, 64, 80
1, 6719, Note_on_c, 0, 64, 0
1, 6720, Note_on_c, 0, 65, 80
1, 7199, Note_on_c, 0, 65, 0
1, 7200, Note_on_c, 0, 64, 80
1, 7439, Note_on_c, 0, 64, 0
1, 7440, Note_on_c, 0, 62, 80
1, 7679, Note_on_c, 0, 62, 0
1, 7680, Note_on_c, 0, 65, 80
1, 7919, Note_on_c, 0, 65, 0
1, 7920, Note_on_c, 0, 67, 80
1, 8159, Note_on_c, 0, 67, 0
1, 8160, Note_on_c, 0, 69, 80
1, 8399, Note_on_c, 0, 69, 0
1, 8400, Note_on_c, 0, 71, 80
1, 8639, Note_on_c, 0, 71, 0
1, 8640, Note_on_c, 0, 72, 80
1, 9599, Note_on_c, 0, 72, 0
1, 9600, Note_on_c, 0, 69, 80
1, 11519, Note_on_c, 0, 69, 0
1, 12000, Note_on_c, 0, 72, 80
1, 12479, Note_on_c, 0, 72, 0
1, 12480, Note_on_c, 0, 74, 80
1, 13199, Note_on_c, 0, 74, 0
1, 13200, Note_on_c, 0, 74, 80
1, 13439, Note_on_c, 0, 74, 0
1, 13440, Note_on_c, 0, 72, 80
1, 14159, Note_on_c, 0, 72, 0
1, 14160, Note_on_c, 0, 65, 80
1, 14399, Note_on_c, 0, 65, 0
1, 14400, Note_on_c, 0, 67, 80
1, 15359, Note_on_c, 0, 67, 0
1, 15360, Note_on_c, 0, 60, 80
1, 16319, Note_on_c, 0, 60, 0
1, 16320, Note_on_c, 0, 72, 80
1, 17279, Note_on_c, 0, 72, 0
1, 17280, Note_on_c, 0, 70, 80
1, 18239, Note_on_c, 0, 70, 0
1, 18240, Note_on_c, 0, 69, 80
1, 20159, Note_on_c, 0, 69, 0
1, 20160, Note_on_c, 0, 72, 80
1, 20879, Note_on_c, 0, 72, 0
1, 20880, Note_on_c, 0, 72, 80
1, 21119, Note_on_c, 0, 72, 0
1, 21120, Note_on_c, 0, 69, 80
1, 21599, Note_on_c, 0, 69, 0
1, 21600, Note_on_c, 0, 70, 80
1, 22079, Note_on_c, 0, 70, 0
1, 22080, Note_on_c, 0, 69, 80
1, 22799, Note_on_c, 0, 69, 0
1, 22800, Note_on_c, 0, 67, 80
1, 23039, Note_on_c, 0, 67, 0
1, 23040, Note_on_c, 0, 65, 80
1, 23519, Note_on_c, 0, 65, 0
1, 23520, Note_on_c, 0, 64, 80
1, 23759, Note_on_c, 0, 64, 0
1, 23760, Note_on_c, 0, 62, 80
1, 23999, Note_on_c, 0, 62, 0
1, 24000, Note_on_c, 0, 69, 80
1, 24959, Note_on_c, 0, 69, 0
1, 24960, Note_on_c, 0, 67, 80
1, 25919, Note_on_c, 0, 67, 0
1, 26400, Note_on_c, 0, 74, 80
1, 26879, Note_on_c, 0, 74, 0
1, 26880, Note_on_c, 0, 67, 80
1, 27359, Note_on_c, 0, 67, 0
1, 27360, Note_on_c, 0, 72, 80
1, 28319, Note_on_c, 0, 72, 0
1, 28320, Note_on_c, 0, 69, 80
1, 29279, Note_on_c, 0, 69, 0
1, 29280, Note_on_c, 0, 67, 80
1, 30239, Note_on_c, 0, 67, 0
1, 30240, Note_on_c, 0, 66, 80
1, 30719, Note_on_c, 0, 66, 0
1, 30720, Note_on_c, 0, 67, 80
1, 32639, Note_on_c, 0, 67, 0
1, 32640, Note_on_c, 0, 74, 80
1, 33599, Note_on_c, 0, 74, 0
1, 33600, Note_on_c, 0, 76, 80
1, 34079, Note_on_c, 0, 76, 0
1, 34080, Note_on_c, 0, 69, 80
1, 34559, Note_on_c, 0, 69, 0
1, 34560, Note_on_c, 0, 68, 80
1, 35279, Note_on_c, 0, 68, 0
1, 35280, Note_on_c, 0, 68, 80
1, 35519, Note_on_c, 0, 68, 0
1, 35520, Note_on_c, 0, 69, 80
1, 35999, Note_on_c, 0, 69, 0
1, 36000, Note_on_c, 0, 71, 80
1, 36479, Note_on_c, 0, 71, 0
1, 36480, Note_on_c, 0, 72, 80
1, 36959, Note_on_c, 0, 72, 0
1, 36960, Note_on_c, 0, 71, 80
1, 37199, Note_on_c, 0, 71, 0
1, 37200, Note_on_c, 0, 69, 80
1, 37439, Note_on_c, 0, 69, 0
1, 37440, Note_on_c, 0, 71, 80
1, 38879, Note_on_c, 0, 71, 0
1, 38880, Note_on_c, 0, 69, 80
1, 39839, Note_on_c, 0, 69, 0
1, 39840, Note_on_c, 0, 68, 80
1, 40319, Note_on_c, 0, 68, 0
1, 40320, Note_on_c, 0, 69, 80
1, 40799, Note_on_c, 0, 69, 0
1, 40800, Note_on_c, 0, 72, 80
1, 41759, Note_on_c, 0, 72, 0
1, 41760, Note_on_c, 0, 65, 80
1, 42239, Note_on_c, 0, 65, 0
1, 42240, Note_on_c, 0, 72, 80
1, 42719, Note_on_c, 0, 72, 0
1, 42720, Note_on_c, 0, 74, 80
1, 43199, Note_on_c, 0, 74, 0
1, 43200, Note_on_c, 0, 71, 80
1, 43679, Note_on_c, 0, 71, 0
1, 43680, Note_on_c, 0, 72, 80
1, 44639, Note_on_c, 0, 72, 0
1, 44640, Note_on_c, 0, 71, 80
1, 45119, Note_on_c, 0, 71, 0
1, 45120, Note_on_c, 0, 72, 80
1, 46079, Note_on_c, 0, 72, 0
1, 47520, Note_on_c, 0, 67, 80
1, 48479, Note_on_c, 0, 67, 0
1, 48480, Note_on_c, 0, 74, 80
1, 48959, Note_on_c, 0, 74, 0
1, 48960, Note_on_c, 0, 72, 80
1, 49439, Note_on_c, 0, 72, 0
1, 49440, Note_on_c, 0, 71, 80
1, 49919, Note_on_c, 0, 71, 0
1, 49920, Note_on_c, 0, 67, 80
1, 50639, Note_on_c, 0, 67, 0
1, 50640, Note_on_c, 0, 67, 80
1, 50879, Note_on_c, 0, 67, 0
1, 50880, Note_on_c, 0, 66, 80
1, 51839, Note_on_c, 0, 66, 0
1, 51840, Note_on_c, 0, 67, 80
1, 52799, Note_on_c, 0, 67, 0
1, 53280, Note_on_c, 0, 68, 80
1, 54239, Note_on_c, 0, 68, 0
1, 54240, Note_on_c, 0, 69, 80
1, 54719, Note_on_c, 0, 69, 0
1, 54720, Note_on_c, 0, 71, 80
1, 55679, Note_on_c, 0, 71, 0
1, 55680, Note_on_c, 0, 64, 80
1, 56639, Note_on_c, 0, 64, 0
1, 57600, Note_on_c, 0, 72, 80
1, 58559, Note_on_c, 0, 72, 0
1, 59040, Note_on_c, 0, 73, 80
1, 59999, Note_on_c, 0, 73, 0
1, 60000, Note_on_c, 0, 74, 80
1, 60479, Note_on_c, 0, 74, 0
1, 60480, Note_on_c, 0, 76, 80
1, 61439, Note_on_c, 0, 76, 0
1, 61440, Note_on_c, 0, 69, 80
1, 62399, Note_on_c, 0, 69, 0
1, 62400, Note_on_c, 0, 69, 80
1, 62879, Note_on_c, 0, 69, 0
1, 62880, Note_on_c, 0, 74, 80
1, 63599, Note_on_c, 0, 74, 0
1, 63600, Note_on_c, 0, 72, 80
1, 63839, Note_on_c, 0, 72, 0
1, 63840, Note_on_c, 0, 71, 80
1, 64799, Note_on_c, 0, 71, 0
1, 64800, Note_on_c, 0, 69, 80
1, 65279, Note_on_c, 0, 69, 0
1, 65280, Note_on_c, 0, 72, 80
1, 65759, Note_on_c, 0, 72, 0
1, 65760, Note_on_c, 0, 69, 80
1, 66719, Note_on_c, 0, 69, 0
1, 66720, Note_on_c, 0, 69, 80
1, 67199, Note_on_c, 0, 69, 0
1, 67200, Note_on_c, 0, 72, 80
1, 68159, Note_on_c, 0, 72, 0
1, 68160, Note_on_c, 0, 72, 80
1, 68639, Note_on_c, 0, 72, 0
1, 68640, Note_on_c, 0, 70, 80
1, 69119, Note_on_c, 0, 70, 0
1, 69120, Note_on_c, 0, 69, 80
1, 70079, Note_on_c, 0, 69, 0
1, 70080, Note_on_c, 0, 69, 80
1, 71999, Note_on_c, 0, 69, 0
1, 72480, Note_on_c, 0, 65, 80
1, 72959, Note_on_c, 0, 65, 0
1, 72960, Note_on_c, 0, 64, 80
1, 73919, Note_on_c, 0, 64, 0
1, 73920, Note_on_c, 0, 64, 80
1, 74879, Note_on_c, 0, 64, 0
1, 75360, Note_on_c, 0, 63, 80
1, 75839, Note_on_c, 0, 63, 0
1, 75840, Note_on_c, 0, 62, 80
1, 76799, Note_on_c, 0, 62, 0
1, 76800, Note_on_c, 0, 62, 80
1, 79679, Note_on_c, 0, 62, 0
1, 79680, Note_on_c, 0, 65, 80
1, 81599, Note_on_c, 0, 65, 0
1, 81600, Note_on_c, 0, 65, 80
1, 83519, Note_on_c, 0, 65, 0
1, 84000, Note_on_c, 0, 69, 80
1, 84959, Note_on_c, 0, 69, 0
1, 84960, Note_on_c, 0, 69, 80
1, 85919, Note_on_c, 0, 69, 0
1, 85920, Note_on_c, 0, 69, 80
1, 86399, Note_on_c, 0, 69, 0
1, 86400, Note_on_c, 0, 71, 80
1, 87359, Note_on_c, 0, 71, 0
1, 87360, Note_on_c, 0, 71, 80
1, 87839, Note_on_c, 0, 71, 0
1, 87840, Note_on_c, 0, 67, 80
1, 88319, Note_on_c, 0, 67, 0
1, 88320, Note_on_c, 0, 66, 80
1, 90239, Note_on_c, 0, 66, 0
1, 90240, Note_on_c, 0, 66, 80
1, 91199, Note_on_c, 0, 66, 0
1, 91200, Note_on_c, 0, 67, 80
1, 92159, Note_on_c, 0, 67, 0
1, 92160, Note_on_c, 0, 74, 80
1, 94079, Note_on_c, 0, 74, 0
1, 96480, Note_on_c, 0, 67, 80
1, 96959, Note_on_c, 0, 67, 0
1, 97440, Note_on_c, 0, 68, 80
1, 98399, Note_on_c, 0, 68, 0
1, 98400, Note_on_c, 0, 69, 80
1, 98879, Note_on_c, 0, 69, 0
1, 98880, Note_on_c, 0, 71, 80
1, 99839, Note_on_c, 0, 71, 0
1, 99840, Note_on_c, 0, 64, 80
1, 100799, Note_on_c, 0, 64, 0
1, 101760, Note_on_c, 0, 72, 80
1, 102719, Note_on_c, 0, 72, 0
1, 103200, Note_on_c, 0, 72, 80
1, 104159, Note_on_c, 0, 72, 0
1, 104160, Note_on_c, 0, 74, 80
1, 104639, Note_on_c, 0, 74, 0
1, 104640, Note_on_c, 0, 76, 80
1, 105599, Note_on_c, 0, 76, 0
1, 105600, Note_on_c, 0, 69, 80
1, 106559, Note_on_c, 0, 69, 0
1, 106560, Note_on_c, 0, 69, 80
1, 107039, Note_on_c, 0, 69, 0
1, 107040, Note_on_c, 0, 74, 80
1, 107759, Note_on_c, 0, 74, 0
1, 107760, Note_on_c, 0, 72, 80
1, 107999, Note_on_c, 0, 72, 0
1, 108000, Note_on_c, 0, 71, 80
1, 108959, Note_on_c, 0, 71, 0
1, 108960, Note_on_c, 0, 69, 80
1, 109439, Note_on_c, 0, 69, 0
1, 109440, Note_on_c, 0, 72, 80
1, 109919, Note_on_c, 0, 72, 0
1, 109920, Note_on_c, 0, 69, 80
1, 110879, Note_on_c, 0, 69, 0
1, 110880, Note_on_c, 0, 69, 80
1, 111359, Note_on_c, 0, 69, 0
1, 111360, Note_on_c, 0, 72, 80
1, 112319, Note_on_c, 0, 72, 0
1, 112320, Note_on_c, 0, 72, 80
1, 112799, Note_on_c, 0, 72, 0
1, 112800, Note_on_c, 0, 70, 80
1, 113279, Note_on_c, 0, 70, 0
1, 113280, Note_on_c, 0, 69, 80
1, 114239, Note_on_c, 0, 69, 0
1, 114240, Note_on_c, 0, 69, 80
1, 116159, Note_on_c, 0, 69, 0
1, 116640, Note_on_c, 0, 69, 80
1, 117119, Note_on_c, 0, 69, 0
1, 117120, Note_on_c, 0, 64, 80
1, 118079, Note_on_c, 0, 64, 0
1, 118080, Note_on_c, 0, 64, 80
1, 119039, Note_on_c, 0, 64, 0
1, 119520, Note_on_c, 0, 63, 80
1, 119999, Note_on_c, 0, 63, 0
1, 120000, Note_on_c, 0, 62, 80
1, 120959, Note_on_c, 0, 62, 0
1, 120960, Note_on_c, 0, 62, 80
1, 123839, Note_on_c, 0, 62, 0
1, 123840, Note_on_c, 0, 65, 80
1, 125759, Note_on_c, 0, 65, 0
1, 125760, Note_on_c, 0, 65, 80
1, 127679, Note_on_c, 0, 65, 0
1, 128160, Note_on_c, 0, 69, 80
1, 129119, Note_on_c, 0, 69, 0
1, 129120, Note_on_c, 0, 69, 80
1, 130079, Note_on_c, 0, 69, 0
1, 130080, Note_on_c, 0, 69, 80
1, 130559, Note_on_c, 0, 69, 0
1, 130560, Note_on_c, 0, 71, 80
1, 131519, Note_on_c, 0, 71, 0
1, 131520, Note_on_c, 0, 71, 80
1, 131999, Note_on_c, 0, 71, 0
1, 132000, Note_on_c, 0, 67, 80
1, 132479, Note_on_c, 0, 67, 0
1, 132480, Note_on_c, 0, 66, 80
1, 134399, Note_on_c, 0, 66, 0
1, 134400, Note_on_c, 0, 66, 80
1, 135359, Note_on_c, 0, 66, 0
1, 135360, Note_on_c, 0, 67, 80
1, 136319, Note_on_c, 0, 67, 0
1, 136320, Note_on_c, 0, 74, 80
1, 140159, Note_on_c, 0, 74, 0
1, 140160, End_track
2, 0, Start_track
2, 0, Key_signature, 0, "major"
2, 0, Control_c, 1, 121, 0
2, 0, Program_c, 1, 52
2, 0, Control_c, 1, 7, 85
2, 0, Control_c, 1, 10, 63
2, 0, Control_c, 1, 91, 0
2, 0, Control_c, 1, 93, 0
2, 0, MIDI_port, 0
2, 9600, Note_on_c, 1, 65, 80
2, 11519, Note_on_c, 1, 65, 0
2, 11520, Note_on_c, 1, 64, 80
2, 12479, Note_on_c, 1, 64, 0
2, 12480, Note_on_c, 1, 65, 80
2, 12959, Note_on_c, 1, 65, 0
2, 12960, Note_on_c, 1, 67, 80
2, 13679, Note_on_c, 1, 67, 0
2, 13680, Note_on_c, 1, 67, 80
2, 13919, Note_on_c, 1, 67, 0
2, 13920, Note_on_c, 1, 65, 80
2, 14879, Note_on_c, 1, 65, 0
2, 14880, Note_on_c, 1, 64, 80
2, 15359, Note_on_c, 1, 64, 0
2, 15360, Note_on_c, 1, 65, 80
2, 17279, Note_on_c, 1, 65, 0
2, 17280, Note_on_c, 1, 62, 80
2, 18719, Note_on_c, 1, 62, 0
2, 18720, Note_on_c, 1, 57, 80
2, 19199, Note_on_c, 1, 57, 0
2, 19200, Note_on_c, 1, 60, 80
2, 19919, Note_on_c, 1, 60, 0
2, 19920, Note_on_c, 1, 60, 80
2, 20159, Note_on_c, 1, 60, 0
2, 20160, Note_on_c, 1, 57, 80
2, 21119, Note_on_c, 1, 57, 0
2, 22080, Note_on_c, 1, 53, 80
2, 22559, Note_on_c, 1, 53, 0
2, 22560, Note_on_c, 1, 57, 80
2, 23279, Note_on_c, 1, 57, 0
2, 23280, Note_on_c, 1, 57, 80
2, 23519, Note_on_c, 1, 57, 0
2, 23520, Note_on_c, 1, 55, 80
2, 23999, Note_on_c, 1, 55, 0
2, 24000, Note_on_c, 1, 57, 80
2, 24479, Note_on_c, 1, 57, 0
2, 24480, Note_on_c, 1, 65, 80
2, 25439, Note_on_c, 1, 65, 0
2, 25440, Note_on_c, 1, 64, 80
2, 25919, Note_on_c, 1, 64, 0
2, 25920, Note_on_c, 1, 65, 80
2, 26879, Note_on_c, 1, 65, 0
2, 26880, Note_on_c, 1, 64, 80
2, 27839, Note_on_c, 1, 64, 0
2, 27840, Note_on_c, 1, 65, 80
2, 28799, Note_on_c, 1, 65, 0
2, 28800, Note_on_c, 1, 65, 80
2, 29279, Note_on_c, 1, 65, 0
2, 29280, Note_on_c, 1, 62, 80
2, 29999, Note_on_c, 1, 62, 0
2, 30000, Note_on_c, 1, 62, 80
2, 30239, Note_on_c, 1, 62, 0
2, 30240, Note_on_c, 1, 57, 80
2, 30719, Note_on_c, 1, 57, 0
2, 30720, Note_on_c, 1, 64, 80
2, 32639, Note_on_c, 1, 64, 0
2, 32640, Note_on_c, 1, 67, 80
2, 33599, Note_on_c, 1, 67, 0
2, 33600, Note_on_c, 1, 67, 80
2, 34079, Note_on_c, 1, 67, 0
2, 34080, Note_on_c, 1, 64, 80
2, 35039, Note_on_c, 1, 64, 0
2, 35040, Note_on_c, 1, 64, 80
2, 35519, Note_on_c, 1, 64, 0
2, 35520, Note_on_c, 1, 66, 80
2, 35759, Note_on_c, 1, 66, 0
2, 35760, Note_on_c, 1, 66, 80
2, 35999, Note_on_c, 1, 66, 0
2, 36000, Note_on_c, 1, 67, 80
2, 36959, Note_on_c, 1, 67, 0
2, 36960, Note_on_c, 1, 66, 80
2, 37439, Note_on_c, 1, 66, 0
2, 37440, Note_on_c, 1, 67, 80
2, 37919, Note_on_c, 1, 67, 0
2, 37920, Note_on_c, 1, 59, 80
2, 38399, Note_on_c, 1, 59, 0
2, 38400, Note_on_c, 1, 64, 80
2, 39839, Note_on_c, 1, 64, 0
2, 39840, Note_on_c, 1, 64, 80
2, 40799, Note_on_c, 1, 64, 0
2, 40800, Note_on_c, 1, 65, 80
2, 41279, Note_on_c, 1, 65, 0
2, 41280, Note_on_c, 1, 69, 80
2, 43199, Note_on_c, 1, 69, 0
2, 43200, Note_on_c, 1, 67, 80
2, 46079, Note_on_c, 1, 67, 0
2, 46080, Note_on_c, 1, 69, 80
2, 47039, Note_on_c, 1, 69, 0
2, 47040, Note_on_c, 1, 64, 80
2, 47519, Note_on_c, 1, 64, 0
2, 47520, Note_on_c, 1, 64, 80
2, 48479, Note_on_c, 1, 64, 0
2, 48480, Note_on_c, 1, 67, 80
2, 48959, Note_on_c, 1, 67, 0
2, 48960, Note_on_c, 1, 67, 80
2, 49439, Note_on_c, 1, 67, 0
2, 49440, Note_on_c, 1, 65, 80
2, 49919, Note_on_c, 1, 65, 0
2, 49920, Note_on_c, 1, 64, 80
2, 50639, Note_on_c, 1, 64, 0
2, 50640, Note_on_c, 1, 64, 80
2, 50879, Note_on_c, 1, 64, 0
2, 50880, Note_on_c, 1, 57, 80
2, 51839, Note_on_c, 1, 57, 0
2, 51840, Note_on_c, 1, 60, 80
2, 52799, Note_on_c, 1, 60, 0
2, 53280, Note_on_c, 1, 62, 80
2, 54239, Note_on_c, 1, 62, 0
2, 54240, Note_on_c, 1, 64, 80
2, 54719, Note_on_c, 1, 64, 0
2, 54720, Note_on_c, 1, 64, 80
2, 55679, Note_on_c, 1, 64, 0
2, 55680, Note_on_c, 1, 61, 80
2, 56639, Note_on_c, 1, 61, 0
2, 57600, Note_on_c, 1, 65, 80
2, 58559, Note_on_c, 1, 65, 0
2, 59040, Note_on_c, 1, 67, 80
2, 59999, Note_on_c, 1, 67, 0
2, 60000, Note_on_c, 1, 69, 80
2, 60479, Note_on_c, 1, 69, 0
2, 60480, Note_on_c, 1, 69, 80
2, 61439, Note_on_c, 1, 69, 0
2, 61440, Note_on_c, 1, 66, 80
2, 62399, Note_on_c, 1, 66, 0
2, 63360, Note_on_c, 1, 55, 80
2, 63839, Note_on_c, 1, 55, 0
2, 63840, Note_on_c, 1, 67, 80
2, 64559, Note_on_c, 1, 67, 0
2, 64560, Note_on_c, 1, 65, 80
2, 64799, Note_on_c, 1, 65, 0
2, 64800, Note_on_c, 1, 64, 80
2, 65759, Note_on_c, 1, 64, 0
2, 65760, Note_on_c, 1, 62, 80
2, 66239, Note_on_c, 1, 62, 0
2, 66240, Note_on_c, 1, 64, 80
2, 67199, Note_on_c, 1, 64, 0
2, 67200, Note_on_c, 1, 65, 80
2, 68159, Note_on_c, 1, 65, 0
2, 68160, Note_on_c, 1, 65, 80
2, 70079, Note_on_c, 1, 65, 0
2, 70080, Note_on_c, 1, 61, 80
2, 71039, Note_on_c, 1, 61, 0
2, 71040, Note_on_c, 1, 61, 80
2, 71999, Note_on_c, 1, 61, 0
2, 72480, Note_on_c, 1, 62, 80
2, 72959, Note_on_c, 1, 62, 0
2, 72960, Note_on_c, 1, 60, 80
2, 73919, Note_on_c, 1, 60, 0
2, 73920, Note_on_c, 1, 59, 80
2, 74879, Note_on_c, 1, 59, 0
2, 75360, Note_on_c, 1, 60, 80
2, 75839, Note_on_c, 1, 60, 0
2, 75840, Note_on_c, 1, 58, 80
2, 76799, Note_on_c, 1, 58, 0
2, 76800, Note_on_c, 1, 57, 80
2, 77759, Note_on_c, 1, 57, 0
2, 77760, Note_on_c, 1, 57, 80
2, 78239, Note_on_c, 1, 57, 0
2, 78240, Note_on_c, 1, 59, 80
2, 78479, Note_on_c, 1, 59, 0
2, 78480, Note_on_c, 1, 60, 80
2, 78719, Note_on_c, 1, 60, 0
2, 78720, Note_on_c, 1, 62, 80
2, 78959, Note_on_c, 1, 62, 0
2, 78960, Note_on_c, 1, 64, 80
2, 79199, Note_on_c, 1, 64, 0
2, 79200, Note_on_c, 1, 65, 80
2, 79439, Note_on_c, 1, 65, 0
2, 79440, Note_on_c, 1, 67, 80
2, 79679, Note_on_c, 1, 67, 0
2, 79680, Note_on_c, 1, 69, 80
2, 80639, Note_on_c, 1, 69, 0
2, 80640, Note_on_c, 1, 62, 80
2, 81599, Note_on_c, 1, 62, 0
2, 84000, Note_on_c, 1, 65, 80
2, 84959, Note_on_c, 1, 65, 0
2, 84960, Note_on_c, 1, 65, 80
2, 85919, Note_on_c, 1, 65, 0
2, 85920, Note_on_c, 1, 64, 80
2, 86399, Note_on_c, 1, 64, 0
2, 86400, Note_on_c, 1, 64, 80
2, 87359, Note_on_c, 1, 64, 0
2, 87360, Note_on_c, 1, 63, 80
2, 87839, Note_on_c, 1, 63, 0
2, 87840, Note_on_c, 1, 64, 80
2, 88319, Note_on_c, 1, 64, 0
2, 88320, Note_on_c, 1, 63, 80
2, 88799, Note_on_c, 1, 63, 0
2, 88800, Note_on_c, 1, 63, 80
2, 89279, Note_on_c, 1, 63, 0
2, 89280, Note_on_c, 1, 63, 80
2, 90239, Note_on_c, 1, 63, 0
2, 90240, Note_on_c, 1, 62, 80
2, 92159, Note_on_c, 1, 62, 0
2, 92160, Note_on_c, 1, 58, 80
2, 95039, Note_on_c, 1, 58, 0
2, 95040, Note_on_c, 1, 57, 80
2, 95999, Note_on_c, 1, 57, 0
2, 96480, Note_on_c, 1, 60, 80
2, 96959, Note_on_c, 1, 60, 0
2, 97440, Note_on_c, 1, 62, 80
2, 98399, Note_on_c, 1, 62, 0
2, 98400, Note_on_c, 1, 64, 80
2, 98879, Note_on_c, 1, 64, 0
2, 98880, Note_on_c, 1, 64, 80
2, 99839, Note_on_c, 1, 64, 0
2, 99840, Note_on_c, 1, 61, 80
2, 100799, Note_on_c, 1, 61, 0
2, 101760, Note_on_c, 1, 65, 80
2, 102719, Note_on_c, 1, 65, 0
2, 103200, Note_on_c, 1, 67, 80
2, 104159, Note_on_c, 1, 67, 0
2, 104160, Note_on_c, 1, 69, 80
2, 104639, Note_on_c, 1, 69, 0
2, 104640, Note_on_c, 1, 69, 80
2, 105599, Note_on_c, 1, 69, 0
2, 105600, Note_on_c, 1, 65, 80
2, 106559, Note_on_c, 1, 65, 0
2, 107520, Note_on_c, 1, 55, 80
2, 107999, Note_on_c, 1, 55, 0
2, 108000, Note_on_c, 1, 67, 80
2, 108719, Note_on_c, 1, 67, 0
2, 108720, Note_on_c, 1, 65, 80
2, 108959, Note_on_c, 1, 65, 0
2, 108960, Note_on_c, 1, 64, 80
2, 109919, Note_on_c, 1, 64, 0
2, 109920, Note_on_c, 1, 62, 80
2, 110399, Note_on_c, 1, 62, 0
2, 110400, Note_on_c, 1, 64, 80
2, 111359, Note_on_c, 1, 64, 0
2, 111360, Note_on_c, 1, 65, 80
2, 112319, Note_on_c, 1, 65, 0
2, 112320, Note_on_c, 1, 65, 80
2, 114239, Note_on_c, 1, 65, 0
2, 114240, Note_on_c, 1, 61, 80
2, 115199, Note_on_c, 1, 61, 0
2, 115200, Note_on_c, 1, 61, 80
2, 116159, Note_on_c, 1, 61, 0
2, 116640, Note_on_c, 1, 62, 80
2, 117119, Note_on_c, 1, 62, 0
2, 117120, Note_on_c, 1, 60, 80
2, 118079, Note_on_c, 1, 60, 0
2, 118080, Note_on_c, 1, 59, 80
2, 119039, Note_on_c, 1, 59, 0
2, 119520, Note_on_c, 1, 60, 80
2, 119999, Note_on_c, 1, 60, 0
2, 120000, Note_on_c, 1, 58, 80
2, 120959, Note_on_c, 1, 58, 0
2, 120960, Note_on_c, 1, 57, 80
2, 121919, Note_on_c, 1, 57, 0
2, 121920, Note_on_c, 1, 57, 80
2, 122399, Note_on_c, 1, 57, 0
2, 122400, Note_on_c, 1, 59, 80
2, 122639, Note_on_c, 1, 59, 0
2, 122640, Note_on_c, 1, 60, 80
2, 122879, Note_on_c, 1, 60, 0
2, 122880, Note_on_c, 1, 62, 80
2, 123119, Note_on_c, 1, 62, 0
2, 123120, Note_on_c, 1, 64, 80
2, 123359, Note_on_c, 1, 64, 0
2, 123360, Note_on_c, 1, 65, 80
2, 123599, Note_on_c, 1, 65, 0
2, 123600, Note_on_c, 1, 67, 80
2, 123839, Note_on_c, 1, 67, 0
2, 123840, Note_on_c, 1, 69, 80
2, 124799, Note_on_c, 1, 69, 0
2, 124800, Note_on_c, 1, 62, 80
2, 125759, Note_on_c, 1, 62, 0
2, 128160, Note_on_c, 1, 65, 80
2, 129119, Note_on_c, 1, 65, 0
2, 129120, Note_on_c, 1, 65, 80
2, 130079, Note_on_c, 1, 65, 0
2, 130080, Note_on_c, 1, 64, 80
2, 130559, Note_on_c, 1, 64, 0
2, 130560, Note_on_c, 1, 64, 80
2, 131519, Note_on_c, 1, 64, 0
2, 131520, Note_on_c, 1, 63, 80
2, 131999, Note_on_c, 1, 63, 0
2, 132000, Note_on_c, 1, 64, 80
2, 132479, Note_on_c, 1, 64, 0
2, 132480, Note_on_c, 1, 63, 80
2, 132959, Note_on_c, 1, 63, 0
2, 132960, Note_on_c, 1, 63, 80
2, 133439, Note_on_c, 1, 63, 0
2, 133440, Note_on_c, 1, 63, 80
2, 134399, Note_on_c, 1, 63, 0
2, 134400, Note_on_c, 1, 62, 80
2, 137279, Note_on_c, 1, 62, 0
2, 137280, Note_on_c, 1, 67, 80
2, 139199, Note_on_c, 1, 67, 0
2, 139200, Note_on_c, 1, 66, 80
2, 140159, Note_on_c, 1, 66, 0
2, 140160, End_track
3, 0, Start_track
3, 0, Key_signature, 0, "major"
3, 0, Control_c, 2, 121, 0
3, 0, Program_c, 2, 52
3, 0, Control_c, 2, 7, 77
3, 0, Control_c, 2, 10, 63
3, 0, Control_c, 2, 91, 0
3, 0, Control_c, 2, 93, 0
3, 0, MIDI_port, 0
3, 5760, Note_on_c, 2, 58, 80
3, 7679, Note_on_c, 2, 58, 0
3, 7680, Note_on_c, 2, 57, 80
3, 9119, Note_on_c, 2, 57, 0
3, 9120, Note_on_c, 2, 55, 80
3, 9599, Note_on_c, 2, 55, 0
3, 9600, Note_on_c, 2, 57, 80
3, 10319, Note_on_c, 2, 57, 0
3, 10320, Note_on_c, 2, 57, 80
3, 10559, Note_on_c, 2, 57, 0
3, 10560, Note_on_c, 2, 50, 80
3, 11519, Note_on_c, 2, 50, 0
3, 11520, Note_on_c, 2, 55, 80
3, 11999, Note_on_c, 2, 55, 0
3, 12000, Note_on_c, 2, 57, 80
3, 12719, Note_on_c, 2, 57, 0
3, 12720, Note_on_c, 2, 57, 80
3, 12959, Note_on_c, 2, 57, 0
3, 12960, Note_on_c, 2, 55, 80
3, 13439, Note_on_c, 2, 55, 0
3, 13440, Note_on_c, 2, 52, 80
3, 13919, Note_on_c, 2, 52, 0
3, 13920, Note_on_c, 2, 60, 80
3, 14879, Note_on_c, 2, 60, 0
3, 14880, Note_on_c, 2, 60, 80
3, 15359, Note_on_c, 2, 60, 0
3, 17280, Note_on_c, 2, 50, 80
3, 19199, Note_on_c, 2, 50, 0
3, 19200, Note_on_c, 2, 52, 80
3, 19679, Note_on_c, 2, 52, 0
3, 19680, Note_on_c, 2, 53, 80
3, 20159, Note_on_c, 2, 53, 0
3, 20160, Note_on_c, 2, 52, 80
3, 20879, Note_on_c, 2, 52, 0
3, 20880, Note_on_c, 2, 52, 80
3, 21119, Note_on_c, 2, 52, 0
3, 21120, Note_on_c, 2, 53, 80
3, 21599, Note_on_c, 2, 53, 0
3, 21600, Note_on_c, 2, 55, 80
3, 22079, Note_on_c, 2, 55, 0
3, 22080, Note_on_c, 2, 57, 80
3, 22319, Note_on_c, 2, 57, 0
3, 22320, Note_on_c, 2, 55, 80
3, 22559, Note_on_c, 2, 55, 0
3, 22560, Note_on_c, 2, 53, 80
3, 22799, Note_on_c, 2, 53, 0
3, 22800, Note_on_c, 2, 52, 80
3, 23039, Note_on_c, 2, 52, 0
3, 23040, Note_on_c, 2, 50, 80
3, 23519, Note_on_c, 2, 50, 0
3, 23520, Note_on_c, 2, 50, 80
3, 23999, Note_on_c, 2, 50, 0
3, 24000, Note_on_c, 2, 53, 80
3, 24479, Note_on_c, 2, 53, 0
3, 24480, Note_on_c, 2, 48, 80
3, 24959, Note_on_c, 2, 48, 0
3, 24960, Note_on_c, 2, 55, 80
3, 25919, Note_on_c, 2, 55, 0
3, 26880, Note_on_c, 2, 55, 80
3, 27839, Note_on_c, 2, 55, 0
3, 27840, Note_on_c, 2, 53, 80
3, 28799, Note_on_c, 2, 53, 0
3, 28800, Note_on_c, 2, 50, 80
3, 30239, Note_on_c, 2, 50, 0
3, 30240, Note_on_c, 2, 62, 80
3, 31199, Note_on_c, 2, 62, 0
3, 31200, Note_on_c, 2, 60, 80
3, 31439, Note_on_c, 2, 60, 0
3, 31440, Note_on_c, 2, 59, 80
3, 31559, Note_on_c, 2, 59, 0
3, 31560, Note_on_c, 2, 57, 80
3, 31679, Note_on_c, 2, 57, 0
3, 31680, Note_on_c, 2, 55, 80
3, 32639, Note_on_c, 2, 55, 0
3, 32640, Note_on_c, 2, 55, 80
3, 33599, Note_on_c, 2, 55, 0
3, 36480, Note_on_c, 2, 57, 80
3, 37439, Note_on_c, 2, 57, 0
3, 37440, Note_on_c, 2, 55, 80
3, 38159, Note_on_c, 2, 55, 0
3, 38160, Note_on_c, 2, 55, 80
3, 38399, Note_on_c, 2, 55, 0
3, 38400, Note_on_c, 2, 56, 80
3, 38879, Note_on_c, 2, 56, 0
3, 38880, Note_on_c, 2, 57, 80
3, 39359, Note_on_c, 2, 57, 0
3, 39360, Note_on_c, 2, 59, 80
3, 40319, Note_on_c, 2, 59, 0
3, 40320, Note_on_c, 2, 60, 80
3, 41279, Note_on_c, 2, 60, 0
3, 41280, Note_on_c, 2, 65, 80
3, 42719, Note_on_c, 2, 65, 0
3, 42720, Note_on_c, 2, 57, 80
3, 43199, Note_on_c, 2, 57, 0
3, 43200, Note_on_c, 2, 64, 80
3, 43679, Note_on_c, 2, 64, 0
3, 43680, Note_on_c, 2, 64, 80
3, 44159, Note_on_c, 2, 64, 0
3, 44160, Note_on_c, 2, 62, 80
3, 45119, Note_on_c, 2, 62, 0
3, 45120, Note_on_c, 2, 64, 80
3, 46079, Note_on_c, 2, 64, 0
3, 46560, Note_on_c, 2, 60, 80
3, 47519, Note_on_c, 2, 60, 0
3, 47520, Note_on_c, 2, 55, 80
3, 48479, Note_on_c, 2, 55, 0
3, 48480, Note_on_c, 2, 59, 80
3, 48959, Note_on_c, 2, 59, 0
3, 48960, Note_on_c, 2, 64, 80
3, 49439, Note_on_c, 2, 64, 0
3, 49440, Note_on_c, 2, 62, 80
3, 50399, Note_on_c, 2, 62, 0
3, 50400, Note_on_c, 2, 61, 80
3, 50879, Note_on_c, 2, 61, 0
3, 50880, Note_on_c, 2, 62, 80
3, 51839, Note_on_c, 2, 62, 0
3, 51840, Note_on_c, 2, 55, 80
3, 52799, Note_on_c, 2, 55, 0
3, 53280, Note_on_c, 2, 50, 80
3, 54239, Note_on_c, 2, 50, 0
3, 54240, Note_on_c, 2, 57, 80
3, 54719, Note_on_c, 2, 57, 0
3, 54720, Note_on_c, 2, 52, 80
3, 55679, Note_on_c, 2, 52, 0
3, 55680, Note_on_c, 2, 52, 80
3, 56639, Note_on_c, 2, 52, 0
3, 57600, Note_on_c, 2, 57, 80
3, 59039, Note_on_c, 2, 57, 0
3, 59040, Note_on_c, 2, 64, 80
3, 59999, Note_on_c, 2, 64, 0
3, 60000, Note_on_c, 2, 65, 80
3, 60479, Note_on_c, 2, 65, 0
3, 60480, Note_on_c, 2, 64, 80
3, 61439, Note_on_c, 2, 64, 0
3, 61440, Note_on_c, 2, 62, 80
3, 62399, Note_on_c, 2, 62, 0
3, 63840, Note_on_c, 2, 52, 80
3, 64319, Note_on_c, 2, 52, 0
3, 64320, Note_on_c, 2, 57, 80
3, 65039, Note_on_c, 2, 57, 0
3, 65040, Note_on_c, 2, 55, 80
3, 65279, Note_on_c, 2, 55, 0
3, 65280, Note_on_c, 2, 53, 80
3, 65759, Note_on_c, 2, 53, 0
3, 65760, Note_on_c, 2, 53, 80
3, 66239, Note_on_c, 2, 53, 0
3, 66240, Note_on_c, 2, 52, 80
3, 66719, Note_on_c, 2, 52, 0
3, 66720, Note_on_c, 2, 57, 80
3, 67439, Note_on_c, 2, 57, 0
3, 67440, Note_on_c, 2, 59, 80
3, 67679, Note_on_c, 2, 59, 0
3, 67680, Note_on_c, 2, 60, 80
3, 68639, Note_on_c, 2, 60, 0
3, 68640, Note_on_c, 2, 62, 80
3, 69119, Note_on_c, 2, 62, 0
3, 69120, Note_on_c, 2, 60, 80
3, 70079, Note_on_c, 2, 60, 0
3, 70080, Note_on_c, 2, 57, 80
3, 71039, Note_on_c, 2, 57, 0
3, 71040, Note_on_c, 2, 57, 80
3, 71999, Note_on_c, 2, 57, 0
3, 72480, Note_on_c, 2, 57, 80
3, 72959, Note_on_c, 2, 57, 0
3, 72960, Note_on_c, 2, 57, 80
3, 73919, Note_on_c, 2, 57, 0
3, 73920, Note_on_c, 2, 56, 80
3, 74879, Note_on_c, 2, 56, 0
3, 75360, Note_on_c, 2, 55, 80
3, 75839, Note_on_c, 2, 55, 0
3, 75840, Note_on_c, 2, 55, 80
3, 76799, Note_on_c, 2, 55, 0
3, 76800, Note_on_c, 2, 54, 80
3, 78719, Note_on_c, 2, 54, 0
3, 78720, Note_on_c, 2, 53, 80
3, 80639, Note_on_c, 2, 53, 0
3, 80640, Note_on_c, 2, 50, 80
3, 81599, Note_on_c, 2, 50, 0
3, 81600, Note_on_c, 2, 62, 80
3, 82559, Note_on_c, 2, 62, 0
3, 82560, Note_on_c, 2, 60, 80
3, 83519, Note_on_c, 2, 60, 0
3, 84000, Note_on_c, 2, 62, 80
3, 84959, Note_on_c, 2, 62, 0
3, 84960, Note_on_c, 2, 62, 80
3, 85919, Note_on_c, 2, 62, 0
3, 85920, Note_on_c, 2, 57, 80
3, 86399, Note_on_c, 2, 57, 0
3, 86400, Note_on_c, 2, 55, 80
3, 87359, Note_on_c, 2, 55, 0
3, 87360, Note_on_c, 2, 54, 80
3, 87839, Note_on_c, 2, 54, 0
3, 87840, Note_on_c, 2, 52, 80
3, 88319, Note_on_c, 2, 52, 0
3, 88320, Note_on_c, 2, 54, 80
3, 89279, Note_on_c, 2, 54, 0
3, 89280, Note_on_c, 2, 54, 80
3, 90719, Note_on_c, 2, 54, 0
3, 90720, Note_on_c, 2, 50, 80
3, 91679, Note_on_c, 2, 50, 0
3, 91680, Note_on_c, 2, 52, 80
3, 91919, Note_on_c, 2, 52, 0
3, 91920, Note_on_c, 2, 54, 80
3, 92159, Note_on_c, 2, 54, 0
3, 92160, Note_on_c, 2, 55, 80
3, 92399, Note_on_c, 2, 55, 0
3, 92400, Note_on_c, 2, 57, 80
3, 92639, Note_on_c, 2, 57, 0
3, 92640, Note_on_c, 2, 58, 80
3, 92879, Note_on_c, 2, 58, 0
3, 92880, Note_on_c, 2, 60, 80
3, 93119, Note_on_c, 2, 60, 0
3, 93120, Note_on_c, 2, 62, 80
3, 95039, Note_on_c, 2, 62, 0
3, 95040, Note_on_c, 2, 62, 80
3, 95999, Note_on_c, 2, 62, 0
3, 96480, Note_on_c, 2, 55, 80
3, 96959, Note_on_c, 2, 55, 0
3, 97440, Note_on_c, 2, 59, 80
3, 98399, Note_on_c, 2, 59, 0
3, 98400, Note_on_c, 2, 60, 80
3, 98879, Note_on_c, 2, 60, 0
3, 98880, Note_on_c, 2, 59, 80
3, 99839, Note_on_c, 2, 59, 0
3, 99840, Note_on_c, 2, 57, 80
3, 100799, Note_on_c, 2, 57, 0
3, 101760, Note_on_c, 2, 60, 80
3, 103199, Note_on_c, 2, 60, 0
3, 103200, Note_on_c, 2, 55, 80
3, 104159, Note_on_c, 2, 55, 0
3, 104160, Note_on_c, 2, 62, 80
3, 104639, Note_on_c, 2, 62, 0
3, 104640, Note_on_c, 2, 57, 80
3, 105599, Note_on_c, 2, 57, 0
3, 105600, Note_on_c, 2, 57, 80
3, 106559, Note_on_c, 2, 57, 0
3, 107040, Note_on_c, 2, 59, 80
3, 107519, Note_on_c, 2, 59, 0
3, 107520, Note_on_c, 2, 64, 80
3, 108239, Note_on_c, 2, 64, 0
3, 108240, Note_on_c, 2, 62, 80
3, 108479, Note_on_c, 2, 62, 0
3, 108480, Note_on_c, 2, 60, 80
3, 108959, Note_on_c, 2, 60, 0
3, 108960, Note_on_c, 2, 60, 80
3, 109439, Note_on_c, 2, 60, 0
3, 109440, Note_on_c, 2, 57, 80
3, 110879, Note_on_c, 2, 57, 0
3, 110880, Note_on_c, 2, 60, 80
3, 111599, Note_on_c, 2, 60, 0
3, 111600, Note_on_c, 2, 59, 80
3, 111839, Note_on_c, 2, 59, 0
3, 111840, Note_on_c, 2, 57, 80
3, 112799, Note_on_c, 2, 57, 0
3, 112800, Note_on_c, 2, 50, 80
3, 113279, Note_on_c, 2, 50, 0
3, 113280, Note_on_c, 2, 53, 80
3, 114239, Note_on_c, 2, 53, 0
3, 114240, Note_on_c, 2, 52, 80
3, 115199, Note_on_c, 2, 52, 0
3, 115200, Note_on_c, 2, 52, 80
3, 116159, Note_on_c, 2, 52, 0
3, 116640, Note_on_c, 2, 50, 80
3, 117119, Note_on_c, 2, 50, 0
3, 117120, Note_on_c, 2, 52, 80
3, 118079, Note_on_c, 2, 52, 0
3, 118080, Note_on_c, 2, 52, 80
3, 119039, Note_on_c, 2, 52, 0
3, 122880, Note_on_c, 2, 57, 80
3, 123839, Note_on_c, 2, 57, 0
3, 123840, Note_on_c, 2, 60, 80
3, 124319, Note_on_c, 2, 60, 0
3, 124320, Note_on_c, 2, 60, 80
3, 125279, Note_on_c, 2, 60, 0
3, 125280, Note_on_c, 2, 58, 80
3, 125759, Note_on_c, 2, 58, 0
3, 125760, Note_on_c, 2, 57, 80
3, 125999, Note_on_c, 2, 57, 0
3, 126000, Note_on_c, 2, 53, 80
3, 126239, Note_on_c, 2, 53, 0
3, 126240, Note_on_c, 2, 58, 80
3, 127199, Note_on_c, 2, 58, 0
3, 127200, Note_on_c, 2, 57, 80
3, 127679, Note_on_c, 2, 57, 0
3, 128160, Note_on_c, 2, 57, 80
3, 129119, Note_on_c, 2, 57, 0
3, 129120, Note_on_c, 2, 57, 80
3, 130079, Note_on_c, 2, 57, 0
3, 130080, Note_on_c, 2, 52, 80
3, 130559, Note_on_c, 2, 52, 0
3, 130560, Note_on_c, 2, 59, 80
3, 133439, Note_on_c, 2, 59, 0
3, 133440, Note_on_c, 2, 59, 80
3, 135359, Note_on_c, 2, 59, 0
3, 135360, Note_on_c, 2, 58, 80
3, 139199, Note_on_c, 2, 58, 0
3, 139200, Note_on_c, 2, 57, 80
3, 140159, Note_on_c, 2, 57, 0
3, 140160, End_track
4, 0, Start_track
4, 0, Key_signature, 0, "major"
4, 0, Control_c, 3, 121, 0
4, 0, Program_c, 3, 52
4, 0, Control_c, 3, 7, 81
4, 0, Control_c, 3, 10, 63
4, 0, Control_c, 3, 91, 0
4, 0, Control_c, 3, 93, 0
4, 0, MIDI_port, 0
4, 0, Note_on_c, 3, 62, 80
4, 1919, Note_on_c, 3, 62, 0
4, 1920, Note_on_c, 3, 60, 80
4, 3359, Note_on_c, 3, 60, 0
4, 3360, Note_on_c, 3, 59, 80
4, 3839, Note_on_c, 3, 59, 0
4, 3840, Note_on_c, 3, 60, 80
4, 4559, Note_on_c, 3, 60, 0
4, 4560, Note_on_c, 3, 60, 80
4, 4799, Note_on_c, 3, 60, 0
4, 4800, Note_on_c, 3, 58, 80
4, 5279, Note_on_c, 3, 58, 0
4, 5280, Note_on_c, 3, 57, 80
4, 5759, Note_on_c, 3, 57, 0
4, 5760, Note_on_c, 3, 55, 80
4, 6719, Note_on_c, 3, 55, 0
4, 6720, Note_on_c, 3, 53, 80
4, 7679, Note_on_c, 3, 53, 0
4, 7680, Note_on_c, 3, 53, 80
4, 8159, Note_on_c, 3, 53, 0
4, 8160, Note_on_c, 3, 65, 80
4, 8879, Note_on_c, 3, 65, 0
4, 8880, Note_on_c, 3, 65, 80
4, 9119, Note_on_c, 3, 65, 0
4, 9120, Note_on_c, 3, 64, 80
4, 9599, Note_on_c, 3, 64, 0
4, 9600, Note_on_c, 3, 60, 80
4, 10079, Note_on_c, 3, 60, 0
4, 10080, Note_on_c, 3, 62, 80
4, 10319, Note_on_c, 3, 62, 0
4, 10320, Note_on_c, 3, 60, 80
4, 10439, Note_on_c, 3, 60, 0
4, 10440, Note_on_c, 3, 59, 80
4, 10559, Note_on_c, 3, 59, 0
4, 10560, Note_on_c, 3, 57, 80
4, 11519, Note_on_c, 3, 57, 0
4, 11520, Note_on_c, 3, 52, 80
4, 12479, Note_on_c, 3, 52, 0
4, 12480, Note_on_c, 3, 50, 80
4, 13439, Note_on_c, 3, 50, 0
4, 13440, Note_on_c, 3, 57, 80
4, 14399, Note_on_c, 3, 57, 0
4, 14400, Note_on_c, 3, 55, 80
4, 15359, Note_on_c, 3, 55, 0
4, 15360, Note_on_c, 3, 57, 80
4, 15839, Note_on_c, 3, 57, 0
4, 15840, Note_on_c, 3, 58, 80
4, 16559, Note_on_c, 3, 58, 0
4, 16560, Note_on_c, 3, 58, 80
4, 16799, Note_on_c, 3, 58, 0
4, 16800, Note_on_c, 3, 57, 80
4, 17759, Note_on_c, 3, 57, 0
4, 17760, Note_on_c, 3, 55, 80
4, 18239, Note_on_c, 3, 55, 0
4, 18240, Note_on_c, 3, 53, 80
4, 18479, Note_on_c, 3, 53, 0
4, 18480, Note_on_c, 3, 52, 80
4, 18719, Note_on_c, 3, 52, 0
4, 18720, Note_on_c, 3, 53, 80
4, 18959, Note_on_c, 3, 53, 0
4, 18960, Note_on_c, 3, 55, 80
4, 19199, Note_on_c, 3, 55, 0
4, 19200, Note_on_c, 3, 57, 80
4, 20159, Note_on_c, 3, 57, 0
4, 20160, Note_on_c, 3, 64, 80
4, 20639, Note_on_c, 3, 64, 0
4, 20640, Note_on_c, 3, 64, 80
4, 21599, Note_on_c, 3, 64, 0
4, 21600, Note_on_c, 3, 62, 80
4, 22079, Note_on_c, 3, 62, 0
4, 22080, Note_on_c, 3, 60, 80
4, 22559, Note_on_c, 3, 60, 0
4, 22560, Note_on_c, 3, 62, 80
4, 23519, Note_on_c, 3, 62, 0
4, 23520, Note_on_c, 3, 62, 80
4, 23999, Note_on_c, 3, 62, 0
4, 24000, Note_on_c, 3, 60, 80
4, 24479, Note_on_c, 3, 60, 0
4, 24480, Note_on_c, 3, 62, 80
4, 24959, Note_on_c, 3, 62, 0
4, 24960, Note_on_c, 3, 62, 80
4, 25439, Note_on_c, 3, 62, 0
4, 25440, Note_on_c, 3, 60, 80
4, 25679, Note_on_c, 3, 60, 0
4, 25680, Note_on_c, 3, 59, 80
4, 25919, Note_on_c, 3, 59, 0
4, 25920, Note_on_c, 3, 57, 80
4, 26159, Note_on_c, 3, 57, 0
4, 26160, Note_on_c, 3, 55, 80
4, 26399, Note_on_c, 3, 55, 0
4, 26400, Note_on_c, 3, 57, 80
4, 26639, Note_on_c, 3, 57, 0
4, 26640, Note_on_c, 3, 59, 80
4, 26879, Note_on_c, 3, 59, 0
4, 26880, Note_on_c, 3, 60, 80
4, 27359, Note_on_c, 3, 60, 0
4, 27360, Note_on_c, 3, 60, 80
4, 27839, Note_on_c, 3, 60, 0
4, 27840, Note_on_c, 3, 57, 80
4, 28799, Note_on_c, 3, 57, 0
4, 28800, Note_on_c, 3, 58, 80
4, 29759, Note_on_c, 3, 58, 0
4, 29760, Note_on_c, 3, 57, 80
4, 30719, Note_on_c, 3, 57, 0
4, 30720, Note_on_c, 3, 55, 80
4, 31439, Note_on_c, 3, 55, 0
4, 31440, Note_on_c, 3, 55, 80
4, 31679, Note_on_c, 3, 55, 0
4, 31680, Note_on_c, 3, 60, 80
4, 32159, Note_on_c, 3, 60, 0
4, 32160, Note_on_c, 3, 60, 80
4, 32639, Note_on_c, 3, 60, 0
4, 32640, Note_on_c, 3, 62, 80
4, 33599, Note_on_c, 3, 62, 0
4, 33600, Note_on_c, 3, 60, 80
4, 34079, Note_on_c, 3, 60, 0
4, 34080, Note_on_c, 3, 60, 80
4, 34559, Note_on_c, 3, 60, 0
4, 34560, Note_on_c, 3, 59, 80
4, 35279, Note_on_c, 3, 59, 0
4, 35280, Note_on_c, 3, 59, 80
4, 35519, Note_on_c, 3, 59, 0
4, 35520, Note_on_c, 3, 62, 80
4, 35999, Note_on_c, 3, 62, 0
4, 36000, Note_on_c, 3, 62, 80
4, 36479, Note_on_c, 3, 62, 0
4, 36480, Note_on_c, 3, 64, 80
4, 36959, Note_on_c, 3, 64, 0
4, 36960, Note_on_c, 3, 62, 80
4, 37199, Note_on_c, 3, 62, 0
4, 37200, Note_on_c, 3, 60, 80
4, 37439, Note_on_c, 3, 60, 0
4, 37440, Note_on_c, 3, 59, 80
4, 37679, Note_on_c, 3, 59, 0
4, 37680, Note_on_c, 3, 60, 80
4, 37919, Note_on_c, 3, 60, 0
4, 37920, Note_on_c, 3, 62, 80
4, 38879, Note_on_c, 3, 62, 0
4, 38880, Note_on_c, 3, 60, 80
4, 39359, Note_on_c, 3, 60, 0
4, 39360, Note_on_c, 3, 59, 80
4, 39839, Note_on_c, 3, 59, 0
4, 39840, Note_on_c, 3, 52, 80
4, 40319, Note_on_c, 3, 52, 0
4, 40320, Note_on_c, 3, 57, 80
4, 41279, Note_on_c, 3, 57, 0
4, 41280, Note_on_c, 3, 60, 80
4, 42239, Note_on_c, 3, 60, 0
4, 42240, Note_on_c, 3, 57, 80
4, 42719, Note_on_c, 3, 57, 0
4, 42720, Note_on_c, 3, 62, 80
4, 43679, Note_on_c, 3, 62, 0
4, 43680, Note_on_c, 3, 60, 80
4, 44159, Note_on_c, 3, 60, 0
4, 44160, Note_on_c, 3, 62, 80
4, 44639, Note_on_c, 3, 62, 0
4, 44640, Note_on_c, 3, 55, 80
4, 45599, Note_on_c, 3, 55, 0
4, 45600, Note_on_c, 3, 60, 80
4, 46559, Note_on_c, 3, 60, 0
4, 46560, Note_on_c, 3, 53, 80
4, 47039, Note_on_c, 3, 53, 0
4, 47040, Note_on_c, 3, 57, 80
4, 47519, Note_on_c, 3, 57, 0
4, 47520, Note_on_c, 3, 59, 80
4, 47999, Note_on_c, 3, 59, 0
4, 48000, Note_on_c, 3, 60, 80
4, 48479, Note_on_c, 3, 60, 0
4, 48480, Note_on_c, 3, 62, 80
4, 48959, Note_on_c, 3, 62, 0
4, 48960, Note_on_c, 3, 55, 80
4, 50879, Note_on_c, 3, 55, 0
4, 51840, Note_on_c, 3, 52, 80
4, 52799, Note_on_c, 3, 52, 0
4, 53280, Note_on_c, 3, 59, 80
4, 54239, Note_on_c, 3, 59, 0
4, 54240, Note_on_c, 3, 60, 80
4, 54719, Note_on_c, 3, 60, 0
4, 54720, Note_on_c, 3, 59, 80
4, 55679, Note_on_c, 3, 59, 0
4, 55680, Note_on_c, 3, 57, 80
4, 56639, Note_on_c, 3, 57, 0
4, 57600, Note_on_c, 3, 60, 80
4, 59039, Note_on_c, 3, 60, 0
4, 59040, Note_on_c, 3, 55, 80
4, 59999, Note_on_c, 3, 55, 0
4, 60000, Note_on_c, 3, 62, 80
4, 60479, Note_on_c, 3, 62, 0
4, 60480, Note_on_c, 3, 57, 80
4, 61439, Note_on_c, 3, 57, 0
4, 61440, Note_on_c, 3, 57, 80
4, 62399, Note_on_c, 3, 57, 0
4, 62880, Note_on_c, 3, 59, 80
4, 63359, Note_on_c, 3, 59, 0
4, 63360, Note_on_c, 3, 64, 80
4, 64079, Note_on_c, 3, 64, 0
4, 64080, Note_on_c, 3, 62, 80
4, 64319, Note_on_c, 3, 62, 0
4, 64320, Note_on_c, 3, 60, 80
4, 64799, Note_on_c, 3, 60, 0
4, 64800, Note_on_c, 3, 60, 80
4, 65279, Note_on_c, 3, 60, 0
4, 65280, Note_on_c, 3, 57, 80
4, 66719, Note_on_c, 3, 57, 0
4, 66720, Note_on_c, 3, 60, 80
4, 67439, Note_on_c, 3, 60, 0
4, 67440, Note_on_c, 3, 59, 80
4, 67679, Note_on_c, 3, 59, 0
4, 67680, Note_on_c, 3, 57, 80
4, 68639, Note_on_c, 3, 57, 0
4, 68640, Note_on_c, 3, 50, 80
4, 69119, Note_on_c, 3, 50, 0
4, 69120, Note_on_c, 3, 53, 80
4, 70079, Note_on_c, 3, 53, 0
4, 70080, Note_on_c, 3, 52, 80
4, 71039, Note_on_c, 3, 52, 0
4, 71040, Note_on_c, 3, 52, 80
4, 71999, Note_on_c, 3, 52, 0
4, 72480, Note_on_c, 3, 50, 80
4, 72959, Note_on_c, 3, 50, 0
4, 72960, Note_on_c, 3, 52, 80
4, 73919, Note_on_c, 3, 52, 0
4, 73920, Note_on_c, 3, 52, 80
4, 74879, Note_on_c, 3, 52, 0
4, 78720, Note_on_c, 3, 57, 80
4, 79679, Note_on_c, 3, 57, 0
4, 79680, Note_on_c, 3, 60, 80
4, 80159, Note_on_c, 3, 60, 0
4, 80160, Note_on_c, 3, 60, 80
4, 81119, Note_on_c, 3, 60, 0
4, 81120, Note_on_c, 3, 58, 80
4, 81599, Note_on_c, 3, 58, 0
4, 81600, Note_on_c, 3, 57, 80
4, 81839, Note_on_c, 3, 57, 0
4, 81840, Note_on_c, 3, 53, 80
4, 82079, Note_on_c, 3, 53, 0
4, 82080, Note_on_c, 3, 58, 80
4, 83039, Note_on_c, 3, 58, 0
4, 83040, Note_on_c, 3, 57, 80
4, 83519, Note_on_c, 3, 57, 0
4, 84000, Note_on_c, 3, 57, 80
4, 84959, Note_on_c, 3, 57, 0
4, 84960, Note_on_c, 3, 57, 80
4, 85919, Note_on_c, 3, 57, 0
4, 85920, Note_on_c, 3, 52, 80
4, 86399, Note_on_c, 3, 52, 0
4, 86400, Note_on_c, 3, 59, 80
4, 89279, Note_on_c, 3, 59, 0
4, 89280, Note_on_c, 3, 59, 80
4, 91199, Note_on_c, 3, 59, 0
4, 91200, Note_on_c, 3, 58, 80
4, 92159, Note_on_c, 3, 58, 0
4, 92160, Note_on_c, 3, 50, 80
4, 93119, Note_on_c, 3, 50, 0
4, 93120, Note_on_c, 3, 55, 80
4, 95039, Note_on_c, 3, 55, 0
4, 95040, Note_on_c, 3, 54, 80
4, 95999, Note_on_c, 3, 54, 0
4, 96480, Note_on_c, 3, 52, 80
4, 96959, Note_on_c, 3, 52, 0
4, 97440, Note_on_c, 3, 50, 80
4, 98399, Note_on_c, 3, 50, 0
4, 98400, Note_on_c, 3, 57, 80
4, 98879, Note_on_c, 3, 57, 0
4, 98880, Note_on_c, 3, 52, 80
4, 99839, Note_on_c, 3, 52, 0
4, 99840, Note_on_c, 3, 52, 80
4, 100799, Note_on_c, 3, 52, 0
4, 101760, Note_on_c, 3, 57, 80
4, 102719, Note_on_c, 3, 57, 0
4, 103200, Note_on_c, 3, 64, 80
4, 104159, Note_on_c, 3, 64, 0
4, 104160, Note_on_c, 3, 65, 80
4, 104639, Note_on_c, 3, 65, 0
4, 104640, Note_on_c, 3, 64, 80
4, 105599, Note_on_c, 3, 64, 0
4, 105600, Note_on_c, 3, 62, 80
4, 106559, Note_on_c, 3, 62, 0
4, 108000, Note_on_c, 3, 52, 80
4, 108479, Note_on_c, 3, 52, 0
4, 108480, Note_on_c, 3, 57, 80
4, 109199, Note_on_c, 3, 57, 0
4, 109200, Note_on_c, 3, 55, 80
4, 109439, Note_on_c, 3, 55, 0
4, 109440, Note_on_c, 3, 53, 80
4, 109919, Note_on_c, 3, 53, 0
4, 109920, Note_on_c, 3, 53, 80
4, 110399, Note_on_c, 3, 53, 0
4, 110400, Note_on_c, 3, 52, 80
4, 110879, Note_on_c, 3, 52, 0
4, 110880, Note_on_c, 3, 57, 80
4, 111599, Note_on_c, 3, 57, 0
4, 111600, Note_on_c, 3, 59, 80
4, 111839, Note_on_c, 3, 59, 0
4, 111840, Note_on_c, 3, 60, 80
4, 112799, Note_on_c, 3, 60, 0
4, 112800, Note_on_c, 3, 62, 80
4, 113279, Note_on_c, 3, 62, 0
4, 113280, Note_on_c, 3, 60, 80
4, 114239, Note_on_c, 3, 60, 0
4, 114240, Note_on_c, 3, 57, 80
4, 115199, Note_on_c, 3, 57, 0
4, 115200, Note_on_c, 3, 57, 80
4, 116159, Note_on_c, 3, 57, 0
4, 116640, Note_on_c, 3, 57, 80
4, 117119, Note_on_c, 3, 57, 0
4, 117120, Note_on_c, 3, 57, 80
4, 118079, Note_on_c, 3, 57, 0
4, 118080, Note_on_c, 3, 56, 80
4, 119039, Note_on_c, 3, 56, 0
4, 119520, Note_on_c, 3, 55, 80
4, 119999, Note_on_c, 3, 55, 0
4, 120000, Note_on_c, 3, 55, 80
4, 120959, Note_on_c, 3, 55, 0
4, 120960, Note_on_c, 3, 54, 80
4, 122879, Note_on_c, 3, 54, 0
4, 122880, Note_on_c, 3, 53, 80
4, 124799, Note_on_c, 3, 53, 0
4, 124800, Note_on_c, 3, 50, 80
4, 125759, Note_on_c, 3, 50, 0
4, 125760, Note_on_c, 3, 62, 80
4, 126719, Note_on_c, 3, 62, 0
4, 126720, Note_on_c, 3, 60, 80
4, 127679, Note_on_c, 3, 60, 0
4, 128160, Note_on_c, 3, 62, 80
4, 129119, Note_on_c, 3, 62, 0
4, 129120, Note_on_c, 3, 62, 80
4, 130079, Note_on_c, 3, 62, 0
4, 130080, Note_on_c, 3, 57, 80
4, 130559, Note_on_c, 3, 57, 0
4, 130560, Note_on_c, 3, 55, 80
4, 131519, Note_on_c, 3, 55, 0
4, 131520, Note_on_c, 3, 54, 80
4, 131999, Note_on_c, 3, 54, 0
4, 132000, Note_on_c, 3, 52, 80
4, 132479, Note_on_c, 3, 52, 0
4, 132480, Note_on_c, 3, 54, 80
4, 133439, Note_on_c, 3, 54, 0
4, 133440, Note_on_c, 3, 54, 80
4, 134879, Note_on_c, 3, 54, 0
4, 134880, Note_on_c, 3, 50, 80
4, 135839, Note_on_c, 3, 50, 0
4, 135840, Note_on_c, 3, 52, 80
4, 136079, Note_on_c, 3, 52, 0
4, 136080, Note_on_c, 3, 54, 80
4, 136319, Note_on_c, 3, 54, 0
4, 136320, Note_on_c, 3, 55, 80
4, 136559, Note_on_c, 3, 55, 0
4, 136560, Note_on_c, 3, 57, 80
4, 136799, Note_on_c, 3, 57, 0
4, 136800, Note_on_c, 3, 58, 80
4, 137039, Note_on_c, 3, 58, 0
4, 137040, Note_on_c, 3, 60, 80
4, 137279, Note_on_c, 3, 60, 0
4, 137280, Note_on_c, 3, 62, 80
4, 139199, Note_on_c, 3, 62, 0
4, 139200, Note_on_c, 3, 62, 80
4, 140159, Note_on_c, 3, 62, 0
4, 140160, End_track
5, 0, Start_track
5, 0, Key_signature, 0, "major"
5, 0, Control_c, 4, 121, 0
5, 0, Program_c, 4, 57
5, 0, Control_c, 4, 7, 80
5, 0, Control_c, 4, 10, 63
5, 0, Control_c, 4, 91, 0
5, 0, Control_c, 4, 93, 0
5, 0, MIDI_port, 0
5, 6720, Note_on_c, 4, 50, 80
5, 8639, Note_on_c, 4, 50, 0
5, 8640, Note_on_c, 4, 48, 80
5, 9599, Note_on_c, 4, 48, 0
5, 9600, Note_on_c, 4, 41, 80
5, 10079, Note_on_c, 4, 41, 0
5, 10080, Note_on_c, 4, 53, 80
5, 10799, Note_on_c, 4, 53, 0
5, 10800, Note_on_c, 4, 53, 80
5, 11039, Note_on_c, 4, 53, 0
5, 11040, Note_on_c, 4, 50, 80
5, 11999, Note_on_c, 4, 50, 0
5, 12000, Note_on_c, 4, 48, 80
5, 12479, Note_on_c, 4, 48, 0
5, 12480, Note_on_c, 4, 46, 80
5, 13439, Note_on_c, 4, 46, 0
5, 13440, Note_on_c, 4, 45, 80
5, 13919, Note_on_c, 4, 45, 0
5, 13920, Note_on_c, 4, 45, 80
5, 14399, Note_on_c, 4, 45, 0
5, 14400, Note_on_c, 4, 48, 80
5, 15119, Note_on_c, 4, 48, 0
5, 15120, Note_on_c, 4, 48, 80
5, 15359, Note_on_c, 4, 48, 0
5, 15360, Note_on_c, 4, 45, 80
5, 15839, Note_on_c, 4, 45, 0
5, 15840, Note_on_c, 4, 43, 80
5, 16319, Note_on_c, 4, 43, 0
5, 16320, Note_on_c, 4, 41, 80
5, 17279, Note_on_c, 4, 41, 0
5, 17280, Note_on_c, 4, 43, 80
5, 18239, Note_on_c, 4, 43, 0
5, 19200, Note_on_c, 4, 45, 80
5, 21119, Note_on_c, 4, 45, 0
5, 21120, Note_on_c, 4, 41, 80
5, 23039, Note_on_c, 4, 41, 0
5, 23520, Note_on_c, 4, 46, 80
5, 23999, Note_on_c, 4, 46, 0
5, 24000, Note_on_c, 4, 45, 80
5, 24719, Note_on_c, 4, 45, 0
5, 24720, Note_on_c, 4, 45, 80
5, 24959, Note_on_c, 4, 45, 0
5, 24960, Note_on_c, 4, 47, 80
5, 25439, Note_on_c, 4, 47, 0
5, 25440, Note_on_c, 4, 48, 80
5, 25919, Note_on_c, 4, 48, 0
5, 25920, Note_on_c, 4, 50, 80
5, 26879, Note_on_c, 4, 50, 0
5, 26880, Note_on_c, 4, 48, 80
5, 27839, Note_on_c, 4, 48, 0
5, 28320, Note_on_c, 4, 50, 80
5, 29279, Note_on_c, 4, 50, 0
5, 29280, Note_on_c, 4, 43, 80
5, 29759, Note_on_c, 4, 43, 0
5, 29760, Note_on_c, 4, 50, 80
5, 30719, Note_on_c, 4, 50, 0
5, 30720, Note_on_c, 4, 52, 80
5, 32159, Note_on_c, 4, 52, 0
5, 32160, Note_on_c, 4, 48, 80
5, 33119, Note_on_c, 4, 48, 0
5, 33120, Note_on_c, 4, 47, 80
5, 33599, Note_on_c, 4, 47, 0
5, 33600, Note_on_c, 4, 48, 80
5, 34079, Note_on_c, 4, 48, 0
5, 34080, Note_on_c, 4, 48, 80
5, 34559, Note_on_c, 4, 48, 0
5, 34560, Note_on_c, 4, 52, 80
5, 35279, Note_on_c, 4, 52, 0
5, 35280, Note_on_c, 4, 52, 80
5, 35519, Note_on_c, 4, 52, 0
5, 35520, Note_on_c, 4, 50, 80
5, 35999, Note_on_c, 4, 50, 0
5, 36000, Note_on_c, 4, 47, 80
5, 36479, Note_on_c, 4, 47, 0
5, 36480, Note_on_c, 4, 45, 80
5, 37439, Note_on_c, 4, 45, 0
5, 37440, Note_on_c, 4, 52, 80
5, 40319, Note_on_c, 4, 52, 0
5, 40320, Note_on_c, 4, 48, 80
5, 40799, Note_on_c, 4, 48, 0
5, 40800, Note_on_c, 4, 41, 80
5, 41759, Note_on_c, 4, 41, 0
5, 41760, Note_on_c, 4, 53, 80
5, 42719, Note_on_c, 4, 53, 0
5, 42720, Note_on_c, 4, 54, 80
5, 43199, Note_on_c, 4, 54, 0
5, 43200, Note_on_c, 4, 55, 80
5, 45119, Note_on_c, 4, 55, 0
5, 45120, Note_on_c, 4, 48, 80
5, 46079, Note_on_c, 4, 48, 0
5, 47520, Note_on_c, 4, 52, 80
5, 48479, Note_on_c, 4, 52, 0
5, 48480, Note_on_c, 4, 47, 80
5, 48959, Note_on_c, 4, 47, 0
5, 48960, Note_on_c, 4, 48, 80
5, 49439, Note_on_c, 4, 48, 0
5, 49440, Note_on_c, 4, 50, 80
5, 49919, Note_on_c, 4, 50, 0
5, 49920, Note_on_c, 4, 52, 80
5, 50639, Note_on_c, 4, 52, 0
5, 50640, Note_on_c, 4, 52, 80
5, 50879, Note_on_c, 4, 52, 0
5, 50880, Note_on_c, 4, 50, 80
5, 51839, Note_on_c, 4, 50, 0
5, 51840, Note_on_c, 4, 48, 80
5, 52799, Note_on_c, 4, 48, 0
5, 53280, Note_on_c, 4, 47, 80
5, 54239, Note_on_c, 4, 47, 0
5, 54240, Note_on_c, 4, 45, 80
5, 55199, Note_on_c, 4, 45, 0
5, 55200, Note_on_c, 4, 44, 80
5, 55679, Note_on_c, 4, 44, 0
5, 55680, Note_on_c, 4, 45, 80
5, 56639, Note_on_c, 4, 45, 0
5, 57600, Note_on_c, 4, 41, 80
5, 58559, Note_on_c, 4, 41, 0
5, 58560, Note_on_c, 4, 53, 80
5, 59039, Note_on_c, 4, 53, 0
5, 59040, Note_on_c, 4, 52, 80
5, 59999, Note_on_c, 4, 52, 0
5, 60000, Note_on_c, 4, 50, 80
5, 60959, Note_on_c, 4, 50, 0
5, 60960, Note_on_c, 4, 49, 80
5, 61439, Note_on_c, 4, 49, 0
5, 61440, Note_on_c, 4, 50, 80
5, 62399, Note_on_c, 4, 50, 0
5, 65280, Note_on_c, 4, 45, 80
5, 65759, Note_on_c, 4, 45, 0
5, 65760, Note_on_c, 4, 50, 80
5, 66479, Note_on_c, 4, 50, 0
5, 66480, Note_on_c, 4, 48, 80
5, 66719, Note_on_c, 4, 48, 0
5, 66720, Note_on_c, 4, 45, 80
5, 67679, Note_on_c, 4, 45, 0
5, 67680, Note_on_c, 4, 41, 80
5, 68159, Note_on_c, 4, 41, 0
5, 68160, Note_on_c, 4, 53, 80
5, 69119, Note_on_c, 4, 53, 0
5, 70080, Note_on_c, 4, 45, 80
5, 71039, Note_on_c, 4, 45, 0
5, 71040, Note_on_c, 4, 45, 80
5, 71999, Note_on_c, 4, 45, 0
5, 75360, Note_on_c, 4, 48, 80
5, 75839, Note_on_c, 4, 48, 0
5, 75840, Note_on_c, 4, 50, 80
5, 76799, Note_on_c, 4, 50, 0
5, 76800, Note_on_c, 4, 50, 80
5, 78719, Note_on_c, 4, 50, 0
5, 79680, Note_on_c, 4, 41, 80
5, 80159, Note_on_c, 4, 41, 0
5, 80160, Note_on_c, 4, 43, 80
5, 80399, Note_on_c, 4, 43, 0
5, 80400, Note_on_c, 4, 45, 80
5, 80639, Note_on_c, 4, 45, 0
5, 80640, Note_on_c, 4, 46, 80
5, 80879, Note_on_c, 4, 46, 0
5, 80880, Note_on_c, 4, 48, 80
5, 81119, Note_on_c, 4, 48, 0
5, 81120, Note_on_c, 4, 50, 80
5, 81359, Note_on_c, 4, 50, 0
5, 81360, Note_on_c, 4, 52, 80
5, 81599, Note_on_c, 4, 52, 0
5, 81600, Note_on_c, 4, 53, 80
5, 82559, Note_on_c, 4, 53, 0
5, 82560, Note_on_c, 4, 53, 80
5, 83519, Note_on_c, 4, 53, 0
5, 84000, Note_on_c, 4, 50, 80
5, 84959, Note_on_c, 4, 50, 0
5, 84960, Note_on_c, 4, 50, 80
5, 85919, Note_on_c, 4, 50, 0
5, 85920, Note_on_c, 4, 48, 80
5, 86399, Note_on_c, 4, 48, 0
5, 86400, Note_on_c, 4, 47, 80
5, 88319, Note_on_c, 4, 47, 0
5, 88320, Note_on_c, 4, 47, 80
5, 91199, Note_on_c, 4, 47, 0
5, 91200, Note_on_c, 4, 43, 80
5, 94079, Note_on_c, 4, 43, 0
5, 94080, Note_on_c, 4, 50, 80
5, 95999, Note_on_c, 4, 50, 0
5, 96480, Note_on_c, 4, 48, 80
5, 96959, Note_on_c, 4, 48, 0
5, 97440, Note_on_c, 4, 47, 80
5, 98399, Note_on_c, 4, 47, 0
5, 98400, Note_on_c, 4, 45, 80
5, 99359, Note_on_c, 4, 45, 0
5, 99360, Note_on_c, 4, 44, 80
5, 99839, Note_on_c, 4, 44, 0
5, 99840, Note_on_c, 4, 45, 80
5, 100799, Note_on_c, 4, 45, 0
5, 101760, Note_on_c, 4, 41, 80
5, 102719, Note_on_c, 4, 41, 0
5, 102720, Note_on_c, 4, 53, 80
5, 103199, Note_on_c, 4, 53, 0
5, 103200, Note_on_c, 4, 52, 80
5, 104159, Note_on_c, 4, 52, 0
5, 104160, Note_on_c, 4, 50, 80
5, 105119, Note_on_c, 4, 50, 0
5, 105120, Note_on_c, 4, 49, 80
5, 105599, Note_on_c, 4, 49, 0
5, 105600, Note_on_c, 4, 50, 80
5, 106559, Note_on_c, 4, 50, 0
5, 109440, Note_on_c, 4, 45, 80
5, 109919, Note_on_c, 4, 45, 0
5, 109920, Note_on_c, 4, 50, 80
5, 110639, Note_on_c, 4, 50, 0
5, 110640, Note_on_c, 4, 48, 80
5, 110879, Note_on_c, 4, 48, 0
5, 110880, Note_on_c, 4, 45, 80
5, 111839, Note_on_c, 4, 45, 0
5, 111840, Note_on_c, 4, 41, 80
5, 112319, Note_on_c, 4, 41, 0
5, 112320, Note_on_c, 4, 53, 80
5, 113279, Note_on_c, 4, 53, 0
5, 114240, Note_on_c, 4, 45, 80
5, 115199, Note_on_c, 4, 45, 0
5, 115200, Note_on_c, 4, 45, 80
5, 116159, Note_on_c, 4, 45, 0
5, 119520, Note_on_c, 4, 48, 80
5, 119999, Note_on_c, 4, 48, 0
5, 120000, Note_on_c, 4, 50, 80
5, 120959, Note_on_c, 4, 50, 0
5, 120960, Note_on_c, 4, 50, 80
5, 122879, Note_on_c, 4, 50, 0
5, 123840, Note_on_c, 4, 41, 80
5, 124319, Note_on_c, 4, 41, 0
5, 124320, Note_on_c, 4, 43, 80
5, 124559, Note_on_c, 4, 43, 0
5, 124560, Note_on_c, 4, 45, 80
5, 124799, Note_on_c, 4, 45, 0
5, 124800, Note_on_c, 4, 46, 80
5, 125039, Note_on_c, 4, 46, 0
5, 125040, Note_on_c, 4, 48, 80
5, 125279, Note_on_c, 4, 48, 0
5, 125280, Note_on_c, 4, 50, 80
5, 125519, Note_on_c, 4, 50, 0
5, 125520, Note_on_c, 4, 52, 80
5, 125759, Note_on_c, 4, 52, 0
5, 125760, Note_on_c, 4, 53, 80
5, 126719, Note_on_c, 4, 53, 0
5, 126720, Note_on_c, 4, 53, 80
5, 127679, Note_on_c, 4, 53, 0
5, 128160, Note_on_c, 4, 50, 80
5, 129119, Note_on_c, 4, 50, 0
5, 129120, Note_on_c, 4, 50, 80
5, 130079, Note_on_c, 4, 50, 0
5, 130080, Note_on_c, 4, 48, 80
5, 130559, Note_on_c, 4, 48, 0
5, 130560, Note_on_c, 4, 47, 80
5, 132479, Note_on_c, 4, 47, 0
5, 132480, Note_on_c, 4, 47, 80
5, 135359, Note_on_c, 4, 47, 0
5, 135360, Note_on_c, 4, 43, 80
5, 138239, Note_on_c, 4, 43, 0
5, 138240, Note_on_c, 4, 50, 80
5, 140159, Note_on_c, 4, 50, 0
5, 140160, End_track
0, 0, End_of_file
