0, 0, Header, 1, 4, 480
1, 0, Start_track
1, 0, Time_signature, 4, 2, 24, 8
1, 0, Key_signature, 1, "major"
1, 0, Tempo, 821916
1, 0, Control_c, 0, 121, 0
1, 0, Program_c, 0, 52
1, 0, Control_c, 0, 7, 100
1, 0, Control_c, 0, 10, 64
1, 0, Control_c, 0, 91, 0
1, 0, Control_c, 0, 93, 0
1, 0, MIDI_port, 0
1, 0, Note_on_c, 0, 71, 127
1, 479, Note_on_c, 0, 71, 0
1, 480, Note_on_c, 0, 71, 127
1, 959, Note_on_c, 0, 71, 0
1, 960, Note_on_c, 0, 69, 127
1, 1439, Note_on_c, 0, 69, 0
1, 1440, Note_on_c, 0, 67, 127
1, 1919, Note_on_c, 0, 67, 0
1, 1920, Note_on_c, 0, 66, 127
1, 2879, Note_on_c, 0, 66, 0
1, 2880, Note_on_c, 0, 64, 127
1, 3647, Note_on_c, 0, 64, 0
1, 3840, Note_on_c, 0, 71, 127
1, 4319, Note_on_c, 0, 71, 0
1, 4320, Note_on_c, 0, 73, 127
1, 4799, Note_on_c, 0, 73, 0
1, 4800, Note_on_c, 0, 74, 127
1, 5279, Note_on_c, 0, 74, 0
1, 5280, Note_on_c, 0, 71, 127
1, 5759, Note_on_c, 0, 71, 0
1, 5760, Note_on_c, 0, 76, 127
1, 6719, Note_on_c, 0, 76, 0
1, 6720, Note_on_c, 0, 75, 127
1, 7391, Note_on_c, 0, 75, 0
1, 7680, Note_on_c, 0, 76, 127
1, 7919, Note_on_c, 0, 76, 0
1, 7920, Note_on_c, 0, 78, 127
1, 8159, Note_on_c, 0, 78, 0
1, 8160, Note_on_c, 0, 79, 127
1, 8639, Note_on_c, 0, 79, 0
1, 8640, Note_on_c, 0, 78, 127
1, 9359, Note_on_c, 0, 78, 0
1, 9360, Note_on_c, 0, 78, 127
1, 9599, Note_on_c, 0, 78, 0
1, 9600, Note_on_c, 0, 76, 127
1, 11519, Note_on_c, 0, 76, 0
1, 11520, Tempo, 821916
1, 11520, Note_on_c, 0, 71, 127
1, 11999, Note_on_c, 0, 71, 0
1, 12000, Note_on_c, 0, 71, 127
1, 12479, Note_on_c, 0, 71, 0
1, 12480, Note_on_c, 0, 69, 127
1, 12959, Note_on_c, 0, 69, 0
1, 12960, Note_on_c, 0, 67, 127
1, 13439, Note_on_c, 0, 67, 0
1, 13440, Note_on_c, 0, 66, 127
1, 14399, Note_on_c, 0, 66, 0
1, 14400, Note_on_c, 0, 64, 127
1, 15071, Note_on_c, 0, 64, 0
1, 15360, Note_on_c, 0, 71, 127
1, 15839, Note_on_c, 0, 71, 0
1, 15840, Note_on_c, 0, 73, 127
1, 16319, Note_on_c, 0, 73, 0
1, 16320, Note_on_c, 0, 74, 127
1, 16799, Note_on_c, 0, 74, 0
1, 16800, Note_on_c, 0, 71, 127
1, 17279, Note_on_c, 0, 71, 0
1, 17280, Note_on_c, 0, 76, 127
1, 18239, Note_on_c, 0, 76, 0
1, 18240, Note_on_c, 0, 75, 127
1, 18911, Note_on_c, 0, 75, 0
1, 19200, Note_on_c, 0, 76, 127
1, 19439, Note_on_c, 0, 76, 0
1, 19440, Note_on_c, 0, 78, 127
1, 19679, Note_on_c, 0, 78, 0
1, 19680, Note_on_c, 0, 79, 127
1, 20159, Note_on_c, 0, 79, 0
1, 20160, Note_on_c, 0, 78, 127
1, 20879, Note_on_c, 0, 78, 0
1, 20880, Note_on_c, 0, 78, 127
1, 21119, Note_on_c, 0, 78, 0
1, 21120, Note_on_c, 0, 76, 127
1, 23039, Note_on_c, 0, 76, 0
1, 23040, Tempo, 821916
1, 23040, Note_on_c, 0, 71, 127
1, 23519, Note_on_c, 0, 71, 0
1, 23520, Note_on_c, 0, 71, 127
1, 23999, Note_on_c, 0, 71, 0
1, 24000, Note_on_c, 0, 72, 127
1, 24479, Note_on_c, 0, 72, 0
1, 24480, Note_on_c, 0, 71, 127
1, 24959, Note_on_c, 0, 71, 0
1, 24960, Note_on_c, 0, 69, 127
1, 25439, Note_on_c, 0, 69, 0
1, 25440, Note_on_c, 0, 69, 127
1, 25919, Note_on_c, 0, 69, 0
1, 25920, Note_on_c, 0, 67, 127
1, 26591, Note_on_c, 0, 67, 0
1, 26880, Note_on_c, 0, 71, 127
1, 27359, Note_on_c, 0, 71, 0
1, 27360, Note_on_c, 0, 73, 127
1, 27839, Note_on_c, 0, 73, 0
1, 27840, Note_on_c, 0, 74, 127
1, 28319, Note_on_c, 0, 74, 0
1, 28320, Note_on_c, 0, 71, 127
1, 28799, Note_on_c, 0, 71, 0
1, 28800, Note_on_c, 0, 76, 127
1, 29279, Note_on_c, 0, 76, 0
1, 29280, Note_on_c, 0, 74, 127
1, 29759, Note_on_c, 0, 74, 0
1, 29760, Note_on_c, 0, 73, 127
1, 30719, Note_on_c, 0, 73, 0
1, 30720, Note_on_c, 0, 71, 127
1, 31391, Note_on_c, 0, 71, 0
1, 31680, Note_on_c, 0, 71, 127
1, 32159, Note_on_c, 0, 71, 0
1, 32160, Note_on_c, 0, 71, 127
1, 32639, Note_on_c, 0, 71, 0
1, 32640, Note_on_c, 0, 69, 127
1, 33119, Note_on_c, 0, 69, 0
1, 33120, Note_on_c, 0, 67, 127
1, 33599, Note_on_c, 0, 67, 0
1, 33600, Tempo, 857140
1, 33600, Note_on_c, 0, 66, 127
1, 34080, Tempo, 923080
1, 34559, Note_on_c, 0, 66, 0
1, 34560, Tempo, 1000000
1, 34560, Note_on_c, 0, 64, 127
1, 35040, Tempo, 1090909
1, 35520, Tempo, 1200000
1, 36000, Tempo, 2000000
1, 36479, Note_on_c, 0, 64, 0
1, 36480, End_track
2, 0, Start_track
2, 0, Key_signature, 1, "major"
2, 0, Control_c, 1, 121, 0
2, 0, Program_c, 1, 52
2, 0, Control_c, 1, 7, 100
2, 0, Control_c, 1, 10, 64
2, 0, Control_c, 1, 91, 0
2, 0, Control_c, 1, 93, 0
2, 0, MIDI_port, 0
2, 240, Note_on_c, 1, 67, 127
2, 479, Note_on_c, 1, 67, 0
2, 480, Note_on_c, 1, 71, 127
2, 719, Note_on_c, 1, 71, 0
2, 720, Note_on_c, 1, 67, 127
2, 959, Note_on_c, 1, 67, 0
2, 960, Note_on_c, 1, 67, 127
2, 1199, Note_on_c, 1, 67, 0
2, 1200, Note_on_c, 1, 66, 127
2, 1679, Note_on_c, 1, 66, 0
2, 1680, Note_on_c, 1, 64, 127
2, 1919, Note_on_c, 1, 64, 0
2, 1920, Note_on_c, 1, 64, 127
2, 2159, Note_on_c, 1, 64, 0
2, 2160, Note_on_c, 1, 63, 127
2, 2279, Note_on_c, 1, 63, 0
2, 2280, Note_on_c, 1, 61, 127
2, 2399, Note_on_c, 1, 61, 0
2, 2400, Note_on_c, 1, 63, 127
2, 2879, Note_on_c, 1, 63, 0
2, 2880, Note_on_c, 1, 64, 127
2, 3071, Note_on_c, 1, 64, 0
2, 3120, Note_on_c, 1, 63, 127
2, 3359, Note_on_c, 1, 63, 0
2, 3360, Note_on_c, 1, 64, 127
2, 3599, Note_on_c, 1, 64, 0
2, 3600, Note_on_c, 1, 66, 127
2, 3839, Note_on_c, 1, 66, 0
2, 3840, Note_on_c, 1, 67, 127
2, 3959, Note_on_c, 1, 67, 0
2, 3960, Note_on_c, 1, 66, 127
2, 4079, Note_on_c, 1, 66, 0
2, 4080, Note_on_c, 1, 67, 127
2, 4319, Note_on_c, 1, 67, 0
2, 4560, Note_on_c, 1, 64, 127
2, 4799, Note_on_c, 1, 64, 0
2, 4800, Note_on_c, 1, 69, 127
2, 5519, Note_on_c, 1, 69, 0
2, 5520, Note_on_c, 1, 67, 127
2, 5639, Note_on_c, 1, 67, 0
2, 5640, Note_on_c, 1, 66, 127
2, 5759, Note_on_c, 1, 66, 0
2, 5760, Note_on_c, 1, 67, 127
2, 5999, Note_on_c, 1, 67, 0
2, 6000, Note_on_c, 1, 69, 127
2, 6119, Note_on_c, 1, 69, 0
2, 6120, Note_on_c, 1, 71, 127
2, 6239, Note_on_c, 1, 71, 0
2, 6240, Note_on_c, 1, 69, 127
2, 6719, Note_on_c, 1, 69, 0
2, 6720, Note_on_c, 1, 71, 127
2, 7199, Note_on_c, 1, 71, 0
2, 7440, Note_on_c, 1, 72, 127
2, 7679, Note_on_c, 1, 72, 0
2, 7680, Note_on_c, 1, 71, 127
2, 7919, Note_on_c, 1, 71, 0
2, 7920, Note_on_c, 1, 69, 127
2, 8159, Note_on_c, 1, 69, 0
2, 8160, Note_on_c, 1, 67, 127
2, 8399, Note_on_c, 1, 67, 0
2, 8400, Note_on_c, 1, 71, 127
2, 8639, Note_on_c, 1, 71, 0
2, 8640, Note_on_c, 1, 72, 127
2, 8879, Note_on_c, 1, 72, 0
2, 8880, Note_on_c, 1, 69, 127
2, 9119, Note_on_c, 1, 69, 0
2, 9120, Note_on_c, 1, 66, 127
2, 9599, Note_on_c, 1, 66, 0
2, 9600, Note_on_c, 1, 71, 127
2, 9839, Note_on_c, 1, 71, 0
2, 9840, Note_on_c, 1, 68, 127
2, 10079, Note_on_c, 1, 68, 0
2, 10080, Note_on_c, 1, 64, 127
2, 10319, Note_on_c, 1, 64, 0
2, 10320, Note_on_c, 1, 69, 127
2, 10559, Note_on_c, 1, 69, 0
2, 10560, Note_on_c, 1, 68, 127
2, 11519, Note_on_c, 1, 68, 0
2, 11760, Note_on_c, 1, 67, 127
2, 11999, Note_on_c, 1, 67, 0
2, 12000, Note_on_c, 1, 71, 127
2, 12239, Note_on_c, 1, 71, 0
2, 12240, Note_on_c, 1, 67, 127
2, 12479, Note_on_c, 1, 67, 0
2, 12480, Note_on_c, 1, 67, 127
2, 12719, Note_on_c, 1, 67, 0
2, 12720, Note_on_c, 1, 66, 127
2, 13199, Note_on_c, 1, 66, 0
2, 13200, Note_on_c, 1, 64, 127
2, 13439, Note_on_c, 1, 64, 0
2, 13440, Note_on_c, 1, 64, 127
2, 13679, Note_on_c, 1, 64, 0
2, 13680, Note_on_c, 1, 63, 127
2, 13799, Note_on_c, 1, 63, 0
2, 13800, Note_on_c, 1, 61, 127
2, 13919, Note_on_c, 1, 61, 0
2, 13920, Note_on_c, 1, 63, 127
2, 14399, Note_on_c, 1, 63, 0
2, 14400, Note_on_c, 1, 64, 127
2, 14591, Note_on_c, 1, 64, 0
2, 14640, Note_on_c, 1, 63, 127
2, 14879, Note_on_c, 1, 63, 0
2, 14880, Note_on_c, 1, 64, 127
2, 15119, Note_on_c, 1, 64, 0
2, 15120, Note_on_c, 1, 66, 127
2, 15359, Note_on_c, 1, 66, 0
2, 15360, Note_on_c, 1, 67, 127
2, 15479, Note_on_c, 1, 67, 0
2, 15480, Note_on_c, 1, 66, 127
2, 15599, Note_on_c, 1, 66, 0
2, 15600, Note_on_c, 1, 67, 127
2, 15839, Note_on_c, 1, 67, 0
2, 16080, Note_on_c, 1, 64, 127
2, 16319, Note_on_c, 1, 64, 0
2, 16320, Note_on_c, 1, 69, 127
2, 17039, Note_on_c, 1, 69, 0
2, 17040, Note_on_c, 1, 67, 127
2, 17159, Note_on_c, 1, 67, 0
2, 17160, Note_on_c, 1, 66, 127
2, 17279, Note_on_c, 1, 66, 0
2, 17280, Note_on_c, 1, 67, 127
2, 17519, Note_on_c, 1, 67, 0
2, 17520, Note_on_c, 1, 69, 127
2, 17639, Note_on_c, 1, 69, 0
2, 17640, Note_on_c, 1, 71, 127
2, 17759, Note_on_c, 1, 71, 0
2, 17760, Note_on_c, 1, 71, 127
2, 17819, Note_on_c, 1, 71, 0
2, 17820, Note_on_c, 1, 69, 127
2, 17879, Note_on_c, 1, 69, 0
2, 17880, Note_on_c, 1, 71, 127
2, 17939, Note_on_c, 1, 71, 0
2, 17940, Note_on_c, 1, 69, 127
2, 17999, Note_on_c, 1, 69, 0
2, 18000, Note_on_c, 1, 71, 127
2, 18059, Note_on_c, 1, 71, 0
2, 18060, Note_on_c, 1, 69, 127
2, 18119, Note_on_c, 1, 69, 0
2, 18120, Note_on_c, 1, 71, 127
2, 18179, Note_on_c, 1, 71, 0
2, 18180, Note_on_c, 1, 69, 127
2, 18239, Note_on_c, 1, 69, 0
2, 18240, Note_on_c, 1, 71, 127
2, 18719, Note_on_c, 1, 71, 0
2, 18960, Note_on_c, 1, 72, 127
2, 19199, Note_on_c, 1, 72, 0
2, 19200, Note_on_c, 1, 71, 127
2, 19439, Note_on_c, 1, 71, 0
2, 19440, Note_on_c, 1, 69, 127
2, 19679, Note_on_c, 1, 69, 0
2, 19680, Note_on_c, 1, 67, 127
2, 19919, Note_on_c, 1, 67, 0
2, 19920, Note_on_c, 1, 71, 127
2, 20159, Note_on_c, 1, 71, 0
2, 20160, Note_on_c, 1, 72, 127
2, 20399, Note_on_c, 1, 72, 0
2, 20400, Note_on_c, 1, 69, 127
2, 20639, Note_on_c, 1, 69, 0
2, 20640, Note_on_c, 1, 66, 127
2, 21119, Note_on_c, 1, 66, 0
2, 21120, Note_on_c, 1, 71, 127
2, 21359, Note_on_c, 1, 71, 0
2, 21360, Note_on_c, 1, 68, 127
2, 21599, Note_on_c, 1, 68, 0
2, 21600, Note_on_c, 1, 64, 127
2, 21839, Note_on_c, 1, 64, 0
2, 21840, Note_on_c, 1, 69, 127
2, 22079, Note_on_c, 1, 69, 0
2, 22080, Note_on_c, 1, 68, 127
2, 23039, Note_on_c, 1, 68, 0
2, 23040, Note_on_c, 1, 67, 127
2, 23279, Note_on_c, 1, 67, 0
2, 23280, Note_on_c, 1, 69, 127
2, 23519, Note_on_c, 1, 69, 0
2, 23520, Note_on_c, 1, 69, 127
2, 23759, Note_on_c, 1, 69, 0
2, 23760, Note_on_c, 1, 67, 127
2, 23999, Note_on_c, 1, 67, 0
2, 24000, Note_on_c, 1, 67, 127
2, 24239, Note_on_c, 1, 67, 0
2, 24240, Note_on_c, 1, 69, 127
2, 24479, Note_on_c, 1, 69, 0
2, 24480, Note_on_c, 1, 69, 127
2, 24719, Note_on_c, 1, 69, 0
2, 24720, Note_on_c, 1, 67, 127
2, 24959, Note_on_c, 1, 67, 0
2, 24960, Note_on_c, 1, 67, 127
2, 25439, Note_on_c, 1, 67, 0
2, 25440, Note_on_c, 1, 66, 127
2, 25919, Note_on_c, 1, 66, 0
2, 25920, Note_on_c, 1, 67, 127
2, 26039, Note_on_c, 1, 67, 0
2, 26160, Note_on_c, 1, 62, 127
2, 26399, Note_on_c, 1, 62, 0
2, 26400, Note_on_c, 1, 64, 127
2, 26639, Note_on_c, 1, 64, 0
2, 26640, Note_on_c, 1, 66, 127
2, 26879, Note_on_c, 1, 66, 0
2, 26880, Note_on_c, 1, 67, 127
2, 27119, Note_on_c, 1, 67, 0
2, 27120, Note_on_c, 1, 62, 127
2, 27359, Note_on_c, 1, 62, 0
2, 27360, Note_on_c, 1, 67, 127
2, 27839, Note_on_c, 1, 67, 0
2, 28080, Note_on_c, 1, 69, 127
2, 28559, Note_on_c, 1, 69, 0
2, 28560, Note_on_c, 1, 67, 127
2, 28679, Note_on_c, 1, 67, 0
2, 28680, Note_on_c, 1, 66, 127
2, 28799, Note_on_c, 1, 66, 0
2, 28800, Note_on_c, 1, 64, 127
2, 29039, Note_on_c, 1, 64, 0
2, 29040, Note_on_c, 1, 67, 127
2, 29279, Note_on_c, 1, 67, 0
2, 29280, Note_on_c, 1, 66, 127
2, 29519, Note_on_c, 1, 66, 0
2, 29520, Note_on_c, 1, 71, 127
2, 29759, Note_on_c, 1, 71, 0
2, 29760, Note_on_c, 1, 71, 127
2, 30239, Note_on_c, 1, 71, 0
2, 30240, Note_on_c, 1, 70, 127
2, 30719, Note_on_c, 1, 70, 0
2, 30720, Note_on_c, 1, 71, 127
2, 30839, Note_on_c, 1, 71, 0
2, 30960, Note_on_c, 1, 66, 127
2, 31199, Note_on_c, 1, 66, 0
2, 31200, Note_on_c, 1, 71, 127
2, 31439, Note_on_c, 1, 71, 0
2, 31440, Note_on_c, 1, 69, 127
2, 31679, Note_on_c, 1, 69, 0
2, 31680, Note_on_c, 1, 67, 127
2, 32879, Note_on_c, 1, 67, 0
2, 32880, Note_on_c, 1, 66, 127
2, 33359, Note_on_c, 1, 66, 0
2, 33360, Note_on_c, 1, 64, 127
2, 33599, Note_on_c, 1, 64, 0
2, 33600, Note_on_c, 1, 64, 127
2, 33839, Note_on_c, 1, 64, 0
2, 33840, Note_on_c, 1, 62, 127
2, 33959, Note_on_c, 1, 62, 0
2, 33960, Note_on_c, 1, 61, 127
2, 34079, Note_on_c, 1, 61, 0
2, 34080, Note_on_c, 1, 62, 127
2, 34799, Note_on_c, 1, 62, 0
2, 34800, Note_on_c, 1, 64, 127
2, 34919, Note_on_c, 1, 64, 0
2, 34920, Note_on_c, 1, 62, 127
2, 35039, Note_on_c, 1, 62, 0
2, 35040, Note_on_c, 1, 60, 127
2, 35159, Note_on_c, 1, 60, 0
2, 35160, Note_on_c, 1, 59, 127
2, 35279, Note_on_c, 1, 59, 0
2, 35280, Note_on_c, 1, 60, 127
2, 35519, Note_on_c, 1, 60, 0
2, 35520, Note_on_c, 1, 59, 127
2, 36479, Note_on_c, 1, 59, 0
2, 36480, End_track
3, 0, Start_track
3, 0, Key_signature, 1, "major"
3, 0, Control_c, 2, 121, 0
3, 0, Program_c, 2, 52
3, 0, Control_c, 2, 7, 100
3, 0, Control_c, 2, 10, 64
3, 0, Control_c, 2, 91, 0
3, 0, Control_c, 2, 93, 0
3, 0, MIDI_port, 0
3, 240, Note_on_c, 2, 59, 127
3, 479, Note_on_c, 2, 59, 0
3, 480, Note_on_c, 2, 64, 127
3, 719, Note_on_c, 2, 64, 0
3, 720, Note_on_c, 2, 59, 127
3, 959, Note_on_c, 2, 59, 0
3, 960, Note_on_c, 2, 64, 127
3, 1199, Note_on_c, 2, 64, 0
3, 1200, Note_on_c, 2, 63, 127
3, 1439, Note_on_c, 2, 63, 0
3, 1440, Note_on_c, 2, 64, 127
3, 1679, Note_on_c, 2, 64, 0
3, 1680, Note_on_c, 2, 55, 127
3, 1919, Note_on_c, 2, 55, 0
3, 1920, Note_on_c, 2, 60, 127
3, 2159, Note_on_c, 2, 60, 0
3, 2160, Note_on_c, 2, 59, 127
3, 2279, Note_on_c, 2, 59, 0
3, 2280, Note_on_c, 2, 57, 127
3, 2399, Note_on_c, 2, 57, 0
3, 2400, Note_on_c, 2, 59, 127
3, 2639, Note_on_c, 2, 59, 0
3, 2640, Note_on_c, 2, 57, 127
3, 2879, Note_on_c, 2, 57, 0
3, 2880, Note_on_c, 2, 55, 127
3, 3071, Note_on_c, 2, 55, 0
3, 3120, Note_on_c, 2, 57, 127
3, 3359, Note_on_c, 2, 57, 0
3, 3360, Note_on_c, 2, 55, 127
3, 3599, Note_on_c, 2, 55, 0
3, 3600, Note_on_c, 2, 54, 127
3, 3839, Note_on_c, 2, 54, 0
3, 3840, Note_on_c, 2, 52, 127
3, 4079, Note_on_c, 2, 52, 0
3, 4080, Note_on_c, 2, 52, 127
3, 4319, Note_on_c, 2, 52, 0
3, 5040, Note_on_c, 2, 54, 127
3, 5279, Note_on_c, 2, 54, 0
3, 5280, Note_on_c, 2, 62, 127
3, 5519, Note_on_c, 2, 62, 0
3, 5520, Note_on_c, 2, 57, 127
3, 5759, Note_on_c, 2, 57, 0
3, 5760, Note_on_c, 2, 59, 127
3, 5999, Note_on_c, 2, 59, 0
3, 6000, Note_on_c, 2, 57, 127
3, 6119, Note_on_c, 2, 57, 0
3, 6120, Note_on_c, 2, 55, 127
3, 6239, Note_on_c, 2, 55, 0
3, 6240, Note_on_c, 2, 64, 127
3, 6359, Note_on_c, 2, 64, 0
3, 6360, Note_on_c, 2, 63, 127
3, 6479, Note_on_c, 2, 63, 0
3, 6480, Note_on_c, 2, 64, 127
3, 6719, Note_on_c, 2, 64, 0
3, 6720, Note_on_c, 2, 66, 127
3, 7199, Note_on_c, 2, 66, 0
3, 7920, Note_on_c, 2, 63, 127
3, 8159, Note_on_c, 2, 63, 0
3, 8160, Note_on_c, 2, 64, 127
3, 8879, Note_on_c, 2, 64, 0
3, 8880, Note_on_c, 2, 64, 127
3, 9119, Note_on_c, 2, 64, 0
3, 9120, Note_on_c, 2, 62, 127
3, 10079, Note_on_c, 2, 62, 0
3, 10080, Note_on_c, 2, 60, 127
3, 10199, Note_on_c, 2, 60, 0
3, 10200, Note_on_c, 2, 59, 127
3, 10319, Note_on_c, 2, 59, 0
3, 10320, Note_on_c, 2, 60, 127
3, 10559, Note_on_c, 2, 60, 0
3, 10560, Note_on_c, 2, 59, 127
3, 11519, Note_on_c, 2, 59, 0
3, 11760, Note_on_c, 2, 59, 127
3, 11999, Note_on_c, 2, 59, 0
3, 12000, Note_on_c, 2, 64, 127
3, 12239, Note_on_c, 2, 64, 0
3, 12240, Note_on_c, 2, 59, 127
3, 12479, Note_on_c, 2, 59, 0
3, 12480, Note_on_c, 2, 64, 127
3, 12719, Note_on_c, 2, 64, 0
3, 12720, Note_on_c, 2, 63, 127
3, 12959, Note_on_c, 2, 63, 0
3, 12960, Note_on_c, 2, 64, 127
3, 13199, Note_on_c, 2, 64, 0
3, 13200, Note_on_c, 2, 55, 127
3, 13439, Note_on_c, 2, 55, 0
3, 13440, Note_on_c, 2, 60, 127
3, 13679, Note_on_c, 2, 60, 0
3, 13680, Note_on_c, 2, 59, 127
3, 13799, Note_on_c, 2, 59, 0
3, 13800, Note_on_c, 2, 57, 127
3, 13919, Note_on_c, 2, 57, 0
3, 13920, Note_on_c, 2, 59, 127
3, 14159, Note_on_c, 2, 59, 0
3, 14160, Note_on_c, 2, 57, 127
3, 14399, Note_on_c, 2, 57, 0
3, 14400, Note_on_c, 2, 55, 127
3, 14591, Note_on_c, 2, 55, 0
3, 14640, Note_on_c, 2, 57, 127
3, 14879, Note_on_c, 2, 57, 0
3, 14880, Note_on_c, 2, 55, 127
3, 15119, Note_on_c, 2, 55, 0
3, 15120, Note_on_c, 2, 54, 127
3, 15359, Note_on_c, 2, 54, 0
3, 15360, Note_on_c, 2, 52, 127
3, 15599, Note_on_c, 2, 52, 0
3, 15600, Note_on_c, 2, 52, 127
3, 15839, Note_on_c, 2, 52, 0
3, 16560, Note_on_c, 2, 54, 127
3, 16799, Note_on_c, 2, 54, 0
3, 16800, Note_on_c, 2, 62, 127
3, 17039, Note_on_c, 2, 62, 0
3, 17040, Note_on_c, 2, 57, 127
3, 17279, Note_on_c, 2, 57, 0
3, 17280, Note_on_c, 2, 59, 127
3, 17519, Note_on_c, 2, 59, 0
3, 17520, Note_on_c, 2, 57, 127
3, 17639, Note_on_c, 2, 57, 0
3, 17640, Note_on_c, 2, 55, 127
3, 17759, Note_on_c, 2, 55, 0
3, 17760, Note_on_c, 2, 64, 127
3, 17879, Note_on_c, 2, 64, 0
3, 17880, Note_on_c, 2, 63, 127
3, 17999, Note_on_c, 2, 63, 0
3, 18000, Note_on_c, 2, 64, 127
3, 18239, Note_on_c, 2, 64, 0
3, 18240, Note_on_c, 2, 66, 127
3, 18719, Note_on_c, 2, 66, 0
3, 19440, Note_on_c, 2, 63, 127
3, 19679, Note_on_c, 2, 63, 0
3, 19680, Note_on_c, 2, 64, 127
3, 20399, Note_on_c, 2, 64, 0
3, 20400, Note_on_c, 2, 64, 127
3, 20639, Note_on_c, 2, 64, 0
3, 20640, Note_on_c, 2, 62, 127
3, 21599, Note_on_c, 2, 62, 0
3, 21600, Note_on_c, 2, 60, 127
3, 21719, Note_on_c, 2, 60, 0
3, 21720, Note_on_c, 2, 59, 127
3, 21839, Note_on_c, 2, 59, 0
3, 21840, Note_on_c, 2, 60, 127
3, 22079, Note_on_c, 2, 60, 0
3, 22080, Note_on_c, 2, 59, 127
3, 23039, Note_on_c, 2, 59, 0
3, 23040, Note_on_c, 2, 64, 127
3, 23279, Note_on_c, 2, 64, 0
3, 23280, Note_on_c, 2, 66, 127
3, 23519, Note_on_c, 2, 66, 0
3, 23520, Note_on_c, 2, 66, 127
3, 23759, Note_on_c, 2, 66, 0
3, 23760, Note_on_c, 2, 64, 127
3, 23999, Note_on_c, 2, 64, 0
3, 24000, Note_on_c, 2, 64, 127
3, 24239, Note_on_c, 2, 64, 0
3, 24240, Note_on_c, 2, 62, 127
3, 24479, Note_on_c, 2, 62, 0
3, 24480, Note_on_c, 2, 62, 127
3, 24719, Note_on_c, 2, 62, 0
3, 24720, Note_on_c, 2, 64, 127
3, 24959, Note_on_c, 2, 64, 0
3, 24960, Note_on_c, 2, 64, 127
3, 25439, Note_on_c, 2, 64, 0
3, 25440, Note_on_c, 2, 62, 127
3, 25679, Note_on_c, 2, 62, 0
3, 25680, Note_on_c, 2, 60, 127
3, 25919, Note_on_c, 2, 60, 0
3, 25920, Note_on_c, 2, 60, 127
3, 26039, Note_on_c, 2, 60, 0
3, 26160, Note_on_c, 2, 59, 127
3, 26399, Note_on_c, 2, 59, 0
3, 26400, Note_on_c, 2, 60, 127
3, 26639, Note_on_c, 2, 60, 0
3, 26640, Note_on_c, 2, 57, 127
3, 26879, Note_on_c, 2, 57, 0
3, 26880, Note_on_c, 2, 55, 127
3, 27119, Note_on_c, 2, 55, 0
3, 27120, Note_on_c, 2, 59, 127
3, 27359, Note_on_c, 2, 59, 0
3, 27360, Note_on_c, 2, 64, 127
3, 27599, Note_on_c, 2, 64, 0
3, 27600, Note_on_c, 2, 57, 127
3, 28079, Note_on_c, 2, 57, 0
3, 28080, Note_on_c, 2, 55, 127
3, 28199, Note_on_c, 2, 55, 0
3, 28200, Note_on_c, 2, 54, 127
3, 28319, Note_on_c, 2, 54, 0
3, 28320, Note_on_c, 2, 62, 127
3, 29039, Note_on_c, 2, 62, 0
3, 29040, Note_on_c, 2, 61, 127
3, 29279, Note_on_c, 2, 61, 0
3, 29280, Note_on_c, 2, 62, 127
3, 29519, Note_on_c, 2, 62, 0
3, 29520, Note_on_c, 2, 64, 127
3, 29639, Note_on_c, 2, 64, 0
3, 29640, Note_on_c, 2, 66, 127
3, 29759, Note_on_c, 2, 66, 0
3, 29760, Note_on_c, 2, 67, 127
3, 29999, Note_on_c, 2, 67, 0
3, 30000, Note_on_c, 2, 61, 127
3, 30239, Note_on_c, 2, 61, 0
3, 30240, Note_on_c, 2, 66, 127
3, 30479, Note_on_c, 2, 66, 0
3, 30480, Note_on_c, 2, 64, 127
3, 30719, Note_on_c, 2, 64, 0
3, 30720, Note_on_c, 2, 63, 127
3, 31199, Note_on_c, 2, 63, 0
3, 31440, Note_on_c, 2, 59, 127
3, 31679, Note_on_c, 2, 59, 0
3, 31680, Note_on_c, 2, 64, 127
3, 31919, Note_on_c, 2, 64, 0
3, 31920, Note_on_c, 2, 64, 127
3, 32039, Note_on_c, 2, 64, 0
3, 32040, Note_on_c, 2, 63, 127
3, 32159, Note_on_c, 2, 63, 0
3, 32160, Note_on_c, 2, 64, 127
3, 32879, Note_on_c, 2, 64, 0
3, 32880, Note_on_c, 2, 63, 127
3, 33119, Note_on_c, 2, 63, 0
3, 33120, Note_on_c, 2, 64, 127
3, 33359, Note_on_c, 2, 64, 0
3, 33360, Note_on_c, 2, 55, 127
3, 33599, Note_on_c, 2, 55, 0
3, 33600, Note_on_c, 2, 60, 127
3, 33839, Note_on_c, 2, 60, 0
3, 33840, Note_on_c, 2, 57, 127
3, 34079, Note_on_c, 2, 57, 0
3, 34080, Note_on_c, 2, 54, 127
3, 34319, Note_on_c, 2, 54, 0
3, 34320, Note_on_c, 2, 59, 127
3, 34559, Note_on_c, 2, 59, 0
3, 34560, Note_on_c, 2, 59, 127
3, 34799, Note_on_c, 2, 59, 0
3, 34800, Note_on_c, 2, 56, 127
3, 35039, Note_on_c, 2, 56, 0
3, 35040, Note_on_c, 2, 52, 127
3, 35279, Note_on_c, 2, 52, 0
3, 35280, Note_on_c, 2, 57, 127
3, 35759, Note_on_c, 2, 57, 0
3, 35760, Note_on_c, 2, 56, 127
3, 35999, Note_on_c, 2, 56, 0
3, 36000, Note_on_c, 2, 56, 127
3, 36479, Note_on_c, 2, 56, 0
3, 36480, End_track
4, 0, Start_track
4, 0, Key_signature, 1, "major"
4, 0, Control_c, 3, 121, 0
4, 0, Program_c, 3, 52
4, 0, Control_c, 3, 7, 100
4, 0, Control_c, 3, 10, 64
4, 0, Control_c, 3, 91, 0
4, 0, Control_c, 3, 93, 0
4, 0, MIDI_port, 0
4, 240, Note_on_c, 3, 52, 127
4, 479, Note_on_c, 3, 52, 0
4, 480, Note_on_c, 3, 55, 127
4, 719, Note_on_c, 3, 55, 0
4, 720, Note_on_c, 3, 52, 127
4, 959, Note_on_c, 3, 52, 0
4, 960, Note_on_c, 3, 60, 127
4, 1439, Note_on_c, 3, 60, 0
4, 1680, Note_on_c, 3, 59, 127
4, 1919, Note_on_c, 3, 59, 0
4, 1920, Note_on_c, 3, 57, 127
4, 2159, Note_on_c, 3, 57, 0
4, 2160, Note_on_c, 3, 54, 127
4, 2399, Note_on_c, 3, 54, 0
4, 2400, Note_on_c, 3, 59, 127
4, 2639, Note_on_c, 3, 59, 0
4, 2640, Note_on_c, 3, 47, 127
4, 2879, Note_on_c, 3, 47, 0
4, 2880, Note_on_c, 3, 52, 127
4, 3359, Note_on_c, 3, 52, 0
4, 4080, Note_on_c, 3, 52, 127
4, 4319, Note_on_c, 3, 52, 0
4, 4320, Note_on_c, 3, 57, 127
4, 4559, Note_on_c, 3, 57, 0
4, 4560, Note_on_c, 3, 55, 127
4, 4799, Note_on_c, 3, 55, 0
4, 4800, Note_on_c, 3, 54, 127
4, 5039, Note_on_c, 3, 54, 0
4, 5040, Note_on_c, 3, 50, 127
4, 5279, Note_on_c, 3, 50, 0
4, 5280, Note_on_c, 3, 55, 127
4, 5999, Note_on_c, 3, 55, 0
4, 6000, Note_on_c, 3, 54, 127
4, 6119, Note_on_c, 3, 54, 0
4, 6120, Note_on_c, 3, 52, 127
4, 6239, Note_on_c, 3, 52, 0
4, 6240, Note_on_c, 3, 60, 127
4, 6719, Note_on_c, 3, 60, 0
4, 6720, Note_on_c, 3, 59, 127
4, 6959, Note_on_c, 3, 59, 0
4, 6960, Note_on_c, 3, 60, 127
4, 7199, Note_on_c, 3, 60, 0
4, 7200, Note_on_c, 3, 59, 127
4, 7439, Note_on_c, 3, 59, 0
4, 7440, Note_on_c, 3, 57, 127
4, 7679, Note_on_c, 3, 57, 0
4, 7680, Note_on_c, 3, 55, 127
4, 7919, Note_on_c, 3, 55, 0
4, 7920, Note_on_c, 3, 54, 127
4, 8159, Note_on_c, 3, 54, 0
4, 8160, Note_on_c, 3, 52, 127
4, 8399, Note_on_c, 3, 52, 0
4, 8400, Note_on_c, 3, 55, 127
4, 8639, Note_on_c, 3, 55, 0
4, 8640, Note_on_c, 3, 57, 127
4, 8879, Note_on_c, 3, 57, 0
4, 8880, Note_on_c, 3, 54, 127
4, 9119, Note_on_c, 3, 54, 0
4, 9120, Note_on_c, 3, 59, 127
4, 9359, Note_on_c, 3, 59, 0
4, 9360, Note_on_c, 3, 57, 127
4, 9599, Note_on_c, 3, 57, 0
4, 9600, Note_on_c, 3, 56, 127
4, 9839, Note_on_c, 3, 56, 0
4, 9840, Note_on_c, 3, 52, 127
4, 10079, Note_on_c, 3, 52, 0
4, 10080, Note_on_c, 3, 57, 127
4, 10319, Note_on_c, 3, 57, 0
4, 10320, Note_on_c, 3, 45, 127
4, 10559, Note_on_c, 3, 45, 0
4, 10560, Note_on_c, 3, 52, 127
4, 11519, Note_on_c, 3, 52, 0
4, 11760, Note_on_c, 3, 52, 127
4, 11999, Note_on_c, 3, 52, 0
4, 12000, Note_on_c, 3, 55, 127
4, 12239, Note_on_c, 3, 55, 0
4, 12240, Note_on_c, 3, 52, 127
4, 12479, Note_on_c, 3, 52, 0
4, 12480, Note_on_c, 3, 60, 127
4, 12959, Note_on_c, 3, 60, 0
4, 13200, Note_on_c, 3, 59, 127
4, 13439, Note_on_c, 3, 59, 0
4, 13440, Note_on_c, 3, 57, 127
4, 13679, Note_on_c, 3, 57, 0
4, 13680, Note_on_c, 3, 54, 127
4, 13919, Note_on_c, 3, 54, 0
4, 13920, Note_on_c, 3, 59, 127
4, 14159, Note_on_c, 3, 59, 0
4, 14160, Note_on_c, 3, 47, 127
4, 14399, Note_on_c, 3, 47, 0
4, 14400, Note_on_c, 3, 52, 127
4, 14879, Note_on_c, 3, 52, 0
4, 15600, Note_on_c, 3, 52, 127
4, 15839, Note_on_c, 3, 52, 0
4, 15840, Note_on_c, 3, 57, 127
4, 16079, Note_on_c, 3, 57, 0
4, 16080, Note_on_c, 3, 55, 127
4, 16319, Note_on_c, 3, 55, 0
4, 16320, Note_on_c, 3, 54, 127
4, 16559, Note_on_c, 3, 54, 0
4, 16560, Note_on_c, 3, 50, 127
4, 16799, Note_on_c, 3, 50, 0
4, 16800, Note_on_c, 3, 55, 127
4, 17519, Note_on_c, 3, 55, 0
4, 17520, Note_on_c, 3, 54, 127
4, 17639, Note_on_c, 3, 54, 0
4, 17640, Note_on_c, 3, 52, 127
4, 17759, Note_on_c, 3, 52, 0
4, 17760, Note_on_c, 3, 60, 127
4, 18239, Note_on_c, 3, 60, 0
4, 18240, Note_on_c, 3, 59, 127
4, 18479, Note_on_c, 3, 59, 0
4, 18480, Note_on_c, 3, 60, 127
4, 18719, Note_on_c, 3, 60, 0
4, 18720, Note_on_c, 3, 59, 127
4, 18959, Note_on_c, 3, 59, 0
4, 18960, Note_on_c, 3, 57, 127
4, 19199, Note_on_c, 3, 57, 0
4, 19200, Note_on_c, 3, 55, 127
4, 19439, Note_on_c, 3, 55, 0
4, 19440, Note_on_c, 3, 54, 127
4, 19679, Note_on_c, 3, 54, 0
4, 19680, Note_on_c, 3, 52, 127
4, 19919, Note_on_c, 3, 52, 0
4, 19920, Note_on_c, 3, 55, 127
4, 20159, Note_on_c, 3, 55, 0
4, 20160, Note_on_c, 3, 57, 127
4, 20399, Note_on_c, 3, 57, 0
4, 20400, Note_on_c, 3, 54, 127
4, 20639, Note_on_c, 3, 54, 0
4, 20640, Note_on_c, 3, 59, 127
4, 20879, Note_on_c, 3, 59, 0
4, 20880, Note_on_c, 3, 57, 127
4, 21119, Note_on_c, 3, 57, 0
4, 21120, Note_on_c, 3, 56, 127
4, 21359, Note_on_c, 3, 56, 0
4, 21360, Note_on_c, 3, 52, 127
4, 21599, Note_on_c, 3, 52, 0
4, 21600, Note_on_c, 3, 57, 127
4, 21839, Note_on_c, 3, 57, 0
4, 21840, Note_on_c, 3, 45, 127
4, 22079, Note_on_c, 3, 45, 0
4, 22080, Note_on_c, 3, 52, 127
4, 23039, Note_on_c, 3, 52, 0
4, 23040, Note_on_c, 3, 52, 127
4, 23279, Note_on_c, 3, 52, 0
4, 23280, Note_on_c, 3, 51, 127
4, 23519, Note_on_c, 3, 51, 0
4, 23520, Note_on_c, 3, 51, 127
4, 23759, Note_on_c, 3, 51, 0
4, 23760, Note_on_c, 3, 52, 127
4, 23999, Note_on_c, 3, 52, 0
4, 24000, Note_on_c, 3, 52, 127
4, 24239, Note_on_c, 3, 52, 0
4, 24240, Note_on_c, 3, 54, 127
4, 24479, Note_on_c, 3, 54, 0
4, 24480, Note_on_c, 3, 55, 127
4, 24719, Note_on_c, 3, 55, 0
4, 24720, Note_on_c, 3, 52, 127
4, 24959, Note_on_c, 3, 52, 0
4, 24960, Note_on_c, 3, 48, 127
4, 25199, Note_on_c, 3, 48, 0
4, 25200, Note_on_c, 3, 49, 127
4, 25439, Note_on_c, 3, 49, 0
4, 25440, Note_on_c, 3, 50, 127
4, 25919, Note_on_c, 3, 50, 0
4, 25920, Note_on_c, 3, 43, 127
4, 26879, Note_on_c, 3, 43, 0
4, 27120, Note_on_c, 3, 55, 127
4, 27599, Note_on_c, 3, 55, 0
4, 27600, Note_on_c, 3, 54, 127
4, 27719, Note_on_c, 3, 54, 0
4, 27720, Note_on_c, 3, 52, 127
4, 27839, Note_on_c, 3, 52, 0
4, 27840, Note_on_c, 3, 54, 127
4, 28079, Note_on_c, 3, 54, 0
4, 28080, Note_on_c, 3, 50, 127
4, 28319, Note_on_c, 3, 50, 0
4, 28320, Note_on_c, 3, 55, 127
4, 28559, Note_on_c, 3, 55, 0
4, 28560, Note_on_c, 3, 54, 127
4, 28799, Note_on_c, 3, 54, 0
4, 28800, Note_on_c, 3, 56, 127
4, 29039, Note_on_c, 3, 56, 0
4, 29040, Note_on_c, 3, 58, 127
4, 29279, Note_on_c, 3, 58, 0
4, 29280, Note_on_c, 3, 59, 127
4, 29519, Note_on_c, 3, 59, 0
4, 29520, Note_on_c, 3, 55, 127
4, 29759, Note_on_c, 3, 55, 0
4, 29760, Note_on_c, 3, 52, 127
4, 29999, Note_on_c, 3, 52, 0
4, 30000, Note_on_c, 3, 53, 127
4, 30239, Note_on_c, 3, 53, 0
4, 30240, Note_on_c, 3, 54, 127
4, 30719, Note_on_c, 3, 54, 0
4, 30720, Note_on_c, 3, 47, 127
4, 31679, Note_on_c, 3, 47, 0
4, 31920, Note_on_c, 3, 52, 127
4, 32159, Note_on_c, 3, 52, 0
4, 32160, Note_on_c, 3, 55, 127
4, 32399, Note_on_c, 3, 55, 0
4, 32400, Note_on_c, 3, 52, 127
4, 32639, Note_on_c, 3, 52, 0
4, 32640, Note_on_c, 3, 60, 127
4, 33119, Note_on_c, 3, 60, 0
4, 33360, Note_on_c, 3, 59, 127
4, 33599, Note_on_c, 3, 59, 0
4, 33600, Note_on_c, 3, 57, 127
4, 33839, Note_on_c, 3, 57, 0
4, 33840, Note_on_c, 3, 54, 127
4, 34079, Note_on_c, 3, 54, 0
4, 34080, Note_on_c, 3, 59, 127
4, 34319, Note_on_c, 3, 59, 0
4, 34320, Note_on_c, 3, 57, 127
4, 34559, Note_on_c, 3, 57, 0
4, 34560, Note_on_c, 3, 56, 127
4, 34799, Note_on_c, 3, 56, 0
4, 34800, Note_on_c, 3, 52, 127
4, 35039, Note_on_c, 3, 52, 0
4, 35040, Note_on_c, 3, 57, 127
4, 35279, Note_on_c, 3, 57, 0
4, 35280, Note_on_c, 3, 45, 127
4, 35519, Note_on_c, 3, 45, 0
4, 35520, Note_on_c, 3, 52, 127
4, 36479, Note_on_c, 3, 52, 0
4, 36480, End_track
0, 0, End_of_file
