0, 0, Header, 1, 5, 480
1, 0, Start_track
1, 0, Time_signature, 2, 0, 24, 8
1, 0, Key_signature, 0, "major"
1, 0, Tempo, 250000
1, 0, Control_c, 0, 121, 0
1, 0, Program_c, 0, 52
1, 0, Control_c, 0, 7, 100
1, 0, Control_c, 0, 10, 64
1, 0, Control_c, 0, 91, 0
1, 0, Control_c, 0, 93, 0
1, 0, MIDI_port, 0
1, 0, Note_on_c, 0, 64, 80
1, 3839, Note_on_c, 0, 64, 0
1, 3840, Note_on_c, 0, 67, 80
1, 7679, Note_on_c, 0, 67, 0
1, 7680, Note_on_c, 0, 69, 80
1, 10559, Note_on_c, 0, 69, 0
1, 10560, Note_on_c, 0, 71, 80
1, 11519, Note_on_c, 0, 71, 0
1, 11520, Note_on_c, 0, 72, 80
1, 19199, Note_on_c, 0, 72, 0
1, 19200, Note_on_c, 0, 74, 80
1, 23039, Note_on_c, 0, 74, 0
1, 23040, Note_on_c, 0, 72, 80
1, 24959, Note_on_c, 0, 72, 0
1, 24960, Note_on_c, 0, 72, 80
1, 26879, Note_on_c, 0, 72, 0
1, 26880, Note_on_c, 0, 72, 80
1, 28799, Note_on_c, 0, 72, 0
1, 28800, Note_on_c, 0, 69, 80
1, 30719, Note_on_c, 0, 69, 0
1, 30720, Note_on_c, 0, 70, 80
1, 38399, Note_on_c, 0, 70, 0
1, 38400, Note_on_c, 0, 69, 80
1, 46079, Note_on_c, 0, 69, 0
1, 57600, Note_on_c, 0, 72, 80
1, 61439, Note_on_c, 0, 72, 0
1, 61440, Note_on_c, 0, 72, 80
1, 63359, Note_on_c, 0, 72, 0
1, 63360, Note_on_c, 0, 72, 80
1, 65279, Note_on_c, 0, 72, 0
1, 65280, Note_on_c, 0, 71, 80
1, 68159, Note_on_c, 0, 71, 0
1, 68160, Note_on_c, 0, 67, 80
1, 69119, Note_on_c, 0, 67, 0
1, 69120, Note_on_c, 0, 67, 80
1, 71039, Note_on_c, 0, 67, 0
1, 71040, Note_on_c, 0, 67, 80
1, 72959, Note_on_c, 0, 67, 0
1, 72960, Note_on_c, 0, 69, 80
1, 75839, Note_on_c, 0, 69, 0
1, 75840, Note_on_c, 0, 67, 80
1, 76799, Note_on_c, 0, 67, 0
1, 76800, Note_on_c, 0, 65, 80
1, 78719, Note_on_c, 0, 65, 0
1, 78720, Note_on_c, 0, 65, 80
1, 80639, Note_on_c, 0, 65, 0
1, 80640, Note_on_c, 0, 64, 80
1, 88319, Note_on_c, 0, 64, 0
1, 96000, Note_on_c, 0, 65, 80
1, 99839, Note_on_c, 0, 65, 0
1, 99840, Note_on_c, 0, 65, 80
1, 101759, Note_on_c, 0, 65, 0
1, 101760, Note_on_c, 0, 65, 80
1, 103679, Note_on_c, 0, 65, 0
1, 103680, Note_on_c, 0, 64, 80
1, 107519, Note_on_c, 0, 64, 0
1, 107520, Note_on_c, 0, 62, 80
1, 111359, Note_on_c, 0, 62, 0
1, 111360, Note_on_c, 0, 67, 80
1, 115199, Note_on_c, 0, 67, 0
1, 115200, Note_on_c, 0, 67, 80
1, 117119, Note_on_c, 0, 67, 0
1, 117120, Note_on_c, 0, 67, 80
1, 119039, Note_on_c, 0, 67, 0
1, 119040, Note_on_c, 0, 67, 80
1, 121919, Note_on_c, 0, 67, 0
1, 121920, Note_on_c, 0, 69, 80
1, 122879, Note_on_c, 0, 69, 0
1, 122880, Note_on_c, 0, 71, 80
1, 124799, Note_on_c, 0, 71, 0
1, 124800, Note_on_c, 0, 71, 80
1, 126719, Note_on_c, 0, 71, 0
1, 126720, Note_on_c, 0, 72, 80
1, 129599, Note_on_c, 0, 72, 0
1, 129600, Note_on_c, 0, 71, 80
1, 130559, Note_on_c, 0, 71, 0
1, 130560, Note_on_c, 0, 69, 80
1, 132479, Note_on_c, 0, 69, 0
1, 132480, Note_on_c, 0, 67, 80
1, 133439, Note_on_c, 0, 67, 0
1, 133440, Note_on_c, 0, 65, 80
1, 134399, Note_on_c, 0, 65, 0
1, 134400, Note_on_c, 0, 64, 80
1, 136319, Note_on_c, 0, 64, 0
1, 138240, Note_on_c, 0, 67, 80
1, 142079, Note_on_c, 0, 67, 0
1, 142080, Note_on_c, 0, 67, 80
1, 143999, Note_on_c, 0, 67, 0
1, 144000, Note_on_c, 0, 67, 80
1, 145919, Note_on_c, 0, 67, 0
1, 145920, Note_on_c, 0, 62, 80
1, 149759, Note_on_c, 0, 62, 0
1, 151680, Note_on_c, 0, 62, 80
1, 153599, Note_on_c, 0, 62, 0
1, 153600, Note_on_c, 0, 69, 80
1, 156479, Note_on_c, 0, 69, 0
1, 156480, Note_on_c, 0, 69, 80
1, 157439, Note_on_c, 0, 69, 0
1, 157440, Note_on_c, 0, 69, 80
1, 159359, Note_on_c, 0, 69, 0
1, 159360, Note_on_c, 0, 69, 80
1, 161279, Note_on_c, 0, 69, 0
1, 161280, Note_on_c, 0, 64, 80
1, 165119, Note_on_c, 0, 64, 0
1, 172800, Note_on_c, 0, 69, 80
1, 176639, Note_on_c, 0, 69, 0
1, 176640, Note_on_c, 0, 69, 80
1, 178559, Note_on_c, 0, 69, 0
1, 178560, Note_on_c, 0, 69, 80
1, 180479, Note_on_c, 0, 69, 0
1, 180480, Note_on_c, 0, 67, 80
1, 188159, Note_on_c, 0, 67, 0
1, 188160, Note_on_c, 0, 65, 80
1, 191999, Note_on_c, 0, 65, 0
1, 193920, Note_on_c, 0, 65, 80
1, 195839, Note_on_c, 0, 65, 0
1, 195840, Note_on_c, 0, 67, 80
1, 197759, Note_on_c, 0, 67, 0
1, 197760, Note_on_c, 0, 67, 80
1, 199679, Note_on_c, 0, 67, 0
1, 199680, Note_on_c, 0, 69, 80
1, 201599, Note_on_c, 0, 69, 0
1, 201600, Note_on_c, 0, 71, 80
1, 203519, Note_on_c, 0, 71, 0
1, 203520, Note_on_c, 0, 72, 80
1, 207359, Note_on_c, 0, 72, 0
1, 207360, Note_on_c, 0, 71, 80
1, 213119, Note_on_c, 0, 71, 0
1, 213120, Note_on_c, 0, 72, 80
1, 215039, Note_on_c, 0, 72, 0
1, 215040, Note_on_c, 0, 69, 80
1, 222719, Note_on_c, 0, 69, 0
1, 222720, Note_on_c, 0, 72, 80
1, 226559, Note_on_c, 0, 72, 0
1, 226560, Note_on_c, 0, 72, 80
1, 228479, Note_on_c, 0, 72, 0
1, 228480, Note_on_c, 0, 72, 80
1, 230399, Note_on_c, 0, 72, 0
1, 230400, Note_on_c, 0, 71, 80
1, 233279, Note_on_c, 0, 71, 0
1, 233280, Note_on_c, 0, 67, 80
1, 234239, Note_on_c, 0, 67, 0
1, 234240, Note_on_c, 0, 67, 80
1, 238079, Note_on_c, 0, 67, 0
1, 247680, Note_on_c, 0, 71, 80
1, 249599, Note_on_c, 0, 71, 0
1, 249600, Note_on_c, 0, 72, 80
1, 252479, Note_on_c, 0, 72, 0
1, 252480, Note_on_c, 0, 71, 80
1, 253439, Note_on_c, 0, 71, 0
1, 253440, Note_on_c, 0, 69, 80
1, 255359, Note_on_c, 0, 69, 0
1, 255360, Note_on_c, 0, 67, 80
1, 257279, Note_on_c, 0, 67, 0
1, 257280, Note_on_c, 0, 65, 80
1, 261119, Note_on_c, 0, 65, 0
1, 261120, Note_on_c, 0, 64, 80
1, 263039, Note_on_c, 0, 64, 0
1, 264960, Note_on_c, 0, 67, 80
1, 268799, Note_on_c, 0, 67, 0
1, 268800, Note_on_c, 0, 69, 80
1, 271679, Note_on_c, 0, 69, 0
1, 271680, Note_on_c, 0, 71, 80
1, 272639, Note_on_c, 0, 71, 0
1, 272640, Note_on_c, 0, 72, 80
1, 274559, Note_on_c, 0, 72, 0
1, 274560, Note_on_c, 0, 72, 80
1, 276479, Note_on_c, 0, 72, 0
1, 276480, Note_on_c, 0, 65, 80
1, 278399, Note_on_c, 0, 65, 0
1, 278400, Note_on_c, 0, 65, 80
1, 280319, Note_on_c, 0, 65, 0
1, 280320, Note_on_c, 0, 70, 80
1, 282239, Note_on_c, 0, 70, 0
1, 282240, Note_on_c, 0, 70, 80
1, 284159, Note_on_c, 0, 70, 0
1, 284160, Note_on_c, 0, 70, 80
1, 286079, Note_on_c, 0, 70, 0
1, 286080, Note_on_c, 0, 70, 80
1, 287999, Note_on_c, 0, 70, 0
1, 288000, Note_on_c, 0, 69, 80
1, 291839, Note_on_c, 0, 69, 0
1, 291840, Note_on_c, 0, 67, 80
1, 299519, Note_on_c, 0, 67, 0
1, 299520, Note_on_c, 0, 64, 80
1, 303359, Note_on_c, 0, 64, 0
1, 303360, Note_on_c, 0, 64, 80
1, 305279, Note_on_c, 0, 64, 0
1, 305280, Note_on_c, 0, 64, 80
1, 307199, Note_on_c, 0, 64, 0
1, 307200, Note_on_c, 0, 65, 80
1, 311039, Note_on_c, 0, 65, 0
1, 311040, Note_on_c, 0, 62, 80
1, 314879, Note_on_c, 0, 62, 0
1, 314880, Note_on_c, 0, 64, 80
1, 316799, Note_on_c, 0, 64, 0
1, 316800, Note_on_c, 0, 64, 80
1, 318719, Note_on_c, 0, 64, 0
1, 318720, Note_on_c, 0, 64, 80
1, 320639, Note_on_c, 0, 64, 0
1, 320640, Note_on_c, 0, 64, 80
1, 322559, Note_on_c, 0, 64, 0
1, 322560, Note_on_c, 0, 65, 80
1, 325439, Note_on_c, 0, 65, 0
1, 325440, Note_on_c, 0, 62, 80
1, 326399, Note_on_c, 0, 62, 0
1, 326400, Note_on_c, 0, 62, 80
1, 334079, Note_on_c, 0, 62, 0
1, 341760, Note_on_c, 0, 69, 80
1, 345599, Note_on_c, 0, 69, 0
1, 345600, Note_on_c, 0, 69, 80
1, 347519, Note_on_c, 0, 69, 0
1, 347520, Note_on_c, 0, 69, 80
1, 349439, Note_on_c, 0, 69, 0
1, 349440, Note_on_c, 0, 71, 80
1, 353279, Note_on_c, 0, 71, 0
1, 353280, Note_on_c, 0, 72, 80
1, 357119, Note_on_c, 0, 72, 0
1, 357120, Note_on_c, 0, 72, 80
1, 359999, Note_on_c, 0, 72, 0
1, 360000, Note_on_c, 0, 72, 80
1, 360959, Note_on_c, 0, 72, 0
1, 360960, Note_on_c, 0, 72, 80
1, 362879, Note_on_c, 0, 72, 0
1, 362880, Note_on_c, 0, 72, 80
1, 364799, Note_on_c, 0, 72, 0
1, 364800, Note_on_c, 0, 71, 80
1, 368639, Note_on_c, 0, 71, 0
1, 368640, Note_on_c, 0, 69, 80
1, 372479, Note_on_c, 0, 69, 0
1, 372480, Note_on_c, 0, 72, 80
1, 375359, Note_on_c, 0, 72, 0
1, 375360, Note_on_c, 0, 71, 80
1, 376319, Note_on_c, 0, 71, 0
1, 376320, Note_on_c, 0, 67, 80
1, 378239, Note_on_c, 0, 67, 0
1, 378240, Note_on_c, 0, 69, 80
1, 380159, Note_on_c, 0, 69, 0
1, 380160, Note_on_c, 0, 71, 80
1, 383999, Note_on_c, 0, 71, 0
1, 384000, Note_on_c, 0, 69, 80
1, 387839, Note_on_c, 0, 69, 0
1, 387840, Note_on_c, 0, 72, 80
1, 390719, Note_on_c, 0, 72, 0
1, 390720, Note_on_c, 0, 71, 80
1, 391679, Note_on_c, 0, 71, 0
1, 391680, Note_on_c, 0, 69, 80
1, 393599, Note_on_c, 0, 69, 0
1, 393600, Note_on_c, 0, 67, 80
1, 395519, Note_on_c, 0, 67, 0
1, 395520, Note_on_c, 0, 69, 80
1, 399359, Note_on_c, 0, 69, 0
1, 399360, Note_on_c, 0, 67, 80
1, 401279, Note_on_c, 0, 67, 0
1, 401280, Note_on_c, 0, 64, 80
1, 405119, Note_on_c, 0, 64, 0
1, 405120, Note_on_c, 0, 64, 80
1, 407039, Note_on_c, 0, 64, 0
1, 407040, Note_on_c, 0, 64, 80
1, 408959, Note_on_c, 0, 64, 0
1, 408960, Note_on_c, 0, 64, 80
1, 410879, Note_on_c, 0, 64, 0
1, 410880, Note_on_c, 0, 67, 80
1, 413759, Note_on_c, 0, 67, 0
1, 413760, Note_on_c, 0, 64, 80
1, 414719, Note_on_c, 0, 64, 0
1, 414720, Note_on_c, 0, 64, 80
1, 418559, Note_on_c, 0, 64, 0
1, 418560, Note_on_c, 0, 67, 80
1, 422399, Note_on_c, 0, 67, 0
1, 422400, Note_on_c, 0, 67, 80
1, 424319, Note_on_c, 0, 67, 0
1, 424320, Note_on_c, 0, 67, 80
1, 426239, Note_on_c, 0, 67, 0
1, 426240, Note_on_c, 0, 69, 80
1, 431999, Note_on_c, 0, 69, 0
1, 432000, Note_on_c, 0, 69, 80
1, 433919, Note_on_c, 0, 69, 0
1, 433920, Note_on_c, 0, 72, 80
1, 436799, Note_on_c, 0, 72, 0
1, 436800, Note_on_c, 0, 71, 80
1, 437759, Note_on_c, 0, 71, 0
1, 437760, Note_on_c, 0, 69, 80
1, 439679, Note_on_c, 0, 69, 0
1, 439680, Note_on_c, 0, 69, 80
1, 441599, Note_on_c, 0, 69, 0
1, 441600, Note_on_c, 0, 67, 80
1, 445439, Note_on_c, 0, 67, 0
1, 445440, Note_on_c, 0, 71, 80
1, 449279, Note_on_c, 0, 71, 0
1, 449280, Note_on_c, 0, 72, 80
1, 453119, Note_on_c, 0, 72, 0
1, 453120, Note_on_c, 0, 69, 80
1, 456959, Note_on_c, 0, 69, 0
1, 456960, Note_on_c, 0, 71, 80
1, 460799, Note_on_c, 0, 71, 0
1, 460800, Note_on_c, 0, 67, 80
1, 464639, Note_on_c, 0, 67, 0
1, 464640, Note_on_c, 0, 69, 80
1, 468479, Note_on_c, 0, 69, 0
1, 468480, Note_on_c, 0, 65, 80
1, 472319, Note_on_c, 0, 65, 0
1, 472320, Note_on_c, 0, 67, 80
1, 475199, Note_on_c, 0, 67, 0
1, 475200, Note_on_c, 0, 64, 80
1, 476159, Note_on_c, 0, 64, 0
1, 476160, Note_on_c, 0, 64, 80
1, 479999, Note_on_c, 0, 64, 0
1, 480000, Note_on_c, 0, 67, 80
1, 483839, Note_on_c, 0, 67, 0
1, 483840, Note_on_c, 0, 67, 80
1, 485759, Note_on_c, 0, 67, 0
1, 485760, Note_on_c, 0, 67, 80
1, 487679, Note_on_c, 0, 67, 0
1, 487680, Note_on_c, 0, 69, 80
1, 493439, Note_on_c, 0, 69, 0
1, 493440, Note_on_c, 0, 69, 80
1, 495359, Note_on_c, 0, 69, 0
1, 495360, Note_on_c, 0, 72, 80
1, 498239, Note_on_c, 0, 72, 0
1, 498240, Note_on_c, 0, 71, 80
1, 499199, Note_on_c, 0, 71, 0
1, 499200, Note_on_c, 0, 69, 80
1, 501119, Note_on_c, 0, 69, 0
1, 501120, Note_on_c, 0, 69, 80
1, 503039, Note_on_c, 0, 69, 0
1, 503040, Note_on_c, 0, 67, 80
1, 506879, Note_on_c, 0, 67, 0
1, 506880, Note_on_c, 0, 71, 80
1, 510719, Note_on_c, 0, 71, 0
1, 510720, Note_on_c, 0, 72, 80
1, 514559, Note_on_c, 0, 72, 0
1, 514560, Note_on_c, 0, 69, 80
1, 518399, Note_on_c, 0, 69, 0
1, 518400, Note_on_c, 0, 71, 80
1, 522239, Note_on_c, 0, 71, 0
1, 522240, Note_on_c, 0, 67, 80
1, 526079, Note_on_c, 0, 67, 0
1, 526080, Note_on_c, 0, 69, 80
1, 529919, Note_on_c, 0, 69, 0
1, 529920, Note_on_c, 0, 65, 80
1, 533759, Note_on_c, 0, 65, 0
1, 533760, Note_on_c, 0, 67, 80
1, 536639, Note_on_c, 0, 67, 0
1, 536640, Note_on_c, 0, 64, 80
1, 537599, Note_on_c, 0, 64, 0
1, 537600, Note_on_c, 0, 64, 80
1, 541439, Note_on_c, 0, 64, 0
1, 541440, Note_on_c, 0, 67, 80
1, 545279, Note_on_c, 0, 67, 0
1, 545280, Note_on_c, 0, 67, 80
1, 547199, Note_on_c, 0, 67, 0
1, 547200, Note_on_c, 0, 67, 80
1, 549119, Note_on_c, 0, 67, 0
1, 549120, Note_on_c, 0, 72, 80
1, 551039, Note_on_c, 0, 72, 0
1, 551040, Note_on_c, 0, 72, 80
1, 552959, Note_on_c, 0, 72, 0
1, 552960, Note_on_c, 0, 67, 80
1, 555839, Note_on_c, 0, 67, 0
1, 555840, Note_on_c, 0, 69, 80
1, 556799, Note_on_c, 0, 69, 0
1, 556800, Note_on_c, 0, 71, 80
1, 560639, Note_on_c, 0, 71, 0
1, 560640, Note_on_c, 0, 74, 80
1, 566399, Note_on_c, 0, 74, 0
1, 566400, Note_on_c, 0, 71, 80
1, 568319, Note_on_c, 0, 71, 0
1, 568320, Note_on_c, 0, 71, 80
1, 572159, Note_on_c, 0, 71, 0
1, 572160, Note_on_c, 0, 67, 80
1, 577919, Note_on_c, 0, 67, 0
1, 577920, Note_on_c, 0, 64, 80
1, 579839, Note_on_c, 0, 64, 0
1, 579840, Note_on_c, 0, 64, 80
1, 595199, Note_on_c, 0, 64, 0
1, 595200, End_track
2, 0, Start_track
2, 0, Key_signature, 0, "major"
2, 0, Control_c, 1, 121, 0
2, 0, Program_c, 1, 52
2, 0, Control_c, 1, 7, 100
2, 0, Control_c, 1, 10, 64
2, 0, Control_c, 1, 91, 0
2, 0, Control_c, 1, 93, 0
2, 0, MIDI_port, 0
2, 0, Note_on_c, 1, 64, 80
2, 3839, Note_on_c, 1, 64, 0
2, 3840, Note_on_c, 1, 64, 80
2, 7679, Note_on_c, 1, 64, 0
2, 7680, Note_on_c, 1, 57, 80
2, 11519, Note_on_c, 1, 57, 0
2, 11520, Note_on_c, 1, 64, 80
2, 19199, Note_on_c, 1, 64, 0
2, 19200, Note_on_c, 1, 62, 80
2, 23039, Note_on_c, 1, 62, 0
2, 23040, Note_on_c, 1, 64, 80
2, 26879, Note_on_c, 1, 64, 0
2, 26880, Note_on_c, 1, 60, 80
2, 30719, Note_on_c, 1, 60, 0
2, 30720, Note_on_c, 1, 62, 80
2, 34559, Note_on_c, 1, 62, 0
2, 34560, Note_on_c, 1, 62, 80
2, 40319, Note_on_c, 1, 62, 0
2, 40320, Note_on_c, 1, 64, 80
2, 42239, Note_on_c, 1, 64, 0
2, 42240, Note_on_c, 1, 62, 80
2, 44159, Note_on_c, 1, 62, 0
2, 44160, Note_on_c, 1, 65, 80
2, 47039, Note_on_c, 1, 65, 0
2, 47040, Note_on_c, 1, 64, 80
2, 47999, Note_on_c, 1, 64, 0
2, 48000, Note_on_c, 1, 62, 80
2, 49919, Note_on_c, 1, 62, 0
2, 49920, Note_on_c, 1, 60, 80
2, 53759, Note_on_c, 1, 60, 0
2, 53760, Note_on_c, 1, 62, 80
2, 57599, Note_on_c, 1, 62, 0
2, 57600, Note_on_c, 1, 60, 80
2, 59519, Note_on_c, 1, 60, 0
2, 61440, Note_on_c, 1, 57, 80
2, 65279, Note_on_c, 1, 57, 0
2, 65280, Note_on_c, 1, 59, 80
2, 69119, Note_on_c, 1, 59, 0
2, 69120, Note_on_c, 1, 59, 80
2, 72959, Note_on_c, 1, 59, 0
2, 72960, Note_on_c, 1, 57, 80
2, 76799, Note_on_c, 1, 57, 0
2, 78720, Note_on_c, 1, 50, 80
2, 80639, Note_on_c, 1, 50, 0
2, 80640, Note_on_c, 1, 52, 80
2, 82559, Note_on_c, 1, 52, 0
2, 82560, Note_on_c, 1, 48, 80
2, 84479, Note_on_c, 1, 48, 0
2, 84480, Note_on_c, 1, 52, 80
2, 86399, Note_on_c, 1, 52, 0
2, 86400, Note_on_c, 1, 52, 80
2, 88319, Note_on_c, 1, 52, 0
2, 88320, Note_on_c, 1, 50, 80
2, 92159, Note_on_c, 1, 50, 0
2, 92160, Note_on_c, 1, 62, 80
2, 95999, Note_on_c, 1, 62, 0
2, 96000, Note_on_c, 1, 62, 80
2, 97919, Note_on_c, 1, 62, 0
2, 97920, Note_on_c, 1, 62, 80
2, 99839, Note_on_c, 1, 62, 0
2, 99840, Note_on_c, 1, 57, 80
2, 102719, Note_on_c, 1, 57, 0
2, 102720, Note_on_c, 1, 59, 80
2, 103679, Note_on_c, 1, 59, 0
2, 103680, Note_on_c, 1, 60, 80
2, 107519, Note_on_c, 1, 60, 0
2, 109440, Note_on_c, 1, 59, 80
2, 111359, Note_on_c, 1, 59, 0
2, 111360, Note_on_c, 1, 59, 80
2, 113279, Note_on_c, 1, 59, 0
2, 113280, Note_on_c, 1, 59, 80
2, 115199, Note_on_c, 1, 59, 0
2, 115200, Note_on_c, 1, 60, 80
2, 118079, Note_on_c, 1, 60, 0
2, 118080, Note_on_c, 1, 62, 80
2, 119039, Note_on_c, 1, 62, 0
2, 119040, Note_on_c, 1, 64, 80
2, 120959, Note_on_c, 1, 64, 0
2, 120960, Note_on_c, 1, 64, 80
2, 122879, Note_on_c, 1, 64, 0
2, 122880, Note_on_c, 1, 62, 80
2, 126719, Note_on_c, 1, 62, 0
2, 126720, Note_on_c, 1, 60, 80
2, 134399, Note_on_c, 1, 60, 0
2, 136320, Note_on_c, 1, 64, 80
2, 138239, Note_on_c, 1, 64, 0
2, 138240, Note_on_c, 1, 64, 80
2, 140159, Note_on_c, 1, 64, 0
2, 140160, Note_on_c, 1, 64, 80
2, 142079, Note_on_c, 1, 64, 0
2, 142080, Note_on_c, 1, 62, 80
2, 145919, Note_on_c, 1, 62, 0
2, 147840, Note_on_c, 1, 59, 80
2, 149759, Note_on_c, 1, 59, 0
2, 149760, Note_on_c, 1, 57, 80
2, 151679, Note_on_c, 1, 57, 0
2, 151680, Note_on_c, 1, 57, 80
2, 153599, Note_on_c, 1, 57, 0
2, 153600, Note_on_c, 1, 62, 80
2, 155519, Note_on_c, 1, 62, 0
2, 155520, Note_on_c, 1, 62, 80
2, 157439, Note_on_c, 1, 62, 0
2, 157440, Note_on_c, 1, 60, 80
2, 161279, Note_on_c, 1, 60, 0
2, 161280, Note_on_c, 1, 48, 80
2, 165119, Note_on_c, 1, 48, 0
2, 165120, Note_on_c, 1, 50, 80
2, 168959, Note_on_c, 1, 50, 0
2, 168960, Note_on_c, 1, 46, 80
2, 172799, Note_on_c, 1, 46, 0
2, 172800, Note_on_c, 1, 48, 80
2, 176639, Note_on_c, 1, 48, 0
2, 176640, Note_on_c, 1, 60, 80
2, 180479, Note_on_c, 1, 60, 0
2, 180480, Note_on_c, 1, 60, 80
2, 182399, Note_on_c, 1, 60, 0
2, 182400, Note_on_c, 1, 60, 80
2, 184319, Note_on_c, 1, 60, 0
2, 184320, Note_on_c, 1, 60, 80
2, 188159, Note_on_c, 1, 60, 0
2, 190080, Note_on_c, 1, 57, 80
2, 191999, Note_on_c, 1, 57, 0
2, 192000, Note_on_c, 1, 58, 80
2, 193919, Note_on_c, 1, 58, 0
2, 193920, Note_on_c, 1, 57, 80
2, 195839, Note_on_c, 1, 57, 0
2, 195840, Note_on_c, 1, 55, 80
2, 198719, Note_on_c, 1, 55, 0
2, 198720, Note_on_c, 1, 53, 80
2, 199679, Note_on_c, 1, 53, 0
2, 199680, Note_on_c, 1, 52, 80
2, 201599, Note_on_c, 1, 52, 0
2, 201600, Note_on_c, 1, 50, 80
2, 203519, Note_on_c, 1, 50, 0
2, 203520, Note_on_c, 1, 48, 80
2, 207359, Note_on_c, 1, 48, 0
2, 207360, Note_on_c, 1, 50, 80
2, 211199, Note_on_c, 1, 50, 0
2, 211200, Note_on_c, 1, 52, 80
2, 213119, Note_on_c, 1, 52, 0
2, 213120, Note_on_c, 1, 48, 80
2, 215039, Note_on_c, 1, 48, 0
2, 215040, Note_on_c, 1, 50, 80
2, 218879, Note_on_c, 1, 50, 0
2, 218880, Note_on_c, 1, 57, 80
2, 222719, Note_on_c, 1, 57, 0
2, 222720, Note_on_c, 1, 57, 80
2, 224639, Note_on_c, 1, 57, 0
2, 224640, Note_on_c, 1, 57, 80
2, 226559, Note_on_c, 1, 57, 0
2, 226560, Note_on_c, 1, 55, 80
2, 234239, Note_on_c, 1, 55, 0
2, 236160, Note_on_c, 1, 55, 80
2, 238079, Note_on_c, 1, 55, 0
2, 238080, Note_on_c, 1, 57, 80
2, 240959, Note_on_c, 1, 57, 0
2, 240960, Note_on_c, 1, 55, 80
2, 241919, Note_on_c, 1, 55, 0
2, 241920, Note_on_c, 1, 53, 80
2, 243839, Note_on_c, 1, 53, 0
2, 243840, Note_on_c, 1, 52, 80
2, 245759, Note_on_c, 1, 52, 0
2, 245760, Note_on_c, 1, 50, 80
2, 249599, Note_on_c, 1, 50, 0
2, 249600, Note_on_c, 1, 52, 80
2, 253439, Note_on_c, 1, 52, 0
2, 261120, Note_on_c, 1, 60, 80
2, 264959, Note_on_c, 1, 60, 0
2, 264960, Note_on_c, 1, 60, 80
2, 266879, Note_on_c, 1, 60, 0
2, 266880, Note_on_c, 1, 60, 80
2, 268799, Note_on_c, 1, 60, 0
2, 268800, Note_on_c, 1, 60, 80
2, 272639, Note_on_c, 1, 60, 0
2, 274560, Note_on_c, 1, 60, 80
2, 276479, Note_on_c, 1, 60, 0
2, 276480, Note_on_c, 1, 62, 80
2, 279359, Note_on_c, 1, 62, 0
2, 279360, Note_on_c, 1, 62, 80
2, 280319, Note_on_c, 1, 62, 0
2, 280320, Note_on_c, 1, 62, 80
2, 282239, Note_on_c, 1, 62, 0
2, 282240, Note_on_c, 1, 62, 80
2, 284159, Note_on_c, 1, 62, 0
2, 284160, Note_on_c, 1, 62, 80
2, 287999, Note_on_c, 1, 62, 0
2, 288000, Note_on_c, 1, 60, 80
2, 295679, Note_on_c, 1, 60, 0
2, 295680, Note_on_c, 1, 59, 80
2, 299519, Note_on_c, 1, 59, 0
2, 299520, Note_on_c, 1, 55, 80
2, 303359, Note_on_c, 1, 55, 0
2, 303360, Note_on_c, 1, 60, 80
2, 307199, Note_on_c, 1, 60, 0
2, 307200, Note_on_c, 1, 57, 80
2, 309119, Note_on_c, 1, 57, 0
2, 309120, Note_on_c, 1, 57, 80
2, 311039, Note_on_c, 1, 57, 0
2, 311040, Note_on_c, 1, 59, 80
2, 314879, Note_on_c, 1, 59, 0
2, 316800, Note_on_c, 1, 55, 80
2, 318719, Note_on_c, 1, 55, 0
2, 318720, Note_on_c, 1, 60, 80
2, 320639, Note_on_c, 1, 60, 0
2, 320640, Note_on_c, 1, 60, 80
2, 322559, Note_on_c, 1, 60, 0
2, 322560, Note_on_c, 1, 57, 80
2, 324479, Note_on_c, 1, 57, 0
2, 324480, Note_on_c, 1, 57, 80
2, 326399, Note_on_c, 1, 57, 0
2, 326400, Note_on_c, 1, 59, 80
2, 329279, Note_on_c, 1, 59, 0
2, 329280, Note_on_c, 1, 55, 80
2, 330239, Note_on_c, 1, 55, 0
2, 330240, Note_on_c, 1, 55, 80
2, 334079, Note_on_c, 1, 55, 0
2, 334080, Note_on_c, 1, 62, 80
2, 341759, Note_on_c, 1, 62, 0
2, 343680, Note_on_c, 1, 62, 80
2, 345599, Note_on_c, 1, 62, 0
2, 345600, Note_on_c, 1, 62, 80
2, 347519, Note_on_c, 1, 62, 0
2, 347520, Note_on_c, 1, 62, 80
2, 349439, Note_on_c, 1, 62, 0
2, 349440, Note_on_c, 1, 50, 80
2, 353279, Note_on_c, 1, 50, 0
2, 353280, Note_on_c, 1, 52, 80
2, 357119, Note_on_c, 1, 52, 0
2, 357120, Note_on_c, 1, 48, 80
2, 359039, Note_on_c, 1, 48, 0
2, 359040, Note_on_c, 1, 48, 80
2, 360959, Note_on_c, 1, 48, 0
2, 360960, Note_on_c, 1, 52, 80
2, 363839, Note_on_c, 1, 52, 0
2, 363840, Note_on_c, 1, 53, 80
2, 364799, Note_on_c, 1, 53, 0
2, 364800, Note_on_c, 1, 55, 80
2, 366719, Note_on_c, 1, 55, 0
2, 366720, Note_on_c, 1, 50, 80
2, 370559, Note_on_c, 1, 50, 0
2, 370560, Note_on_c, 1, 57, 80
2, 374399, Note_on_c, 1, 57, 0
2, 374400, Note_on_c, 1, 52, 80
2, 376319, Note_on_c, 1, 52, 0
2, 376320, Note_on_c, 1, 60, 80
2, 380159, Note_on_c, 1, 60, 0
2, 380160, Note_on_c, 1, 59, 80
2, 382079, Note_on_c, 1, 59, 0
2, 382080, Note_on_c, 1, 62, 80
2, 384959, Note_on_c, 1, 62, 0
2, 384960, Note_on_c, 1, 64, 80
2, 385919, Note_on_c, 1, 64, 0
2, 385920, Note_on_c, 1, 65, 80
2, 386879, Note_on_c, 1, 65, 0
2, 386880, Note_on_c, 1, 62, 80
2, 387839, Note_on_c, 1, 62, 0
2, 387840, Note_on_c, 1, 60, 80
2, 389759, Note_on_c, 1, 60, 0
2, 389760, Note_on_c, 1, 57, 80
2, 392639, Note_on_c, 1, 57, 0
2, 392640, Note_on_c, 1, 59, 80
2, 393599, Note_on_c, 1, 59, 0
2, 393600, Note_on_c, 1, 60, 80
2, 395519, Note_on_c, 1, 60, 0
2, 395520, Note_on_c, 1, 57, 80
2, 398399, Note_on_c, 1, 57, 0
2, 398400, Note_on_c, 1, 59, 80
2, 399359, Note_on_c, 1, 59, 0
2, 399360, Note_on_c, 1, 60, 80
2, 401279, Note_on_c, 1, 60, 0
2, 401280, Note_on_c, 1, 55, 80
2, 403199, Note_on_c, 1, 55, 0
2, 403200, Note_on_c, 1, 57, 80
2, 405119, Note_on_c, 1, 57, 0
2, 405120, Note_on_c, 1, 59, 80
2, 407039, Note_on_c, 1, 59, 0
2, 407040, Note_on_c, 1, 60, 80
2, 410879, Note_on_c, 1, 60, 0
2, 410880, Note_on_c, 1, 59, 80
2, 418559, Note_on_c, 1, 59, 0
2, 418560, Note_on_c, 1, 64, 80
2, 422399, Note_on_c, 1, 64, 0
2, 422400, Note_on_c, 1, 64, 80
2, 424319, Note_on_c, 1, 64, 0
2, 424320, Note_on_c, 1, 64, 80
2, 426239, Note_on_c, 1, 64, 0
2, 426240, Note_on_c, 1, 65, 80
2, 431999, Note_on_c, 1, 65, 0
2, 432000, Note_on_c, 1, 65, 80
2, 433919, Note_on_c, 1, 65, 0
2, 433920, Note_on_c, 1, 64, 80
2, 435839, Note_on_c, 1, 64, 0
2, 435840, Note_on_c, 1, 60, 80
2, 437759, Note_on_c, 1, 60, 0
2, 437760, Note_on_c, 1, 62, 80
2, 441599, Note_on_c, 1, 62, 0
2, 441600, Note_on_c, 1, 64, 80
2, 449279, Note_on_c, 1, 64, 0
2, 451200, Note_on_c, 1, 64, 80
2, 453119, Note_on_c, 1, 64, 0
2, 453120, Note_on_c, 1, 65, 80
2, 456959, Note_on_c, 1, 65, 0
2, 456960, Note_on_c, 1, 62, 80
2, 460799, Note_on_c, 1, 62, 0
2, 460800, Note_on_c, 1, 64, 80
2, 464639, Note_on_c, 1, 64, 0
2, 464640, Note_on_c, 1, 60, 80
2, 468479, Note_on_c, 1, 60, 0
2, 468480, Note_on_c, 1, 62, 80
2, 470399, Note_on_c, 1, 62, 0
2, 470400, Note_on_c, 1, 62, 80
2, 472319, Note_on_c, 1, 62, 0
2, 472320, Note_on_c, 1, 59, 80
2, 476159, Note_on_c, 1, 59, 0
2, 476160, Note_on_c, 1, 60, 80
2, 479999, Note_on_c, 1, 60, 0
2, 480000, Note_on_c, 1, 64, 80
2, 483839, Note_on_c, 1, 64, 0
2, 483840, Note_on_c, 1, 64, 80
2, 485759, Note_on_c, 1, 64, 0
2, 485760, Note_on_c, 1, 64, 80
2, 487679, Note_on_c, 1, 64, 0
2, 487680, Note_on_c, 1, 65, 80
2, 493439, Note_on_c, 1, 65, 0
2, 493440, Note_on_c, 1, 65, 80
2, 495359, Note_on_c, 1, 65, 0
2, 495360, Note_on_c, 1, 64, 80
2, 497279, Note_on_c, 1, 64, 0
2, 497280, Note_on_c, 1, 60, 80
2, 499199, Note_on_c, 1, 60, 0
2, 499200, Note_on_c, 1, 62, 80
2, 503039, Note_on_c, 1, 62, 0
2, 503040, Note_on_c, 1, 64, 80
2, 510719, Note_on_c, 1, 64, 0
2, 512640, Note_on_c, 1, 64, 80
2, 514559, Note_on_c, 1, 64, 0
2, 514560, Note_on_c, 1, 65, 80
2, 518399, Note_on_c, 1, 65, 0
2, 518400, Note_on_c, 1, 62, 80
2, 522239, Note_on_c, 1, 62, 0
2, 522240, Note_on_c, 1, 64, 80
2, 526079, Note_on_c, 1, 64, 0
2, 526080, Note_on_c, 1, 60, 80
2, 529919, Note_on_c, 1, 60, 0
2, 529920, Note_on_c, 1, 62, 80
2, 531839, Note_on_c, 1, 62, 0
2, 531840, Note_on_c, 1, 62, 80
2, 533759, Note_on_c, 1, 62, 0
2, 533760, Note_on_c, 1, 59, 80
2, 537599, Note_on_c, 1, 59, 0
2, 537600, Note_on_c, 1, 60, 80
2, 541439, Note_on_c, 1, 60, 0
2, 541440, Note_on_c, 1, 59, 80
2, 545279, Note_on_c, 1, 59, 0
2, 545280, Note_on_c, 1, 60, 80
2, 547199, Note_on_c, 1, 60, 0
2, 547200, Note_on_c, 1, 60, 80
2, 549119, Note_on_c, 1, 60, 0
2, 549120, Note_on_c, 1, 60, 80
2, 551039, Note_on_c, 1, 60, 0
2, 551040, Note_on_c, 1, 60, 80
2, 552959, Note_on_c, 1, 60, 0
2, 552960, Note_on_c, 1, 60, 80
2, 556799, Note_on_c, 1, 60, 0
2, 556800, Note_on_c, 1, 59, 80
2, 560639, Note_on_c, 1, 59, 0
2, 560640, Note_on_c, 1, 59, 80
2, 568319, Note_on_c, 1, 59, 0
2, 572160, Note_on_c, 1, 59, 80
2, 575999, Note_on_c, 1, 59, 0
2, 576000, Note_on_c, 1, 60, 80
2, 579839, Note_on_c, 1, 60, 0
2, 579840, Note_on_c, 1, 60, 80
2, 587519, Note_on_c, 1, 60, 0
2, 587520, Note_on_c, 1, 59, 80
2, 591359, Note_on_c, 1, 59, 0
2, 591360, Note_on_c, 1, 59, 80
2, 595199, Note_on_c, 1, 59, 0
2, 595200, End_track
3, 0, Start_track
3, 0, Key_signature, 0, "major"
3, 0, Control_c, 2, 121, 0
3, 0, Program_c, 2, 52
3, 0, Control_c, 2, 7, 100
3, 0, Control_c, 2, 10, 64
3, 0, Control_c, 2, 91, 0
3, 0, Control_c, 2, 93, 0
3, 0, MIDI_port, 0
3, 11520, Note_on_c, 2, 57, 80
3, 15359, Note_on_c, 2, 57, 0
3, 15360, Note_on_c, 2, 57, 80
3, 19199, Note_on_c, 2, 57, 0
3, 19200, Note_on_c, 2, 50, 80
3, 23039, Note_on_c, 2, 50, 0
3, 23040, Note_on_c, 2, 57, 80
3, 30719, Note_on_c, 2, 57, 0
3, 38400, Note_on_c, 2, 57, 80
3, 42239, Note_on_c, 2, 57, 0
3, 42240, Note_on_c, 2, 57, 80
3, 44159, Note_on_c, 2, 57, 0
3, 44160, Note_on_c, 2, 57, 80
3, 46079, Note_on_c, 2, 57, 0
3, 46080, Note_on_c, 2, 57, 80
3, 47999, Note_on_c, 2, 57, 0
3, 48000, Note_on_c, 2, 58, 80
3, 50879, Note_on_c, 2, 58, 0
3, 50880, Note_on_c, 2, 57, 80
3, 51839, Note_on_c, 2, 57, 0
3, 51840, Note_on_c, 2, 57, 80
3, 55679, Note_on_c, 2, 57, 0
3, 55680, Note_on_c, 2, 55, 80
3, 57599, Note_on_c, 2, 55, 0
3, 57600, Note_on_c, 2, 57, 80
3, 60479, Note_on_c, 2, 57, 0
3, 60480, Note_on_c, 2, 59, 80
3, 61439, Note_on_c, 2, 59, 0
3, 61440, Note_on_c, 2, 60, 80
3, 65279, Note_on_c, 2, 60, 0
3, 65280, Note_on_c, 2, 62, 80
3, 69119, Note_on_c, 2, 62, 0
3, 69120, Note_on_c, 2, 62, 80
3, 74879, Note_on_c, 2, 62, 0
3, 74880, Note_on_c, 2, 62, 80
3, 76799, Note_on_c, 2, 62, 0
3, 76800, Note_on_c, 2, 57, 80
3, 79679, Note_on_c, 2, 57, 0
3, 79680, Note_on_c, 2, 59, 80
3, 80639, Note_on_c, 2, 59, 0
3, 80640, Note_on_c, 2, 60, 80
3, 84479, Note_on_c, 2, 60, 0
3, 86400, Note_on_c, 2, 60, 80
3, 88319, Note_on_c, 2, 60, 0
3, 88320, Note_on_c, 2, 62, 80
3, 91199, Note_on_c, 2, 62, 0
3, 91200, Note_on_c, 2, 60, 80
3, 92159, Note_on_c, 2, 60, 0
3, 92160, Note_on_c, 2, 58, 80
3, 94079, Note_on_c, 2, 58, 0
3, 94080, Note_on_c, 2, 58, 80
3, 95999, Note_on_c, 2, 58, 0
3, 96000, Note_on_c, 2, 57, 80
3, 99839, Note_on_c, 2, 57, 0
3, 101760, Note_on_c, 2, 50, 80
3, 103679, Note_on_c, 2, 50, 0
3, 103680, Note_on_c, 2, 52, 80
3, 105599, Note_on_c, 2, 52, 0
3, 105600, Note_on_c, 2, 48, 80
3, 107519, Note_on_c, 2, 48, 0
3, 107520, Note_on_c, 2, 50, 80
3, 111359, Note_on_c, 2, 50, 0
3, 111360, Note_on_c, 2, 52, 80
3, 113279, Note_on_c, 2, 52, 0
3, 113280, Note_on_c, 2, 50, 80
3, 115199, Note_on_c, 2, 50, 0
3, 115200, Note_on_c, 2, 52, 80
3, 117119, Note_on_c, 2, 52, 0
3, 117120, Note_on_c, 2, 52, 80
3, 120959, Note_on_c, 2, 52, 0
3, 120960, Note_on_c, 2, 48, 80
3, 122879, Note_on_c, 2, 48, 0
3, 122880, Note_on_c, 2, 50, 80
3, 126719, Note_on_c, 2, 50, 0
3, 126720, Note_on_c, 2, 52, 80
3, 130559, Note_on_c, 2, 52, 0
3, 132480, Note_on_c, 2, 60, 80
3, 134399, Note_on_c, 2, 60, 0
3, 134400, Note_on_c, 2, 60, 80
3, 136319, Note_on_c, 2, 60, 0
3, 136320, Note_on_c, 2, 60, 80
3, 138239, Note_on_c, 2, 60, 0
3, 138240, Note_on_c, 2, 55, 80
3, 142079, Note_on_c, 2, 55, 0
3, 144000, Note_on_c, 2, 55, 80
3, 145919, Note_on_c, 2, 55, 0
3, 145920, Note_on_c, 2, 62, 80
3, 148799, Note_on_c, 2, 62, 0
3, 148800, Note_on_c, 2, 62, 80
3, 149759, Note_on_c, 2, 62, 0
3, 149760, Note_on_c, 2, 62, 80
3, 151679, Note_on_c, 2, 62, 0
3, 151680, Note_on_c, 2, 62, 80
3, 153599, Note_on_c, 2, 62, 0
3, 153600, Note_on_c, 2, 57, 80
3, 161279, Note_on_c, 2, 57, 0
3, 161280, Note_on_c, 2, 60, 80
3, 165119, Note_on_c, 2, 60, 0
3, 165120, Note_on_c, 2, 58, 80
3, 172799, Note_on_c, 2, 58, 0
3, 172800, Note_on_c, 2, 57, 80
3, 180479, Note_on_c, 2, 57, 0
3, 180480, Note_on_c, 2, 64, 80
3, 184319, Note_on_c, 2, 64, 0
3, 184320, Note_on_c, 2, 64, 80
3, 186239, Note_on_c, 2, 64, 0
3, 186240, Note_on_c, 2, 64, 80
3, 188159, Note_on_c, 2, 64, 0
3, 188160, Note_on_c, 2, 62, 80
3, 191999, Note_on_c, 2, 62, 0
3, 193920, Note_on_c, 2, 62, 80
3, 195839, Note_on_c, 2, 62, 0
3, 195840, Note_on_c, 2, 60, 80
3, 198719, Note_on_c, 2, 60, 0
3, 198720, Note_on_c, 2, 59, 80
3, 199679, Note_on_c, 2, 59, 0
3, 199680, Note_on_c, 2, 57, 80
3, 201599, Note_on_c, 2, 57, 0
3, 201600, Note_on_c, 2, 55, 80
3, 203519, Note_on_c, 2, 55, 0
3, 203520, Note_on_c, 2, 54, 80
3, 204479, Note_on_c, 2, 54, 0
3, 204480, Note_on_c, 2, 52, 80
3, 205439, Note_on_c, 2, 52, 0
3, 205440, Note_on_c, 2, 54, 80
3, 207359, Note_on_c, 2, 54, 0
3, 207360, Note_on_c, 2, 55, 80
3, 209279, Note_on_c, 2, 55, 0
3, 209280, Note_on_c, 2, 62, 80
3, 211199, Note_on_c, 2, 62, 0
3, 211200, Note_on_c, 2, 59, 80
3, 213119, Note_on_c, 2, 59, 0
3, 213120, Note_on_c, 2, 64, 80
3, 215999, Note_on_c, 2, 64, 0
3, 216000, Note_on_c, 2, 60, 80
3, 216959, Note_on_c, 2, 60, 0
3, 216960, Note_on_c, 2, 62, 80
3, 218879, Note_on_c, 2, 62, 0
3, 218880, Note_on_c, 2, 64, 80
3, 220799, Note_on_c, 2, 64, 0
3, 222720, Note_on_c, 2, 64, 80
3, 226559, Note_on_c, 2, 64, 0
3, 226560, Note_on_c, 2, 64, 80
3, 232319, Note_on_c, 2, 64, 0
3, 232320, Note_on_c, 2, 64, 80
3, 234239, Note_on_c, 2, 64, 0
3, 234240, Note_on_c, 2, 64, 80
3, 237119, Note_on_c, 2, 64, 0
3, 237120, Note_on_c, 2, 62, 80
3, 238079, Note_on_c, 2, 62, 0
3, 238080, Note_on_c, 2, 60, 80
3, 239039, Note_on_c, 2, 60, 0
3, 239040, Note_on_c, 2, 59, 80
3, 239999, Note_on_c, 2, 59, 0
3, 240000, Note_on_c, 2, 57, 80
3, 241919, Note_on_c, 2, 57, 0
3, 243840, Note_on_c, 2, 57, 80
3, 247679, Note_on_c, 2, 57, 0
3, 247680, Note_on_c, 2, 56, 80
3, 249599, Note_on_c, 2, 56, 0
3, 249600, Note_on_c, 2, 57, 80
3, 252479, Note_on_c, 2, 57, 0
3, 252480, Note_on_c, 2, 59, 80
3, 253439, Note_on_c, 2, 59, 0
3, 253440, Note_on_c, 2, 60, 80
3, 254399, Note_on_c, 2, 60, 0
3, 254400, Note_on_c, 2, 62, 80
3, 255359, Note_on_c, 2, 62, 0
3, 255360, Note_on_c, 2, 64, 80
3, 258239, Note_on_c, 2, 64, 0
3, 258240, Note_on_c, 2, 60, 80
3, 259199, Note_on_c, 2, 60, 0
3, 259200, Note_on_c, 2, 62, 80
3, 261119, Note_on_c, 2, 62, 0
3, 261120, Note_on_c, 2, 64, 80
3, 268799, Note_on_c, 2, 64, 0
3, 268800, Note_on_c, 2, 57, 80
3, 272639, Note_on_c, 2, 57, 0
3, 272640, Note_on_c, 2, 57, 80
3, 274559, Note_on_c, 2, 57, 0
3, 274560, Note_on_c, 2, 57, 80
3, 276479, Note_on_c, 2, 57, 0
3, 276480, Note_on_c, 2, 58, 80
3, 278399, Note_on_c, 2, 58, 0
3, 278400, Note_on_c, 2, 58, 80
3, 280319, Note_on_c, 2, 58, 0
3, 280320, Note_on_c, 2, 58, 80
3, 282239, Note_on_c, 2, 58, 0
3, 282240, Note_on_c, 2, 46, 80
3, 284159, Note_on_c, 2, 46, 0
3, 284160, Note_on_c, 2, 50, 80
3, 286079, Note_on_c, 2, 50, 0
3, 286080, Note_on_c, 2, 50, 80
3, 287999, Note_on_c, 2, 50, 0
3, 288000, Note_on_c, 2, 53, 80
3, 290879, Note_on_c, 2, 53, 0
3, 290880, Note_on_c, 2, 52, 80
3, 291839, Note_on_c, 2, 52, 0
3, 291840, Note_on_c, 2, 48, 80
3, 295679, Note_on_c, 2, 48, 0
3, 297600, Note_on_c, 2, 55, 80
3, 301439, Note_on_c, 2, 55, 0
3, 301440, Note_on_c, 2, 52, 80
3, 303359, Note_on_c, 2, 52, 0
3, 303360, Note_on_c, 2, 52, 80
3, 305279, Note_on_c, 2, 52, 0
3, 305280, Note_on_c, 2, 57, 80
3, 309119, Note_on_c, 2, 57, 0
3, 309120, Note_on_c, 2, 53, 80
3, 311039, Note_on_c, 2, 53, 0
3, 311040, Note_on_c, 2, 55, 80
3, 312959, Note_on_c, 2, 55, 0
3, 312960, Note_on_c, 2, 55, 80
3, 314879, Note_on_c, 2, 55, 0
3, 314880, Note_on_c, 2, 52, 80
3, 316799, Note_on_c, 2, 52, 0
3, 316800, Note_on_c, 2, 48, 80
3, 318719, Note_on_c, 2, 48, 0
3, 318720, Note_on_c, 2, 52, 80
3, 322559, Note_on_c, 2, 52, 0
3, 322560, Note_on_c, 2, 50, 80
3, 330239, Note_on_c, 2, 50, 0
3, 332160, Note_on_c, 2, 55, 80
3, 335999, Note_on_c, 2, 55, 0
3, 336000, Note_on_c, 2, 53, 80
3, 337919, Note_on_c, 2, 53, 0
3, 337920, Note_on_c, 2, 58, 80
3, 341759, Note_on_c, 2, 58, 0
3, 343680, Note_on_c, 2, 57, 80
3, 345599, Note_on_c, 2, 57, 0
3, 345600, Note_on_c, 2, 57, 80
3, 347519, Note_on_c, 2, 57, 0
3, 347520, Note_on_c, 2, 57, 80
3, 349439, Note_on_c, 2, 57, 0
3, 349440, Note_on_c, 2, 62, 80
3, 353279, Note_on_c, 2, 62, 0
3, 353280, Note_on_c, 2, 60, 80
3, 357119, Note_on_c, 2, 60, 0
3, 357120, Note_on_c, 2, 64, 80
3, 362879, Note_on_c, 2, 64, 0
3, 362880, Note_on_c, 2, 64, 80
3, 364799, Note_on_c, 2, 64, 0
3, 364800, Note_on_c, 2, 62, 80
3, 366719, Note_on_c, 2, 62, 0
3, 366720, Note_on_c, 2, 62, 80
3, 368639, Note_on_c, 2, 62, 0
3, 368640, Note_on_c, 2, 65, 80
3, 371519, Note_on_c, 2, 65, 0
3, 371520, Note_on_c, 2, 64, 80
3, 372479, Note_on_c, 2, 64, 0
3, 372480, Note_on_c, 2, 60, 80
3, 376319, Note_on_c, 2, 60, 0
3, 378240, Note_on_c, 2, 48, 80
3, 380159, Note_on_c, 2, 48, 0
3, 380160, Note_on_c, 2, 50, 80
3, 383039, Note_on_c, 2, 50, 0
3, 383040, Note_on_c, 2, 52, 80
3, 383999, Note_on_c, 2, 52, 0
3, 384000, Note_on_c, 2, 53, 80
3, 384959, Note_on_c, 2, 53, 0
3, 384960, Note_on_c, 2, 55, 80
3, 385919, Note_on_c, 2, 55, 0
3, 385920, Note_on_c, 2, 57, 80
3, 388799, Note_on_c, 2, 57, 0
3, 388800, Note_on_c, 2, 59, 80
3, 389759, Note_on_c, 2, 59, 0
3, 389760, Note_on_c, 2, 60, 80
3, 392639, Note_on_c, 2, 60, 0
3, 392640, Note_on_c, 2, 62, 80
3, 393599, Note_on_c, 2, 62, 0
3, 393600, Note_on_c, 2, 64, 80
3, 397439, Note_on_c, 2, 64, 0
3, 397440, Note_on_c, 2, 62, 80
3, 399359, Note_on_c, 2, 62, 0
3, 399360, Note_on_c, 2, 64, 80
3, 402239, Note_on_c, 2, 64, 0
3, 402240, Note_on_c, 2, 62, 80
3, 403199, Note_on_c, 2, 62, 0
3, 403200, Note_on_c, 2, 60, 80
3, 405119, Note_on_c, 2, 60, 0
3, 405120, Note_on_c, 2, 59, 80
3, 407039, Note_on_c, 2, 59, 0
3, 407040, Note_on_c, 2, 57, 80
3, 410879, Note_on_c, 2, 57, 0
3, 410880, Note_on_c, 2, 55, 80
3, 418559, Note_on_c, 2, 55, 0
3, 418560, Note_on_c, 2, 60, 80
3, 422399, Note_on_c, 2, 60, 0
3, 422400, Note_on_c, 2, 59, 80
3, 424319, Note_on_c, 2, 59, 0
3, 424320, Note_on_c, 2, 55, 80
3, 426239, Note_on_c, 2, 55, 0
3, 426240, Note_on_c, 2, 62, 80
3, 430079, Note_on_c, 2, 62, 0
3, 430080, Note_on_c, 2, 62, 80
3, 433919, Note_on_c, 2, 62, 0
3, 433920, Note_on_c, 2, 60, 80
3, 435839, Note_on_c, 2, 60, 0
3, 435840, Note_on_c, 2, 57, 80
3, 438719, Note_on_c, 2, 57, 0
3, 438720, Note_on_c, 2, 55, 80
3, 439679, Note_on_c, 2, 55, 0
3, 439680, Note_on_c, 2, 57, 80
3, 441599, Note_on_c, 2, 57, 0
3, 441600, Note_on_c, 2, 59, 80
3, 445439, Note_on_c, 2, 59, 0
3, 447360, Note_on_c, 2, 64, 80
3, 451199, Note_on_c, 2, 64, 0
3, 451200, Note_on_c, 2, 60, 80
3, 455039, Note_on_c, 2, 60, 0
3, 455040, Note_on_c, 2, 62, 80
3, 458879, Note_on_c, 2, 62, 0
3, 458880, Note_on_c, 2, 59, 80
3, 462719, Note_on_c, 2, 59, 0
3, 462720, Note_on_c, 2, 60, 80
3, 466559, Note_on_c, 2, 60, 0
3, 466560, Note_on_c, 2, 57, 80
3, 470399, Note_on_c, 2, 57, 0
3, 470400, Note_on_c, 2, 58, 80
3, 472319, Note_on_c, 2, 58, 0
3, 472320, Note_on_c, 2, 55, 80
3, 476159, Note_on_c, 2, 55, 0
3, 476160, Note_on_c, 2, 57, 80
3, 479999, Note_on_c, 2, 57, 0
3, 480000, Note_on_c, 2, 60, 80
3, 483839, Note_on_c, 2, 60, 0
3, 483840, Note_on_c, 2, 59, 80
3, 485759, Note_on_c, 2, 59, 0
3, 485760, Note_on_c, 2, 55, 80
3, 487679, Note_on_c, 2, 55, 0
3, 487680, Note_on_c, 2, 62, 80
3, 491519, Note_on_c, 2, 62, 0
3, 491520, Note_on_c, 2, 62, 80
3, 495359, Note_on_c, 2, 62, 0
3, 495360, Note_on_c, 2, 60, 80
3, 497279, Note_on_c, 2, 60, 0
3, 497280, Note_on_c, 2, 57, 80
3, 500159, Note_on_c, 2, 57, 0
3, 500160, Note_on_c, 2, 55, 80
3, 501119, Note_on_c, 2, 55, 0
3, 501120, Note_on_c, 2, 57, 80
3, 503039, Note_on_c, 2, 57, 0
3, 503040, Note_on_c, 2, 59, 80
3, 506879, Note_on_c, 2, 59, 0
3, 508800, Note_on_c, 2, 64, 80
3, 512639, Note_on_c, 2, 64, 0
3, 512640, Note_on_c, 2, 60, 80
3, 516479, Note_on_c, 2, 60, 0
3, 516480, Note_on_c, 2, 62, 80
3, 520319, Note_on_c, 2, 62, 0
3, 520320, Note_on_c, 2, 59, 80
3, 524159, Note_on_c, 2, 59, 0
3, 524160, Note_on_c, 2, 60, 80
3, 527999, Note_on_c, 2, 60, 0
3, 528000, Note_on_c, 2, 57, 80
3, 531839, Note_on_c, 2, 57, 0
3, 531840, Note_on_c, 2, 58, 80
3, 533759, Note_on_c, 2, 58, 0
3, 533760, Note_on_c, 2, 55, 80
3, 537599, Note_on_c, 2, 55, 0
3, 537600, Note_on_c, 2, 57, 80
3, 541439, Note_on_c, 2, 57, 0
3, 541440, Note_on_c, 2, 55, 80
3, 545279, Note_on_c, 2, 55, 0
3, 545280, Note_on_c, 2, 52, 80
3, 547199, Note_on_c, 2, 52, 0
3, 547200, Note_on_c, 2, 52, 80
3, 549119, Note_on_c, 2, 52, 0
3, 549120, Note_on_c, 2, 57, 80
3, 551039, Note_on_c, 2, 57, 0
3, 551040, Note_on_c, 2, 57, 80
3, 552959, Note_on_c, 2, 57, 0
3, 552960, Note_on_c, 2, 52, 80
3, 555839, Note_on_c, 2, 52, 0
3, 555840, Note_on_c, 2, 53, 80
3, 556799, Note_on_c, 2, 53, 0
3, 556800, Note_on_c, 2, 55, 80
3, 564479, Note_on_c, 2, 55, 0
3, 568320, Note_on_c, 2, 55, 80
3, 574079, Note_on_c, 2, 55, 0
3, 574080, Note_on_c, 2, 52, 80
3, 575999, Note_on_c, 2, 52, 0
3, 576000, Note_on_c, 2, 52, 80
3, 595199, Note_on_c, 2, 52, 0
3, 595200, End_track
4, 0, Start_track
4, 0, Key_signature, 0, "major"
4, 0, Control_c, 3, 121, 0
4, 0, Program_c, 3, 52
4, 0, Control_c, 3, 7, 100
4, 0, Control_c, 3, 10, 64
4, 0, Control_c, 3, 91, 0
4, 0, Control_c, 3, 93, 0
4, 0, MIDI_port, 0
4, 0, Note_on_c, 3, 52, 80
4, 7679, Note_on_c, 3, 52, 0
4, 7680, Note_on_c, 3, 53, 80
4, 11519, Note_on_c, 3, 53, 0
4, 11520, Note_on_c, 3, 52, 80
4, 15359, Note_on_c, 3, 52, 0
4, 15360, Note_on_c, 3, 52, 80
4, 19199, Note_on_c, 3, 52, 0
4, 23040, Note_on_c, 3, 52, 80
4, 28799, Note_on_c, 3, 52, 0
4, 28800, Note_on_c, 3, 53, 80
4, 30719, Note_on_c, 3, 53, 0
4, 30720, Note_on_c, 3, 55, 80
4, 34559, Note_on_c, 3, 55, 0
4, 34560, Note_on_c, 3, 55, 80
4, 38399, Note_on_c, 3, 55, 0
4, 38400, Note_on_c, 3, 53, 80
4, 40319, Note_on_c, 3, 53, 0
4, 40320, Note_on_c, 3, 52, 80
4, 42239, Note_on_c, 3, 52, 0
4, 42240, Note_on_c, 3, 53, 80
4, 46079, Note_on_c, 3, 53, 0
4, 46080, Note_on_c, 3, 53, 80
4, 49919, Note_on_c, 3, 53, 0
4, 49920, Note_on_c, 3, 52, 80
4, 53759, Note_on_c, 3, 52, 0
4, 57600, Note_on_c, 3, 52, 80
4, 63359, Note_on_c, 3, 52, 0
4, 63360, Note_on_c, 3, 53, 80
4, 65279, Note_on_c, 3, 53, 0
4, 65280, Note_on_c, 3, 55, 80
4, 69119, Note_on_c, 3, 55, 0
4, 69120, Note_on_c, 3, 55, 80
4, 72959, Note_on_c, 3, 55, 0
4, 72960, Note_on_c, 3, 53, 80
4, 80639, Note_on_c, 3, 53, 0
4, 80640, Note_on_c, 3, 55, 80
4, 84479, Note_on_c, 3, 55, 0
4, 84480, Note_on_c, 3, 55, 80
4, 88319, Note_on_c, 3, 55, 0
4, 88320, Note_on_c, 3, 58, 80
4, 92159, Note_on_c, 3, 58, 0
4, 92160, Note_on_c, 3, 55, 80
4, 95999, Note_on_c, 3, 55, 0
4, 96000, Note_on_c, 3, 53, 80
4, 103679, Note_on_c, 3, 53, 0
4, 103680, Note_on_c, 3, 55, 80
4, 126719, Note_on_c, 3, 55, 0
4, 126720, Note_on_c, 3, 57, 80
4, 134399, Note_on_c, 3, 57, 0
4, 134400, Note_on_c, 3, 55, 80
4, 149759, Note_on_c, 3, 55, 0
4, 149760, Note_on_c, 3, 53, 80
4, 157439, Note_on_c, 3, 53, 0
4, 159360, Note_on_c, 3, 52, 80
4, 161279, Note_on_c, 3, 52, 0
4, 161280, Note_on_c, 3, 52, 80
4, 164159, Note_on_c, 3, 52, 0
4, 164160, Note_on_c, 3, 53, 80
4, 165119, Note_on_c, 3, 53, 0
4, 165120, Note_on_c, 3, 55, 80
4, 167039, Note_on_c, 3, 55, 0
4, 167040, Note_on_c, 3, 53, 80
4, 170879, Note_on_c, 3, 53, 0
4, 170880, Note_on_c, 3, 52, 80
4, 172799, Note_on_c, 3, 52, 0
4, 172800, Note_on_c, 3, 53, 80
4, 176639, Note_on_c, 3, 53, 0
4, 176640, Note_on_c, 3, 53, 80
4, 180479, Note_on_c, 3, 53, 0
4, 180480, Note_on_c, 3, 52, 80
4, 188159, Note_on_c, 3, 52, 0
4, 207360, Note_on_c, 3, 55, 80
4, 211199, Note_on_c, 3, 55, 0
4, 211200, Note_on_c, 3, 55, 80
4, 213119, Note_on_c, 3, 55, 0
4, 213120, Note_on_c, 3, 52, 80
4, 215039, Note_on_c, 3, 52, 0
4, 215040, Note_on_c, 3, 53, 80
4, 218879, Note_on_c, 3, 53, 0
4, 218880, Note_on_c, 3, 52, 80
4, 230399, Note_on_c, 3, 52, 0
4, 261120, Note_on_c, 3, 55, 80
4, 268799, Note_on_c, 3, 55, 0
4, 268800, Note_on_c, 3, 53, 80
4, 280319, Note_on_c, 3, 53, 0
4, 280320, Note_on_c, 3, 55, 80
4, 284159, Note_on_c, 3, 55, 0
4, 284160, Note_on_c, 3, 53, 80
4, 291839, Note_on_c, 3, 53, 0
4, 291840, Note_on_c, 3, 52, 80
4, 295679, Note_on_c, 3, 52, 0
4, 295680, Note_on_c, 3, 52, 80
4, 299519, Note_on_c, 3, 52, 0
4, 314880, Note_on_c, 3, 55, 80
4, 322559, Note_on_c, 3, 55, 0
4, 322560, Note_on_c, 3, 53, 80
4, 326399, Note_on_c, 3, 53, 0
4, 326400, Note_on_c, 3, 55, 80
4, 330239, Note_on_c, 3, 55, 0
4, 330240, Note_on_c, 3, 55, 80
4, 332159, Note_on_c, 3, 55, 0
4, 332160, Note_on_c, 3, 58, 80
4, 335999, Note_on_c, 3, 58, 0
4, 336000, Note_on_c, 3, 57, 80
4, 337919, Note_on_c, 3, 57, 0
4, 337920, Note_on_c, 3, 55, 80
4, 341759, Note_on_c, 3, 55, 0
4, 341760, Note_on_c, 3, 53, 80
4, 349439, Note_on_c, 3, 53, 0
4, 349440, Note_on_c, 3, 55, 80
4, 353279, Note_on_c, 3, 55, 0
4, 353280, Note_on_c, 3, 57, 80
4, 360959, Note_on_c, 3, 57, 0
4, 360960, Note_on_c, 3, 55, 80
4, 368639, Note_on_c, 3, 55, 0
4, 368640, Note_on_c, 3, 53, 80
4, 372479, Note_on_c, 3, 53, 0
4, 372480, Note_on_c, 3, 52, 80
4, 378239, Note_on_c, 3, 52, 0
4, 378240, Note_on_c, 3, 53, 80
4, 380159, Note_on_c, 3, 53, 0
4, 380160, Note_on_c, 3, 55, 80
4, 383999, Note_on_c, 3, 55, 0
4, 384000, Note_on_c, 3, 53, 80
4, 387839, Note_on_c, 3, 53, 0
4, 387840, Note_on_c, 3, 52, 80
4, 391679, Note_on_c, 3, 52, 0
4, 391680, Note_on_c, 3, 53, 80
4, 393599, Note_on_c, 3, 53, 0
4, 393600, Note_on_c, 3, 52, 80
4, 395519, Note_on_c, 3, 52, 0
4, 395520, Note_on_c, 3, 53, 80
4, 399359, Note_on_c, 3, 53, 0
4, 399360, Note_on_c, 3, 52, 80
4, 418559, Note_on_c, 3, 52, 0
4, 541440, Note_on_c, 3, 64, 80
4, 545279, Note_on_c, 3, 64, 0
4, 545280, Note_on_c, 3, 64, 80
4, 547199, Note_on_c, 3, 64, 0
4, 547200, Note_on_c, 3, 64, 80
4, 549119, Note_on_c, 3, 64, 0
4, 549120, Note_on_c, 3, 64, 80
4, 551039, Note_on_c, 3, 64, 0
4, 551040, Note_on_c, 3, 64, 80
4, 552959, Note_on_c, 3, 64, 0
4, 552960, Note_on_c, 3, 64, 80
4, 556799, Note_on_c, 3, 64, 0
4, 556800, Note_on_c, 3, 62, 80
4, 560639, Note_on_c, 3, 62, 0
4, 560640, Note_on_c, 3, 62, 80
4, 564479, Note_on_c, 3, 62, 0
4, 564480, Note_on_c, 3, 62, 80
4, 568319, Note_on_c, 3, 62, 0
4, 568320, Note_on_c, 3, 64, 80
4, 575999, Note_on_c, 3, 64, 0
4, 576000, Note_on_c, 3, 64, 80
4, 595199, Note_on_c, 3, 64, 0
4, 595200, End_track
5, 0, Start_track
5, 0, Key_signature, 0, "major"
5, 0, Control_c, 4, 121, 0
5, 0, Program_c, 4, 52
5, 0, Control_c, 4, 7, 100
5, 0, Control_c, 4, 10, 64
5, 0, Control_c, 4, 91, 0
5, 0, Control_c, 4, 93, 0
5, 0, MIDI_port, 0
5, 11520, Note_on_c, 4, 45, 80
5, 15359, Note_on_c, 4, 45, 0
5, 15360, Note_on_c, 4, 45, 80
5, 19199, Note_on_c, 4, 45, 0
5, 19200, Note_on_c, 4, 47, 80
5, 23039, Note_on_c, 4, 47, 0
5, 23040, Note_on_c, 4, 45, 80
5, 30719, Note_on_c, 4, 45, 0
5, 30720, Note_on_c, 4, 43, 80
5, 34559, Note_on_c, 4, 43, 0
5, 36480, Note_on_c, 4, 43, 80
5, 38399, Note_on_c, 4, 43, 0
5, 38400, Note_on_c, 4, 50, 80
5, 40319, Note_on_c, 4, 50, 0
5, 40320, Note_on_c, 4, 48, 80
5, 42239, Note_on_c, 4, 48, 0
5, 42240, Note_on_c, 4, 50, 80
5, 46079, Note_on_c, 4, 50, 0
5, 46080, Note_on_c, 4, 50, 80
5, 49919, Note_on_c, 4, 50, 0
5, 49920, Note_on_c, 4, 45, 80
5, 51839, Note_on_c, 4, 45, 0
5, 51840, Note_on_c, 4, 48, 80
5, 53759, Note_on_c, 4, 48, 0
5, 53760, Note_on_c, 4, 46, 80
5, 57599, Note_on_c, 4, 46, 0
5, 57600, Note_on_c, 4, 45, 80
5, 65279, Note_on_c, 4, 45, 0
5, 65280, Note_on_c, 4, 43, 80
5, 69119, Note_on_c, 4, 43, 0
5, 69120, Note_on_c, 4, 43, 80
5, 71039, Note_on_c, 4, 43, 0
5, 71040, Note_on_c, 4, 43, 80
5, 72959, Note_on_c, 4, 43, 0
5, 72960, Note_on_c, 4, 50, 80
5, 76799, Note_on_c, 4, 50, 0
5, 76800, Note_on_c, 4, 50, 80
5, 80639, Note_on_c, 4, 50, 0
5, 80640, Note_on_c, 4, 48, 80
5, 83519, Note_on_c, 4, 48, 0
5, 83520, Note_on_c, 4, 48, 80
5, 84479, Note_on_c, 4, 48, 0
5, 84480, Note_on_c, 4, 48, 80
5, 86399, Note_on_c, 4, 48, 0
5, 86400, Note_on_c, 4, 48, 80
5, 88319, Note_on_c, 4, 48, 0
5, 88320, Note_on_c, 4, 43, 80
5, 95999, Note_on_c, 4, 43, 0
5, 96000, Note_on_c, 4, 50, 80
5, 99839, Note_on_c, 4, 50, 0
5, 99840, Note_on_c, 4, 50, 80
5, 101759, Note_on_c, 4, 50, 0
5, 101760, Note_on_c, 4, 50, 80
5, 103679, Note_on_c, 4, 50, 0
5, 103680, Note_on_c, 4, 48, 80
5, 106559, Note_on_c, 4, 48, 0
5, 106560, Note_on_c, 4, 47, 80
5, 107519, Note_on_c, 4, 47, 0
5, 107520, Note_on_c, 4, 43, 80
5, 111359, Note_on_c, 4, 43, 0
5, 113280, Note_on_c, 4, 43, 80
5, 115199, Note_on_c, 4, 43, 0
5, 115200, Note_on_c, 4, 48, 80
5, 117119, Note_on_c, 4, 48, 0
5, 117120, Note_on_c, 4, 48, 80
5, 119039, Note_on_c, 4, 48, 0
5, 119040, Note_on_c, 4, 48, 80
5, 120959, Note_on_c, 4, 48, 0
5, 120960, Note_on_c, 4, 48, 80
5, 122879, Note_on_c, 4, 48, 0
5, 122880, Note_on_c, 4, 47, 80
5, 126719, Note_on_c, 4, 47, 0
5, 126720, Note_on_c, 4, 45, 80
5, 134399, Note_on_c, 4, 45, 0
5, 134400, Note_on_c, 4, 48, 80
5, 138239, Note_on_c, 4, 48, 0
5, 138240, Note_on_c, 4, 48, 80
5, 140159, Note_on_c, 4, 48, 0
5, 140160, Note_on_c, 4, 48, 80
5, 142079, Note_on_c, 4, 48, 0
5, 142080, Note_on_c, 4, 43, 80
5, 145919, Note_on_c, 4, 43, 0
5, 147840, Note_on_c, 4, 43, 80
5, 149759, Note_on_c, 4, 43, 0
5, 149760, Note_on_c, 4, 50, 80
5, 152639, Note_on_c, 4, 50, 0
5, 152640, Note_on_c, 4, 50, 80
5, 153599, Note_on_c, 4, 50, 0
5, 153600, Note_on_c, 4, 50, 80
5, 155519, Note_on_c, 4, 50, 0
5, 155520, Note_on_c, 4, 50, 80
5, 157439, Note_on_c, 4, 50, 0
5, 157440, Note_on_c, 4, 45, 80
5, 165119, Note_on_c, 4, 45, 0
5, 165120, Note_on_c, 4, 46, 80
5, 167999, Note_on_c, 4, 46, 0
5, 168000, Note_on_c, 4, 45, 80
5, 168959, Note_on_c, 4, 45, 0
5, 168960, Note_on_c, 4, 43, 80
5, 172799, Note_on_c, 4, 43, 0
5, 172800, Note_on_c, 4, 41, 80
5, 180479, Note_on_c, 4, 41, 0
5, 180480, Note_on_c, 4, 48, 80
5, 184319, Note_on_c, 4, 48, 0
5, 184320, Note_on_c, 4, 48, 80
5, 186239, Note_on_c, 4, 48, 0
5, 186240, Note_on_c, 4, 48, 80
5, 188159, Note_on_c, 4, 48, 0
5, 188160, Note_on_c, 4, 50, 80
5, 191999, Note_on_c, 4, 50, 0
5, 193920, Note_on_c, 4, 50, 80
5, 195839, Note_on_c, 4, 50, 0
5, 195840, Note_on_c, 4, 52, 80
5, 198719, Note_on_c, 4, 52, 0
5, 198720, Note_on_c, 4, 50, 80
5, 199679, Note_on_c, 4, 50, 0
5, 199680, Note_on_c, 4, 48, 80
5, 201599, Note_on_c, 4, 48, 0
5, 201600, Note_on_c, 4, 47, 80
5, 203519, Note_on_c, 4, 47, 0
5, 203520, Note_on_c, 4, 45, 80
5, 207359, Note_on_c, 4, 45, 0
5, 207360, Note_on_c, 4, 43, 80
5, 211199, Note_on_c, 4, 43, 0
5, 218880, Note_on_c, 4, 45, 80
5, 222719, Note_on_c, 4, 45, 0
5, 222720, Note_on_c, 4, 45, 80
5, 226559, Note_on_c, 4, 45, 0
5, 226560, Note_on_c, 4, 48, 80
5, 229439, Note_on_c, 4, 48, 0
5, 229440, Note_on_c, 4, 50, 80
5, 230399, Note_on_c, 4, 50, 0
5, 230400, Note_on_c, 4, 52, 80
5, 234239, Note_on_c, 4, 52, 0
5, 236160, Note_on_c, 4, 52, 80
5, 238079, Note_on_c, 4, 52, 0
5, 238080, Note_on_c, 4, 53, 80
5, 240959, Note_on_c, 4, 53, 0
5, 240960, Note_on_c, 4, 52, 80
5, 241919, Note_on_c, 4, 52, 0
5, 241920, Note_on_c, 4, 50, 80
5, 243839, Note_on_c, 4, 50, 0
5, 243840, Note_on_c, 4, 48, 80
5, 245759, Note_on_c, 4, 48, 0
5, 245760, Note_on_c, 4, 47, 80
5, 249599, Note_on_c, 4, 47, 0
5, 249600, Note_on_c, 4, 45, 80
5, 253439, Note_on_c, 4, 45, 0
5, 261120, Note_on_c, 4, 48, 80
5, 264959, Note_on_c, 4, 48, 0
5, 264960, Note_on_c, 4, 48, 80
5, 266879, Note_on_c, 4, 48, 0
5, 266880, Note_on_c, 4, 48, 80
5, 268799, Note_on_c, 4, 48, 0
5, 268800, Note_on_c, 4, 41, 80
5, 272639, Note_on_c, 4, 41, 0
5, 274560, Note_on_c, 4, 41, 80
5, 276479, Note_on_c, 4, 41, 0
5, 276480, Note_on_c, 4, 46, 80
5, 278399, Note_on_c, 4, 46, 0
5, 278400, Note_on_c, 4, 46, 80
5, 280319, Note_on_c, 4, 46, 0
5, 280320, Note_on_c, 4, 43, 80
5, 282239, Note_on_c, 4, 43, 0
5, 282240, Note_on_c, 4, 43, 80
5, 284159, Note_on_c, 4, 43, 0
5, 284160, Note_on_c, 4, 46, 80
5, 287039, Note_on_c, 4, 46, 0
5, 287040, Note_on_c, 4, 45, 80
5, 287999, Note_on_c, 4, 45, 0
5, 288000, Note_on_c, 4, 41, 80
5, 291839, Note_on_c, 4, 41, 0
5, 299520, Note_on_c, 4, 48, 80
5, 303359, Note_on_c, 4, 48, 0
5, 303360, Note_on_c, 4, 45, 80
5, 305279, Note_on_c, 4, 45, 0
5, 305280, Note_on_c, 4, 45, 80
5, 307199, Note_on_c, 4, 45, 0
5, 307200, Note_on_c, 4, 50, 80
5, 311039, Note_on_c, 4, 50, 0
5, 312960, Note_on_c, 4, 43, 80
5, 314879, Note_on_c, 4, 43, 0
5, 314880, Note_on_c, 4, 48, 80
5, 317759, Note_on_c, 4, 48, 0
5, 317760, Note_on_c, 4, 48, 80
5, 318719, Note_on_c, 4, 48, 0
5, 318720, Note_on_c, 4, 48, 80
5, 320639, Note_on_c, 4, 48, 0
5, 320640, Note_on_c, 4, 48, 80
5, 322559, Note_on_c, 4, 48, 0
5, 322560, Note_on_c, 4, 50, 80
5, 326399, Note_on_c, 4, 50, 0
5, 326400, Note_on_c, 4, 43, 80
5, 334079, Note_on_c, 4, 43, 0
5, 337920, Note_on_c, 4, 43, 80
5, 341759, Note_on_c, 4, 43, 0
5, 341760, Note_on_c, 4, 50, 80
5, 347519, Note_on_c, 4, 50, 0
5, 347520, Note_on_c, 4, 50, 80
5, 349439, Note_on_c, 4, 50, 0
5, 349440, Note_on_c, 4, 47, 80
5, 353279, Note_on_c, 4, 47, 0
5, 353280, Note_on_c, 4, 45, 80
5, 360959, Note_on_c, 4, 45, 0
5, 360960, Note_on_c, 4, 48, 80
5, 363839, Note_on_c, 4, 48, 0
5, 363840, Note_on_c, 4, 48, 80
5, 364799, Note_on_c, 4, 48, 0
5, 364800, Note_on_c, 4, 43, 80
5, 366719, Note_on_c, 4, 43, 0
5, 366720, Note_on_c, 4, 43, 80
5, 368639, Note_on_c, 4, 43, 0
5, 368640, Note_on_c, 4, 50, 80
5, 372479, Note_on_c, 4, 50, 0
5, 372480, Note_on_c, 4, 45, 80
5, 374399, Note_on_c, 4, 45, 0
5, 374400, Note_on_c, 4, 48, 80
5, 377279, Note_on_c, 4, 48, 0
5, 377280, Note_on_c, 4, 47, 80
5, 378239, Note_on_c, 4, 47, 0
5, 378240, Note_on_c, 4, 45, 80
5, 380159, Note_on_c, 4, 45, 0
5, 380160, Note_on_c, 4, 43, 80
5, 382079, Note_on_c, 4, 43, 0
5, 382080, Note_on_c, 4, 43, 80
5, 383999, Note_on_c, 4, 43, 0
5, 384000, Note_on_c, 4, 50, 80
5, 387839, Note_on_c, 4, 50, 0
5, 387840, Note_on_c, 4, 45, 80
5, 391679, Note_on_c, 4, 45, 0
5, 399360, Note_on_c, 4, 48, 80
5, 402239, Note_on_c, 4, 48, 0
5, 402240, Note_on_c, 4, 47, 80
5, 403199, Note_on_c, 4, 47, 0
5, 403200, Note_on_c, 4, 45, 80
5, 405119, Note_on_c, 4, 45, 0
5, 405120, Note_on_c, 4, 43, 80
5, 407039, Note_on_c, 4, 43, 0
5, 407040, Note_on_c, 4, 45, 80
5, 410879, Note_on_c, 4, 45, 0
5, 410880, Note_on_c, 4, 40, 80
5, 418559, Note_on_c, 4, 40, 0
5, 418560, Note_on_c, 4, 52, 80
5, 422399, Note_on_c, 4, 52, 0
5, 422400, Note_on_c, 4, 52, 80
5, 424319, Note_on_c, 4, 52, 0
5, 424320, Note_on_c, 4, 52, 80
5, 426239, Note_on_c, 4, 52, 0
5, 426240, Note_on_c, 4, 50, 80
5, 431999, Note_on_c, 4, 50, 0
5, 432000, Note_on_c, 4, 50, 80
5, 433919, Note_on_c, 4, 50, 0
5, 433920, Note_on_c, 4, 57, 80
5, 436799, Note_on_c, 4, 57, 0
5, 436800, Note_on_c, 4, 55, 80
5, 437759, Note_on_c, 4, 55, 0
5, 437760, Note_on_c, 4, 53, 80
5, 439679, Note_on_c, 4, 53, 0
5, 439680, Note_on_c, 4, 53, 80
5, 441599, Note_on_c, 4, 53, 0
5, 441600, Note_on_c, 4, 52, 80
5, 449279, Note_on_c, 4, 52, 0
5, 449280, Note_on_c, 4, 57, 80
5, 453119, Note_on_c, 4, 57, 0
5, 453120, Note_on_c, 4, 53, 80
5, 456959, Note_on_c, 4, 53, 0
5, 456960, Note_on_c, 4, 55, 80
5, 460799, Note_on_c, 4, 55, 0
5, 460800, Note_on_c, 4, 52, 80
5, 464639, Note_on_c, 4, 52, 0
5, 464640, Note_on_c, 4, 53, 80
5, 468479, Note_on_c, 4, 53, 0
5, 468480, Note_on_c, 4, 50, 80
5, 470399, Note_on_c, 4, 50, 0
5, 470400, Note_on_c, 4, 50, 80
5, 472319, Note_on_c, 4, 50, 0
5, 472320, Note_on_c, 4, 52, 80
5, 476159, Note_on_c, 4, 52, 0
5, 476160, Note_on_c, 4, 45, 80
5, 479999, Note_on_c, 4, 45, 0
5, 480000, Note_on_c, 4, 52, 80
5, 483839, Note_on_c, 4, 52, 0
5, 483840, Note_on_c, 4, 52, 80
5, 485759, Note_on_c, 4, 52, 0
5, 485760, Note_on_c, 4, 52, 80
5, 487679, Note_on_c, 4, 52, 0
5, 487680, Note_on_c, 4, 50, 80
5, 493439, Note_on_c, 4, 50, 0
5, 493440, Note_on_c, 4, 50, 80
5, 495359, Note_on_c, 4, 50, 0
5, 495360, Note_on_c, 4, 57, 80
5, 498239, Note_on_c, 4, 57, 0
5, 498240, Note_on_c, 4, 55, 80
5, 499199, Note_on_c, 4, 55, 0
5, 499200, Note_on_c, 4, 53, 80
5, 501119, Note_on_c, 4, 53, 0
5, 501120, Note_on_c, 4, 53, 80
5, 503039, Note_on_c, 4, 53, 0
5, 503040, Note_on_c, 4, 52, 80
5, 510719, Note_on_c, 4, 52, 0
5, 510720, Note_on_c, 4, 57, 80
5, 514559, Note_on_c, 4, 57, 0
5, 514560, Note_on_c, 4, 53, 80
5, 518399, Note_on_c, 4, 53, 0
5, 518400, Note_on_c, 4, 55, 80
5, 522239, Note_on_c, 4, 55, 0
5, 522240, Note_on_c, 4, 52, 80
5, 526079, Note_on_c, 4, 52, 0
5, 526080, Note_on_c, 4, 53, 80
5, 529919, Note_on_c, 4, 53, 0
5, 529920, Note_on_c, 4, 50, 80
5, 531839, Note_on_c, 4, 50, 0
5, 531840, Note_on_c, 4, 50, 80
5, 533759, Note_on_c, 4, 50, 0
5, 533760, Note_on_c, 4, 52, 80
5, 537599, Note_on_c, 4, 52, 0
5, 537600, Note_on_c, 4, 45, 80
5, 541439, Note_on_c, 4, 45, 0
5, 541440, Note_on_c, 4, 52, 80
5, 545279, Note_on_c, 4, 52, 0
5, 545280, Note_on_c, 4, 48, 80
5, 547199, Note_on_c, 4, 48, 0
5, 547200, Note_on_c, 4, 48, 80
5, 549119, Note_on_c, 4, 48, 0
5, 549120, Note_on_c, 4, 45, 80
5, 551039, Note_on_c, 4, 45, 0
5, 551040, Note_on_c, 4, 45, 80
5, 552959, Note_on_c, 4, 45, 0
5, 552960, Note_on_c, 4, 48, 80
5, 556799, Note_on_c, 4, 48, 0
5, 556800, Note_on_c, 4, 43, 80
5, 564479, Note_on_c, 4, 43, 0
5, 564480, Note_on_c, 4, 55, 80
5, 570239, Note_on_c, 4, 55, 0
5, 570240, Note_on_c, 4, 52, 80
5, 572159, Note_on_c, 4, 52, 0
5, 572160, Note_on_c, 4, 52, 80
5, 575999, Note_on_c, 4, 52, 0
5, 577920, Note_on_c, 4, 48, 80
5, 581759, Note_on_c, 4, 48, 0
5, 581760, Note_on_c, 4, 45, 80
5, 583679, Note_on_c, 4, 45, 0
5, 583680, Note_on_c, 4, 45, 80
5, 587519, Note_on_c, 4, 45, 0
5, 587520, Note_on_c, 4, 40, 80
5, 595199, Note_on_c, 4, 40, 0
5, 595200, End_track
0, 0, End_of_file
