0, 0, Header, 1, 5, 120
1, 0, Start_track
1, 0, Title_t, "Fons totius/O livoris (Guillaume de Machaut)seq by n.nakamura.  "
1, 0, Text_t, "\012This file was converted by rcpconv version 20021027 (Chikuhi-line - Shikaka).\012Original RCP file is ""machaut-m09-gm.rcp"" (Sat Nov 18 23:32:57 2006, 10754 bytes)."
1, 0, Key_signature, -8, "major"
1, 0, Tempo, 681818
1, 0, Tempo, 340909
1, 5010, Tempo, 405405
1, 5040, Tempo, 340909
1, 52200, Tempo, 355029
1, 52380, Tempo, 370370
1, 52560, Tempo, 416666
1, 52920, Tempo, 397350
1, 53280, Tempo, 379746
1, 53460, Tempo, 437956
1, 54360, Tempo, 397350
1, 54360, End_track
2, 0, Start_track
2, 0, Title_t, "                                    "
2, 0, MIDI_port, 0
2, 8, Text_t, "GM reset            "
2, 8, System_exclusive, 5, 126, 127, 9, 1, 247
2, 54720, End_track
3, 0, Start_track
3, 0, Title_t, "Fons totius/O livoris/Fera pessima  "
3, 0, MIDI_port, 0
3, 265, Program_c, 0, 73
3, 267, Control_c, 0, 91, 100
3, 270, Control_c, 0, 93, 0
3, 272, Control_c, 0, 94, 0
3, 275, Control_c, 0, 1, 0
3, 277, Control_c, 0, 10, 16
3, 280, Control_c, 0, 11, 127
3, 282, Control_c, 0, 7, 100
3, 285, Control_c, 0, 64, 0
3, 360, Note_on_c, 0, 81, 90
3, 712, Note_off_c, 0, 81, 0
3, 720, Note_on_c, 0, 81, 90
3, 892, Note_off_c, 0, 81, 0
3, 900, Note_on_c, 0, 81, 90
3, 952, Note_off_c, 0, 81, 0
3, 960, Note_on_c, 0, 79, 90
3, 1012, Note_off_c, 0, 79, 0
3, 1020, Note_on_c, 0, 81, 90
3, 1072, Note_off_c, 0, 81, 0
3, 1080, Note_on_c, 0, 77, 90
3, 1192, Note_off_c, 0, 77, 0
3, 1200, Note_on_c, 0, 76, 90
3, 1252, Note_off_c, 0, 76, 0
3, 1260, Note_on_c, 0, 77, 90
3, 1372, Note_off_c, 0, 77, 0
3, 1380, Note_on_c, 0, 79, 90
3, 1432, Note_off_c, 0, 79, 0
3, 1440, Note_on_c, 0, 81, 90
3, 1552, Note_off_c, 0, 81, 0
3, 1560, Note_on_c, 0, 83, 90
3, 1612, Note_off_c, 0, 83, 0
3, 1620, Note_on_c, 0, 81, 90
3, 1732, Note_off_c, 0, 81, 0
3, 1740, Note_on_c, 0, 79, 90
3, 1792, Note_off_c, 0, 79, 0
3, 1800, Note_on_c, 0, 81, 90
3, 2092, Note_off_c, 0, 81, 0
3, 2100, Note_on_c, 0, 83, 90
3, 2152, Note_off_c, 0, 83, 0
3, 2160, Note_on_c, 0, 84, 90
3, 2332, Note_off_c, 0, 84, 0
3, 2340, Note_on_c, 0, 83, 90
3, 2452, Note_off_c, 0, 83, 0
3, 2460, Note_on_c, 0, 81, 90
3, 2512, Note_off_c, 0, 81, 0
3, 2520, Note_on_c, 0, 79, 90
3, 2632, Note_off_c, 0, 79, 0
3, 2640, Note_on_c, 0, 81, 90
3, 2692, Note_off_c, 0, 81, 0
3, 2700, Note_on_c, 0, 79, 90
3, 2812, Note_off_c, 0, 79, 0
3, 2820, Note_on_c, 0, 77, 90
3, 2872, Note_off_c, 0, 77, 0
3, 2880, Note_on_c, 0, 76, 90
3, 2992, Note_off_c, 0, 76, 0
3, 3000, Note_on_c, 0, 74, 90
3, 3052, Note_off_c, 0, 74, 0
3, 3060, Note_on_c, 0, 76, 90
3, 3172, Note_off_c, 0, 76, 0
3, 3180, Note_on_c, 0, 77, 90
3, 3232, Note_off_c, 0, 77, 0
3, 3240, Note_on_c, 0, 74, 90
3, 3532, Note_off_c, 0, 74, 0
3, 3540, Note_on_c, 0, 76, 90
3, 3592, Note_off_c, 0, 76, 0
3, 3600, Note_on_c, 0, 81, 90
3, 3712, Note_off_c, 0, 81, 0
3, 3720, Note_on_c, 0, 79, 90
3, 3772, Note_off_c, 0, 79, 0
3, 3780, Note_on_c, 0, 77, 90
3, 3892, Note_off_c, 0, 77, 0
3, 3900, Note_on_c, 0, 79, 90
3, 3952, Note_off_c, 0, 79, 0
3, 3960, Note_on_c, 0, 81, 90
3, 4072, Note_off_c, 0, 81, 0
3, 4080, Note_on_c, 0, 83, 90
3, 4132, Note_off_c, 0, 83, 0
3, 4140, Note_on_c, 0, 81, 90
3, 4252, Note_off_c, 0, 81, 0
3, 4260, Note_on_c, 0, 81, 90
3, 4312, Note_off_c, 0, 81, 0
3, 4320, Note_on_c, 0, 79, 90
3, 4492, Note_off_c, 0, 79, 0
3, 4500, Note_on_c, 0, 77, 90
3, 4672, Note_off_c, 0, 77, 0
3, 4680, Note_on_c, 0, 79, 90
3, 4950, Control_c, 0, 11, 127
3, 4962, Control_c, 0, 11, 126
3, 4971, Control_c, 0, 11, 125
3, 4977, Control_c, 0, 11, 124
3, 4983, Control_c, 0, 11, 123
3, 4986, Control_c, 0, 11, 121
3, 4989, Control_c, 0, 11, 120
3, 4992, Control_c, 0, 11, 117
3, 4995, Control_c, 0, 11, 114
3, 4998, Control_c, 0, 11, 110
3, 5001, Control_c, 0, 11, 103
3, 5004, Control_c, 0, 11, 96
3, 5007, Control_c, 0, 11, 84
3, 5010, Note_off_c, 0, 79, 0
3, 5030, Control_c, 0, 11, 127
3, 5040, Note_on_c, 0, 81, 90
3, 5212, Note_off_c, 0, 81, 0
3, 5220, Note_on_c, 0, 81, 90
3, 5392, Note_off_c, 0, 81, 0
3, 5520, Note_on_c, 0, 81, 90
3, 5572, Note_off_c, 0, 81, 0
3, 5700, Note_on_c, 0, 79, 90
3, 5752, Note_off_c, 0, 79, 0
3, 5760, Note_on_c, 0, 77, 90
3, 5932, Note_off_c, 0, 77, 0
3, 6060, Note_on_c, 0, 74, 90
3, 6112, Note_off_c, 0, 74, 0
3, 6120, Note_on_c, 0, 76, 90
3, 6292, Note_off_c, 0, 76, 0
3, 6300, Note_on_c, 0, 74, 90
3, 6472, Note_off_c, 0, 74, 0
3, 6480, Note_on_c, 0, 76, 90
3, 6592, Note_off_c, 0, 76, 0
3, 6600, Note_on_c, 0, 74, 90
3, 6652, Note_off_c, 0, 74, 0
3, 6660, Note_on_c, 0, 76, 90
3, 6772, Note_off_c, 0, 76, 0
3, 6780, Note_on_c, 0, 78, 90
3, 6832, Note_off_c, 0, 78, 0
3, 6840, Note_on_c, 0, 79, 90
3, 7012, Note_off_c, 0, 79, 0
3, 7020, Note_on_c, 0, 79, 90
3, 7132, Note_off_c, 0, 79, 0
3, 7140, Note_on_c, 0, 81, 90
3, 7192, Note_off_c, 0, 81, 0
3, 7200, Note_on_c, 0, 79, 90
3, 7312, Note_off_c, 0, 79, 0
3, 7320, Note_on_c, 0, 81, 90
3, 7372, Note_off_c, 0, 81, 0
3, 7380, Note_on_c, 0, 77, 90
3, 7492, Note_off_c, 0, 77, 0
3, 7500, Note_on_c, 0, 79, 90
3, 7552, Note_off_c, 0, 79, 0
3, 7560, Note_on_c, 0, 81, 90
3, 7732, Note_off_c, 0, 81, 0
3, 7740, Note_on_c, 0, 79, 90
3, 7912, Note_off_c, 0, 79, 0
3, 7920, Note_on_c, 0, 81, 90
3, 8272, Note_off_c, 0, 81, 0
3, 8280, Note_on_c, 0, 74, 90
3, 8452, Note_off_c, 0, 74, 0
3, 8460, Note_on_c, 0, 76, 90
3, 8572, Note_off_c, 0, 76, 0
3, 8580, Note_on_c, 0, 77, 90
3, 8632, Note_off_c, 0, 77, 0
3, 8640, Note_on_c, 0, 79, 90
3, 8752, Note_off_c, 0, 79, 0
3, 8760, Note_on_c, 0, 77, 90
3, 8812, Note_off_c, 0, 77, 0
3, 8820, Note_on_c, 0, 76, 90
3, 8932, Note_off_c, 0, 76, 0
3, 8940, Note_on_c, 0, 74, 90
3, 8992, Note_off_c, 0, 74, 0
3, 9000, Note_on_c, 0, 73, 90
3, 9352, Note_off_c, 0, 73, 0
3, 9900, Note_on_c, 0, 76, 90
3, 10072, Note_off_c, 0, 76, 0
3, 10440, Note_on_c, 0, 74, 90
3, 10612, Note_off_c, 0, 74, 0
3, 10620, Note_on_c, 0, 74, 90
3, 10792, Note_off_c, 0, 74, 0
3, 10920, Note_on_c, 0, 77, 90
3, 10972, Note_off_c, 0, 77, 0
3, 11100, Note_on_c, 0, 81, 90
3, 11152, Note_off_c, 0, 81, 0
3, 11160, Note_on_c, 0, 79, 90
3, 11332, Note_off_c, 0, 79, 0
3, 11460, Note_on_c, 0, 77, 90
3, 11512, Note_off_c, 0, 77, 0
3, 11520, Note_on_c, 0, 81, 90
3, 11632, Note_off_c, 0, 81, 0
3, 11640, Note_on_c, 0, 81, 90
3, 11692, Note_off_c, 0, 81, 0
3, 11700, Note_on_c, 0, 79, 90
3, 11812, Note_off_c, 0, 79, 0
3, 11820, Note_on_c, 0, 77, 90
3, 11872, Note_off_c, 0, 77, 0
3, 11880, Note_on_c, 0, 76, 90
3, 11992, Note_off_c, 0, 76, 0
3, 12000, Note_on_c, 0, 74, 90
3, 12052, Note_off_c, 0, 74, 0
3, 12060, Note_on_c, 0, 76, 90
3, 12172, Note_off_c, 0, 76, 0
3, 12180, Note_on_c, 0, 77, 90
3, 12232, Note_off_c, 0, 77, 0
3, 12240, Note_on_c, 0, 79, 90
3, 12412, Note_off_c, 0, 79, 0
3, 12420, Note_on_c, 0, 79, 90
3, 12532, Note_off_c, 0, 79, 0
3, 12540, Note_on_c, 0, 81, 90
3, 12592, Note_off_c, 0, 81, 0
3, 12600, Note_on_c, 0, 83, 90
3, 12952, Note_off_c, 0, 83, 0
3, 12960, Note_on_c, 0, 81, 90
3, 13132, Note_off_c, 0, 81, 0
3, 13140, Note_on_c, 0, 79, 90
3, 13252, Note_off_c, 0, 79, 0
3, 13260, Note_on_c, 0, 77, 90
3, 13312, Note_off_c, 0, 77, 0
3, 13320, Note_on_c, 0, 76, 90
3, 13672, Note_off_c, 0, 76, 0
3, 13680, Note_on_c, 0, 77, 90
3, 13852, Note_off_c, 0, 77, 0
3, 13860, Note_on_c, 0, 79, 90
3, 13972, Note_off_c, 0, 79, 0
3, 13980, Note_on_c, 0, 81, 90
3, 14032, Note_off_c, 0, 81, 0
3, 14040, Note_on_c, 0, 82, 90
3, 14152, Note_off_c, 0, 82, 0
3, 14160, Note_on_c, 0, 81, 90
3, 14212, Note_off_c, 0, 81, 0
3, 14220, Note_on_c, 0, 79, 90
3, 14332, Note_off_c, 0, 79, 0
3, 14340, Note_on_c, 0, 77, 90
3, 14392, Note_off_c, 0, 77, 0
3, 14400, Note_on_c, 0, 76, 90
3, 14752, Note_off_c, 0, 76, 0
3, 15300, Note_on_c, 0, 74, 90
3, 15472, Note_off_c, 0, 74, 0
3, 15840, Note_on_c, 0, 79, 90
3, 16012, Note_off_c, 0, 79, 0
3, 16020, Note_on_c, 0, 79, 90
3, 16192, Note_off_c, 0, 79, 0
3, 16320, Note_on_c, 0, 81, 90
3, 16372, Note_off_c, 0, 81, 0
3, 16500, Note_on_c, 0, 76, 90
3, 16552, Note_off_c, 0, 76, 0
3, 16560, Note_on_c, 0, 74, 90
3, 16732, Note_off_c, 0, 74, 0
3, 16860, Note_on_c, 0, 76, 90
3, 16912, Note_off_c, 0, 76, 0
3, 16920, Note_on_c, 0, 73, 90
3, 17092, Note_off_c, 0, 73, 0
3, 17100, Note_on_c, 0, 73, 90
3, 17272, Note_off_c, 0, 73, 0
3, 17280, Note_on_c, 0, 74, 90
3, 17452, Note_off_c, 0, 74, 0
3, 17460, Note_on_c, 0, 74, 90
3, 17632, Note_off_c, 0, 74, 0
3, 17640, Note_on_c, 0, 76, 90
3, 17992, Note_off_c, 0, 76, 0
3, 18000, Note_on_c, 0, 79, 90
3, 18172, Note_off_c, 0, 79, 0
3, 18180, Note_on_c, 0, 81, 90
3, 18352, Note_off_c, 0, 81, 0
3, 18360, Note_on_c, 0, 83, 90
3, 18472, Note_off_c, 0, 83, 0
3, 18480, Note_on_c, 0, 81, 90
3, 18532, Note_off_c, 0, 81, 0
3, 18540, Note_on_c, 0, 83, 90
3, 18592, Note_off_c, 0, 83, 0
3, 18600, Note_on_c, 0, 81, 90
3, 18652, Note_off_c, 0, 81, 0
3, 18660, Note_on_c, 0, 83, 90
3, 18712, Note_off_c, 0, 83, 0
3, 18720, Note_on_c, 0, 84, 90
3, 18772, Note_off_c, 0, 84, 0
3, 18780, Note_on_c, 0, 83, 90
3, 18832, Note_off_c, 0, 83, 0
3, 18840, Note_on_c, 0, 84, 90
3, 18892, Note_off_c, 0, 84, 0
3, 18900, Note_on_c, 0, 83, 90
3, 19012, Note_off_c, 0, 83, 0
3, 19020, Note_on_c, 0, 81, 90
3, 19072, Note_off_c, 0, 81, 0
3, 19080, Note_on_c, 0, 79, 90
3, 19192, Note_off_c, 0, 79, 0
3, 19200, Note_on_c, 0, 77, 90
3, 19252, Note_off_c, 0, 77, 0
3, 19260, Note_on_c, 0, 76, 90
3, 19372, Note_off_c, 0, 76, 0
3, 19380, Note_on_c, 0, 77, 90
3, 19432, Note_off_c, 0, 77, 0
3, 19440, Note_on_c, 0, 74, 90
3, 19612, Note_off_c, 0, 74, 0
3, 19620, Note_on_c, 0, 74, 90
3, 19792, Note_off_c, 0, 74, 0
3, 19800, Note_on_c, 0, 76, 90
3, 20152, Note_off_c, 0, 76, 0
3, 20700, Note_on_c, 0, 74, 90
3, 20872, Note_off_c, 0, 74, 0
3, 21240, Note_on_c, 0, 79, 90
3, 21412, Note_off_c, 0, 79, 0
3, 21420, Note_on_c, 0, 74, 90
3, 21592, Note_off_c, 0, 74, 0
3, 21720, Note_on_c, 0, 81, 90
3, 21772, Note_off_c, 0, 81, 0
3, 21900, Note_on_c, 0, 74, 90
3, 21952, Note_off_c, 0, 74, 0
3, 21960, Note_on_c, 0, 77, 90
3, 22132, Note_off_c, 0, 77, 0
3, 22260, Note_on_c, 0, 79, 90
3, 22312, Note_off_c, 0, 79, 0
3, 22320, Note_on_c, 0, 81, 90
3, 22432, Note_off_c, 0, 81, 0
3, 22440, Note_on_c, 0, 79, 90
3, 22492, Note_off_c, 0, 79, 0
3, 22500, Note_on_c, 0, 81, 90
3, 22612, Note_off_c, 0, 81, 0
3, 22620, Note_on_c, 0, 83, 90
3, 22672, Note_off_c, 0, 83, 0
3, 22680, Note_on_c, 0, 81, 90
3, 22852, Note_off_c, 0, 81, 0
3, 22860, Note_on_c, 0, 81, 90
3, 23032, Note_off_c, 0, 81, 0
3, 23040, Note_on_c, 0, 74, 90
3, 23212, Note_off_c, 0, 74, 0
3, 23220, Note_on_c, 0, 72, 90
3, 23392, Note_off_c, 0, 72, 0
3, 23400, Note_on_c, 0, 74, 90
3, 23752, Note_off_c, 0, 74, 0
3, 23760, Note_on_c, 0, 83, 90
3, 23872, Note_off_c, 0, 83, 0
3, 23880, Note_on_c, 0, 81, 90
3, 23932, Note_off_c, 0, 81, 0
3, 23940, Note_on_c, 0, 83, 90
3, 24052, Note_off_c, 0, 83, 0
3, 24060, Note_on_c, 0, 84, 90
3, 24112, Note_off_c, 0, 84, 0
3, 24120, Note_on_c, 0, 81, 90
3, 24232, Note_off_c, 0, 81, 0
3, 24240, Note_on_c, 0, 83, 90
3, 24292, Note_off_c, 0, 83, 0
3, 24300, Note_on_c, 0, 81, 90
3, 24412, Note_off_c, 0, 81, 0
3, 24420, Note_on_c, 0, 79, 90
3, 24472, Note_off_c, 0, 79, 0
3, 24480, Note_on_c, 0, 79, 90
3, 24652, Note_off_c, 0, 79, 0
3, 24660, Note_on_c, 0, 77, 90
3, 24772, Note_off_c, 0, 77, 0
3, 24780, Note_on_c, 0, 76, 90
3, 24832, Note_off_c, 0, 76, 0
3, 24840, Note_on_c, 0, 77, 90
3, 24952, Note_off_c, 0, 77, 0
3, 24960, Note_on_c, 0, 76, 90
3, 25012, Note_off_c, 0, 76, 0
3, 25020, Note_on_c, 0, 77, 90
3, 25132, Note_off_c, 0, 77, 0
3, 25140, Note_on_c, 0, 79, 90
3, 25192, Note_off_c, 0, 79, 0
3, 25200, Note_on_c, 0, 81, 90
3, 25552, Note_off_c, 0, 81, 0
3, 26100, Note_on_c, 0, 77, 90
3, 26272, Note_off_c, 0, 77, 0
3, 26640, Note_on_c, 0, 74, 90
3, 26812, Note_off_c, 0, 74, 0
3, 26820, Note_on_c, 0, 74, 90
3, 26992, Note_off_c, 0, 74, 0
3, 27120, Note_on_c, 0, 77, 90
3, 27172, Note_off_c, 0, 77, 0
3, 27300, Note_on_c, 0, 76, 90
3, 27352, Note_off_c, 0, 76, 0
3, 27360, Note_on_c, 0, 74, 90
3, 27532, Note_off_c, 0, 74, 0
3, 27660, Note_on_c, 0, 79, 90
3, 27712, Note_off_c, 0, 79, 0
3, 27720, Note_on_c, 0, 81, 90
3, 27892, Note_off_c, 0, 81, 0
3, 27900, Note_on_c, 0, 81, 90
3, 28072, Note_off_c, 0, 81, 0
3, 28080, Note_on_c, 0, 74, 90
3, 28252, Note_off_c, 0, 74, 0
3, 28260, Note_on_c, 0, 72, 90
3, 28432, Note_off_c, 0, 72, 0
3, 28440, Note_on_c, 0, 74, 90
3, 28792, Note_off_c, 0, 74, 0
3, 28800, Note_on_c, 0, 74, 90
3, 28912, Note_off_c, 0, 74, 0
3, 28920, Note_on_c, 0, 76, 90
3, 28972, Note_off_c, 0, 76, 0
3, 28980, Note_on_c, 0, 77, 90
3, 29092, Note_off_c, 0, 77, 0
3, 29100, Note_on_c, 0, 79, 90
3, 29152, Note_off_c, 0, 79, 0
3, 29160, Note_on_c, 0, 81, 90
3, 29212, Note_off_c, 0, 81, 0
3, 29220, Note_on_c, 0, 79, 90
3, 29272, Note_off_c, 0, 79, 0
3, 29280, Note_on_c, 0, 81, 90
3, 29332, Note_off_c, 0, 81, 0
3, 29340, Note_on_c, 0, 79, 90
3, 29452, Note_off_c, 0, 79, 0
3, 29460, Note_on_c, 0, 77, 90
3, 29512, Note_off_c, 0, 77, 0
3, 29520, Note_on_c, 0, 76, 90
3, 29632, Note_off_c, 0, 76, 0
3, 29640, Note_on_c, 0, 74, 90
3, 29692, Note_off_c, 0, 74, 0
3, 29700, Note_on_c, 0, 76, 90
3, 29812, Note_off_c, 0, 76, 0
3, 29820, Note_on_c, 0, 77, 90
3, 29872, Note_off_c, 0, 77, 0
3, 29880, Note_on_c, 0, 79, 90
3, 30232, Note_off_c, 0, 79, 0
3, 30240, Note_on_c, 0, 77, 90
3, 30352, Note_off_c, 0, 77, 0
3, 30360, Note_on_c, 0, 79, 90
3, 30412, Note_off_c, 0, 79, 0
3, 30420, Note_on_c, 0, 81, 90
3, 30532, Note_off_c, 0, 81, 0
3, 30540, Note_on_c, 0, 79, 90
3, 30592, Note_off_c, 0, 79, 0
3, 30600, Note_on_c, 0, 81, 90
3, 30952, Note_off_c, 0, 81, 0
3, 31500, Note_on_c, 0, 81, 90
3, 31672, Note_off_c, 0, 81, 0
3, 32040, Note_on_c, 0, 74, 90
3, 32212, Note_off_c, 0, 74, 0
3, 32220, Note_on_c, 0, 77, 90
3, 32392, Note_off_c, 0, 77, 0
3, 32520, Note_on_c, 0, 76, 90
3, 32572, Note_off_c, 0, 76, 0
3, 32700, Note_on_c, 0, 79, 90
3, 32752, Note_off_c, 0, 79, 0
3, 32760, Note_on_c, 0, 77, 90
3, 32932, Note_off_c, 0, 77, 0
3, 33060, Note_on_c, 0, 79, 90
3, 33112, Note_off_c, 0, 79, 0
3, 33120, Note_on_c, 0, 81, 90
3, 33232, Note_off_c, 0, 81, 0
3, 33240, Note_on_c, 0, 79, 90
3, 33292, Note_off_c, 0, 79, 0
3, 33300, Note_on_c, 0, 81, 90
3, 33412, Note_off_c, 0, 81, 0
3, 33420, Note_on_c, 0, 83, 90
3, 33472, Note_off_c, 0, 83, 0
3, 33480, Note_on_c, 0, 84, 90
3, 33532, Note_off_c, 0, 84, 0
3, 33540, Note_on_c, 0, 83, 90
3, 33592, Note_off_c, 0, 83, 0
3, 33600, Note_on_c, 0, 84, 90
3, 33652, Note_off_c, 0, 84, 0
3, 33660, Note_on_c, 0, 83, 90
3, 33772, Note_off_c, 0, 83, 0
3, 33780, Note_on_c, 0, 81, 90
3, 33832, Note_off_c, 0, 81, 0
3, 33840, Note_on_c, 0, 79, 90
3, 33952, Note_off_c, 0, 79, 0
3, 33960, Note_on_c, 0, 77, 90
3, 34012, Note_off_c, 0, 77, 0
3, 34020, Note_on_c, 0, 76, 90
3, 34132, Note_off_c, 0, 76, 0
3, 34140, Note_on_c, 0, 77, 90
3, 34192, Note_off_c, 0, 77, 0
3, 34200, Note_on_c, 0, 74, 90
3, 34552, Note_off_c, 0, 74, 0
3, 34560, Note_on_c, 0, 72, 90
3, 34852, Note_off_c, 0, 72, 0
3, 34860, Note_on_c, 0, 74, 90
3, 34912, Note_off_c, 0, 74, 0
3, 34920, Note_on_c, 0, 77, 90
3, 35092, Note_off_c, 0, 77, 0
3, 35100, Note_on_c, 0, 76, 90
3, 35272, Note_off_c, 0, 76, 0
3, 35280, Note_on_c, 0, 74, 90
3, 35632, Note_off_c, 0, 74, 0
3, 35640, Note_on_c, 0, 74, 90
3, 35812, Note_off_c, 0, 74, 0
3, 35820, Note_on_c, 0, 72, 90
3, 35932, Note_off_c, 0, 72, 0
3, 35940, Note_on_c, 0, 74, 90
3, 35992, Note_off_c, 0, 74, 0
3, 36000, Note_on_c, 0, 76, 90
3, 36352, Note_off_c, 0, 76, 0
3, 36900, Note_on_c, 0, 72, 90
3, 37072, Note_off_c, 0, 72, 0
3, 37440, Note_on_c, 0, 79, 90
3, 37612, Note_off_c, 0, 79, 0
3, 37620, Note_on_c, 0, 74, 90
3, 37792, Note_off_c, 0, 74, 0
3, 37920, Note_on_c, 0, 74, 90
3, 37972, Note_off_c, 0, 74, 0
3, 38100, Note_on_c, 0, 76, 90
3, 38152, Note_off_c, 0, 76, 0
3, 38160, Note_on_c, 0, 77, 90
3, 38332, Note_off_c, 0, 77, 0
3, 38460, Note_on_c, 0, 79, 90
3, 38512, Note_off_c, 0, 79, 0
3, 38520, Note_on_c, 0, 81, 90
3, 38692, Note_off_c, 0, 81, 0
3, 38700, Note_on_c, 0, 81, 90
3, 38872, Note_off_c, 0, 81, 0
3, 38880, Note_on_c, 0, 81, 90
3, 39052, Note_off_c, 0, 81, 0
3, 39060, Note_on_c, 0, 79, 90
3, 39232, Note_off_c, 0, 79, 0
3, 39240, Note_on_c, 0, 82, 90
3, 39592, Note_off_c, 0, 82, 0
3, 39600, Note_on_c, 0, 79, 90
3, 39712, Note_off_c, 0, 79, 0
3, 39720, Note_on_c, 0, 81, 90
3, 39772, Note_off_c, 0, 81, 0
3, 39780, Note_on_c, 0, 79, 90
3, 39892, Note_off_c, 0, 79, 0
3, 39900, Note_on_c, 0, 77, 90
3, 39952, Note_off_c, 0, 77, 0
3, 39960, Note_on_c, 0, 76, 90
3, 40072, Note_off_c, 0, 76, 0
3, 40080, Note_on_c, 0, 76, 90
3, 40132, Note_off_c, 0, 76, 0
3, 40140, Note_on_c, 0, 74, 90
3, 40252, Note_off_c, 0, 74, 0
3, 40260, Note_on_c, 0, 74, 90
3, 40312, Note_off_c, 0, 74, 0
3, 40320, Note_on_c, 0, 73, 90
3, 40492, Note_off_c, 0, 73, 0
3, 40500, Note_on_c, 0, 73, 90
3, 40672, Note_off_c, 0, 73, 0
3, 40680, Note_on_c, 0, 74, 90
3, 40972, Note_off_c, 0, 74, 0
3, 40980, Note_on_c, 0, 76, 90
3, 41032, Note_off_c, 0, 76, 0
3, 41040, Note_on_c, 0, 77, 90
3, 41092, Note_off_c, 0, 77, 0
3, 41100, Note_on_c, 0, 76, 90
3, 41152, Note_off_c, 0, 76, 0
3, 41160, Note_on_c, 0, 77, 90
3, 41212, Note_off_c, 0, 77, 0
3, 41220, Note_on_c, 0, 76, 90
3, 41332, Note_off_c, 0, 76, 0
3, 41340, Note_on_c, 0, 74, 90
3, 41392, Note_off_c, 0, 74, 0
3, 41400, Note_on_c, 0, 76, 90
3, 41752, Note_off_c, 0, 76, 0
3, 42300, Note_on_c, 0, 74, 90
3, 42472, Note_off_c, 0, 74, 0
3, 42840, Note_on_c, 0, 74, 90
3, 43012, Note_off_c, 0, 74, 0
3, 43020, Note_on_c, 0, 74, 90
3, 43192, Note_off_c, 0, 74, 0
3, 43320, Note_on_c, 0, 72, 90
3, 43372, Note_off_c, 0, 72, 0
3, 43500, Note_on_c, 0, 76, 90
3, 43552, Note_off_c, 0, 76, 0
3, 43560, Note_on_c, 0, 79, 90
3, 43732, Note_off_c, 0, 79, 0
3, 43860, Note_on_c, 0, 77, 90
3, 43912, Note_off_c, 0, 77, 0
3, 43920, Note_on_c, 0, 76, 90
3, 44092, Note_off_c, 0, 76, 0
3, 44100, Note_on_c, 0, 76, 90
3, 44272, Note_off_c, 0, 76, 0
3, 44280, Note_on_c, 0, 78, 90
3, 44392, Note_off_c, 0, 78, 0
3, 44400, Note_on_c, 0, 78, 90
3, 44452, Note_off_c, 0, 78, 0
3, 44460, Note_on_c, 0, 76, 90
3, 44572, Note_off_c, 0, 76, 0
3, 44580, Note_on_c, 0, 78, 90
3, 44632, Note_off_c, 0, 78, 0
3, 44640, Note_on_c, 0, 79, 90
3, 44812, Note_off_c, 0, 79, 0
3, 44820, Note_on_c, 0, 76, 90
3, 44932, Note_off_c, 0, 76, 0
3, 44940, Note_on_c, 0, 78, 90
3, 44992, Note_off_c, 0, 78, 0
3, 45000, Note_on_c, 0, 79, 90
3, 45352, Note_off_c, 0, 79, 0
3, 45360, Note_on_c, 0, 79, 90
3, 45472, Note_off_c, 0, 79, 0
3, 45480, Note_on_c, 0, 81, 90
3, 45532, Note_off_c, 0, 81, 0
3, 45540, Note_on_c, 0, 77, 90
3, 45652, Note_off_c, 0, 77, 0
3, 45660, Note_on_c, 0, 79, 90
3, 45712, Note_off_c, 0, 79, 0
3, 45720, Note_on_c, 0, 81, 90
3, 46072, Note_off_c, 0, 81, 0
3, 46080, Note_on_c, 0, 77, 90
3, 46252, Note_off_c, 0, 77, 0
3, 46260, Note_on_c, 0, 79, 90
3, 46372, Note_off_c, 0, 79, 0
3, 46380, Note_on_c, 0, 81, 90
3, 46432, Note_off_c, 0, 81, 0
3, 46440, Note_on_c, 0, 82, 90
3, 46552, Note_off_c, 0, 82, 0
3, 46560, Note_on_c, 0, 81, 90
3, 46612, Note_off_c, 0, 81, 0
3, 46620, Note_on_c, 0, 82, 90
3, 46732, Note_off_c, 0, 82, 0
3, 46740, Note_on_c, 0, 79, 90
3, 46792, Note_off_c, 0, 79, 0
3, 46800, Note_on_c, 0, 81, 90
3, 47152, Note_off_c, 0, 81, 0
3, 47700, Note_on_c, 0, 81, 90
3, 47872, Note_off_c, 0, 81, 0
3, 48240, Note_on_c, 0, 79, 90
3, 48412, Note_off_c, 0, 79, 0
3, 48420, Note_on_c, 0, 79, 90
3, 48592, Note_off_c, 0, 79, 0
3, 48720, Note_on_c, 0, 74, 90
3, 48772, Note_off_c, 0, 74, 0
3, 48900, Note_on_c, 0, 76, 90
3, 48952, Note_off_c, 0, 76, 0
3, 48960, Note_on_c, 0, 77, 90
3, 49132, Note_off_c, 0, 77, 0
3, 49260, Note_on_c, 0, 76, 90
3, 49312, Note_off_c, 0, 76, 0
3, 49320, Note_on_c, 0, 73, 90
3, 49492, Note_off_c, 0, 73, 0
3, 49500, Note_on_c, 0, 76, 90
3, 49612, Note_off_c, 0, 76, 0
3, 49620, Note_on_c, 0, 74, 90
3, 49672, Note_off_c, 0, 74, 0
3, 49680, Note_on_c, 0, 73, 90
3, 50032, Note_off_c, 0, 73, 0
3, 50040, Note_on_c, 0, 74, 90
3, 50212, Note_off_c, 0, 74, 0
3, 50220, Note_on_c, 0, 76, 90
3, 50392, Note_off_c, 0, 76, 0
3, 50400, Note_on_c, 0, 74, 90
3, 50512, Note_off_c, 0, 74, 0
3, 50520, Note_on_c, 0, 72, 90
3, 50572, Note_off_c, 0, 72, 0
3, 50580, Note_on_c, 0, 74, 90
3, 50692, Note_off_c, 0, 74, 0
3, 50700, Note_on_c, 0, 76, 90
3, 50752, Note_off_c, 0, 76, 0
3, 50760, Note_on_c, 0, 72, 90
3, 50932, Note_off_c, 0, 72, 0
3, 50940, Note_on_c, 0, 72, 90
3, 51112, Note_off_c, 0, 72, 0
3, 51120, Note_on_c, 0, 77, 90
3, 51232, Note_off_c, 0, 77, 0
3, 51240, Note_on_c, 0, 79, 90
3, 51292, Note_off_c, 0, 79, 0
3, 51300, Note_on_c, 0, 77, 90
3, 51412, Note_off_c, 0, 77, 0
3, 51420, Note_on_c, 0, 76, 90
3, 51472, Note_off_c, 0, 76, 0
3, 51480, Note_on_c, 0, 74, 90
3, 51652, Note_off_c, 0, 74, 0
3, 51660, Note_on_c, 0, 72, 90
3, 51832, Note_off_c, 0, 72, 0
3, 51840, Note_on_c, 0, 74, 90
3, 52110, Control_c, 0, 11, 127
3, 52122, Control_c, 0, 11, 126
3, 52131, Control_c, 0, 11, 125
3, 52137, Control_c, 0, 11, 124
3, 52143, Control_c, 0, 11, 123
3, 52146, Control_c, 0, 11, 121
3, 52149, Control_c, 0, 11, 120
3, 52152, Control_c, 0, 11, 117
3, 52155, Control_c, 0, 11, 114
3, 52158, Control_c, 0, 11, 110
3, 52161, Control_c, 0, 11, 103
3, 52164, Control_c, 0, 11, 96
3, 52167, Control_c, 0, 11, 84
3, 52170, Note_off_c, 0, 74, 0
3, 52190, Control_c, 0, 11, 127
3, 52200, Note_on_c, 0, 81, 90
3, 52372, Note_off_c, 0, 81, 0
3, 52380, Note_on_c, 0, 79, 90
3, 52552, Note_off_c, 0, 79, 0
3, 52560, Note_on_c, 0, 78, 90
3, 53272, Note_off_c, 0, 78, 0
3, 53280, Note_on_c, 0, 79, 90
3, 54360, Control_c, 0, 11, 127
3, 54372, Control_c, 0, 11, 126
3, 54381, Control_c, 0, 11, 125
3, 54387, Control_c, 0, 11, 124
3, 54393, Control_c, 0, 11, 123
3, 54396, Control_c, 0, 11, 121
3, 54399, Control_c, 0, 11, 120
3, 54402, Control_c, 0, 11, 117
3, 54405, Control_c, 0, 11, 114
3, 54408, Control_c, 0, 11, 110
3, 54411, Control_c, 0, 11, 103
3, 54414, Control_c, 0, 11, 96
3, 54417, Control_c, 0, 11, 84
3, 54420, Note_off_c, 0, 79, 0
3, 54720, End_track
4, 0, Start_track
4, 0, Title_t, "(Guillaume de Machaut)              "
4, 0, MIDI_port, 0
4, 290, Program_c, 1, 74
4, 292, Control_c, 1, 91, 100
4, 295, Control_c, 1, 93, 0
4, 297, Control_c, 1, 94, 0
4, 300, Control_c, 1, 1, 0
4, 302, Control_c, 1, 10, 112
4, 305, Control_c, 1, 11, 127
4, 307, Control_c, 1, 7, 100
4, 310, Control_c, 1, 64, 0
4, 5400, Note_on_c, 1, 76, 90
4, 5572, Note_off_c, 1, 76, 0
4, 5940, Note_on_c, 1, 74, 90
4, 6112, Note_off_c, 1, 74, 0
4, 6120, Note_on_c, 1, 73, 90
4, 6832, Note_off_c, 1, 73, 0
4, 6840, Note_on_c, 1, 74, 90
4, 6952, Note_off_c, 1, 74, 0
4, 6960, Note_on_c, 1, 73, 90
4, 7012, Note_off_c, 1, 73, 0
4, 7020, Note_on_c, 1, 74, 90
4, 7132, Note_off_c, 1, 74, 0
4, 7140, Note_on_c, 1, 76, 90
4, 7192, Note_off_c, 1, 76, 0
4, 7200, Note_on_c, 1, 74, 90
4, 7912, Note_off_c, 1, 74, 0
4, 7920, Note_on_c, 1, 76, 90
4, 8092, Note_off_c, 1, 76, 0
4, 8100, Note_on_c, 1, 81, 90
4, 8212, Note_off_c, 1, 81, 0
4, 8220, Note_on_c, 1, 79, 90
4, 8272, Note_off_c, 1, 79, 0
4, 8280, Note_on_c, 1, 77, 90
4, 8452, Note_off_c, 1, 77, 0
4, 8460, Note_on_c, 1, 76, 90
4, 8632, Note_off_c, 1, 76, 0
4, 8640, Note_on_c, 1, 74, 90
4, 8812, Note_off_c, 1, 74, 0
4, 8820, Note_on_c, 1, 72, 90
4, 8932, Note_off_c, 1, 72, 0
4, 8940, Note_on_c, 1, 74, 90
4, 8992, Note_off_c, 1, 74, 0
4, 9000, Note_on_c, 1, 76, 90
4, 9712, Note_off_c, 1, 76, 0
4, 9720, Note_on_c, 1, 69, 90
4, 10072, Note_off_c, 1, 69, 0
4, 10080, Note_on_c, 1, 69, 90
4, 10252, Note_off_c, 1, 69, 0
4, 10800, Note_on_c, 1, 72, 90
4, 10972, Note_off_c, 1, 72, 0
4, 11340, Note_on_c, 1, 74, 90
4, 11512, Note_off_c, 1, 74, 0
4, 11520, Note_on_c, 1, 73, 90
4, 12232, Note_off_c, 1, 73, 0
4, 12240, Note_on_c, 1, 74, 90
4, 12352, Note_off_c, 1, 74, 0
4, 12360, Note_on_c, 1, 73, 90
4, 12412, Note_off_c, 1, 73, 0
4, 12420, Note_on_c, 1, 74, 90
4, 12532, Note_off_c, 1, 74, 0
4, 12540, Note_on_c, 1, 76, 90
4, 12592, Note_off_c, 1, 76, 0
4, 12600, Note_on_c, 1, 74, 90
4, 12892, Note_off_c, 1, 74, 0
4, 12900, Note_on_c, 1, 76, 90
4, 12952, Note_off_c, 1, 76, 0
4, 12960, Note_on_c, 1, 77, 90
4, 13132, Note_off_c, 1, 77, 0
4, 13140, Note_on_c, 1, 79, 90
4, 13312, Note_off_c, 1, 79, 0
4, 13320, Note_on_c, 1, 81, 90
4, 13672, Note_off_c, 1, 81, 0
4, 13680, Note_on_c, 1, 74, 90
4, 13852, Note_off_c, 1, 74, 0
4, 13860, Note_on_c, 1, 76, 90
4, 14032, Note_off_c, 1, 76, 0
4, 14040, Note_on_c, 1, 77, 90
4, 14152, Note_off_c, 1, 77, 0
4, 14160, Note_on_c, 1, 76, 90
4, 14212, Note_off_c, 1, 76, 0
4, 14220, Note_on_c, 1, 77, 90
4, 14332, Note_off_c, 1, 77, 0
4, 14340, Note_on_c, 1, 79, 90
4, 14392, Note_off_c, 1, 79, 0
4, 14400, Note_on_c, 1, 81, 90
4, 14572, Note_off_c, 1, 81, 0
4, 14580, Note_on_c, 1, 79, 90
4, 14692, Note_off_c, 1, 79, 0
4, 14700, Note_on_c, 1, 77, 90
4, 14752, Note_off_c, 1, 77, 0
4, 14760, Note_on_c, 1, 76, 90
4, 14872, Note_off_c, 1, 76, 0
4, 14880, Note_on_c, 1, 74, 90
4, 14932, Note_off_c, 1, 74, 0
4, 14940, Note_on_c, 1, 76, 90
4, 15052, Note_off_c, 1, 76, 0
4, 15060, Note_on_c, 1, 72, 90
4, 15112, Note_off_c, 1, 72, 0
4, 15120, Note_on_c, 1, 74, 90
4, 15472, Note_off_c, 1, 74, 0
4, 15480, Note_on_c, 1, 74, 90
4, 15652, Note_off_c, 1, 74, 0
4, 16200, Note_on_c, 1, 76, 90
4, 16372, Note_off_c, 1, 76, 0
4, 16740, Note_on_c, 1, 79, 90
4, 16912, Note_off_c, 1, 79, 0
4, 16920, Note_on_c, 1, 78, 90
4, 17632, Note_off_c, 1, 78, 0
4, 17640, Note_on_c, 1, 79, 90
4, 17992, Note_off_c, 1, 79, 0
4, 18000, Note_on_c, 1, 76, 90
4, 18712, Note_off_c, 1, 76, 0
4, 18720, Note_on_c, 1, 77, 90
4, 18892, Note_off_c, 1, 77, 0
4, 18900, Note_on_c, 1, 76, 90
4, 19012, Note_off_c, 1, 76, 0
4, 19020, Note_on_c, 1, 77, 90
4, 19072, Note_off_c, 1, 77, 0
4, 19080, Note_on_c, 1, 74, 90
4, 19432, Note_off_c, 1, 74, 0
4, 19440, Note_on_c, 1, 79, 90
4, 19552, Note_off_c, 1, 79, 0
4, 19560, Note_on_c, 1, 77, 90
4, 19612, Note_off_c, 1, 77, 0
4, 19620, Note_on_c, 1, 76, 90
4, 19732, Note_off_c, 1, 76, 0
4, 19740, Note_on_c, 1, 74, 90
4, 19792, Note_off_c, 1, 74, 0
4, 19800, Note_on_c, 1, 73, 90
4, 20512, Note_off_c, 1, 73, 0
4, 20520, Note_on_c, 1, 74, 90
4, 20872, Note_off_c, 1, 74, 0
4, 20880, Note_on_c, 1, 74, 90
4, 21052, Note_off_c, 1, 74, 0
4, 21600, Note_on_c, 1, 76, 90
4, 21772, Note_off_c, 1, 76, 0
4, 22140, Note_on_c, 1, 74, 90
4, 22312, Note_off_c, 1, 74, 0
4, 22320, Note_on_c, 1, 76, 90
4, 23032, Note_off_c, 1, 76, 0
4, 23040, Note_on_c, 1, 79, 90
4, 23212, Note_off_c, 1, 79, 0
4, 23220, Note_on_c, 1, 77, 90
4, 23332, Note_off_c, 1, 77, 0
4, 23340, Note_on_c, 1, 76, 90
4, 23392, Note_off_c, 1, 76, 0
4, 23400, Note_on_c, 1, 77, 90
4, 23452, Note_off_c, 1, 77, 0
4, 23460, Note_on_c, 1, 76, 90
4, 23512, Note_off_c, 1, 76, 0
4, 23520, Note_on_c, 1, 77, 90
4, 23572, Note_off_c, 1, 77, 0
4, 23580, Note_on_c, 1, 76, 90
4, 23692, Note_off_c, 1, 76, 0
4, 23700, Note_on_c, 1, 74, 90
4, 23752, Note_off_c, 1, 74, 0
4, 23760, Note_on_c, 1, 76, 90
4, 24472, Note_off_c, 1, 76, 0
4, 24480, Note_on_c, 1, 73, 90
4, 24652, Note_off_c, 1, 73, 0
4, 24660, Note_on_c, 1, 74, 90
4, 24832, Note_off_c, 1, 74, 0
4, 24840, Note_on_c, 1, 76, 90
4, 25012, Note_off_c, 1, 76, 0
4, 25020, Note_on_c, 1, 73, 90
4, 25132, Note_off_c, 1, 73, 0
4, 25140, Note_on_c, 1, 74, 90
4, 25192, Note_off_c, 1, 74, 0
4, 25200, Note_on_c, 1, 76, 90
4, 25312, Note_off_c, 1, 76, 0
4, 25320, Note_on_c, 1, 74, 90
4, 25372, Note_off_c, 1, 74, 0
4, 25380, Note_on_c, 1, 76, 90
4, 25492, Note_off_c, 1, 76, 0
4, 25500, Note_on_c, 1, 77, 90
4, 25552, Note_off_c, 1, 77, 0
4, 25560, Note_on_c, 1, 76, 90
4, 25912, Note_off_c, 1, 76, 0
4, 25920, Note_on_c, 1, 74, 90
4, 26272, Note_off_c, 1, 74, 0
4, 26280, Note_on_c, 1, 74, 90
4, 26452, Note_off_c, 1, 74, 0
4, 27000, Note_on_c, 1, 81, 90
4, 27172, Note_off_c, 1, 81, 0
4, 27540, Note_on_c, 1, 79, 90
4, 27712, Note_off_c, 1, 79, 0
4, 27720, Note_on_c, 1, 78, 90
4, 28432, Note_off_c, 1, 78, 0
4, 28440, Note_on_c, 1, 79, 90
4, 28792, Note_off_c, 1, 79, 0
4, 28800, Note_on_c, 1, 77, 90
4, 28972, Note_off_c, 1, 77, 0
4, 28980, Note_on_c, 1, 76, 90
4, 29152, Note_off_c, 1, 76, 0
4, 29160, Note_on_c, 1, 74, 90
4, 29512, Note_off_c, 1, 74, 0
4, 29520, Note_on_c, 1, 73, 90
4, 29872, Note_off_c, 1, 73, 0
4, 29880, Note_on_c, 1, 74, 90
4, 30232, Note_off_c, 1, 74, 0
4, 30240, Note_on_c, 1, 77, 90
4, 30292, Note_off_c, 1, 77, 0
4, 30300, Note_on_c, 1, 76, 90
4, 30352, Note_off_c, 1, 76, 0
4, 30360, Note_on_c, 1, 77, 90
4, 30412, Note_off_c, 1, 77, 0
4, 30420, Note_on_c, 1, 76, 90
4, 30532, Note_off_c, 1, 76, 0
4, 30540, Note_on_c, 1, 74, 90
4, 30592, Note_off_c, 1, 74, 0
4, 30600, Note_on_c, 1, 76, 90
4, 31312, Note_off_c, 1, 76, 0
4, 31320, Note_on_c, 1, 69, 90
4, 31672, Note_off_c, 1, 69, 0
4, 31680, Note_on_c, 1, 69, 90
4, 31852, Note_off_c, 1, 69, 0
4, 32400, Note_on_c, 1, 69, 90
4, 32572, Note_off_c, 1, 69, 0
4, 32940, Note_on_c, 1, 67, 90
4, 33112, Note_off_c, 1, 67, 0
4, 33120, Note_on_c, 1, 66, 90
4, 33832, Note_off_c, 1, 66, 0
4, 33840, Note_on_c, 1, 79, 90
4, 33952, Note_off_c, 1, 79, 0
4, 33960, Note_on_c, 1, 77, 90
4, 34012, Note_off_c, 1, 77, 0
4, 34020, Note_on_c, 1, 79, 90
4, 34132, Note_off_c, 1, 79, 0
4, 34140, Note_on_c, 1, 81, 90
4, 34192, Note_off_c, 1, 81, 0
4, 34200, Note_on_c, 1, 79, 90
4, 34912, Note_off_c, 1, 79, 0
4, 34920, Note_on_c, 1, 84, 90
4, 35272, Note_off_c, 1, 84, 0
4, 35280, Note_on_c, 1, 82, 90
4, 35992, Note_off_c, 1, 82, 0
4, 36000, Note_on_c, 1, 81, 90
4, 36112, Note_off_c, 1, 81, 0
4, 36120, Note_on_c, 1, 82, 90
4, 36172, Note_off_c, 1, 82, 0
4, 36180, Note_on_c, 1, 81, 90
4, 36292, Note_off_c, 1, 81, 0
4, 36300, Note_on_c, 1, 79, 90
4, 36352, Note_off_c, 1, 79, 0
4, 36360, Note_on_c, 1, 78, 90
4, 36712, Note_off_c, 1, 78, 0
4, 36720, Note_on_c, 1, 79, 90
4, 37072, Note_off_c, 1, 79, 0
4, 37080, Note_on_c, 1, 79, 90
4, 37252, Note_off_c, 1, 79, 0
4, 37800, Note_on_c, 1, 81, 90
4, 37972, Note_off_c, 1, 81, 0
4, 38340, Note_on_c, 1, 74, 90
4, 38512, Note_off_c, 1, 74, 0
4, 38520, Note_on_c, 1, 76, 90
4, 39232, Note_off_c, 1, 76, 0
4, 39240, Note_on_c, 1, 79, 90
4, 39412, Note_off_c, 1, 79, 0
4, 39420, Note_on_c, 1, 77, 90
4, 39532, Note_off_c, 1, 77, 0
4, 39540, Note_on_c, 1, 76, 90
4, 39592, Note_off_c, 1, 76, 0
4, 39600, Note_on_c, 1, 74, 90
4, 39712, Note_off_c, 1, 74, 0
4, 39720, Note_on_c, 1, 72, 90
4, 39772, Note_off_c, 1, 72, 0
4, 39780, Note_on_c, 1, 74, 90
4, 39892, Note_off_c, 1, 74, 0
4, 39900, Note_on_c, 1, 70, 90
4, 39952, Note_off_c, 1, 70, 0
4, 39960, Note_on_c, 1, 69, 90
4, 40072, Note_off_c, 1, 69, 0
4, 40080, Note_on_c, 1, 70, 90
4, 40132, Note_off_c, 1, 70, 0
4, 40140, Note_on_c, 1, 69, 90
4, 40252, Note_off_c, 1, 69, 0
4, 40260, Note_on_c, 1, 67, 90
4, 40312, Note_off_c, 1, 67, 0
4, 40320, Note_on_c, 1, 66, 90
4, 41032, Note_off_c, 1, 66, 0
4, 41040, Note_on_c, 1, 67, 90
4, 41212, Note_off_c, 1, 67, 0
4, 41220, Note_on_c, 1, 65, 90
4, 41332, Note_off_c, 1, 65, 0
4, 41340, Note_on_c, 1, 67, 90
4, 41392, Note_off_c, 1, 67, 0
4, 41400, Note_on_c, 1, 69, 90
4, 42112, Note_off_c, 1, 69, 0
4, 42120, Note_on_c, 1, 67, 90
4, 42472, Note_off_c, 1, 67, 0
4, 42480, Note_on_c, 1, 67, 90
4, 42652, Note_off_c, 1, 67, 0
4, 43200, Note_on_c, 1, 79, 90
4, 43372, Note_off_c, 1, 79, 0
4, 43740, Note_on_c, 1, 82, 90
4, 43912, Note_off_c, 1, 82, 0
4, 43920, Note_on_c, 1, 81, 90
4, 44632, Note_off_c, 1, 81, 0
4, 44640, Note_on_c, 1, 74, 90
4, 44812, Note_off_c, 1, 74, 0
4, 44820, Note_on_c, 1, 77, 90
4, 44932, Note_off_c, 1, 77, 0
4, 44940, Note_on_c, 1, 76, 90
4, 44992, Note_off_c, 1, 76, 0
4, 45000, Note_on_c, 1, 74, 90
4, 45352, Note_off_c, 1, 74, 0
4, 45360, Note_on_c, 1, 72, 90
4, 45532, Note_off_c, 1, 72, 0
4, 45540, Note_on_c, 1, 74, 90
4, 45712, Note_off_c, 1, 74, 0
4, 45720, Note_on_c, 1, 76, 90
4, 45832, Note_off_c, 1, 76, 0
4, 45840, Note_on_c, 1, 74, 90
4, 45892, Note_off_c, 1, 74, 0
4, 45900, Note_on_c, 1, 76, 90
4, 46012, Note_off_c, 1, 76, 0
4, 46020, Note_on_c, 1, 72, 90
4, 46072, Note_off_c, 1, 72, 0
4, 46080, Note_on_c, 1, 74, 90
4, 46432, Note_off_c, 1, 74, 0
4, 46440, Note_on_c, 1, 77, 90
4, 46552, Note_off_c, 1, 77, 0
4, 46560, Note_on_c, 1, 76, 90
4, 46612, Note_off_c, 1, 76, 0
4, 46620, Note_on_c, 1, 77, 90
4, 46732, Note_off_c, 1, 77, 0
4, 46740, Note_on_c, 1, 74, 90
4, 46792, Note_off_c, 1, 74, 0
4, 46800, Note_on_c, 1, 76, 90
4, 46972, Note_off_c, 1, 76, 0
4, 46980, Note_on_c, 1, 74, 90
4, 47152, Note_off_c, 1, 74, 0
4, 47160, Note_on_c, 1, 73, 90
4, 47512, Note_off_c, 1, 73, 0
4, 47520, Note_on_c, 1, 74, 90
4, 47872, Note_off_c, 1, 74, 0
4, 47880, Note_on_c, 1, 74, 90
4, 48052, Note_off_c, 1, 74, 0
4, 48600, Note_on_c, 1, 81, 90
4, 48772, Note_off_c, 1, 81, 0
4, 49140, Note_on_c, 1, 74, 90
4, 49312, Note_off_c, 1, 74, 0
4, 49320, Note_on_c, 1, 78, 90
4, 50032, Note_off_c, 1, 78, 0
4, 50040, Note_on_c, 1, 79, 90
4, 50152, Note_off_c, 1, 79, 0
4, 50160, Note_on_c, 1, 77, 90
4, 50212, Note_off_c, 1, 77, 0
4, 50220, Note_on_c, 1, 79, 90
4, 50332, Note_off_c, 1, 79, 0
4, 50340, Note_on_c, 1, 81, 90
4, 50392, Note_off_c, 1, 81, 0
4, 50400, Note_on_c, 1, 79, 90
4, 50752, Note_off_c, 1, 79, 0
4, 50760, Note_on_c, 1, 79, 90
4, 50932, Note_off_c, 1, 79, 0
4, 50940, Note_on_c, 1, 77, 90
4, 51052, Note_off_c, 1, 77, 0
4, 51060, Note_on_c, 1, 79, 90
4, 51112, Note_off_c, 1, 79, 0
4, 51120, Note_on_c, 1, 81, 90
4, 51472, Note_off_c, 1, 81, 0
4, 51480, Note_on_c, 1, 82, 90
4, 51832, Note_off_c, 1, 82, 0
4, 51840, Note_on_c, 1, 79, 90
4, 51952, Note_off_c, 1, 79, 0
4, 51960, Note_on_c, 1, 81, 90
4, 52012, Note_off_c, 1, 81, 0
4, 52020, Note_on_c, 1, 79, 90
4, 52132, Note_off_c, 1, 79, 0
4, 52140, Note_on_c, 1, 77, 90
4, 52192, Note_off_c, 1, 77, 0
4, 52200, Note_on_c, 1, 76, 90
4, 52372, Note_off_c, 1, 76, 0
4, 52380, Note_on_c, 1, 74, 90
4, 52552, Note_off_c, 1, 74, 0
4, 52560, Note_on_c, 1, 73, 90
4, 53272, Note_off_c, 1, 73, 0
4, 53280, Note_on_c, 1, 74, 90
4, 54361, Control_c, 1, 11, 127
4, 54373, Control_c, 1, 11, 126
4, 54382, Control_c, 1, 11, 125
4, 54388, Control_c, 1, 11, 124
4, 54394, Control_c, 1, 11, 123
4, 54397, Control_c, 1, 11, 121
4, 54400, Control_c, 1, 11, 120
4, 54403, Control_c, 1, 11, 117
4, 54406, Control_c, 1, 11, 114
4, 54409, Control_c, 1, 11, 110
4, 54412, Control_c, 1, 11, 103
4, 54415, Control_c, 1, 11, 96
4, 54418, Control_c, 1, 11, 84
4, 54420, Note_off_c, 1, 74, 0
4, 54720, End_track
5, 0, Start_track
5, 0, Title_t, "seq by n.nakamura, 2006.            "
5, 0, MIDI_port, 0
5, 315, Program_c, 2, 79
5, 317, Control_c, 2, 91, 100
5, 320, Control_c, 2, 93, 0
5, 322, Control_c, 2, 94, 0
5, 325, Control_c, 2, 1, 0
5, 327, Control_c, 2, 10, 64
5, 330, Control_c, 2, 11, 127
5, 332, Control_c, 2, 7, 90
5, 335, Control_c, 2, 64, 0
5, 5580, Note_on_c, 2, 69, 90
5, 5752, Note_off_c, 2, 69, 0
5, 5760, Note_on_c, 2, 70, 90
5, 6112, Note_off_c, 2, 70, 0
5, 6120, Note_on_c, 2, 69, 90
5, 6832, Note_off_c, 2, 69, 0
5, 6840, Note_on_c, 2, 67, 90
5, 7552, Note_off_c, 2, 67, 0
5, 7920, Note_on_c, 2, 69, 90
5, 8272, Note_off_c, 2, 69, 0
5, 8280, Note_on_c, 2, 70, 90
5, 8992, Note_off_c, 2, 70, 0
5, 9000, Note_on_c, 2, 69, 90
5, 9712, Note_off_c, 2, 69, 0
5, 10260, Note_on_c, 2, 67, 90
5, 10792, Note_off_c, 2, 67, 0
5, 10980, Note_on_c, 2, 65, 90
5, 11152, Note_off_c, 2, 65, 0
5, 11160, Note_on_c, 2, 67, 90
5, 11512, Note_off_c, 2, 67, 0
5, 11520, Note_on_c, 2, 69, 90
5, 12232, Note_off_c, 2, 69, 0
5, 12240, Note_on_c, 2, 67, 90
5, 12952, Note_off_c, 2, 67, 0
5, 13320, Note_on_c, 2, 69, 90
5, 13672, Note_off_c, 2, 69, 0
5, 13680, Note_on_c, 2, 70, 90
5, 14392, Note_off_c, 2, 70, 0
5, 14400, Note_on_c, 2, 69, 90
5, 15112, Note_off_c, 2, 69, 0
5, 15660, Note_on_c, 2, 67, 90
5, 16192, Note_off_c, 2, 67, 0
5, 16380, Note_on_c, 2, 69, 90
5, 16552, Note_off_c, 2, 69, 0
5, 16560, Note_on_c, 2, 70, 90
5, 16912, Note_off_c, 2, 70, 0
5, 16920, Note_on_c, 2, 69, 90
5, 17632, Note_off_c, 2, 69, 0
5, 17640, Note_on_c, 2, 67, 90
5, 18352, Note_off_c, 2, 67, 0
5, 18720, Note_on_c, 2, 65, 90
5, 19072, Note_off_c, 2, 65, 0
5, 19080, Note_on_c, 2, 67, 90
5, 19792, Note_off_c, 2, 67, 0
5, 19800, Note_on_c, 2, 69, 90
5, 20512, Note_off_c, 2, 69, 0
5, 21060, Note_on_c, 2, 67, 90
5, 21592, Note_off_c, 2, 67, 0
5, 21780, Note_on_c, 2, 69, 90
5, 21952, Note_off_c, 2, 69, 0
5, 21960, Note_on_c, 2, 70, 90
5, 22312, Note_off_c, 2, 70, 0
5, 22320, Note_on_c, 2, 69, 90
5, 23032, Note_off_c, 2, 69, 0
5, 23040, Note_on_c, 2, 67, 90
5, 23752, Note_off_c, 2, 67, 0
5, 24120, Note_on_c, 2, 69, 90
5, 24472, Note_off_c, 2, 69, 0
5, 24480, Note_on_c, 2, 70, 90
5, 25192, Note_off_c, 2, 70, 0
5, 25200, Note_on_c, 2, 69, 90
5, 25912, Note_off_c, 2, 69, 0
5, 26460, Note_on_c, 2, 67, 90
5, 26992, Note_off_c, 2, 67, 0
5, 27180, Note_on_c, 2, 65, 90
5, 27352, Note_off_c, 2, 65, 0
5, 27360, Note_on_c, 2, 67, 90
5, 27712, Note_off_c, 2, 67, 0
5, 27720, Note_on_c, 2, 69, 90
5, 28432, Note_off_c, 2, 69, 0
5, 28440, Note_on_c, 2, 67, 90
5, 29152, Note_off_c, 2, 67, 0
5, 29520, Note_on_c, 2, 69, 90
5, 29872, Note_off_c, 2, 69, 0
5, 29880, Note_on_c, 2, 70, 90
5, 30592, Note_off_c, 2, 70, 0
5, 30600, Note_on_c, 2, 69, 90
5, 31312, Note_off_c, 2, 69, 0
5, 31860, Note_on_c, 2, 67, 90
5, 32392, Note_off_c, 2, 67, 0
5, 32580, Note_on_c, 2, 69, 90
5, 32752, Note_off_c, 2, 69, 0
5, 32760, Note_on_c, 2, 70, 90
5, 33112, Note_off_c, 2, 70, 0
5, 33120, Note_on_c, 2, 69, 90
5, 33832, Note_off_c, 2, 69, 0
5, 33840, Note_on_c, 2, 67, 90
5, 34552, Note_off_c, 2, 67, 0
5, 34920, Note_on_c, 2, 65, 90
5, 35272, Note_off_c, 2, 65, 0
5, 35280, Note_on_c, 2, 67, 90
5, 35992, Note_off_c, 2, 67, 0
5, 36000, Note_on_c, 2, 69, 90
5, 36712, Note_off_c, 2, 69, 0
5, 37260, Note_on_c, 2, 67, 90
5, 37792, Note_off_c, 2, 67, 0
5, 37980, Note_on_c, 2, 69, 90
5, 38152, Note_off_c, 2, 69, 0
5, 38160, Note_on_c, 2, 70, 90
5, 38512, Note_off_c, 2, 70, 0
5, 38520, Note_on_c, 2, 69, 90
5, 39232, Note_off_c, 2, 69, 0
5, 39240, Note_on_c, 2, 67, 90
5, 39952, Note_off_c, 2, 67, 0
5, 40320, Note_on_c, 2, 69, 90
5, 40672, Note_off_c, 2, 69, 0
5, 40680, Note_on_c, 2, 70, 90
5, 41392, Note_off_c, 2, 70, 0
5, 41400, Note_on_c, 2, 69, 90
5, 42112, Note_off_c, 2, 69, 0
5, 42660, Note_on_c, 2, 67, 90
5, 43192, Note_off_c, 2, 67, 0
5, 43380, Note_on_c, 2, 65, 90
5, 43552, Note_off_c, 2, 65, 0
5, 43560, Note_on_c, 2, 67, 90
5, 43912, Note_off_c, 2, 67, 0
5, 43920, Note_on_c, 2, 69, 90
5, 44632, Note_off_c, 2, 69, 0
5, 44640, Note_on_c, 2, 67, 90
5, 45352, Note_off_c, 2, 67, 0
5, 45720, Note_on_c, 2, 69, 90
5, 46072, Note_off_c, 2, 69, 0
5, 46080, Note_on_c, 2, 70, 90
5, 46792, Note_off_c, 2, 70, 0
5, 46800, Note_on_c, 2, 69, 90
5, 47512, Note_off_c, 2, 69, 0
5, 48060, Note_on_c, 2, 67, 90
5, 48592, Note_off_c, 2, 67, 0
5, 48780, Note_on_c, 2, 69, 90
5, 48952, Note_off_c, 2, 69, 0
5, 48960, Note_on_c, 2, 70, 90
5, 49312, Note_off_c, 2, 70, 0
5, 49320, Note_on_c, 2, 69, 90
5, 50032, Note_off_c, 2, 69, 0
5, 50040, Note_on_c, 2, 67, 90
5, 50752, Note_off_c, 2, 67, 0
5, 51120, Note_on_c, 2, 65, 90
5, 51472, Note_off_c, 2, 65, 0
5, 51480, Note_on_c, 2, 67, 90
5, 52192, Note_off_c, 2, 67, 0
5, 52200, Note_on_c, 2, 69, 90
5, 52920, Control_c, 2, 11, 127
5, 52932, Control_c, 2, 11, 126
5, 52941, Control_c, 2, 11, 125
5, 52947, Control_c, 2, 11, 124
5, 52953, Control_c, 2, 11, 123
5, 52956, Control_c, 2, 11, 121
5, 52959, Control_c, 2, 11, 120
5, 52962, Control_c, 2, 11, 117
5, 52965, Control_c, 2, 11, 114
5, 52968, Control_c, 2, 11, 110
5, 52971, Control_c, 2, 11, 103
5, 52974, Control_c, 2, 11, 96
5, 52977, Control_c, 2, 11, 84
5, 52980, Note_off_c, 2, 69, 0
5, 53450, Control_c, 2, 11, 127
5, 53460, Note_on_c, 2, 67, 90
5, 54362, Control_c, 2, 11, 127
5, 54374, Control_c, 2, 11, 126
5, 54383, Control_c, 2, 11, 125
5, 54389, Control_c, 2, 11, 124
5, 54395, Control_c, 2, 11, 123
5, 54398, Control_c, 2, 11, 121
5, 54401, Control_c, 2, 11, 120
5, 54404, Control_c, 2, 11, 117
5, 54407, Control_c, 2, 11, 114
5, 54410, Control_c, 2, 11, 110
5, 54413, Control_c, 2, 11, 103
5, 54416, Control_c, 2, 11, 96
5, 54419, Control_c, 2, 11, 84
5, 54420, Note_off_c, 2, 67, 0
5, 54720, End_track
0, 0, End_of_file
