0, 0, Header, 1, 6, 120
1, 0, Start_track
1, 0, Title_t, "Plus bele que flor/Quant revient/L'autrier joer/Flos Filius     "
1, 0, Text_t, "\200ZZ¬ÿ\177"
1, 0, Key_signature, -8, "major"
1, 0, Tempo, 1500000
1, 0, Tempo, 480000
1, 357, Tempo, 750000
1, 6300, Tempo, 769230
1, 6660, Tempo, 750000
1, 6900, Tempo, 800000
1, 7020, Tempo, 750000
1, 12780, Tempo, 759493
1, 12960, Tempo, 769230
1, 13320, Tempo, 750000
1, 13560, Tempo, 821917
1, 13680, Tempo, 750000
1, 19440, Tempo, 759493
1, 19620, Tempo, 769230
1, 19800, Tempo, 800000
1, 19980, Tempo, 769230
1, 19980, End_track
2, 0, Start_track
2, 0, Title_t, "Montpellier codex 26v               "
2, 0, MIDI_port, 0
2, 8, Text_t, "GM reset            "
2, 8, System_exclusive, 5, 126, 127, 9, 1, 247
2, 360, Text_t, "1                   "
2, 7020, Text_t, "2                   "
2, 13680, Text_t, "3                   "
2, 20340, End_track
3, 0, Start_track
3, 0, Title_t, "Plus bele que flor                  "
3, 0, MIDI_port, 0
3, 265, Program_c, 0, 74
3, 267, Control_c, 0, 91, 80
3, 270, Control_c, 0, 93, 0
3, 272, Control_c, 0, 94, 0
3, 275, Control_c, 0, 1, 0
3, 277, Control_c, 0, 10, 12
3, 280, Control_c, 0, 11, 127
3, 282, Control_c, 0, 7, 100
3, 285, Control_c, 0, 64, 0
3, 13680, Note_on_c, 0, 69, 95
3, 13795, Note_off_c, 0, 69, 0
3, 13800, Note_on_c, 0, 67, 96
3, 13825, Note_off_c, 0, 67, 0
3, 13830, Note_on_c, 0, 65, 94
3, 13855, Note_off_c, 0, 65, 0
3, 13860, Note_on_c, 0, 64, 94
3, 13975, Note_off_c, 0, 64, 0
3, 13980, Note_on_c, 0, 65, 92
3, 14035, Note_off_c, 0, 65, 0
3, 14040, Note_on_c, 0, 67, 93
3, 14155, Note_off_c, 0, 67, 0
3, 14220, Note_on_c, 0, 74, 100
3, 14335, Note_off_c, 0, 74, 0
3, 14340, Note_on_c, 0, 71, 98
3, 14395, Note_off_c, 0, 71, 0
3, 14400, Note_on_c, 0, 72, 99
3, 14515, Note_off_c, 0, 72, 0
3, 14520, Note_on_c, 0, 71, 98
3, 14575, Note_off_c, 0, 71, 0
3, 14580, Note_on_c, 0, 74, 100
3, 14695, Note_off_c, 0, 74, 0
3, 14760, Note_on_c, 0, 74, 100
3, 14875, Note_off_c, 0, 74, 0
3, 14880, Note_on_c, 0, 72, 99
3, 14935, Note_off_c, 0, 72, 0
3, 14940, Note_on_c, 0, 74, 100
3, 15055, Note_off_c, 0, 74, 0
3, 15060, Note_on_c, 0, 71, 99
3, 15115, Note_off_c, 0, 71, 0
3, 15120, Note_on_c, 0, 77, 100
3, 15235, Note_off_c, 0, 77, 0
3, 15300, Note_on_c, 0, 74, 100
3, 15415, Note_off_c, 0, 74, 0
3, 15420, Note_on_c, 0, 74, 99
3, 15475, Note_off_c, 0, 74, 0
3, 15480, Note_on_c, 0, 72, 99
3, 15595, Note_off_c, 0, 72, 0
3, 15600, Note_on_c, 0, 71, 97
3, 15655, Note_off_c, 0, 71, 0
3, 15660, Note_on_c, 0, 69, 98
3, 15775, Note_off_c, 0, 69, 0
3, 15840, Note_on_c, 0, 69, 100
3, 15955, Note_off_c, 0, 69, 0
3, 15960, Note_on_c, 0, 72, 99
3, 16015, Note_off_c, 0, 72, 0
3, 16020, Note_on_c, 0, 74, 100
3, 16135, Note_off_c, 0, 74, 0
3, 16140, Note_on_c, 0, 72, 99
3, 16195, Note_off_c, 0, 72, 0
3, 16200, Note_on_c, 0, 74, 98
3, 16315, Note_off_c, 0, 74, 0
3, 16380, Note_on_c, 0, 77, 102
3, 16435, Note_off_c, 0, 77, 0
3, 16440, Note_on_c, 0, 76, 101
3, 16495, Note_off_c, 0, 76, 0
3, 16500, Note_on_c, 0, 74, 99
3, 16555, Note_off_c, 0, 74, 0
3, 16560, Note_on_c, 0, 72, 100
3, 16675, Note_off_c, 0, 72, 0
3, 16680, Note_on_c, 0, 74, 101
3, 16735, Note_off_c, 0, 74, 0
3, 16740, Note_on_c, 0, 76, 102
3, 16855, Note_off_c, 0, 76, 0
3, 16920, Note_on_c, 0, 74, 102
3, 16975, Note_off_c, 0, 74, 0
3, 16980, Note_on_c, 0, 76, 101
3, 17035, Note_off_c, 0, 76, 0
3, 17040, Note_on_c, 0, 72, 99
3, 17095, Note_off_c, 0, 72, 0
3, 17100, Note_on_c, 0, 69, 100
3, 17215, Note_off_c, 0, 69, 0
3, 17220, Note_on_c, 0, 72, 99
3, 17275, Note_off_c, 0, 72, 0
3, 17280, Note_on_c, 0, 74, 98
3, 17395, Note_off_c, 0, 74, 0
3, 17460, Note_on_c, 0, 74, 100
3, 17575, Note_off_c, 0, 74, 0
3, 17580, Note_on_c, 0, 72, 99
3, 17635, Note_off_c, 0, 72, 0
3, 17640, Note_on_c, 0, 74, 100
3, 17755, Note_off_c, 0, 74, 0
3, 17760, Note_on_c, 0, 76, 101
3, 17815, Note_off_c, 0, 76, 0
3, 17820, Note_on_c, 0, 77, 102
3, 17935, Note_off_c, 0, 77, 0
3, 18000, Note_on_c, 0, 74, 100
3, 18115, Note_off_c, 0, 74, 0
3, 18120, Note_on_c, 0, 76, 99
3, 18175, Note_off_c, 0, 76, 0
3, 18180, Note_on_c, 0, 72, 100
3, 18295, Note_off_c, 0, 72, 0
3, 18300, Note_on_c, 0, 71, 99
3, 18355, Note_off_c, 0, 71, 0
3, 18360, Note_on_c, 0, 69, 99
3, 18475, Note_off_c, 0, 69, 0
3, 18540, Note_on_c, 0, 74, 100
3, 18655, Note_off_c, 0, 74, 0
3, 18660, Note_on_c, 0, 72, 99
3, 18715, Note_off_c, 0, 72, 0
3, 18720, Note_on_c, 0, 74, 99
3, 18835, Note_off_c, 0, 74, 0
3, 18840, Note_on_c, 0, 71, 98
3, 18895, Note_off_c, 0, 71, 0
3, 18900, Note_on_c, 0, 72, 98
3, 19015, Note_off_c, 0, 72, 0
3, 19080, Note_on_c, 0, 72, 100
3, 19135, Note_off_c, 0, 72, 0
3, 19140, Note_on_c, 0, 71, 99
3, 19195, Note_off_c, 0, 71, 0
3, 19200, Note_on_c, 0, 69, 97
3, 19255, Note_off_c, 0, 69, 0
3, 19260, Note_on_c, 0, 67, 99
3, 19375, Note_off_c, 0, 67, 0
3, 19380, Note_on_c, 0, 71, 98
3, 19435, Note_off_c, 0, 71, 0
3, 19440, Note_on_c, 0, 69, 98
3, 19555, Note_off_c, 0, 69, 0
3, 19620, Note_on_c, 0, 69, 100
3, 19675, Note_off_c, 0, 69, 0
3, 19680, Note_on_c, 0, 67, 99
3, 19735, Note_off_c, 0, 67, 0
3, 19740, Note_on_c, 0, 71, 98
3, 19795, Note_off_c, 0, 71, 0
3, 19800, Note_on_c, 0, 72, 100
3, 19975, Note_off_c, 0, 72, 0
3, 19980, Note_on_c, 0, 74, 100
3, 20160, Control_c, 0, 11, 127
3, 20168, Control_c, 0, 11, 126
3, 20174, Control_c, 0, 11, 125
3, 20178, Control_c, 0, 11, 124
3, 20182, Control_c, 0, 11, 123
3, 20184, Control_c, 0, 11, 121
3, 20186, Control_c, 0, 11, 120
3, 20188, Control_c, 0, 11, 117
3, 20190, Control_c, 0, 11, 114
3, 20192, Control_c, 0, 11, 110
3, 20194, Control_c, 0, 11, 103
3, 20196, Control_c, 0, 11, 96
3, 20198, Control_c, 0, 11, 84
3, 20200, Note_off_c, 0, 74, 0
3, 20333, Control_c, 0, 11, 127
3, 20340, End_track
4, 0, Start_track
4, 0, Title_t, "Quant revient                       "
4, 0, MIDI_port, 0
4, 290, Program_c, 1, 71
4, 292, Control_c, 1, 91, 80
4, 295, Control_c, 1, 93, 0
4, 297, Control_c, 1, 94, 0
4, 300, Control_c, 1, 1, 0
4, 302, Control_c, 1, 10, 116
4, 305, Control_c, 1, 11, 127
4, 307, Control_c, 1, 7, 100
4, 310, Control_c, 1, 64, 0
4, 7020, Note_on_c, 1, 53, 95
4, 7135, Note_off_c, 1, 53, 0
4, 7140, Note_on_c, 1, 50, 93
4, 7195, Note_off_c, 1, 50, 0
4, 7200, Note_on_c, 1, 52, 95
4, 7315, Note_off_c, 1, 52, 0
4, 7320, Note_on_c, 1, 53, 93
4, 7375, Note_off_c, 1, 53, 0
4, 7380, Note_on_c, 1, 52, 97
4, 7405, Note_off_c, 1, 52, 0
4, 7410, Note_on_c, 1, 50, 96
4, 7435, Note_off_c, 1, 50, 0
4, 7440, Note_on_c, 1, 48, 95
4, 7495, Note_off_c, 1, 48, 0
4, 7500, Note_on_c, 1, 53, 94
4, 7555, Note_off_c, 1, 53, 0
4, 7560, Note_on_c, 1, 55, 95
4, 7615, Note_off_c, 1, 55, 0
4, 7620, Note_on_c, 1, 57, 90
4, 7665, Note_off_c, 1, 57, 0
4, 7740, Note_on_c, 1, 60, 100
4, 7855, Note_off_c, 1, 60, 0
4, 7860, Note_on_c, 1, 59, 100
4, 7879, Note_off_c, 1, 59, 0
4, 7880, Note_on_c, 1, 57, 99
4, 7899, Note_off_c, 1, 57, 0
4, 7900, Note_on_c, 1, 55, 98
4, 7919, Note_off_c, 1, 55, 0
4, 7920, Note_on_c, 1, 57, 98
4, 8035, Note_off_c, 1, 57, 0
4, 8040, Note_on_c, 1, 50, 95
4, 8095, Note_off_c, 1, 50, 0
4, 8100, Note_on_c, 1, 52, 96
4, 8125, Note_off_c, 1, 52, 0
4, 8130, Note_on_c, 1, 53, 95
4, 8155, Note_off_c, 1, 53, 0
4, 8160, Note_on_c, 1, 55, 94
4, 8215, Note_off_c, 1, 55, 0
4, 8220, Note_on_c, 1, 53, 95
4, 8245, Note_off_c, 1, 53, 0
4, 8250, Note_on_c, 1, 52, 94
4, 8275, Note_off_c, 1, 52, 0
4, 8280, Note_on_c, 1, 50, 90
4, 8395, Note_off_c, 1, 50, 0
4, 8460, Note_on_c, 1, 60, 100
4, 8575, Note_off_c, 1, 60, 0
4, 8640, Note_on_c, 1, 62, 102
4, 8755, Note_off_c, 1, 62, 0
4, 8760, Note_on_c, 1, 57, 100
4, 8815, Note_off_c, 1, 57, 0
4, 8820, Note_on_c, 1, 55, 100
4, 8935, Note_off_c, 1, 55, 0
4, 8940, Note_on_c, 1, 60, 99
4, 8995, Note_off_c, 1, 60, 0
4, 9000, Note_on_c, 1, 62, 101
4, 9055, Note_off_c, 1, 62, 0
4, 9060, Note_on_c, 1, 60, 100
4, 9115, Note_off_c, 1, 60, 0
4, 9120, Note_on_c, 1, 58, 99
4, 9175, Note_off_c, 1, 58, 0
4, 9180, Note_on_c, 1, 57, 95
4, 9295, Note_off_c, 1, 57, 0
4, 9360, Note_on_c, 1, 50, 95
4, 9475, Note_off_c, 1, 50, 0
4, 9480, Note_on_c, 1, 52, 95
4, 9505, Note_off_c, 1, 52, 0
4, 9510, Note_on_c, 1, 53, 94
4, 9535, Note_off_c, 1, 53, 0
4, 9540, Note_on_c, 1, 55, 90
4, 9655, Note_off_c, 1, 55, 0
4, 9720, Note_on_c, 1, 60, 100
4, 9835, Note_off_c, 1, 60, 0
4, 9840, Note_on_c, 1, 59, 99
4, 9895, Note_off_c, 1, 59, 0
4, 9900, Note_on_c, 1, 60, 100
4, 10015, Note_off_c, 1, 60, 0
4, 10020, Note_on_c, 1, 59, 101
4, 10039, Note_off_c, 1, 59, 0
4, 10040, Note_on_c, 1, 57, 100
4, 10059, Note_off_c, 1, 57, 0
4, 10060, Note_on_c, 1, 55, 98
4, 10079, Note_off_c, 1, 55, 0
4, 10080, Note_on_c, 1, 57, 99
4, 10195, Note_off_c, 1, 57, 0
4, 10200, Note_on_c, 1, 59, 99
4, 10225, Note_off_c, 1, 59, 0
4, 10230, Note_on_c, 1, 55, 97
4, 10255, Note_off_c, 1, 55, 0
4, 10260, Note_on_c, 1, 57, 95
4, 10375, Note_off_c, 1, 57, 0
4, 10440, Note_on_c, 1, 62, 100
4, 10555, Note_off_c, 1, 62, 0
4, 10560, Note_on_c, 1, 60, 99
4, 10615, Note_off_c, 1, 60, 0
4, 10620, Note_on_c, 1, 57, 100
4, 10735, Note_off_c, 1, 57, 0
4, 10740, Note_on_c, 1, 59, 100
4, 10765, Note_off_c, 1, 59, 0
4, 10770, Note_on_c, 1, 60, 99
4, 10795, Note_off_c, 1, 60, 0
4, 10800, Note_on_c, 1, 62, 98
4, 10915, Note_off_c, 1, 62, 0
4, 10980, Note_on_c, 1, 62, 100
4, 11095, Note_off_c, 1, 62, 0
4, 11100, Note_on_c, 1, 60, 99
4, 11155, Note_off_c, 1, 60, 0
4, 11160, Note_on_c, 1, 60, 100
4, 11275, Note_off_c, 1, 60, 0
4, 11280, Note_on_c, 1, 59, 101
4, 11299, Note_off_c, 1, 59, 0
4, 11300, Note_on_c, 1, 57, 100
4, 11319, Note_off_c, 1, 57, 0
4, 11320, Note_on_c, 1, 55, 98
4, 11339, Note_off_c, 1, 55, 0
4, 11340, Note_on_c, 1, 57, 95
4, 11455, Note_off_c, 1, 57, 0
4, 11520, Note_on_c, 1, 55, 95
4, 11635, Note_off_c, 1, 55, 0
4, 11640, Note_on_c, 1, 55, 94
4, 11695, Note_off_c, 1, 55, 0
4, 11700, Note_on_c, 1, 57, 95
4, 11815, Note_off_c, 1, 57, 0
4, 11820, Note_on_c, 1, 57, 94
4, 11875, Note_off_c, 1, 57, 0
4, 11880, Note_on_c, 1, 57, 95
4, 11935, Note_off_c, 1, 57, 0
4, 11940, Note_on_c, 1, 55, 94
4, 11995, Note_off_c, 1, 55, 0
4, 12000, Note_on_c, 1, 57, 95
4, 12025, Note_off_c, 1, 57, 0
4, 12030, Note_on_c, 1, 59, 94
4, 12055, Note_off_c, 1, 59, 0
4, 12060, Note_on_c, 1, 57, 92
4, 12175, Note_off_c, 1, 57, 0
4, 12240, Note_on_c, 1, 60, 100
4, 12355, Note_off_c, 1, 60, 0
4, 12360, Note_on_c, 1, 59, 99
4, 12415, Note_off_c, 1, 59, 0
4, 12420, Note_on_c, 1, 60, 100
4, 12535, Note_off_c, 1, 60, 0
4, 12540, Note_on_c, 1, 57, 99
4, 12595, Note_off_c, 1, 57, 0
4, 12600, Note_on_c, 1, 60, 100
4, 12655, Note_off_c, 1, 60, 0
4, 12660, Note_on_c, 1, 59, 99
4, 12715, Note_off_c, 1, 59, 0
4, 12720, Note_on_c, 1, 55, 97
4, 12775, Note_off_c, 1, 55, 0
4, 12780, Note_on_c, 1, 52, 95
4, 12955, Note_off_c, 1, 52, 0
4, 12960, Note_on_c, 1, 53, 97
4, 13015, Note_off_c, 1, 53, 0
4, 13020, Note_on_c, 1, 52, 96
4, 13075, Note_off_c, 1, 52, 0
4, 13080, Note_on_c, 1, 50, 95
4, 13135, Note_off_c, 1, 50, 0
4, 13140, Note_on_c, 1, 55, 95
4, 13315, Note_off_c, 1, 55, 0
4, 13320, Note_on_c, 1, 57, 95
4, 13501, Control_c, 1, 11, 127
4, 13509, Control_c, 1, 11, 126
4, 13515, Control_c, 1, 11, 125
4, 13519, Control_c, 1, 11, 124
4, 13523, Control_c, 1, 11, 123
4, 13525, Control_c, 1, 11, 121
4, 13527, Control_c, 1, 11, 120
4, 13529, Control_c, 1, 11, 117
4, 13531, Control_c, 1, 11, 114
4, 13533, Control_c, 1, 11, 110
4, 13535, Control_c, 1, 11, 103
4, 13537, Control_c, 1, 11, 96
4, 13539, Control_c, 1, 11, 84
4, 13540, Note_off_c, 1, 57, 0
4, 13676, Control_c, 1, 11, 127
4, 13680, Note_on_c, 1, 53, 95
4, 13795, Note_off_c, 1, 53, 0
4, 13800, Note_on_c, 1, 50, 93
4, 13855, Note_off_c, 1, 50, 0
4, 13860, Note_on_c, 1, 52, 95
4, 13975, Note_off_c, 1, 52, 0
4, 13980, Note_on_c, 1, 53, 93
4, 14035, Note_off_c, 1, 53, 0
4, 14040, Note_on_c, 1, 52, 97
4, 14065, Note_off_c, 1, 52, 0
4, 14070, Note_on_c, 1, 50, 96
4, 14095, Note_off_c, 1, 50, 0
4, 14100, Note_on_c, 1, 48, 95
4, 14155, Note_off_c, 1, 48, 0
4, 14160, Note_on_c, 1, 53, 94
4, 14215, Note_off_c, 1, 53, 0
4, 14220, Note_on_c, 1, 55, 95
4, 14275, Note_off_c, 1, 55, 0
4, 14280, Note_on_c, 1, 57, 90
4, 14325, Note_off_c, 1, 57, 0
4, 14400, Note_on_c, 1, 60, 100
4, 14515, Note_off_c, 1, 60, 0
4, 14520, Note_on_c, 1, 59, 100
4, 14539, Note_off_c, 1, 59, 0
4, 14540, Note_on_c, 1, 57, 99
4, 14559, Note_off_c, 1, 57, 0
4, 14560, Note_on_c, 1, 55, 98
4, 14579, Note_off_c, 1, 55, 0
4, 14580, Note_on_c, 1, 57, 98
4, 14695, Note_off_c, 1, 57, 0
4, 14700, Note_on_c, 1, 50, 95
4, 14755, Note_off_c, 1, 50, 0
4, 14760, Note_on_c, 1, 52, 96
4, 14785, Note_off_c, 1, 52, 0
4, 14790, Note_on_c, 1, 53, 95
4, 14815, Note_off_c, 1, 53, 0
4, 14820, Note_on_c, 1, 55, 94
4, 14875, Note_off_c, 1, 55, 0
4, 14880, Note_on_c, 1, 53, 95
4, 14905, Note_off_c, 1, 53, 0
4, 14910, Note_on_c, 1, 52, 94
4, 14935, Note_off_c, 1, 52, 0
4, 14940, Note_on_c, 1, 50, 90
4, 15055, Note_off_c, 1, 50, 0
4, 15120, Note_on_c, 1, 60, 100
4, 15235, Note_off_c, 1, 60, 0
4, 15300, Note_on_c, 1, 62, 102
4, 15415, Note_off_c, 1, 62, 0
4, 15420, Note_on_c, 1, 57, 100
4, 15475, Note_off_c, 1, 57, 0
4, 15480, Note_on_c, 1, 55, 100
4, 15595, Note_off_c, 1, 55, 0
4, 15600, Note_on_c, 1, 60, 99
4, 15655, Note_off_c, 1, 60, 0
4, 15660, Note_on_c, 1, 62, 101
4, 15715, Note_off_c, 1, 62, 0
4, 15720, Note_on_c, 1, 60, 100
4, 15775, Note_off_c, 1, 60, 0
4, 15780, Note_on_c, 1, 58, 99
4, 15835, Note_off_c, 1, 58, 0
4, 15840, Note_on_c, 1, 57, 95
4, 15955, Note_off_c, 1, 57, 0
4, 16020, Note_on_c, 1, 50, 95
4, 16135, Note_off_c, 1, 50, 0
4, 16140, Note_on_c, 1, 52, 95
4, 16165, Note_off_c, 1, 52, 0
4, 16170, Note_on_c, 1, 53, 94
4, 16195, Note_off_c, 1, 53, 0
4, 16200, Note_on_c, 1, 55, 90
4, 16315, Note_off_c, 1, 55, 0
4, 16380, Note_on_c, 1, 60, 100
4, 16495, Note_off_c, 1, 60, 0
4, 16500, Note_on_c, 1, 59, 99
4, 16555, Note_off_c, 1, 59, 0
4, 16560, Note_on_c, 1, 60, 100
4, 16675, Note_off_c, 1, 60, 0
4, 16680, Note_on_c, 1, 59, 101
4, 16699, Note_off_c, 1, 59, 0
4, 16700, Note_on_c, 1, 57, 100
4, 16719, Note_off_c, 1, 57, 0
4, 16720, Note_on_c, 1, 55, 98
4, 16739, Note_off_c, 1, 55, 0
4, 16740, Note_on_c, 1, 57, 99
4, 16855, Note_off_c, 1, 57, 0
4, 16860, Note_on_c, 1, 59, 99
4, 16885, Note_off_c, 1, 59, 0
4, 16890, Note_on_c, 1, 55, 97
4, 16915, Note_off_c, 1, 55, 0
4, 16920, Note_on_c, 1, 57, 95
4, 17035, Note_off_c, 1, 57, 0
4, 17100, Note_on_c, 1, 62, 100
4, 17215, Note_off_c, 1, 62, 0
4, 17220, Note_on_c, 1, 60, 99
4, 17275, Note_off_c, 1, 60, 0
4, 17280, Note_on_c, 1, 57, 100
4, 17395, Note_off_c, 1, 57, 0
4, 17400, Note_on_c, 1, 59, 100
4, 17425, Note_off_c, 1, 59, 0
4, 17430, Note_on_c, 1, 60, 99
4, 17455, Note_off_c, 1, 60, 0
4, 17460, Note_on_c, 1, 62, 98
4, 17575, Note_off_c, 1, 62, 0
4, 17640, Note_on_c, 1, 62, 100
4, 17755, Note_off_c, 1, 62, 0
4, 17760, Note_on_c, 1, 60, 99
4, 17815, Note_off_c, 1, 60, 0
4, 17820, Note_on_c, 1, 60, 100
4, 17935, Note_off_c, 1, 60, 0
4, 17940, Note_on_c, 1, 59, 101
4, 17959, Note_off_c, 1, 59, 0
4, 17960, Note_on_c, 1, 57, 100
4, 17979, Note_off_c, 1, 57, 0
4, 17980, Note_on_c, 1, 55, 98
4, 17999, Note_off_c, 1, 55, 0
4, 18000, Note_on_c, 1, 57, 95
4, 18115, Note_off_c, 1, 57, 0
4, 18180, Note_on_c, 1, 55, 95
4, 18295, Note_off_c, 1, 55, 0
4, 18300, Note_on_c, 1, 55, 94
4, 18355, Note_off_c, 1, 55, 0
4, 18360, Note_on_c, 1, 57, 95
4, 18475, Note_off_c, 1, 57, 0
4, 18480, Note_on_c, 1, 57, 94
4, 18535, Note_off_c, 1, 57, 0
4, 18540, Note_on_c, 1, 57, 95
4, 18595, Note_off_c, 1, 57, 0
4, 18600, Note_on_c, 1, 55, 94
4, 18655, Note_off_c, 1, 55, 0
4, 18660, Note_on_c, 1, 57, 95
4, 18685, Note_off_c, 1, 57, 0
4, 18690, Note_on_c, 1, 59, 94
4, 18715, Note_off_c, 1, 59, 0
4, 18720, Note_on_c, 1, 57, 92
4, 18835, Note_off_c, 1, 57, 0
4, 18900, Note_on_c, 1, 60, 100
4, 19015, Note_off_c, 1, 60, 0
4, 19020, Note_on_c, 1, 59, 99
4, 19075, Note_off_c, 1, 59, 0
4, 19080, Note_on_c, 1, 60, 100
4, 19195, Note_off_c, 1, 60, 0
4, 19200, Note_on_c, 1, 57, 99
4, 19255, Note_off_c, 1, 57, 0
4, 19260, Note_on_c, 1, 60, 100
4, 19315, Note_off_c, 1, 60, 0
4, 19320, Note_on_c, 1, 59, 99
4, 19375, Note_off_c, 1, 59, 0
4, 19380, Note_on_c, 1, 55, 97
4, 19435, Note_off_c, 1, 55, 0
4, 19440, Note_on_c, 1, 52, 95
4, 19615, Note_off_c, 1, 52, 0
4, 19620, Note_on_c, 1, 53, 97
4, 19675, Note_off_c, 1, 53, 0
4, 19680, Note_on_c, 1, 52, 96
4, 19735, Note_off_c, 1, 52, 0
4, 19740, Note_on_c, 1, 50, 95
4, 19795, Note_off_c, 1, 50, 0
4, 19800, Note_on_c, 1, 55, 95
4, 19975, Note_off_c, 1, 55, 0
4, 19980, Note_on_c, 1, 57, 95
4, 20161, Control_c, 1, 11, 127
4, 20169, Control_c, 1, 11, 126
4, 20175, Control_c, 1, 11, 125
4, 20179, Control_c, 1, 11, 124
4, 20183, Control_c, 1, 11, 123
4, 20185, Control_c, 1, 11, 121
4, 20187, Control_c, 1, 11, 120
4, 20189, Control_c, 1, 11, 117
4, 20191, Control_c, 1, 11, 114
4, 20193, Control_c, 1, 11, 110
4, 20195, Control_c, 1, 11, 103
4, 20197, Control_c, 1, 11, 96
4, 20199, Control_c, 1, 11, 84
4, 20200, Note_off_c, 1, 57, 0
4, 20336, Control_c, 1, 11, 127
4, 20340, End_track
5, 0, Start_track
5, 0, Title_t, "L'autrier joer                      "
5, 0, MIDI_port, 0
5, 315, Program_c, 2, 69
5, 317, Control_c, 2, 91, 80
5, 320, Control_c, 2, 93, 0
5, 322, Control_c, 2, 94, 0
5, 325, Control_c, 2, 1, 0
5, 327, Control_c, 2, 10, 40
5, 330, Control_c, 2, 11, 127
5, 332, Control_c, 2, 7, 100
5, 335, Control_c, 2, 64, 0
5, 360, Note_on_c, 2, 53, 93
5, 475, Note_off_c, 2, 53, 0
5, 480, Note_on_c, 2, 55, 94
5, 535, Note_off_c, 2, 55, 0
5, 540, Note_on_c, 2, 57, 95
5, 655, Note_off_c, 2, 57, 0
5, 660, Note_on_c, 2, 57, 93
5, 715, Note_off_c, 2, 57, 0
5, 720, Note_on_c, 2, 55, 94
5, 775, Note_off_c, 2, 55, 0
5, 780, Note_on_c, 2, 53, 93
5, 835, Note_off_c, 2, 53, 0
5, 840, Note_on_c, 2, 52, 92
5, 895, Note_off_c, 2, 52, 0
5, 900, Note_on_c, 2, 50, 90
5, 1015, Note_off_c, 2, 50, 0
5, 1020, Note_on_c, 2, 53, 93
5, 1075, Note_off_c, 2, 53, 0
5, 1080, Note_on_c, 2, 55, 94
5, 1135, Note_off_c, 2, 55, 0
5, 1140, Note_on_c, 2, 53, 93
5, 1195, Note_off_c, 2, 53, 0
5, 1200, Note_on_c, 2, 52, 92
5, 1255, Note_off_c, 2, 52, 0
5, 1260, Note_on_c, 2, 50, 90
5, 1375, Note_off_c, 2, 50, 0
5, 1440, Note_on_c, 2, 57, 95
5, 1555, Note_off_c, 2, 57, 0
5, 1560, Note_on_c, 2, 60, 94
5, 1615, Note_off_c, 2, 60, 0
5, 1620, Note_on_c, 2, 57, 95
5, 1735, Note_off_c, 2, 57, 0
5, 1740, Note_on_c, 2, 62, 97
5, 1795, Note_off_c, 2, 62, 0
5, 1800, Note_on_c, 2, 60, 98
5, 1915, Note_off_c, 2, 60, 0
5, 1920, Note_on_c, 2, 59, 100
5, 1939, Note_off_c, 2, 59, 0
5, 1940, Note_on_c, 2, 57, 98
5, 1959, Note_off_c, 2, 57, 0
5, 1960, Note_on_c, 2, 55, 95
5, 1979, Note_off_c, 2, 55, 0
5, 1980, Note_on_c, 2, 57, 95
5, 2095, Note_off_c, 2, 57, 0
5, 2100, Note_on_c, 2, 59, 96
5, 2155, Note_off_c, 2, 59, 0
5, 2160, Note_on_c, 2, 60, 98
5, 2275, Note_off_c, 2, 60, 0
5, 2280, Note_on_c, 2, 59, 100
5, 2299, Note_off_c, 2, 59, 0
5, 2300, Note_on_c, 2, 57, 98
5, 2319, Note_off_c, 2, 57, 0
5, 2320, Note_on_c, 2, 55, 95
5, 2339, Note_off_c, 2, 55, 0
5, 2340, Note_on_c, 2, 57, 92
5, 2455, Note_off_c, 2, 57, 0
5, 2520, Note_on_c, 2, 62, 100
5, 2635, Note_off_c, 2, 62, 0
5, 2640, Note_on_c, 2, 60, 98
5, 2695, Note_off_c, 2, 60, 0
5, 2700, Note_on_c, 2, 57, 99
5, 2815, Note_off_c, 2, 57, 0
5, 2820, Note_on_c, 2, 60, 97
5, 2875, Note_off_c, 2, 60, 0
5, 2880, Note_on_c, 2, 59, 99
5, 2905, Note_off_c, 2, 59, 0
5, 2910, Note_on_c, 2, 57, 98
5, 2935, Note_off_c, 2, 57, 0
5, 2940, Note_on_c, 2, 55, 97
5, 2995, Note_off_c, 2, 55, 0
5, 3000, Note_on_c, 2, 57, 95
5, 3055, Note_off_c, 2, 57, 0
5, 3060, Note_on_c, 2, 53, 95
5, 3175, Note_off_c, 2, 53, 0
5, 3180, Note_on_c, 2, 55, 98
5, 3205, Note_off_c, 2, 55, 0
5, 3210, Note_on_c, 2, 57, 97
5, 3235, Note_off_c, 2, 57, 0
5, 3240, Note_on_c, 2, 55, 95
5, 3355, Note_off_c, 2, 55, 0
5, 3360, Note_on_c, 2, 53, 93
5, 3415, Note_off_c, 2, 53, 0
5, 3420, Note_on_c, 2, 52, 90
5, 3535, Note_off_c, 2, 52, 0
5, 3600, Note_on_c, 2, 53, 94
5, 3715, Note_off_c, 2, 53, 0
5, 3720, Note_on_c, 2, 55, 93
5, 3775, Note_off_c, 2, 55, 0
5, 3780, Note_on_c, 2, 57, 92
5, 3895, Note_off_c, 2, 57, 0
5, 3960, Note_on_c, 2, 62, 100
5, 4075, Note_off_c, 2, 62, 0
5, 4080, Note_on_c, 2, 60, 98
5, 4135, Note_off_c, 2, 60, 0
5, 4140, Note_on_c, 2, 57, 99
5, 4255, Note_off_c, 2, 57, 0
5, 4260, Note_on_c, 2, 60, 97
5, 4315, Note_off_c, 2, 60, 0
5, 4320, Note_on_c, 2, 59, 98
5, 4345, Note_off_c, 2, 59, 0
5, 4350, Note_on_c, 2, 57, 97
5, 4375, Note_off_c, 2, 57, 0
5, 4380, Note_on_c, 2, 55, 96
5, 4435, Note_off_c, 2, 55, 0
5, 4440, Note_on_c, 2, 57, 95
5, 4495, Note_off_c, 2, 57, 0
5, 4500, Note_on_c, 2, 53, 90
5, 4615, Note_off_c, 2, 53, 0
5, 4680, Note_on_c, 2, 57, 96
5, 4795, Note_off_c, 2, 57, 0
5, 4800, Note_on_c, 2, 59, 95
5, 4855, Note_off_c, 2, 59, 0
5, 4860, Note_on_c, 2, 60, 94
5, 4975, Note_off_c, 2, 60, 0
5, 5040, Note_on_c, 2, 62, 100
5, 5155, Note_off_c, 2, 62, 0
5, 5160, Note_on_c, 2, 60, 98
5, 5215, Note_off_c, 2, 60, 0
5, 5220, Note_on_c, 2, 62, 99
5, 5335, Note_off_c, 2, 62, 0
5, 5400, Note_on_c, 2, 50, 94
5, 5515, Note_off_c, 2, 50, 0
5, 5520, Note_on_c, 2, 53, 93
5, 5575, Note_off_c, 2, 53, 0
5, 5580, Note_on_c, 2, 52, 96
5, 5605, Note_off_c, 2, 52, 0
5, 5610, Note_on_c, 2, 50, 95
5, 5635, Note_off_c, 2, 50, 0
5, 5640, Note_on_c, 2, 48, 93
5, 5695, Note_off_c, 2, 48, 0
5, 5700, Note_on_c, 2, 50, 94
5, 5755, Note_off_c, 2, 50, 0
5, 5760, Note_on_c, 2, 48, 93
5, 5875, Note_off_c, 2, 48, 0
5, 5880, Note_on_c, 2, 52, 94
5, 5935, Note_off_c, 2, 52, 0
5, 5940, Note_on_c, 2, 55, 95
5, 6055, Note_off_c, 2, 55, 0
5, 6060, Note_on_c, 2, 55, 93
5, 6115, Note_off_c, 2, 55, 0
5, 6120, Note_on_c, 2, 57, 96
5, 6235, Note_off_c, 2, 57, 0
5, 6240, Note_on_c, 2, 55, 94
5, 6295, Note_off_c, 2, 55, 0
5, 6300, Note_on_c, 2, 53, 93
5, 6475, Note_off_c, 2, 53, 0
5, 6480, Note_on_c, 2, 52, 92
5, 6655, Note_off_c, 2, 52, 0
5, 6660, Note_on_c, 2, 50, 90
5, 6842, Control_c, 2, 11, 127
5, 6850, Control_c, 2, 11, 126
5, 6856, Control_c, 2, 11, 125
5, 6860, Control_c, 2, 11, 124
5, 6864, Control_c, 2, 11, 123
5, 6866, Control_c, 2, 11, 121
5, 6868, Control_c, 2, 11, 120
5, 6870, Control_c, 2, 11, 117
5, 6872, Control_c, 2, 11, 114
5, 6874, Control_c, 2, 11, 110
5, 6876, Control_c, 2, 11, 103
5, 6878, Control_c, 2, 11, 96
5, 6880, Note_off_c, 2, 50, 0
5, 6880, Control_c, 2, 11, 84
5, 7017, Control_c, 2, 11, 127
5, 7020, Note_on_c, 2, 53, 93
5, 7135, Note_off_c, 2, 53, 0
5, 7140, Note_on_c, 2, 55, 94
5, 7195, Note_off_c, 2, 55, 0
5, 7200, Note_on_c, 2, 57, 95
5, 7315, Note_off_c, 2, 57, 0
5, 7320, Note_on_c, 2, 57, 93
5, 7375, Note_off_c, 2, 57, 0
5, 7380, Note_on_c, 2, 55, 94
5, 7435, Note_off_c, 2, 55, 0
5, 7440, Note_on_c, 2, 53, 93
5, 7495, Note_off_c, 2, 53, 0
5, 7500, Note_on_c, 2, 52, 92
5, 7555, Note_off_c, 2, 52, 0
5, 7560, Note_on_c, 2, 50, 90
5, 7675, Note_off_c, 2, 50, 0
5, 7680, Note_on_c, 2, 53, 93
5, 7735, Note_off_c, 2, 53, 0
5, 7740, Note_on_c, 2, 55, 94
5, 7795, Note_off_c, 2, 55, 0
5, 7800, Note_on_c, 2, 53, 93
5, 7855, Note_off_c, 2, 53, 0
5, 7860, Note_on_c, 2, 52, 92
5, 7915, Note_off_c, 2, 52, 0
5, 7920, Note_on_c, 2, 50, 90
5, 8035, Note_off_c, 2, 50, 0
5, 8100, Note_on_c, 2, 57, 95
5, 8215, Note_off_c, 2, 57, 0
5, 8220, Note_on_c, 2, 60, 94
5, 8275, Note_off_c, 2, 60, 0
5, 8280, Note_on_c, 2, 57, 95
5, 8395, Note_off_c, 2, 57, 0
5, 8400, Note_on_c, 2, 62, 97
5, 8455, Note_off_c, 2, 62, 0
5, 8460, Note_on_c, 2, 60, 98
5, 8575, Note_off_c, 2, 60, 0
5, 8580, Note_on_c, 2, 59, 100
5, 8599, Note_off_c, 2, 59, 0
5, 8600, Note_on_c, 2, 57, 98
5, 8619, Note_off_c, 2, 57, 0
5, 8620, Note_on_c, 2, 55, 95
5, 8639, Note_off_c, 2, 55, 0
5, 8640, Note_on_c, 2, 57, 95
5, 8755, Note_off_c, 2, 57, 0
5, 8760, Note_on_c, 2, 59, 96
5, 8815, Note_off_c, 2, 59, 0
5, 8820, Note_on_c, 2, 60, 98
5, 8935, Note_off_c, 2, 60, 0
5, 8940, Note_on_c, 2, 59, 100
5, 8959, Note_off_c, 2, 59, 0
5, 8960, Note_on_c, 2, 57, 98
5, 8979, Note_off_c, 2, 57, 0
5, 8980, Note_on_c, 2, 55, 95
5, 8999, Note_off_c, 2, 55, 0
5, 9000, Note_on_c, 2, 57, 92
5, 9115, Note_off_c, 2, 57, 0
5, 9180, Note_on_c, 2, 62, 100
5, 9295, Note_off_c, 2, 62, 0
5, 9300, Note_on_c, 2, 60, 98
5, 9355, Note_off_c, 2, 60, 0
5, 9360, Note_on_c, 2, 57, 99
5, 9475, Note_off_c, 2, 57, 0
5, 9480, Note_on_c, 2, 60, 97
5, 9535, Note_off_c, 2, 60, 0
5, 9540, Note_on_c, 2, 59, 99
5, 9565, Note_off_c, 2, 59, 0
5, 9570, Note_on_c, 2, 57, 98
5, 9595, Note_off_c, 2, 57, 0
5, 9600, Note_on_c, 2, 55, 97
5, 9655, Note_off_c, 2, 55, 0
5, 9660, Note_on_c, 2, 57, 95
5, 9715, Note_off_c, 2, 57, 0
5, 9720, Note_on_c, 2, 53, 95
5, 9835, Note_off_c, 2, 53, 0
5, 9840, Note_on_c, 2, 55, 98
5, 9865, Note_off_c, 2, 55, 0
5, 9870, Note_on_c, 2, 57, 97
5, 9895, Note_off_c, 2, 57, 0
5, 9900, Note_on_c, 2, 55, 95
5, 10015, Note_off_c, 2, 55, 0
5, 10020, Note_on_c, 2, 53, 93
5, 10075, Note_off_c, 2, 53, 0
5, 10080, Note_on_c, 2, 52, 90
5, 10195, Note_off_c, 2, 52, 0
5, 10260, Note_on_c, 2, 53, 94
5, 10375, Note_off_c, 2, 53, 0
5, 10380, Note_on_c, 2, 55, 93
5, 10435, Note_off_c, 2, 55, 0
5, 10440, Note_on_c, 2, 57, 92
5, 10555, Note_off_c, 2, 57, 0
5, 10620, Note_on_c, 2, 62, 100
5, 10735, Note_off_c, 2, 62, 0
5, 10740, Note_on_c, 2, 60, 98
5, 10795, Note_off_c, 2, 60, 0
5, 10800, Note_on_c, 2, 57, 99
5, 10915, Note_off_c, 2, 57, 0
5, 10920, Note_on_c, 2, 60, 97
5, 10975, Note_off_c, 2, 60, 0
5, 10980, Note_on_c, 2, 59, 98
5, 11005, Note_off_c, 2, 59, 0
5, 11010, Note_on_c, 2, 57, 97
5, 11035, Note_off_c, 2, 57, 0
5, 11040, Note_on_c, 2, 55, 96
5, 11095, Note_off_c, 2, 55, 0
5, 11100, Note_on_c, 2, 57, 95
5, 11155, Note_off_c, 2, 57, 0
5, 11160, Note_on_c, 2, 53, 90
5, 11275, Note_off_c, 2, 53, 0
5, 11340, Note_on_c, 2, 57, 96
5, 11455, Note_off_c, 2, 57, 0
5, 11460, Note_on_c, 2, 59, 95
5, 11515, Note_off_c, 2, 59, 0
5, 11520, Note_on_c, 2, 60, 94
5, 11635, Note_off_c, 2, 60, 0
5, 11700, Note_on_c, 2, 62, 100
5, 11815, Note_off_c, 2, 62, 0
5, 11820, Note_on_c, 2, 60, 98
5, 11875, Note_off_c, 2, 60, 0
5, 11880, Note_on_c, 2, 62, 99
5, 11995, Note_off_c, 2, 62, 0
5, 12060, Note_on_c, 2, 50, 94
5, 12175, Note_off_c, 2, 50, 0
5, 12180, Note_on_c, 2, 53, 93
5, 12235, Note_off_c, 2, 53, 0
5, 12240, Note_on_c, 2, 52, 96
5, 12265, Note_off_c, 2, 52, 0
5, 12270, Note_on_c, 2, 50, 95
5, 12295, Note_off_c, 2, 50, 0
5, 12300, Note_on_c, 2, 48, 93
5, 12355, Note_off_c, 2, 48, 0
5, 12360, Note_on_c, 2, 50, 94
5, 12415, Note_off_c, 2, 50, 0
5, 12420, Note_on_c, 2, 48, 93
5, 12535, Note_off_c, 2, 48, 0
5, 12540, Note_on_c, 2, 52, 94
5, 12595, Note_off_c, 2, 52, 0
5, 12600, Note_on_c, 2, 55, 95
5, 12715, Note_off_c, 2, 55, 0
5, 12720, Note_on_c, 2, 55, 93
5, 12775, Note_off_c, 2, 55, 0
5, 12780, Note_on_c, 2, 57, 96
5, 12895, Note_off_c, 2, 57, 0
5, 12900, Note_on_c, 2, 55, 94
5, 12955, Note_off_c, 2, 55, 0
5, 12960, Note_on_c, 2, 53, 93
5, 13135, Note_off_c, 2, 53, 0
5, 13140, Note_on_c, 2, 52, 92
5, 13315, Note_off_c, 2, 52, 0
5, 13320, Note_on_c, 2, 50, 90
5, 13502, Control_c, 2, 11, 127
5, 13510, Control_c, 2, 11, 126
5, 13516, Control_c, 2, 11, 125
5, 13520, Control_c, 2, 11, 124
5, 13524, Control_c, 2, 11, 123
5, 13526, Control_c, 2, 11, 121
5, 13528, Control_c, 2, 11, 120
5, 13530, Control_c, 2, 11, 117
5, 13532, Control_c, 2, 11, 114
5, 13534, Control_c, 2, 11, 110
5, 13536, Control_c, 2, 11, 103
5, 13538, Control_c, 2, 11, 96
5, 13540, Note_off_c, 2, 50, 0
5, 13540, Control_c, 2, 11, 84
5, 13677, Control_c, 2, 11, 127
5, 13680, Note_on_c, 2, 53, 93
5, 13795, Note_off_c, 2, 53, 0
5, 13800, Note_on_c, 2, 55, 94
5, 13855, Note_off_c, 2, 55, 0
5, 13860, Note_on_c, 2, 57, 95
5, 13975, Note_off_c, 2, 57, 0
5, 13980, Note_on_c, 2, 57, 93
5, 14035, Note_off_c, 2, 57, 0
5, 14040, Note_on_c, 2, 55, 94
5, 14095, Note_off_c, 2, 55, 0
5, 14100, Note_on_c, 2, 53, 93
5, 14155, Note_off_c, 2, 53, 0
5, 14160, Note_on_c, 2, 52, 92
5, 14215, Note_off_c, 2, 52, 0
5, 14220, Note_on_c, 2, 50, 90
5, 14335, Note_off_c, 2, 50, 0
5, 14340, Note_on_c, 2, 53, 93
5, 14395, Note_off_c, 2, 53, 0
5, 14400, Note_on_c, 2, 55, 94
5, 14455, Note_off_c, 2, 55, 0
5, 14460, Note_on_c, 2, 53, 93
5, 14515, Note_off_c, 2, 53, 0
5, 14520, Note_on_c, 2, 52, 92
5, 14575, Note_off_c, 2, 52, 0
5, 14580, Note_on_c, 2, 50, 90
5, 14695, Note_off_c, 2, 50, 0
5, 14760, Note_on_c, 2, 57, 95
5, 14875, Note_off_c, 2, 57, 0
5, 14880, Note_on_c, 2, 60, 94
5, 14935, Note_off_c, 2, 60, 0
5, 14940, Note_on_c, 2, 57, 95
5, 15055, Note_off_c, 2, 57, 0
5, 15060, Note_on_c, 2, 62, 97
5, 15115, Note_off_c, 2, 62, 0
5, 15120, Note_on_c, 2, 60, 98
5, 15235, Note_off_c, 2, 60, 0
5, 15240, Note_on_c, 2, 59, 100
5, 15259, Note_off_c, 2, 59, 0
5, 15260, Note_on_c, 2, 57, 98
5, 15279, Note_off_c, 2, 57, 0
5, 15280, Note_on_c, 2, 55, 95
5, 15299, Note_off_c, 2, 55, 0
5, 15300, Note_on_c, 2, 57, 95
5, 15415, Note_off_c, 2, 57, 0
5, 15420, Note_on_c, 2, 59, 96
5, 15475, Note_off_c, 2, 59, 0
5, 15480, Note_on_c, 2, 60, 98
5, 15595, Note_off_c, 2, 60, 0
5, 15600, Note_on_c, 2, 59, 100
5, 15619, Note_off_c, 2, 59, 0
5, 15620, Note_on_c, 2, 57, 98
5, 15639, Note_off_c, 2, 57, 0
5, 15640, Note_on_c, 2, 55, 95
5, 15659, Note_off_c, 2, 55, 0
5, 15660, Note_on_c, 2, 57, 92
5, 15775, Note_off_c, 2, 57, 0
5, 15840, Note_on_c, 2, 62, 100
5, 15955, Note_off_c, 2, 62, 0
5, 15960, Note_on_c, 2, 60, 98
5, 16015, Note_off_c, 2, 60, 0
5, 16020, Note_on_c, 2, 57, 99
5, 16135, Note_off_c, 2, 57, 0
5, 16140, Note_on_c, 2, 60, 97
5, 16195, Note_off_c, 2, 60, 0
5, 16200, Note_on_c, 2, 59, 99
5, 16225, Note_off_c, 2, 59, 0
5, 16230, Note_on_c, 2, 57, 98
5, 16255, Note_off_c, 2, 57, 0
5, 16260, Note_on_c, 2, 55, 97
5, 16315, Note_off_c, 2, 55, 0
5, 16320, Note_on_c, 2, 57, 95
5, 16375, Note_off_c, 2, 57, 0
5, 16380, Note_on_c, 2, 53, 95
5, 16495, Note_off_c, 2, 53, 0
5, 16500, Note_on_c, 2, 55, 98
5, 16525, Note_off_c, 2, 55, 0
5, 16530, Note_on_c, 2, 57, 97
5, 16555, Note_off_c, 2, 57, 0
5, 16560, Note_on_c, 2, 55, 95
5, 16675, Note_off_c, 2, 55, 0
5, 16680, Note_on_c, 2, 53, 93
5, 16735, Note_off_c, 2, 53, 0
5, 16740, Note_on_c, 2, 52, 90
5, 16855, Note_off_c, 2, 52, 0
5, 16920, Note_on_c, 2, 53, 94
5, 17035, Note_off_c, 2, 53, 0
5, 17040, Note_on_c, 2, 55, 93
5, 17095, Note_off_c, 2, 55, 0
5, 17100, Note_on_c, 2, 57, 92
5, 17215, Note_off_c, 2, 57, 0
5, 17280, Note_on_c, 2, 62, 100
5, 17395, Note_off_c, 2, 62, 0
5, 17400, Note_on_c, 2, 60, 98
5, 17455, Note_off_c, 2, 60, 0
5, 17460, Note_on_c, 2, 57, 99
5, 17575, Note_off_c, 2, 57, 0
5, 17580, Note_on_c, 2, 60, 97
5, 17635, Note_off_c, 2, 60, 0
5, 17640, Note_on_c, 2, 59, 98
5, 17665, Note_off_c, 2, 59, 0
5, 17670, Note_on_c, 2, 57, 97
5, 17695, Note_off_c, 2, 57, 0
5, 17700, Note_on_c, 2, 55, 96
5, 17755, Note_off_c, 2, 55, 0
5, 17760, Note_on_c, 2, 57, 95
5, 17815, Note_off_c, 2, 57, 0
5, 17820, Note_on_c, 2, 53, 90
5, 17935, Note_off_c, 2, 53, 0
5, 18000, Note_on_c, 2, 57, 96
5, 18115, Note_off_c, 2, 57, 0
5, 18120, Note_on_c, 2, 59, 95
5, 18175, Note_off_c, 2, 59, 0
5, 18180, Note_on_c, 2, 60, 94
5, 18295, Note_off_c, 2, 60, 0
5, 18360, Note_on_c, 2, 62, 100
5, 18475, Note_off_c, 2, 62, 0
5, 18480, Note_on_c, 2, 60, 98
5, 18535, Note_off_c, 2, 60, 0
5, 18540, Note_on_c, 2, 62, 99
5, 18655, Note_off_c, 2, 62, 0
5, 18720, Note_on_c, 2, 50, 94
5, 18835, Note_off_c, 2, 50, 0
5, 18840, Note_on_c, 2, 53, 93
5, 18895, Note_off_c, 2, 53, 0
5, 18900, Note_on_c, 2, 52, 96
5, 18925, Note_off_c, 2, 52, 0
5, 18930, Note_on_c, 2, 50, 95
5, 18955, Note_off_c, 2, 50, 0
5, 18960, Note_on_c, 2, 48, 93
5, 19015, Note_off_c, 2, 48, 0
5, 19020, Note_on_c, 2, 50, 94
5, 19075, Note_off_c, 2, 50, 0
5, 19080, Note_on_c, 2, 48, 93
5, 19195, Note_off_c, 2, 48, 0
5, 19200, Note_on_c, 2, 52, 94
5, 19255, Note_off_c, 2, 52, 0
5, 19260, Note_on_c, 2, 55, 95
5, 19375, Note_off_c, 2, 55, 0
5, 19380, Note_on_c, 2, 55, 93
5, 19435, Note_off_c, 2, 55, 0
5, 19440, Note_on_c, 2, 57, 96
5, 19555, Note_off_c, 2, 57, 0
5, 19560, Note_on_c, 2, 55, 94
5, 19615, Note_off_c, 2, 55, 0
5, 19620, Note_on_c, 2, 53, 93
5, 19795, Note_off_c, 2, 53, 0
5, 19800, Note_on_c, 2, 52, 92
5, 19975, Note_off_c, 2, 52, 0
5, 19980, Note_on_c, 2, 50, 90
5, 20162, Control_c, 2, 11, 127
5, 20170, Control_c, 2, 11, 126
5, 20176, Control_c, 2, 11, 125
5, 20180, Control_c, 2, 11, 124
5, 20184, Control_c, 2, 11, 123
5, 20186, Control_c, 2, 11, 121
5, 20188, Control_c, 2, 11, 120
5, 20190, Control_c, 2, 11, 117
5, 20192, Control_c, 2, 11, 114
5, 20194, Control_c, 2, 11, 110
5, 20196, Control_c, 2, 11, 103
5, 20198, Control_c, 2, 11, 96
5, 20200, Note_off_c, 2, 50, 0
5, 20200, Control_c, 2, 11, 84
5, 20337, Control_c, 2, 11, 127
5, 20340, End_track
6, 0, Start_track
6, 0, Title_t, "Flos Filius                         "
6, 0, MIDI_port, 0
6, 338, Program_c, 3, 70
6, 340, Control_c, 3, 91, 80
6, 343, Control_c, 3, 93, 0
6, 345, Control_c, 3, 94, 0
6, 348, Control_c, 3, 1, 0
6, 350, Control_c, 3, 10, 88
6, 353, Control_c, 3, 11, 127
6, 355, Control_c, 3, 7, 100
6, 358, Control_c, 3, 64, 0
6, 360, Note_on_c, 3, 50, 90
6, 535, Note_off_c, 3, 50, 0
6, 540, Note_on_c, 3, 45, 88
6, 655, Note_off_c, 3, 45, 0
6, 720, Note_on_c, 3, 48, 90
6, 835, Note_off_c, 3, 48, 0
6, 840, Note_on_c, 3, 50, 90
6, 895, Note_off_c, 3, 50, 0
6, 900, Note_on_c, 3, 50, 90
6, 1015, Note_off_c, 3, 50, 0
6, 1020, Note_on_c, 3, 50, 90
6, 1075, Note_off_c, 3, 50, 0
6, 1080, Note_on_c, 3, 48, 87
6, 1195, Note_off_c, 3, 48, 0
6, 1260, Note_on_c, 3, 50, 90
6, 1375, Note_off_c, 3, 50, 0
6, 1380, Note_on_c, 3, 53, 90
6, 1435, Note_off_c, 3, 53, 0
6, 1440, Note_on_c, 3, 50, 90
6, 1555, Note_off_c, 3, 50, 0
6, 1560, Note_on_c, 3, 48, 90
6, 1615, Note_off_c, 3, 48, 0
6, 1620, Note_on_c, 3, 50, 87
6, 1735, Note_off_c, 3, 50, 0
6, 1800, Note_on_c, 3, 53, 93
6, 1915, Note_off_c, 3, 53, 0
6, 1920, Note_on_c, 3, 55, 91
6, 1975, Note_off_c, 3, 55, 0
6, 1980, Note_on_c, 3, 50, 92
6, 2095, Note_off_c, 3, 50, 0
6, 2100, Note_on_c, 3, 52, 90
6, 2155, Note_off_c, 3, 52, 0
6, 2160, Note_on_c, 3, 48, 90
6, 2275, Note_off_c, 3, 48, 0
6, 2340, Note_on_c, 3, 50, 90
6, 2455, Note_off_c, 3, 50, 0
6, 2460, Note_on_c, 3, 53, 90
6, 2515, Note_off_c, 3, 53, 0
6, 2520, Note_on_c, 3, 50, 90
6, 2635, Note_off_c, 3, 50, 0
6, 2640, Note_on_c, 3, 53, 90
6, 2695, Note_off_c, 3, 53, 0
6, 2700, Note_on_c, 3, 57, 88
6, 2815, Note_off_c, 3, 57, 0
6, 2880, Note_on_c, 3, 55, 93
6, 2995, Note_off_c, 3, 55, 0
6, 3000, Note_on_c, 3, 50, 91
6, 3055, Note_off_c, 3, 50, 0
6, 3060, Note_on_c, 3, 53, 92
6, 3175, Note_off_c, 3, 53, 0
6, 3180, Note_on_c, 3, 52, 90
6, 3235, Note_off_c, 3, 52, 0
6, 3240, Note_on_c, 3, 48, 88
6, 3355, Note_off_c, 3, 48, 0
6, 3420, Note_on_c, 3, 45, 90
6, 3535, Note_off_c, 3, 45, 0
6, 3540, Note_on_c, 3, 48, 90
6, 3595, Note_off_c, 3, 48, 0
6, 3600, Note_on_c, 3, 50, 90
6, 3715, Note_off_c, 3, 50, 0
6, 3720, Note_on_c, 3, 48, 90
6, 3775, Note_off_c, 3, 48, 0
6, 3780, Note_on_c, 3, 50, 88
6, 3895, Note_off_c, 3, 50, 0
6, 3960, Note_on_c, 3, 50, 90
6, 4075, Note_off_c, 3, 50, 0
6, 4080, Note_on_c, 3, 53, 90
6, 4135, Note_off_c, 3, 53, 0
6, 4140, Note_on_c, 3, 50, 90
6, 4255, Note_off_c, 3, 50, 0
6, 4260, Note_on_c, 3, 48, 90
6, 4315, Note_off_c, 3, 48, 0
6, 4320, Note_on_c, 3, 50, 88
6, 4435, Note_off_c, 3, 50, 0
6, 4500, Note_on_c, 3, 53, 93
6, 4615, Note_off_c, 3, 53, 0
6, 4620, Note_on_c, 3, 55, 91
6, 4675, Note_off_c, 3, 55, 0
6, 4680, Note_on_c, 3, 50, 92
6, 4795, Note_off_c, 3, 50, 0
6, 4800, Note_on_c, 3, 52, 90
6, 4855, Note_off_c, 3, 52, 0
6, 4860, Note_on_c, 3, 48, 88
6, 4975, Note_off_c, 3, 48, 0
6, 5040, Note_on_c, 3, 50, 90
6, 5155, Note_off_c, 3, 50, 0
6, 5160, Note_on_c, 3, 53, 90
6, 5215, Note_off_c, 3, 53, 0
6, 5220, Note_on_c, 3, 50, 90
6, 5335, Note_off_c, 3, 50, 0
6, 5340, Note_on_c, 3, 53, 90
6, 5395, Note_off_c, 3, 53, 0
6, 5400, Note_on_c, 3, 57, 88
6, 5515, Note_off_c, 3, 57, 0
6, 5580, Note_on_c, 3, 55, 93
6, 5695, Note_off_c, 3, 55, 0
6, 5700, Note_on_c, 3, 50, 91
6, 5755, Note_off_c, 3, 50, 0
6, 5760, Note_on_c, 3, 53, 92
6, 5875, Note_off_c, 3, 53, 0
6, 5880, Note_on_c, 3, 52, 90
6, 5935, Note_off_c, 3, 52, 0
6, 5940, Note_on_c, 3, 48, 88
6, 6055, Note_off_c, 3, 48, 0
6, 6120, Note_on_c, 3, 45, 90
6, 6235, Note_off_c, 3, 45, 0
6, 6240, Note_on_c, 3, 48, 90
6, 6295, Note_off_c, 3, 48, 0
6, 6300, Note_on_c, 3, 50, 90
6, 6475, Note_off_c, 3, 50, 0
6, 6480, Note_on_c, 3, 48, 89
6, 6655, Note_off_c, 3, 48, 0
6, 6660, Note_on_c, 3, 50, 88
6, 6843, Control_c, 3, 11, 127
6, 6851, Control_c, 3, 11, 126
6, 6857, Control_c, 3, 11, 125
6, 6861, Control_c, 3, 11, 124
6, 6865, Control_c, 3, 11, 123
6, 6867, Control_c, 3, 11, 121
6, 6869, Control_c, 3, 11, 120
6, 6871, Control_c, 3, 11, 117
6, 6873, Control_c, 3, 11, 114
6, 6875, Control_c, 3, 11, 110
6, 6877, Control_c, 3, 11, 103
6, 6879, Control_c, 3, 11, 96
6, 6880, Note_off_c, 3, 50, 0
6, 6881, Control_c, 3, 11, 84
6, 7020, Control_c, 3, 11, 127
6, 7020, Note_on_c, 3, 50, 90
6, 7195, Note_off_c, 3, 50, 0
6, 7200, Note_on_c, 3, 45, 88
6, 7315, Note_off_c, 3, 45, 0
6, 7380, Note_on_c, 3, 48, 90
6, 7495, Note_off_c, 3, 48, 0
6, 7500, Note_on_c, 3, 50, 90
6, 7555, Note_off_c, 3, 50, 0
6, 7560, Note_on_c, 3, 50, 90
6, 7675, Note_off_c, 3, 50, 0
6, 7680, Note_on_c, 3, 50, 90
6, 7735, Note_off_c, 3, 50, 0
6, 7740, Note_on_c, 3, 48, 87
6, 7855, Note_off_c, 3, 48, 0
6, 7920, Note_on_c, 3, 50, 90
6, 8035, Note_off_c, 3, 50, 0
6, 8040, Note_on_c, 3, 53, 90
6, 8095, Note_off_c, 3, 53, 0
6, 8100, Note_on_c, 3, 50, 90
6, 8215, Note_off_c, 3, 50, 0
6, 8220, Note_on_c, 3, 48, 90
6, 8275, Note_off_c, 3, 48, 0
6, 8280, Note_on_c, 3, 50, 87
6, 8395, Note_off_c, 3, 50, 0
6, 8460, Note_on_c, 3, 53, 93
6, 8575, Note_off_c, 3, 53, 0
6, 8580, Note_on_c, 3, 55, 91
6, 8635, Note_off_c, 3, 55, 0
6, 8640, Note_on_c, 3, 50, 92
6, 8755, Note_off_c, 3, 50, 0
6, 8760, Note_on_c, 3, 52, 90
6, 8815, Note_off_c, 3, 52, 0
6, 8820, Note_on_c, 3, 48, 90
6, 8935, Note_off_c, 3, 48, 0
6, 9000, Note_on_c, 3, 50, 90
6, 9115, Note_off_c, 3, 50, 0
6, 9120, Note_on_c, 3, 53, 90
6, 9175, Note_off_c, 3, 53, 0
6, 9180, Note_on_c, 3, 50, 90
6, 9295, Note_off_c, 3, 50, 0
6, 9300, Note_on_c, 3, 53, 90
6, 9355, Note_off_c, 3, 53, 0
6, 9360, Note_on_c, 3, 57, 88
6, 9475, Note_off_c, 3, 57, 0
6, 9540, Note_on_c, 3, 55, 93
6, 9655, Note_off_c, 3, 55, 0
6, 9660, Note_on_c, 3, 50, 91
6, 9715, Note_off_c, 3, 50, 0
6, 9720, Note_on_c, 3, 53, 92
6, 9835, Note_off_c, 3, 53, 0
6, 9840, Note_on_c, 3, 52, 90
6, 9895, Note_off_c, 3, 52, 0
6, 9900, Note_on_c, 3, 48, 88
6, 10015, Note_off_c, 3, 48, 0
6, 10080, Note_on_c, 3, 45, 90
6, 10195, Note_off_c, 3, 45, 0
6, 10200, Note_on_c, 3, 48, 90
6, 10255, Note_off_c, 3, 48, 0
6, 10260, Note_on_c, 3, 50, 90
6, 10375, Note_off_c, 3, 50, 0
6, 10380, Note_on_c, 3, 48, 90
6, 10435, Note_off_c, 3, 48, 0
6, 10440, Note_on_c, 3, 50, 88
6, 10555, Note_off_c, 3, 50, 0
6, 10620, Note_on_c, 3, 50, 90
6, 10735, Note_off_c, 3, 50, 0
6, 10740, Note_on_c, 3, 53, 90
6, 10795, Note_off_c, 3, 53, 0
6, 10800, Note_on_c, 3, 50, 90
6, 10915, Note_off_c, 3, 50, 0
6, 10920, Note_on_c, 3, 48, 90
6, 10975, Note_off_c, 3, 48, 0
6, 10980, Note_on_c, 3, 50, 88
6, 11095, Note_off_c, 3, 50, 0
6, 11160, Note_on_c, 3, 53, 93
6, 11275, Note_off_c, 3, 53, 0
6, 11280, Note_on_c, 3, 55, 91
6, 11335, Note_off_c, 3, 55, 0
6, 11340, Note_on_c, 3, 50, 92
6, 11455, Note_off_c, 3, 50, 0
6, 11460, Note_on_c, 3, 52, 90
6, 11515, Note_off_c, 3, 52, 0
6, 11520, Note_on_c, 3, 48, 88
6, 11635, Note_off_c, 3, 48, 0
6, 11700, Note_on_c, 3, 50, 90
6, 11815, Note_off_c, 3, 50, 0
6, 11820, Note_on_c, 3, 53, 90
6, 11875, Note_off_c, 3, 53, 0
6, 11880, Note_on_c, 3, 50, 90
6, 11995, Note_off_c, 3, 50, 0
6, 12000, Note_on_c, 3, 53, 90
6, 12055, Note_off_c, 3, 53, 0
6, 12060, Note_on_c, 3, 57, 88
6, 12175, Note_off_c, 3, 57, 0
6, 12240, Note_on_c, 3, 55, 93
6, 12355, Note_off_c, 3, 55, 0
6, 12360, Note_on_c, 3, 50, 91
6, 12415, Note_off_c, 3, 50, 0
6, 12420, Note_on_c, 3, 53, 92
6, 12535, Note_off_c, 3, 53, 0
6, 12540, Note_on_c, 3, 52, 90
6, 12595, Note_off_c, 3, 52, 0
6, 12600, Note_on_c, 3, 48, 88
6, 12715, Note_off_c, 3, 48, 0
6, 12780, Note_on_c, 3, 45, 90
6, 12895, Note_off_c, 3, 45, 0
6, 12900, Note_on_c, 3, 48, 90
6, 12955, Note_off_c, 3, 48, 0
6, 12960, Note_on_c, 3, 50, 90
6, 13135, Note_off_c, 3, 50, 0
6, 13140, Note_on_c, 3, 48, 89
6, 13315, Note_off_c, 3, 48, 0
6, 13320, Note_on_c, 3, 50, 88
6, 13503, Control_c, 3, 11, 127
6, 13511, Control_c, 3, 11, 126
6, 13517, Control_c, 3, 11, 125
6, 13521, Control_c, 3, 11, 124
6, 13525, Control_c, 3, 11, 123
6, 13527, Control_c, 3, 11, 121
6, 13529, Control_c, 3, 11, 120
6, 13531, Control_c, 3, 11, 117
6, 13533, Control_c, 3, 11, 114
6, 13535, Control_c, 3, 11, 110
6, 13537, Control_c, 3, 11, 103
6, 13539, Control_c, 3, 11, 96
6, 13540, Note_off_c, 3, 50, 0
6, 13541, Control_c, 3, 11, 84
6, 13680, Control_c, 3, 11, 127
6, 13680, Note_on_c, 3, 50, 90
6, 13855, Note_off_c, 3, 50, 0
6, 13860, Note_on_c, 3, 45, 88
6, 13975, Note_off_c, 3, 45, 0
6, 14040, Note_on_c, 3, 48, 90
6, 14155, Note_off_c, 3, 48, 0
6, 14160, Note_on_c, 3, 50, 90
6, 14215, Note_off_c, 3, 50, 0
6, 14220, Note_on_c, 3, 50, 90
6, 14335, Note_off_c, 3, 50, 0
6, 14340, Note_on_c, 3, 50, 90
6, 14395, Note_off_c, 3, 50, 0
6, 14400, Note_on_c, 3, 48, 87
6, 14515, Note_off_c, 3, 48, 0
6, 14580, Note_on_c, 3, 50, 90
6, 14695, Note_off_c, 3, 50, 0
6, 14700, Note_on_c, 3, 53, 90
6, 14755, Note_off_c, 3, 53, 0
6, 14760, Note_on_c, 3, 50, 90
6, 14875, Note_off_c, 3, 50, 0
6, 14880, Note_on_c, 3, 48, 90
6, 14935, Note_off_c, 3, 48, 0
6, 14940, Note_on_c, 3, 50, 87
6, 15055, Note_off_c, 3, 50, 0
6, 15120, Note_on_c, 3, 53, 93
6, 15235, Note_off_c, 3, 53, 0
6, 15240, Note_on_c, 3, 55, 91
6, 15295, Note_off_c, 3, 55, 0
6, 15300, Note_on_c, 3, 50, 92
6, 15415, Note_off_c, 3, 50, 0
6, 15420, Note_on_c, 3, 52, 90
6, 15475, Note_off_c, 3, 52, 0
6, 15480, Note_on_c, 3, 48, 90
6, 15595, Note_off_c, 3, 48, 0
6, 15660, Note_on_c, 3, 50, 90
6, 15775, Note_off_c, 3, 50, 0
6, 15780, Note_on_c, 3, 53, 90
6, 15835, Note_off_c, 3, 53, 0
6, 15840, Note_on_c, 3, 50, 90
6, 15955, Note_off_c, 3, 50, 0
6, 15960, Note_on_c, 3, 53, 90
6, 16015, Note_off_c, 3, 53, 0
6, 16020, Note_on_c, 3, 57, 88
6, 16135, Note_off_c, 3, 57, 0
6, 16200, Note_on_c, 3, 55, 93
6, 16315, Note_off_c, 3, 55, 0
6, 16320, Note_on_c, 3, 50, 91
6, 16375, Note_off_c, 3, 50, 0
6, 16380, Note_on_c, 3, 53, 92
6, 16495, Note_off_c, 3, 53, 0
6, 16500, Note_on_c, 3, 52, 90
6, 16555, Note_off_c, 3, 52, 0
6, 16560, Note_on_c, 3, 48, 88
6, 16675, Note_off_c, 3, 48, 0
6, 16740, Note_on_c, 3, 45, 90
6, 16855, Note_off_c, 3, 45, 0
6, 16860, Note_on_c, 3, 48, 90
6, 16915, Note_off_c, 3, 48, 0
6, 16920, Note_on_c, 3, 50, 90
6, 17035, Note_off_c, 3, 50, 0
6, 17040, Note_on_c, 3, 48, 90
6, 17095, Note_off_c, 3, 48, 0
6, 17100, Note_on_c, 3, 50, 88
6, 17215, Note_off_c, 3, 50, 0
6, 17280, Note_on_c, 3, 50, 90
6, 17395, Note_off_c, 3, 50, 0
6, 17400, Note_on_c, 3, 53, 90
6, 17455, Note_off_c, 3, 53, 0
6, 17460, Note_on_c, 3, 50, 90
6, 17575, Note_off_c, 3, 50, 0
6, 17580, Note_on_c, 3, 48, 90
6, 17635, Note_off_c, 3, 48, 0
6, 17640, Note_on_c, 3, 50, 88
6, 17755, Note_off_c, 3, 50, 0
6, 17820, Note_on_c, 3, 53, 93
6, 17935, Note_off_c, 3, 53, 0
6, 17940, Note_on_c, 3, 55, 91
6, 17995, Note_off_c, 3, 55, 0
6, 18000, Note_on_c, 3, 50, 92
6, 18115, Note_off_c, 3, 50, 0
6, 18120, Note_on_c, 3, 52, 90
6, 18175, Note_off_c, 3, 52, 0
6, 18180, Note_on_c, 3, 48, 88
6, 18295, Note_off_c, 3, 48, 0
6, 18360, Note_on_c, 3, 50, 90
6, 18475, Note_off_c, 3, 50, 0
6, 18480, Note_on_c, 3, 53, 90
6, 18535, Note_off_c, 3, 53, 0
6, 18540, Note_on_c, 3, 50, 90
6, 18655, Note_off_c, 3, 50, 0
6, 18660, Note_on_c, 3, 53, 90
6, 18715, Note_off_c, 3, 53, 0
6, 18720, Note_on_c, 3, 57, 88
6, 18835, Note_off_c, 3, 57, 0
6, 18900, Note_on_c, 3, 55, 93
6, 19015, Note_off_c, 3, 55, 0
6, 19020, Note_on_c, 3, 50, 91
6, 19075, Note_off_c, 3, 50, 0
6, 19080, Note_on_c, 3, 53, 92
6, 19195, Note_off_c, 3, 53, 0
6, 19200, Note_on_c, 3, 52, 90
6, 19255, Note_off_c, 3, 52, 0
6, 19260, Note_on_c, 3, 48, 88
6, 19375, Note_off_c, 3, 48, 0
6, 19440, Note_on_c, 3, 45, 90
6, 19555, Note_off_c, 3, 45, 0
6, 19560, Note_on_c, 3, 48, 90
6, 19615, Note_off_c, 3, 48, 0
6, 19620, Note_on_c, 3, 50, 90
6, 19795, Note_off_c, 3, 50, 0
6, 19800, Note_on_c, 3, 48, 89
6, 19975, Note_off_c, 3, 48, 0
6, 19980, Note_on_c, 3, 50, 88
6, 20163, Control_c, 3, 11, 127
6, 20171, Control_c, 3, 11, 126
6, 20177, Control_c, 3, 11, 125
6, 20181, Control_c, 3, 11, 124
6, 20185, Control_c, 3, 11, 123
6, 20187, Control_c, 3, 11, 121
6, 20189, Control_c, 3, 11, 120
6, 20191, Control_c, 3, 11, 117
6, 20193, Control_c, 3, 11, 114
6, 20195, Control_c, 3, 11, 110
6, 20197, Control_c, 3, 11, 103
6, 20199, Control_c, 3, 11, 96
6, 20200, Note_off_c, 3, 50, 0
6, 20201, Control_c, 3, 11, 84
6, 20340, Control_c, 3, 11, 127
6, 20340, End_track
0, 0, End_of_file
