0, 0, Header, 1, 3, 480
1, 0, Start_track
1, 0, Time_signature, 9, 2, 24, 8
1, 0, Key_signature, 0, "major"
1, 0, Tempo, 444444
1, 0, Control_c, 0, 121, 0
1, 0, Program_c, 0, 75
1, 0, Control_c, 0, 7, 100
1, 0, Control_c, 0, 10, 64
1, 0, Control_c, 0, 91, 0
1, 0, Control_c, 0, 93, 0
1, 0, MIDI_port, 0
1, 0, Note_on_c, 0, 69, 80
1, 959, Note_on_c, 0, 69, 0
1, 960, Note_on_c, 0, 71, 80
1, 1439, Note_on_c, 0, 71, 0
1, 1440, Note_on_c, 0, 69, 80
1, 2879, Note_on_c, 0, 69, 0
1, 2880, Note_on_c, 0, 69, 80
1, 3199, Note_on_c, 0, 69, 0
1, 3200, Note_on_c, 0, 71, 80
1, 3359, Note_on_c, 0, 71, 0
1, 3360, Note_on_c, 0, 69, 80
1, 3679, Note_on_c, 0, 69, 0
1, 3680, Note_on_c, 0, 67, 80
1, 3839, Note_on_c, 0, 67, 0
1, 3840, Note_on_c, 0, 69, 80
1, 4159, Note_on_c, 0, 69, 0
1, 4160, Note_on_c, 0, 66, 80
1, 4319, Note_on_c, 0, 66, 0
1, 4320, Note_on_c, 0, 67, 80
1, 5759, Note_on_c, 0, 67, 0
1, 5760, Note_on_c, 0, 72, 80
1, 6719, Note_on_c, 0, 72, 0
1, 6720, Note_on_c, 0, 71, 80
1, 7199, Note_on_c, 0, 71, 0
1, 7200, Note_on_c, 0, 69, 80
1, 7679, Note_on_c, 0, 69, 0
1, 7680, Note_on_c, 0, 67, 80
1, 8159, Note_on_c, 0, 67, 0
1, 8160, Note_on_c, 0, 69, 80
1, 8639, Note_on_c, 0, 69, 0
1, 8640, Note_on_c, 0, 71, 80
1, 9119, Note_on_c, 0, 71, 0
1, 9120, Note_on_c, 0, 69, 80
1, 9599, Note_on_c, 0, 69, 0
1, 9600, Note_on_c, 0, 67, 80
1, 10079, Note_on_c, 0, 67, 0
1, 10080, Note_on_c, 0, 66, 80
1, 11519, Note_on_c, 0, 66, 0
1, 11520, Note_on_c, 0, 66, 80
1, 11999, Note_on_c, 0, 66, 0
1, 12000, Note_on_c, 0, 64, 80
1, 12319, Note_on_c, 0, 64, 0
1, 12320, Note_on_c, 0, 66, 80
1, 12479, Note_on_c, 0, 66, 0
1, 12480, Note_on_c, 0, 64, 80
1, 12799, Note_on_c, 0, 64, 0
1, 12800, Note_on_c, 0, 66, 80
1, 12959, Note_on_c, 0, 66, 0
1, 12960, Note_on_c, 0, 67, 80
1, 14399, Note_on_c, 0, 67, 0
1, 14400, Note_on_c, 0, 72, 80
1, 14879, Note_on_c, 0, 72, 0
1, 14880, Note_on_c, 0, 72, 80
1, 15039, Note_on_c, 0, 72, 0
1, 15040, Note_on_c, 0, 71, 80
1, 15199, Note_on_c, 0, 71, 0
1, 15200, Note_on_c, 0, 72, 80
1, 15359, Note_on_c, 0, 72, 0
1, 15360, Note_on_c, 0, 71, 80
1, 15679, Note_on_c, 0, 71, 0
1, 15680, Note_on_c, 0, 69, 80
1, 15839, Note_on_c, 0, 69, 0
1, 15840, Note_on_c, 0, 67, 80
1, 16319, Note_on_c, 0, 67, 0
1, 16320, Note_on_c, 0, 67, 80
1, 16639, Note_on_c, 0, 67, 0
1, 16640, Note_on_c, 0, 66, 80
1, 16799, Note_on_c, 0, 66, 0
1, 16800, Note_on_c, 0, 67, 80
1, 17119, Note_on_c, 0, 67, 0
1, 17120, Note_on_c, 0, 64, 80
1, 17279, Note_on_c, 0, 64, 0
1, 17280, Note_on_c, 0, 66, 80
1, 20159, Note_on_c, 0, 66, 0
1, 21600, Note_on_c, 0, 69, 80
1, 22559, Note_on_c, 0, 69, 0
1, 22560, Note_on_c, 0, 67, 80
1, 23039, Note_on_c, 0, 67, 0
1, 23040, Note_on_c, 0, 66, 80
1, 23519, Note_on_c, 0, 66, 0
1, 23520, Note_on_c, 0, 64, 80
1, 23839, Note_on_c, 0, 64, 0
1, 23840, Note_on_c, 0, 66, 80
1, 23999, Note_on_c, 0, 66, 0
1, 24000, Note_on_c, 0, 64, 80
1, 24319, Note_on_c, 0, 64, 0
1, 24320, Note_on_c, 0, 66, 80
1, 24479, Note_on_c, 0, 66, 0
1, 24480, Note_on_c, 0, 67, 80
1, 25919, Note_on_c, 0, 67, 0
1, 27360, Note_on_c, 0, 67, 80
1, 27679, Note_on_c, 0, 67, 0
1, 27680, Note_on_c, 0, 66, 80
1, 27839, Note_on_c, 0, 66, 0
1, 27840, Note_on_c, 0, 67, 80
1, 28159, Note_on_c, 0, 67, 0
1, 28160, Note_on_c, 0, 67, 80
1, 28319, Note_on_c, 0, 67, 0
1, 28320, Note_on_c, 0, 69, 80
1, 28639, Note_on_c, 0, 69, 0
1, 28640, Note_on_c, 0, 71, 80
1, 28799, Note_on_c, 0, 71, 0
1, 28800, Note_on_c, 0, 67, 80
1, 29279, Note_on_c, 0, 67, 0
1, 29280, Note_on_c, 0, 67, 80
1, 30239, Note_on_c, 0, 67, 0
1, 31200, Note_on_c, 0, 64, 80
1, 31679, Note_on_c, 0, 64, 0
1, 31680, Note_on_c, 0, 64, 80
1, 32159, Note_on_c, 0, 64, 0
1, 33120, Note_on_c, 0, 69, 80
1, 33599, Note_on_c, 0, 69, 0
1, 33600, Note_on_c, 0, 69, 80
1, 34079, Note_on_c, 0, 69, 0
1, 34560, Note_on_c, 0, 69, 80
1, 35039, Note_on_c, 0, 69, 0
1, 35040, Note_on_c, 0, 71, 80
1, 35359, Note_on_c, 0, 71, 0
1, 35360, Note_on_c, 0, 69, 80
1, 35519, Note_on_c, 0, 69, 0
1, 35520, Note_on_c, 0, 67, 80
1, 35839, Note_on_c, 0, 67, 0
1, 35840, Note_on_c, 0, 69, 80
1, 35999, Note_on_c, 0, 69, 0
1, 36000, Note_on_c, 0, 71, 80
1, 37439, Note_on_c, 0, 71, 0
1, 37440, Note_on_c, 0, 67, 80
1, 38879, Note_on_c, 0, 67, 0
1, 38880, Note_on_c, 0, 71, 80
1, 39039, Note_on_c, 0, 71, 0
1, 39040, Note_on_c, 0, 69, 80
1, 39199, Note_on_c, 0, 69, 0
1, 39200, Note_on_c, 0, 71, 80
1, 39359, Note_on_c, 0, 71, 0
1, 39360, Note_on_c, 0, 72, 80
1, 39679, Note_on_c, 0, 72, 0
1, 39680, Note_on_c, 0, 71, 80
1, 39839, Note_on_c, 0, 71, 0
1, 39840, Note_on_c, 0, 69, 80
1, 40159, Note_on_c, 0, 69, 0
1, 40160, Note_on_c, 0, 71, 80
1, 40319, Note_on_c, 0, 71, 0
1, 40320, Note_on_c, 0, 67, 80
1, 41759, Note_on_c, 0, 67, 0
1, 41760, Note_on_c, 0, 64, 80
1, 42239, Note_on_c, 0, 64, 0
1, 42240, Note_on_c, 0, 67, 80
1, 42559, Note_on_c, 0, 67, 0
1, 42560, Note_on_c, 0, 69, 80
1, 42719, Note_on_c, 0, 69, 0
1, 42720, Note_on_c, 0, 65, 80
1, 43039, Note_on_c, 0, 65, 0
1, 43040, Note_on_c, 0, 67, 80
1, 43199, Note_on_c, 0, 67, 0
1, 43200, Note_on_c, 0, 69, 80
1, 46079, Note_on_c, 0, 69, 0
1, 47520, Note_on_c, 0, 69, 80
1, 48479, Note_on_c, 0, 69, 0
1, 48480, Note_on_c, 0, 62, 80
1, 48959, Note_on_c, 0, 62, 0
1, 48960, Note_on_c, 0, 69, 80
1, 49439, Note_on_c, 0, 69, 0
1, 49440, Note_on_c, 0, 67, 80
1, 49759, Note_on_c, 0, 67, 0
1, 49760, Note_on_c, 0, 65, 80
1, 49919, Note_on_c, 0, 65, 0
1, 49920, Note_on_c, 0, 64, 80
1, 50239, Note_on_c, 0, 64, 0
1, 50240, Note_on_c, 0, 65, 80
1, 50399, Note_on_c, 0, 65, 0
1, 50400, Note_on_c, 0, 62, 80
1, 51839, Note_on_c, 0, 62, 0
1, 53280, Note_on_c, 0, 67, 80
1, 54719, Note_on_c, 0, 67, 0
1, 54720, Note_on_c, 0, 62, 80
1, 56159, Note_on_c, 0, 62, 0
1, 56160, Note_on_c, 0, 62, 80
1, 56639, Note_on_c, 0, 62, 0
1, 56640, Note_on_c, 0, 65, 80
1, 56959, Note_on_c, 0, 65, 0
1, 56960, Note_on_c, 0, 64, 80
1, 57119, Note_on_c, 0, 64, 0
1, 57120, Note_on_c, 0, 62, 80
1, 57439, Note_on_c, 0, 62, 0
1, 57440, Note_on_c, 0, 64, 80
1, 57599, Note_on_c, 0, 64, 0
1, 57600, Note_on_c, 0, 65, 80
1, 58559, Note_on_c, 0, 65, 0
1, 58560, Note_on_c, 0, 65, 80
1, 59039, Note_on_c, 0, 65, 0
1, 59040, Note_on_c, 0, 72, 80
1, 59359, Note_on_c, 0, 72, 0
1, 59360, Note_on_c, 0, 71, 80
1, 59519, Note_on_c, 0, 71, 0
1, 59520, Note_on_c, 0, 69, 80
1, 59839, Note_on_c, 0, 69, 0
1, 59840, Note_on_c, 0, 71, 80
1, 59999, Note_on_c, 0, 71, 0
1, 60000, Note_on_c, 0, 69, 80
1, 60319, Note_on_c, 0, 69, 0
1, 60320, Note_on_c, 0, 67, 80
1, 60479, Note_on_c, 0, 67, 0
1, 60480, Note_on_c, 0, 69, 80
1, 60799, Note_on_c, 0, 69, 0
1, 60800, Note_on_c, 0, 67, 80
1, 60959, Note_on_c, 0, 67, 0
1, 60960, Note_on_c, 0, 65, 80
1, 61119, Note_on_c, 0, 65, 0
1, 61120, Note_on_c, 0, 64, 80
1, 61279, Note_on_c, 0, 64, 0
1, 61280, Note_on_c, 0, 65, 80
1, 61439, Note_on_c, 0, 65, 0
1, 61440, Note_on_c, 0, 64, 80
1, 61759, Note_on_c, 0, 64, 0
1, 61760, Note_on_c, 0, 62, 80
1, 61919, Note_on_c, 0, 62, 0
1, 61920, Note_on_c, 0, 61, 80
1, 63359, Note_on_c, 0, 61, 0
1, 63360, Note_on_c, 0, 61, 80
1, 63679, Note_on_c, 0, 61, 0
1, 63680, Note_on_c, 0, 62, 80
1, 63839, Note_on_c, 0, 62, 0
1, 63840, Note_on_c, 0, 64, 80
1, 64159, Note_on_c, 0, 64, 0
1, 64160, Note_on_c, 0, 62, 80
1, 64319, Note_on_c, 0, 62, 0
1, 64320, Note_on_c, 0, 61, 80
1, 64639, Note_on_c, 0, 61, 0
1, 64640, Note_on_c, 0, 61, 80
1, 64799, Note_on_c, 0, 61, 0
1, 64800, Note_on_c, 0, 62, 80
1, 66239, Note_on_c, 0, 62, 0
1, 66240, Note_on_c, 0, 71, 80
1, 67679, Note_on_c, 0, 71, 0
1, 67680, Note_on_c, 0, 72, 80
1, 67999, Note_on_c, 0, 72, 0
1, 68000, Note_on_c, 0, 71, 80
1, 68159, Note_on_c, 0, 71, 0
1, 68160, Note_on_c, 0, 69, 80
1, 68479, Note_on_c, 0, 69, 0
1, 68480, Note_on_c, 0, 71, 80
1, 68639, Note_on_c, 0, 71, 0
1, 68640, Note_on_c, 0, 69, 80
1, 68959, Note_on_c, 0, 69, 0
1, 68960, Note_on_c, 0, 67, 80
1, 69119, Note_on_c, 0, 67, 0
1, 69120, Note_on_c, 0, 69, 80
1, 71999, Note_on_c, 0, 69, 0
1, 73440, Note_on_c, 0, 69, 80
1, 74399, Note_on_c, 0, 69, 0
1, 74400, Note_on_c, 0, 67, 80
1, 74879, Note_on_c, 0, 67, 0
1, 74880, Note_on_c, 0, 66, 80
1, 75359, Note_on_c, 0, 66, 0
1, 75360, Note_on_c, 0, 64, 80
1, 75679, Note_on_c, 0, 64, 0
1, 75680, Note_on_c, 0, 66, 80
1, 75839, Note_on_c, 0, 66, 0
1, 75840, Note_on_c, 0, 64, 80
1, 76159, Note_on_c, 0, 64, 0
1, 76160, Note_on_c, 0, 66, 80
1, 76319, Note_on_c, 0, 66, 0
1, 76320, Note_on_c, 0, 67, 80
1, 77759, Note_on_c, 0, 67, 0
1, 79200, Note_on_c, 0, 67, 80
1, 79519, Note_on_c, 0, 67, 0
1, 79520, Note_on_c, 0, 66, 80
1, 79679, Note_on_c, 0, 66, 0
1, 79680, Note_on_c, 0, 67, 80
1, 79999, Note_on_c, 0, 67, 0
1, 80000, Note_on_c, 0, 66, 80
1, 80159, Note_on_c, 0, 66, 0
1, 80160, Note_on_c, 0, 67, 80
1, 80479, Note_on_c, 0, 67, 0
1, 80480, Note_on_c, 0, 69, 80
1, 80639, Note_on_c, 0, 69, 0
1, 80640, Note_on_c, 0, 67, 80
1, 81119, Note_on_c, 0, 67, 0
1, 81120, Note_on_c, 0, 67, 80
1, 82079, Note_on_c, 0, 67, 0
1, 83040, Note_on_c, 0, 69, 80
1, 83519, Note_on_c, 0, 69, 0
1, 83520, Note_on_c, 0, 69, 80
1, 83999, Note_on_c, 0, 69, 0
1, 84960, Note_on_c, 0, 64, 80
1, 85439, Note_on_c, 0, 64, 0
1, 85440, Note_on_c, 0, 64, 80
1, 85919, Note_on_c, 0, 64, 0
1, 86400, Note_on_c, 0, 69, 80
1, 87839, Note_on_c, 0, 69, 0
1, 87840, Note_on_c, 0, 67, 80
1, 88799, Note_on_c, 0, 67, 0
1, 88800, Note_on_c, 0, 66, 80
1, 89279, Note_on_c, 0, 66, 0
1, 89280, Note_on_c, 0, 67, 80
1, 89759, Note_on_c, 0, 67, 0
1, 89760, Note_on_c, 0, 66, 80
1, 90239, Note_on_c, 0, 66, 0
1, 90240, Note_on_c, 0, 67, 80
1, 90719, Note_on_c, 0, 67, 0
1, 90720, Note_on_c, 0, 69, 80
1, 91679, Note_on_c, 0, 69, 0
1, 91680, Note_on_c, 0, 67, 80
1, 92159, Note_on_c, 0, 67, 0
1, 92160, Note_on_c, 0, 66, 80
1, 93599, Note_on_c, 0, 66, 0
1, 93600, Note_on_c, 0, 66, 80
1, 93919, Note_on_c, 0, 66, 0
1, 93920, Note_on_c, 0, 67, 80
1, 94079, Note_on_c, 0, 67, 0
1, 94080, Note_on_c, 0, 69, 80
1, 94399, Note_on_c, 0, 69, 0
1, 94400, Note_on_c, 0, 67, 80
1, 94559, Note_on_c, 0, 67, 0
1, 94560, Note_on_c, 0, 66, 80
1, 94879, Note_on_c, 0, 66, 0
1, 94880, Note_on_c, 0, 64, 80
1, 95039, Note_on_c, 0, 64, 0
1, 95040, Note_on_c, 0, 67, 80
1, 97919, Note_on_c, 0, 67, 0
1, 99360, Note_on_c, 0, 71, 80
1, 100319, Note_on_c, 0, 71, 0
1, 100320, Note_on_c, 0, 72, 80
1, 100799, Note_on_c, 0, 72, 0
1, 100800, Note_on_c, 0, 71, 80
1, 101279, Note_on_c, 0, 71, 0
1, 101280, Note_on_c, 0, 69, 80
1, 101599, Note_on_c, 0, 69, 0
1, 101600, Note_on_c, 0, 67, 80
1, 101759, Note_on_c, 0, 67, 0
1, 101760, Note_on_c, 0, 69, 80
1, 102079, Note_on_c, 0, 69, 0
1, 102080, Note_on_c, 0, 71, 80
1, 102239, Note_on_c, 0, 71, 0
1, 102240, Note_on_c, 0, 67, 80
1, 103679, Note_on_c, 0, 67, 0
1, 105120, Note_on_c, 0, 72, 80
1, 106559, Note_on_c, 0, 72, 0
1, 106560, Note_on_c, 0, 72, 80
1, 106879, Note_on_c, 0, 72, 0
1, 106880, Note_on_c, 0, 72, 80
1, 107039, Note_on_c, 0, 72, 0
1, 107040, Note_on_c, 0, 71, 80
1, 107359, Note_on_c, 0, 71, 0
1, 107360, Note_on_c, 0, 71, 80
1, 107519, Note_on_c, 0, 71, 0
1, 107520, Note_on_c, 0, 69, 80
1, 107839, Note_on_c, 0, 69, 0
1, 107840, Note_on_c, 0, 69, 80
1, 107999, Note_on_c, 0, 69, 0
1, 108000, Note_on_c, 0, 67, 80
1, 108959, Note_on_c, 0, 67, 0
1, 108960, Note_on_c, 0, 67, 80
1, 109439, Note_on_c, 0, 67, 0
1, 109440, Note_on_c, 0, 69, 80
1, 109759, Note_on_c, 0, 69, 0
1, 109760, Note_on_c, 0, 67, 80
1, 109919, Note_on_c, 0, 67, 0
1, 109920, Note_on_c, 0, 67, 80
1, 110239, Note_on_c, 0, 67, 0
1, 110240, Note_on_c, 0, 65, 80
1, 110399, Note_on_c, 0, 65, 0
1, 110400, Note_on_c, 0, 65, 80
1, 110719, Note_on_c, 0, 65, 0
1, 110720, Note_on_c, 0, 64, 80
1, 110879, Note_on_c, 0, 64, 0
1, 110880, Note_on_c, 0, 62, 80
1, 112319, Note_on_c, 0, 62, 0
1, 112320, Note_on_c, 0, 64, 80
1, 113759, Note_on_c, 0, 64, 0
1, 113760, Note_on_c, 0, 66, 80
1, 114239, Note_on_c, 0, 66, 0
1, 114240, Note_on_c, 0, 69, 80
1, 114719, Note_on_c, 0, 69, 0
1, 114720, Note_on_c, 0, 67, 80
1, 115199, Note_on_c, 0, 67, 0
1, 115200, Note_on_c, 0, 66, 80
1, 115679, Note_on_c, 0, 66, 0
1, 115680, Note_on_c, 0, 64, 80
1, 116159, Note_on_c, 0, 64, 0
1, 116160, Note_on_c, 0, 66, 80
1, 116639, Note_on_c, 0, 66, 0
1, 116640, Note_on_c, 0, 67, 80
1, 118079, Note_on_c, 0, 67, 0
1, 118080, Note_on_c, 0, 71, 80
1, 119519, Note_on_c, 0, 71, 0
1, 119520, Note_on_c, 0, 67, 80
1, 119839, Note_on_c, 0, 67, 0
1, 119840, Note_on_c, 0, 69, 80
1, 119999, Note_on_c, 0, 69, 0
1, 120000, Note_on_c, 0, 67, 80
1, 120319, Note_on_c, 0, 67, 0
1, 120320, Note_on_c, 0, 65, 80
1, 120479, Note_on_c, 0, 65, 0
1, 120480, Note_on_c, 0, 67, 80
1, 120799, Note_on_c, 0, 67, 0
1, 120800, Note_on_c, 0, 67, 80
1, 120959, Note_on_c, 0, 67, 0
1, 120960, Note_on_c, 0, 60, 80
1, 123839, Note_on_c, 0, 60, 0
1, 125280, Note_on_c, 0, 67, 80
1, 126239, Note_on_c, 0, 67, 0
1, 126240, Note_on_c, 0, 65, 80
1, 126719, Note_on_c, 0, 65, 0
1, 126720, Note_on_c, 0, 64, 80
1, 127199, Note_on_c, 0, 64, 0
1, 127200, Note_on_c, 0, 64, 80
1, 127519, Note_on_c, 0, 64, 0
1, 127520, Note_on_c, 0, 62, 80
1, 127679, Note_on_c, 0, 62, 0
1, 127680, Note_on_c, 0, 64, 80
1, 127999, Note_on_c, 0, 64, 0
1, 128000, Note_on_c, 0, 60, 80
1, 128159, Note_on_c, 0, 60, 0
1, 128160, Note_on_c, 0, 62, 80
1, 129599, Note_on_c, 0, 62, 0
1, 131040, Note_on_c, 0, 67, 80
1, 131359, Note_on_c, 0, 67, 0
1, 131360, Note_on_c, 0, 69, 80
1, 131519, Note_on_c, 0, 69, 0
1, 131520, Note_on_c, 0, 67, 80
1, 131839, Note_on_c, 0, 67, 0
1, 131840, Note_on_c, 0, 65, 80
1, 131999, Note_on_c, 0, 65, 0
1, 132000, Note_on_c, 0, 64, 80
1, 132319, Note_on_c, 0, 64, 0
1, 132320, Note_on_c, 0, 65, 80
1, 132479, Note_on_c, 0, 65, 0
1, 132480, Note_on_c, 0, 62, 80
1, 132959, Note_on_c, 0, 62, 0
1, 132960, Note_on_c, 0, 62, 80
1, 133919, Note_on_c, 0, 62, 0
1, 134880, Note_on_c, 0, 64, 80
1, 135359, Note_on_c, 0, 64, 0
1, 135360, Note_on_c, 0, 64, 80
1, 135839, Note_on_c, 0, 64, 0
1, 136800, Note_on_c, 0, 60, 80
1, 137279, Note_on_c, 0, 60, 0
1, 137280, Note_on_c, 0, 64, 80
1, 137759, Note_on_c, 0, 64, 0
1, 138240, Note_on_c, 0, 66, 80
1, 139679, Note_on_c, 0, 66, 0
1, 139680, Note_on_c, 0, 62, 80
1, 141119, Note_on_c, 0, 62, 0
1, 141120, Note_on_c, 0, 62, 80
1, 141439, Note_on_c, 0, 62, 0
1, 141440, Note_on_c, 0, 60, 80
1, 141599, Note_on_c, 0, 60, 0
1, 141600, Note_on_c, 0, 62, 80
1, 142079, Note_on_c, 0, 62, 0
1, 142080, Note_on_c, 0, 64, 80
1, 142559, Note_on_c, 0, 64, 0
1, 142560, Note_on_c, 0, 62, 80
1, 143999, Note_on_c, 0, 62, 0
1, 144000, Note_on_c, 0, 64, 80
1, 145439, Note_on_c, 0, 64, 0
1, 145440, Note_on_c, 0, 64, 80
1, 145759, Note_on_c, 0, 64, 0
1, 145760, Note_on_c, 0, 65, 80
1, 145919, Note_on_c, 0, 65, 0
1, 145920, Note_on_c, 0, 67, 80
1, 146239, Note_on_c, 0, 67, 0
1, 146240, Note_on_c, 0, 65, 80
1, 146399, Note_on_c, 0, 65, 0
1, 146400, Note_on_c, 0, 64, 80
1, 146719, Note_on_c, 0, 64, 0
1, 146720, Note_on_c, 0, 62, 80
1, 146879, Note_on_c, 0, 62, 0
1, 146880, Note_on_c, 0, 65, 80
1, 149759, Note_on_c, 0, 65, 0
1, 151200, Note_on_c, 0, 69, 80
1, 152159, Note_on_c, 0, 69, 0
1, 152160, Note_on_c, 0, 62, 80
1, 152639, Note_on_c, 0, 62, 0
1, 152640, Note_on_c, 0, 69, 80
1, 153119, Note_on_c, 0, 69, 0
1, 153120, Note_on_c, 0, 67, 80
1, 153439, Note_on_c, 0, 67, 0
1, 153440, Note_on_c, 0, 69, 80
1, 153599, Note_on_c, 0, 69, 0
1, 153600, Note_on_c, 0, 67, 80
1, 153919, Note_on_c, 0, 67, 0
1, 153920, Note_on_c, 0, 65, 80
1, 154079, Note_on_c, 0, 65, 0
1, 154080, Note_on_c, 0, 64, 80
1, 155519, Note_on_c, 0, 64, 0
1, 155520, Time_signature, 3, 2, 24, 8
1, 156960, Note_on_c, 0, 67, 80
1, 158399, Note_on_c, 0, 67, 0
1, 158720, Note_on_c, 0, 69, 80
1, 158879, Note_on_c, 0, 69, 0
1, 158880, Note_on_c, 0, 71, 80
1, 159359, Note_on_c, 0, 71, 0
1, 159360, Note_on_c, 0, 71, 80
1, 159839, Note_on_c, 0, 71, 0
1, 159840, Note_on_c, 0, 72, 80
1, 160319, Note_on_c, 0, 72, 0
1, 160640, Note_on_c, 0, 67, 80
1, 160799, Note_on_c, 0, 67, 0
1, 160800, Note_on_c, 0, 69, 80
1, 161279, Note_on_c, 0, 69, 0
1, 161280, Note_on_c, 0, 71, 80
1, 162719, Note_on_c, 0, 71, 0
1, 162720, Note_on_c, 0, 67, 80
1, 164159, Note_on_c, 0, 67, 0
1, 164160, Note_on_c, 0, 72, 80
1, 164639, Note_on_c, 0, 72, 0
1, 164640, Note_on_c, 0, 69, 80
1, 165119, Note_on_c, 0, 69, 0
1, 165120, Note_on_c, 0, 72, 80
1, 165599, Note_on_c, 0, 72, 0
1, 165600, Note_on_c, 0, 72, 80
1, 165759, Note_on_c, 0, 72, 0
1, 165760, Note_on_c, 0, 71, 80
1, 165919, Note_on_c, 0, 71, 0
1, 165920, Note_on_c, 0, 72, 80
1, 166079, Note_on_c, 0, 72, 0
1, 166080, Note_on_c, 0, 71, 80
1, 166399, Note_on_c, 0, 71, 0
1, 166400, Note_on_c, 0, 69, 80
1, 166559, Note_on_c, 0, 69, 0
1, 166560, Note_on_c, 0, 67, 80
1, 166879, Note_on_c, 0, 67, 0
1, 166880, Note_on_c, 0, 65, 80
1, 167039, Note_on_c, 0, 65, 0
1, 167360, Note_on_c, 0, 67, 80
1, 167519, Note_on_c, 0, 67, 0
1, 167520, Note_on_c, 0, 67, 80
1, 167999, Note_on_c, 0, 67, 0
1, 168000, Note_on_c, 0, 65, 80
1, 168479, Note_on_c, 0, 65, 0
1, 168480, Note_on_c, 0, 64, 80
1, 168959, Note_on_c, 0, 64, 0
1, 169280, Note_on_c, 0, 60, 80
1, 169439, Note_on_c, 0, 60, 0
1, 169440, Note_on_c, 0, 64, 80
1, 169919, Note_on_c, 0, 64, 0
1, 169920, Note_on_c, 0, 66, 80
1, 170399, Note_on_c, 0, 66, 0
1, 170400, Note_on_c, 0, 67, 80
1, 170719, Note_on_c, 0, 67, 0
1, 170720, Note_on_c, 0, 66, 80
1, 170879, Note_on_c, 0, 66, 0
1, 170880, Note_on_c, 0, 64, 80
1, 171199, Note_on_c, 0, 64, 0
1, 171200, Note_on_c, 0, 66, 80
1, 171359, Note_on_c, 0, 66, 0
1, 171360, Note_on_c, 0, 67, 80
1, 172799, Note_on_c, 0, 67, 0
1, 174240, Note_on_c, 0, 65, 80
1, 175679, Note_on_c, 0, 65, 0
1, 176000, Note_on_c, 0, 69, 80
1, 176159, Note_on_c, 0, 69, 0
1, 176160, Note_on_c, 0, 64, 80
1, 176639, Note_on_c, 0, 64, 0
1, 176640, Note_on_c, 0, 66, 80
1, 177119, Note_on_c, 0, 66, 0
1, 177120, Note_on_c, 0, 67, 80
1, 177599, Note_on_c, 0, 67, 0
1, 177920, Note_on_c, 0, 69, 80
1, 178079, Note_on_c, 0, 69, 0
1, 178080, Note_on_c, 0, 70, 80
1, 178559, Note_on_c, 0, 70, 0
1, 178560, Note_on_c, 0, 69, 80
1, 179999, Note_on_c, 0, 69, 0
1, 180000, Note_on_c, 0, 62, 80
1, 181439, Note_on_c, 0, 62, 0
1, 181440, Note_on_c, 0, 64, 80
1, 181919, Note_on_c, 0, 64, 0
1, 181920, Note_on_c, 0, 64, 80
1, 182079, Note_on_c, 0, 64, 0
1, 182080, Note_on_c, 0, 62, 80
1, 182239, Note_on_c, 0, 62, 0
1, 182240, Note_on_c, 0, 64, 80
1, 182399, Note_on_c, 0, 64, 0
1, 182400, Note_on_c, 0, 60, 80
1, 182719, Note_on_c, 0, 60, 0
1, 182720, Note_on_c, 0, 62, 80
1, 182879, Note_on_c, 0, 62, 0
1, 182880, Note_on_c, 0, 64, 80
1, 184319, Note_on_c, 0, 64, 0
1, 184640, Note_on_c, 0, 67, 80
1, 184799, Note_on_c, 0, 67, 0
1, 184800, Note_on_c, 0, 66, 80
1, 185279, Note_on_c, 0, 66, 0
1, 185280, Note_on_c, 0, 67, 80
1, 185759, Note_on_c, 0, 67, 0
1, 185760, Note_on_c, 0, 69, 80
1, 186239, Note_on_c, 0, 69, 0
1, 186560, Note_on_c, 0, 64, 80
1, 186719, Note_on_c, 0, 64, 0
1, 186720, Note_on_c, 0, 66, 80
1, 187199, Note_on_c, 0, 66, 0
1, 187200, Note_on_c, 0, 67, 80
1, 187679, Note_on_c, 0, 67, 0
1, 187680, Note_on_c, 0, 69, 80
1, 187999, Note_on_c, 0, 69, 0
1, 188000, Note_on_c, 0, 67, 80
1, 188159, Note_on_c, 0, 67, 0
1, 188160, Note_on_c, 0, 65, 80
1, 188479, Note_on_c, 0, 65, 0
1, 188480, Note_on_c, 0, 67, 80
1, 188639, Note_on_c, 0, 67, 0
1, 188640, Note_on_c, 0, 69, 80
1, 190079, Note_on_c, 0, 69, 0
1, 191520, Note_on_c, 0, 67, 80
1, 192959, Note_on_c, 0, 67, 0
1, 193280, Note_on_c, 0, 72, 80
1, 193439, Note_on_c, 0, 72, 0
1, 193440, Note_on_c, 0, 69, 80
1, 193919, Note_on_c, 0, 69, 0
1, 193920, Note_on_c, 0, 72, 80
1, 194399, Note_on_c, 0, 72, 0
1, 194400, Note_on_c, 0, 71, 80
1, 194879, Note_on_c, 0, 71, 0
1, 195200, Note_on_c, 0, 67, 80
1, 195359, Note_on_c, 0, 67, 0
1, 195360, Note_on_c, 0, 71, 80
1, 195839, Note_on_c, 0, 71, 0
1, 195840, Note_on_c, 0, 69, 80
1, 196799, Note_on_c, 0, 69, 0
1, 196800, Note_on_c, 0, 69, 80
1, 197279, Note_on_c, 0, 69, 0
1, 197280, Note_on_c, 0, 69, 80
1, 197599, Note_on_c, 0, 69, 0
1, 197600, Note_on_c, 0, 69, 80
1, 197759, Note_on_c, 0, 69, 0
1, 197760, Note_on_c, 0, 67, 80
1, 198079, Note_on_c, 0, 67, 0
1, 198080, Note_on_c, 0, 69, 80
1, 198239, Note_on_c, 0, 69, 0
1, 198240, Note_on_c, 0, 67, 80
1, 198559, Note_on_c, 0, 67, 0
1, 198560, Note_on_c, 0, 65, 80
1, 198719, Note_on_c, 0, 65, 0
1, 198720, Note_on_c, 0, 67, 80
1, 200159, Note_on_c, 0, 67, 0
1, 200160, Note_on_c, 0, 66, 80
1, 201599, Note_on_c, 0, 66, 0
1, 201920, Note_on_c, 0, 67, 80
1, 202079, Note_on_c, 0, 67, 0
1, 202080, Note_on_c, 0, 62, 80
1, 202559, Note_on_c, 0, 62, 0
1, 202560, Note_on_c, 0, 67, 80
1, 203039, Note_on_c, 0, 67, 0
1, 203040, Note_on_c, 0, 65, 80
1, 203519, Note_on_c, 0, 65, 0
1, 203520, Note_on_c, 0, 64, 80
1, 203999, Note_on_c, 0, 64, 0
1, 204320, Note_on_c, 0, 62, 80
1, 204479, Note_on_c, 0, 62, 0
1, 204480, Tempo, 1333333
1, 204480, Note_on_c, 0, 65, 80
1, 205919, Note_on_c, 0, 65, 0
1, 205920, End_track
2, 0, Start_track
2, 0, Key_signature, 0, "major"
2, 0, Control_c, 1, 121, 0
2, 0, Program_c, 1, 75
2, 0, Control_c, 1, 7, 100
2, 0, Control_c, 1, 10, 64
2, 0, Control_c, 1, 91, 0
2, 0, Control_c, 1, 93, 0
2, 0, MIDI_port, 0
2, 0, Note_on_c, 1, 64, 80
2, 2879, Note_on_c, 1, 64, 0
2, 2880, Note_on_c, 1, 65, 80
2, 3359, Note_on_c, 1, 65, 0
2, 3360, Note_on_c, 1, 64, 80
2, 3839, Note_on_c, 1, 64, 0
2, 3840, Note_on_c, 1, 62, 80
2, 4319, Note_on_c, 1, 62, 0
2, 4320, Note_on_c, 1, 60, 80
2, 5759, Note_on_c, 1, 60, 0
2, 5760, Note_on_c, 1, 67, 80
2, 6239, Note_on_c, 1, 67, 0
2, 6240, Note_on_c, 1, 65, 80
2, 6719, Note_on_c, 1, 65, 0
2, 6720, Note_on_c, 1, 64, 80
2, 7199, Note_on_c, 1, 64, 0
2, 7200, Note_on_c, 1, 64, 80
2, 7679, Note_on_c, 1, 64, 0
2, 7680, Note_on_c, 1, 62, 80
2, 8159, Note_on_c, 1, 62, 0
2, 8160, Note_on_c, 1, 60, 80
2, 8639, Note_on_c, 1, 60, 0
2, 8640, Note_on_c, 1, 59, 80
2, 12959, Note_on_c, 1, 59, 0
2, 12960, Note_on_c, 1, 60, 80
2, 13279, Note_on_c, 1, 60, 0
2, 13280, Note_on_c, 1, 59, 80
2, 13439, Note_on_c, 1, 59, 0
2, 13440, Note_on_c, 1, 60, 80
2, 13919, Note_on_c, 1, 60, 0
2, 13920, Note_on_c, 1, 62, 80
2, 14399, Note_on_c, 1, 62, 0
2, 14400, Note_on_c, 1, 64, 80
2, 15839, Note_on_c, 1, 64, 0
2, 15840, Note_on_c, 1, 67, 80
2, 16319, Note_on_c, 1, 67, 0
2, 16320, Note_on_c, 1, 65, 80
2, 16799, Note_on_c, 1, 65, 0
2, 16800, Note_on_c, 1, 64, 80
2, 17279, Note_on_c, 1, 64, 0
2, 17280, Note_on_c, 1, 62, 80
2, 18719, Note_on_c, 1, 62, 0
2, 20160, Note_on_c, 1, 64, 80
2, 21599, Note_on_c, 1, 64, 0
2, 21600, Note_on_c, 1, 62, 80
2, 24479, Note_on_c, 1, 62, 0
2, 24480, Note_on_c, 1, 60, 80
2, 28799, Note_on_c, 1, 60, 0
2, 30240, Note_on_c, 1, 64, 80
2, 30719, Note_on_c, 1, 64, 0
2, 30720, Note_on_c, 1, 64, 80
2, 31199, Note_on_c, 1, 64, 0
2, 32160, Note_on_c, 1, 60, 80
2, 32639, Note_on_c, 1, 60, 0
2, 32640, Note_on_c, 1, 64, 80
2, 33119, Note_on_c, 1, 64, 0
2, 34080, Note_on_c, 1, 60, 80
2, 34559, Note_on_c, 1, 60, 0
2, 34560, Note_on_c, 1, 62, 80
2, 38879, Note_on_c, 1, 62, 0
2, 38880, Note_on_c, 1, 67, 80
2, 39359, Note_on_c, 1, 67, 0
2, 39360, Note_on_c, 1, 65, 80
2, 39839, Note_on_c, 1, 65, 0
2, 39840, Note_on_c, 1, 64, 80
2, 40319, Note_on_c, 1, 64, 0
2, 40320, Note_on_c, 1, 64, 80
2, 40799, Note_on_c, 1, 64, 0
2, 40800, Note_on_c, 1, 62, 80
2, 41279, Note_on_c, 1, 62, 0
2, 41280, Note_on_c, 1, 60, 80
2, 41759, Note_on_c, 1, 60, 0
2, 41760, Note_on_c, 1, 59, 80
2, 43199, Note_on_c, 1, 59, 0
2, 43200, Note_on_c, 1, 60, 80
2, 44639, Note_on_c, 1, 60, 0
2, 46080, Note_on_c, 1, 60, 80
2, 47519, Note_on_c, 1, 60, 0
2, 47520, Note_on_c, 1, 57, 80
2, 50399, Note_on_c, 1, 57, 0
2, 50400, Note_on_c, 1, 62, 80
2, 53279, Note_on_c, 1, 62, 0
2, 54720, Note_on_c, 1, 67, 80
2, 56159, Note_on_c, 1, 67, 0
2, 56160, Note_on_c, 1, 65, 80
2, 56639, Note_on_c, 1, 65, 0
2, 56640, Note_on_c, 1, 64, 80
2, 57119, Note_on_c, 1, 64, 0
2, 57120, Note_on_c, 1, 65, 80
2, 57599, Note_on_c, 1, 65, 0
2, 57600, Note_on_c, 1, 62, 80
2, 59039, Note_on_c, 1, 62, 0
2, 59040, Note_on_c, 1, 65, 80
2, 59359, Note_on_c, 1, 65, 0
2, 59360, Note_on_c, 1, 67, 80
2, 59519, Note_on_c, 1, 67, 0
2, 59520, Note_on_c, 1, 69, 80
2, 59999, Note_on_c, 1, 69, 0
2, 60000, Note_on_c, 1, 67, 80
2, 60479, Note_on_c, 1, 67, 0
2, 60480, Note_on_c, 1, 66, 80
2, 64799, Note_on_c, 1, 66, 0
2, 64800, Note_on_c, 1, 67, 80
2, 66239, Note_on_c, 1, 67, 0
2, 66240, Note_on_c, 1, 65, 80
2, 66719, Note_on_c, 1, 65, 0
2, 66720, Note_on_c, 1, 64, 80
2, 67199, Note_on_c, 1, 64, 0
2, 67200, Note_on_c, 1, 65, 80
2, 67679, Note_on_c, 1, 65, 0
2, 67680, Note_on_c, 1, 62, 80
2, 68159, Note_on_c, 1, 62, 0
2, 68160, Note_on_c, 1, 64, 80
2, 68639, Note_on_c, 1, 64, 0
2, 68640, Note_on_c, 1, 65, 80
2, 69119, Note_on_c, 1, 65, 0
2, 69120, Note_on_c, 1, 64, 80
2, 70559, Note_on_c, 1, 64, 0
2, 72000, Note_on_c, 1, 60, 80
2, 73439, Note_on_c, 1, 60, 0
2, 73440, Note_on_c, 1, 62, 80
2, 76319, Note_on_c, 1, 62, 0
2, 76320, Note_on_c, 1, 60, 80
2, 80639, Note_on_c, 1, 60, 0
2, 82080, Note_on_c, 1, 60, 80
2, 82559, Note_on_c, 1, 60, 0
2, 82560, Note_on_c, 1, 64, 80
2, 83039, Note_on_c, 1, 64, 0
2, 84000, Note_on_c, 1, 65, 80
2, 84479, Note_on_c, 1, 65, 0
2, 84480, Note_on_c, 1, 64, 80
2, 84959, Note_on_c, 1, 64, 0
2, 85920, Note_on_c, 1, 60, 80
2, 86399, Note_on_c, 1, 60, 0
2, 86400, Note_on_c, 1, 62, 80
2, 90719, Note_on_c, 1, 62, 0
2, 90720, Note_on_c, 1, 64, 80
2, 91199, Note_on_c, 1, 64, 0
2, 91200, Note_on_c, 1, 62, 80
2, 91679, Note_on_c, 1, 62, 0
2, 91680, Note_on_c, 1, 64, 80
2, 92159, Note_on_c, 1, 64, 0
2, 92160, Note_on_c, 1, 61, 80
2, 93119, Note_on_c, 1, 61, 0
2, 93120, Note_on_c, 1, 59, 80
2, 93599, Note_on_c, 1, 59, 0
2, 93600, Note_on_c, 1, 61, 80
2, 94079, Note_on_c, 1, 61, 0
2, 94080, Note_on_c, 1, 59, 80
2, 94559, Note_on_c, 1, 59, 0
2, 94560, Note_on_c, 1, 61, 80
2, 95039, Note_on_c, 1, 61, 0
2, 95040, Note_on_c, 1, 62, 80
2, 96479, Note_on_c, 1, 62, 0
2, 97920, Note_on_c, 1, 62, 80
2, 99359, Note_on_c, 1, 62, 0
2, 99360, Note_on_c, 1, 59, 80
2, 102239, Note_on_c, 1, 59, 0
2, 102240, Note_on_c, 1, 60, 80
2, 105119, Note_on_c, 1, 60, 0
2, 106560, Note_on_c, 1, 65, 80
2, 107519, Note_on_c, 1, 65, 0
2, 107520, Note_on_c, 1, 64, 80
2, 107999, Note_on_c, 1, 64, 0
2, 108000, Note_on_c, 1, 64, 80
2, 108479, Note_on_c, 1, 64, 0
2, 108480, Note_on_c, 1, 62, 80
2, 108959, Note_on_c, 1, 62, 0
2, 108960, Note_on_c, 1, 60, 80
2, 109439, Note_on_c, 1, 60, 0
2, 109440, Note_on_c, 1, 62, 80
2, 110399, Note_on_c, 1, 62, 0
2, 110400, Note_on_c, 1, 60, 80
2, 110879, Note_on_c, 1, 60, 0
2, 110880, Note_on_c, 1, 59, 80
2, 111359, Note_on_c, 1, 59, 0
2, 111360, Note_on_c, 1, 57, 80
2, 111839, Note_on_c, 1, 57, 0
2, 111840, Note_on_c, 1, 59, 80
2, 112319, Note_on_c, 1, 59, 0
2, 112320, Note_on_c, 1, 61, 80
2, 116639, Note_on_c, 1, 61, 0
2, 116640, Note_on_c, 1, 62, 80
2, 118079, Note_on_c, 1, 62, 0
2, 118080, Note_on_c, 1, 62, 80
2, 118399, Note_on_c, 1, 62, 0
2, 118400, Note_on_c, 1, 64, 80
2, 118559, Note_on_c, 1, 64, 0
2, 118560, Note_on_c, 1, 62, 80
2, 119039, Note_on_c, 1, 62, 0
2, 119040, Note_on_c, 1, 60, 80
2, 119519, Note_on_c, 1, 60, 0
2, 119520, Note_on_c, 1, 64, 80
2, 120959, Note_on_c, 1, 64, 0
2, 120960, Note_on_c, 1, 65, 80
2, 122399, Note_on_c, 1, 65, 0
2, 123840, Note_on_c, 1, 62, 80
2, 125279, Note_on_c, 1, 62, 0
2, 125280, Note_on_c, 1, 60, 80
2, 128159, Note_on_c, 1, 60, 0
2, 128160, Note_on_c, 1, 59, 80
2, 132479, Note_on_c, 1, 59, 0
2, 133920, Note_on_c, 1, 60, 80
2, 134399, Note_on_c, 1, 60, 0
2, 134400, Note_on_c, 1, 60, 80
2, 134879, Note_on_c, 1, 60, 0
2, 135840, Note_on_c, 1, 64, 80
2, 136319, Note_on_c, 1, 64, 0
2, 136320, Note_on_c, 1, 62, 80
2, 136799, Note_on_c, 1, 62, 0
2, 137760, Note_on_c, 1, 60, 80
2, 138239, Note_on_c, 1, 60, 0
2, 138240, Note_on_c, 1, 59, 80
2, 142559, Note_on_c, 1, 59, 0
2, 142560, Note_on_c, 1, 67, 80
2, 143039, Note_on_c, 1, 67, 0
2, 143040, Note_on_c, 1, 65, 80
2, 143519, Note_on_c, 1, 65, 0
2, 143520, Note_on_c, 1, 64, 80
2, 143999, Note_on_c, 1, 64, 0
2, 144000, Note_on_c, 1, 62, 80
2, 144319, Note_on_c, 1, 62, 0
2, 144320, Note_on_c, 1, 64, 80
2, 144479, Note_on_c, 1, 64, 0
2, 144480, Note_on_c, 1, 62, 80
2, 144959, Note_on_c, 1, 62, 0
2, 144960, Note_on_c, 1, 60, 80
2, 145439, Note_on_c, 1, 60, 0
2, 145440, Note_on_c, 1, 59, 80
2, 146879, Note_on_c, 1, 59, 0
2, 146880, Note_on_c, 1, 60, 80
2, 148319, Note_on_c, 1, 60, 0
2, 149760, Note_on_c, 1, 60, 80
2, 151199, Note_on_c, 1, 60, 0
2, 151200, Note_on_c, 1, 62, 80
2, 154079, Note_on_c, 1, 62, 0
2, 154080, Note_on_c, 1, 64, 80
2, 156959, Note_on_c, 1, 64, 0
2, 158400, Note_on_c, 1, 66, 80
2, 158879, Note_on_c, 1, 66, 0
2, 159360, Note_on_c, 1, 66, 80
2, 159839, Note_on_c, 1, 66, 0
2, 160320, Note_on_c, 1, 67, 80
2, 160799, Note_on_c, 1, 67, 0
2, 160800, Note_on_c, 1, 64, 80
2, 161279, Note_on_c, 1, 64, 0
2, 161280, Note_on_c, 1, 66, 80
2, 162719, Note_on_c, 1, 66, 0
2, 162720, Note_on_c, 1, 67, 80
2, 163039, Note_on_c, 1, 67, 0
2, 163040, Note_on_c, 1, 65, 80
2, 163199, Note_on_c, 1, 65, 0
2, 163200, Note_on_c, 1, 64, 80
2, 163679, Note_on_c, 1, 64, 0
2, 163680, Note_on_c, 1, 62, 80
2, 164159, Note_on_c, 1, 62, 0
2, 164160, Note_on_c, 1, 65, 80
2, 164639, Note_on_c, 1, 65, 0
2, 164640, Note_on_c, 1, 64, 80
2, 164959, Note_on_c, 1, 64, 0
2, 164960, Note_on_c, 1, 62, 80
2, 165119, Note_on_c, 1, 62, 0
2, 165120, Note_on_c, 1, 64, 80
2, 165599, Note_on_c, 1, 64, 0
2, 165600, Note_on_c, 1, 64, 80
2, 166079, Note_on_c, 1, 64, 0
2, 166080, Note_on_c, 1, 62, 80
2, 166559, Note_on_c, 1, 62, 0
2, 166560, Note_on_c, 1, 60, 80
2, 167039, Note_on_c, 1, 60, 0
2, 167040, Note_on_c, 1, 62, 80
2, 167519, Note_on_c, 1, 62, 0
2, 168000, Note_on_c, 1, 62, 80
2, 168479, Note_on_c, 1, 62, 0
2, 168960, Note_on_c, 1, 64, 80
2, 169439, Note_on_c, 1, 64, 0
2, 169440, Note_on_c, 1, 67, 80
2, 169919, Note_on_c, 1, 67, 0
2, 169920, Note_on_c, 1, 69, 80
2, 171359, Note_on_c, 1, 69, 0
2, 171360, Note_on_c, 1, 67, 80
2, 171839, Note_on_c, 1, 67, 0
2, 171840, Note_on_c, 1, 65, 80
2, 172319, Note_on_c, 1, 65, 0
2, 172320, Note_on_c, 1, 64, 80
2, 172799, Note_on_c, 1, 64, 0
2, 172800, Note_on_c, 1, 62, 80
2, 174239, Note_on_c, 1, 62, 0
2, 175680, Note_on_c, 1, 61, 80
2, 176159, Note_on_c, 1, 61, 0
2, 176640, Note_on_c, 1, 61, 80
2, 177119, Note_on_c, 1, 61, 0
2, 177600, Note_on_c, 1, 64, 80
2, 178079, Note_on_c, 1, 64, 0
2, 178080, Note_on_c, 1, 65, 80
2, 178559, Note_on_c, 1, 65, 0
2, 178560, Note_on_c, 1, 64, 80
2, 179999, Note_on_c, 1, 64, 0
2, 180000, Note_on_c, 1, 69, 80
2, 180479, Note_on_c, 1, 69, 0
2, 180480, Note_on_c, 1, 67, 80
2, 180959, Note_on_c, 1, 67, 0
2, 180960, Note_on_c, 1, 65, 80
2, 181439, Note_on_c, 1, 65, 0
2, 181440, Note_on_c, 1, 67, 80
2, 181919, Note_on_c, 1, 67, 0
2, 181920, Note_on_c, 1, 65, 80
2, 182399, Note_on_c, 1, 65, 0
2, 182400, Note_on_c, 1, 67, 80
2, 182879, Note_on_c, 1, 67, 0
2, 182880, Note_on_c, 1, 69, 80
2, 183359, Note_on_c, 1, 69, 0
2, 183360, Note_on_c, 1, 67, 80
2, 183839, Note_on_c, 1, 67, 0
2, 183840, Note_on_c, 1, 69, 80
2, 184319, Note_on_c, 1, 69, 0
2, 184320, Note_on_c, 1, 62, 80
2, 184799, Note_on_c, 1, 62, 0
2, 185280, Note_on_c, 1, 62, 80
2, 185759, Note_on_c, 1, 62, 0
2, 186240, Note_on_c, 1, 61, 80
2, 186719, Note_on_c, 1, 61, 0
2, 186720, Note_on_c, 1, 61, 80
2, 187199, Note_on_c, 1, 61, 0
2, 187200, Note_on_c, 1, 62, 80
2, 188159, Note_on_c, 1, 62, 0
2, 188160, Note_on_c, 1, 64, 80
2, 188639, Note_on_c, 1, 64, 0
2, 188640, Note_on_c, 1, 65, 80
2, 189119, Note_on_c, 1, 65, 0
2, 189120, Note_on_c, 1, 64, 80
2, 189599, Note_on_c, 1, 64, 0
2, 189600, Note_on_c, 1, 62, 80
2, 190079, Note_on_c, 1, 62, 0
2, 190080, Note_on_c, 1, 65, 80
2, 191519, Note_on_c, 1, 65, 0
2, 192960, Note_on_c, 1, 64, 80
2, 193439, Note_on_c, 1, 64, 0
2, 193920, Note_on_c, 1, 64, 80
2, 194399, Note_on_c, 1, 64, 0
2, 194880, Note_on_c, 1, 67, 80
2, 195359, Note_on_c, 1, 67, 0
2, 195360, Note_on_c, 1, 62, 80
2, 195839, Note_on_c, 1, 62, 0
2, 195840, Note_on_c, 1, 65, 80
2, 197279, Note_on_c, 1, 65, 0
2, 197280, Note_on_c, 1, 62, 80
2, 197759, Note_on_c, 1, 62, 0
2, 197760, Note_on_c, 1, 64, 80
2, 198239, Note_on_c, 1, 64, 0
2, 198240, Note_on_c, 1, 65, 80
2, 198719, Note_on_c, 1, 65, 0
2, 198720, Note_on_c, 1, 64, 80
2, 199679, Note_on_c, 1, 64, 0
2, 199680, Note_on_c, 1, 62, 80
2, 200159, Note_on_c, 1, 62, 0
2, 200160, Note_on_c, 1, 61, 80
2, 200639, Note_on_c, 1, 61, 0
2, 200640, Note_on_c, 1, 59, 80
2, 201119, Note_on_c, 1, 59, 0
2, 201120, Note_on_c, 1, 61, 80
2, 201599, Note_on_c, 1, 61, 0
2, 201600, Note_on_c, 1, 62, 80
2, 202079, Note_on_c, 1, 62, 0
2, 202560, Note_on_c, 1, 62, 80
2, 203039, Note_on_c, 1, 62, 0
2, 203520, Note_on_c, 1, 60, 80
2, 203999, Note_on_c, 1, 60, 0
2, 204000, Note_on_c, 1, 59, 80
2, 204479, Note_on_c, 1, 59, 0
2, 204480, Note_on_c, 1, 60, 80
2, 205919, Note_on_c, 1, 60, 0
2, 205920, End_track
3, 0, Start_track
3, 0, Key_signature, 0, "major"
3, 0, Control_c, 2, 121, 0
3, 0, Program_c, 2, 75
3, 0, Control_c, 2, 7, 100
3, 0, Control_c, 2, 10, 64
3, 0, Control_c, 2, 91, 0
3, 0, Control_c, 2, 93, 0
3, 0, MIDI_port, 0
3, 0, Note_on_c, 2, 57, 80
3, 4319, Note_on_c, 2, 57, 0
3, 4320, Note_on_c, 2, 60, 80
3, 8639, Note_on_c, 2, 60, 0
3, 10080, Note_on_c, 2, 62, 80
3, 12959, Note_on_c, 2, 62, 0
3, 12960, Note_on_c, 2, 60, 80
3, 17279, Note_on_c, 2, 60, 0
3, 17280, Note_on_c, 2, 59, 80
3, 21599, Note_on_c, 2, 59, 0
3, 25920, Note_on_c, 2, 60, 80
3, 30239, Note_on_c, 2, 60, 0
3, 30240, Note_on_c, 2, 57, 80
3, 34559, Note_on_c, 2, 57, 0
3, 36000, Note_on_c, 2, 55, 80
3, 38879, Note_on_c, 2, 55, 0
3, 38880, Note_on_c, 2, 55, 80
3, 43199, Note_on_c, 2, 55, 0
3, 43200, Note_on_c, 2, 53, 80
3, 47519, Note_on_c, 2, 53, 0
3, 51840, Note_on_c, 2, 55, 80
3, 56159, Note_on_c, 2, 55, 0
3, 56160, Note_on_c, 2, 58, 80
3, 60479, Note_on_c, 2, 58, 0
3, 61920, Note_on_c, 2, 57, 80
3, 64799, Note_on_c, 2, 57, 0
3, 64800, Note_on_c, 2, 55, 80
3, 69119, Note_on_c, 2, 55, 0
3, 69120, Note_on_c, 2, 57, 80
3, 73439, Note_on_c, 2, 57, 0
3, 77760, Note_on_c, 2, 60, 80
3, 82079, Note_on_c, 2, 60, 0
3, 82080, Note_on_c, 2, 57, 80
3, 86399, Note_on_c, 2, 57, 0
3, 87840, Note_on_c, 2, 59, 80
3, 90719, Note_on_c, 2, 59, 0
3, 90720, Note_on_c, 2, 57, 80
3, 95039, Note_on_c, 2, 57, 0
3, 95040, Note_on_c, 2, 55, 80
3, 99359, Note_on_c, 2, 55, 0
3, 103680, Note_on_c, 2, 53, 80
3, 107999, Note_on_c, 2, 53, 0
3, 108000, Note_on_c, 2, 55, 80
3, 112319, Note_on_c, 2, 55, 0
3, 113760, Note_on_c, 2, 57, 80
3, 116639, Note_on_c, 2, 57, 0
3, 116640, Note_on_c, 2, 55, 80
3, 120959, Note_on_c, 2, 55, 0
3, 120960, Note_on_c, 2, 53, 80
3, 125279, Note_on_c, 2, 53, 0
3, 129600, Note_on_c, 2, 55, 80
3, 133919, Note_on_c, 2, 55, 0
3, 133920, Note_on_c, 2, 57, 80
3, 138239, Note_on_c, 2, 57, 0
3, 139680, Note_on_c, 2, 55, 80
3, 142559, Note_on_c, 2, 55, 0
3, 142560, Note_on_c, 2, 55, 80
3, 146879, Note_on_c, 2, 55, 0
3, 146880, Note_on_c, 2, 53, 80
3, 151199, Note_on_c, 2, 53, 0
3, 155520, Note_on_c, 2, 57, 80
3, 156959, Note_on_c, 2, 57, 0
3, 156960, Note_on_c, 2, 60, 80
3, 158399, Note_on_c, 2, 60, 0
3, 158880, Note_on_c, 2, 62, 80
3, 159839, Note_on_c, 2, 62, 0
3, 159840, Note_on_c, 2, 60, 80
3, 161279, Note_on_c, 2, 60, 0
3, 161280, Note_on_c, 2, 59, 80
3, 162719, Note_on_c, 2, 59, 0
3, 164160, Note_on_c, 2, 60, 80
3, 165599, Note_on_c, 2, 60, 0
3, 165600, Note_on_c, 2, 57, 80
3, 167039, Note_on_c, 2, 57, 0
3, 167520, Note_on_c, 2, 55, 80
3, 168479, Note_on_c, 2, 55, 0
3, 168480, Note_on_c, 2, 55, 80
3, 169919, Note_on_c, 2, 55, 0
3, 169920, Note_on_c, 2, 53, 80
3, 171359, Note_on_c, 2, 53, 0
3, 172800, Note_on_c, 2, 55, 80
3, 174239, Note_on_c, 2, 55, 0
3, 174240, Note_on_c, 2, 58, 80
3, 175679, Note_on_c, 2, 58, 0
3, 176160, Note_on_c, 2, 57, 80
3, 177119, Note_on_c, 2, 57, 0
3, 177120, Note_on_c, 2, 55, 80
3, 178559, Note_on_c, 2, 55, 0
3, 178560, Note_on_c, 2, 57, 80
3, 179999, Note_on_c, 2, 57, 0
3, 181440, Note_on_c, 2, 60, 80
3, 182879, Note_on_c, 2, 60, 0
3, 182880, Note_on_c, 2, 57, 80
3, 184319, Note_on_c, 2, 57, 0
3, 184800, Note_on_c, 2, 59, 80
3, 185759, Note_on_c, 2, 59, 0
3, 185760, Note_on_c, 2, 57, 80
3, 187199, Note_on_c, 2, 57, 0
3, 187200, Note_on_c, 2, 55, 80
3, 188639, Note_on_c, 2, 55, 0
3, 190080, Note_on_c, 2, 53, 80
3, 191519, Note_on_c, 2, 53, 0
3, 191520, Note_on_c, 2, 55, 80
3, 192959, Note_on_c, 2, 55, 0
3, 193440, Note_on_c, 2, 57, 80
3, 194399, Note_on_c, 2, 57, 0
3, 194400, Note_on_c, 2, 55, 80
3, 195839, Note_on_c, 2, 55, 0
3, 195840, Note_on_c, 2, 53, 80
3, 197279, Note_on_c, 2, 53, 0
3, 198720, Note_on_c, 2, 55, 80
3, 200159, Note_on_c, 2, 55, 0
3, 200160, Note_on_c, 2, 57, 80
3, 201599, Note_on_c, 2, 57, 0
3, 202080, Note_on_c, 2, 55, 80
3, 203039, Note_on_c, 2, 55, 0
3, 203040, Note_on_c, 2, 55, 80
3, 204479, Note_on_c, 2, 55, 0
3, 204480, Note_on_c, 2, 53, 80
3, 205919, Note_on_c, 2, 53, 0
3, 205920, End_track
0, 0, End_of_file
